<svg width="340" height="190" xmlns="http://www.w3.org/2000/svg" style="overflow:visible">
<style>.trade-dot:hover .dot-tip { opacity: 1 !important; } .trade-dot { cursor: crosshair; }</style>
<rect width="340" height="190" fill="#121212" />
<line x1="20" y1="139" x2="320" y2="139" stroke="#232323" stroke-width="1" />
<line x1="20" y1="109" x2="320" y2="109" stroke="#232323" stroke-width="1" />
<line x1="20" y1="94" x2="320" y2="94" stroke="#3C3C3C" stroke-width="1" />
<line x1="20" y1="79" x2="320" y2="79" stroke="#232323" stroke-width="1" />
<line x1="20" y1="49" x2="320" y2="49" stroke="#232323" stroke-width="1" />
<line x1="169" y1="20" x2="169" y2="170" stroke="#232323" stroke-width="1" />
<polyline points="20,93 108,93 119,81 125,86 131,86 137,87 142,72 146,77 153,66 161,60 167,54 172,63 178,52 184,43 189,40 195,46 201,48 208,51 214,50 220,44 226,44 232,58 245,60 253,67 261,64 270,77 279,79 286,69 292,66 297,61 306,46 313,49 318,160" fill="none" stroke="#FFFF00" stroke-width="2" stroke-linejoin="round" />
</svg>