<svg width="340" height="190" xmlns="http://www.w3.org/2000/svg" style="overflow:visible">
<style>.trade-dot:hover .dot-tip { opacity: 1 !important; } .trade-dot { cursor: crosshair; }</style>
<rect width="340" height="190" fill="#312e81" />
<line x1="20" y1="139" x2="320" y2="139" stroke="#232323" stroke-width="1" />
<line x1="20" y1="109" x2="320" y2="109" stroke="#232323" stroke-width="1" />
<line x1="20" y1="94" x2="320" y2="94" stroke="#3C3C3C" stroke-width="1" />
<line x1="20" y1="79" x2="320" y2="79" stroke="#232323" stroke-width="1" />
<line x1="20" y1="49" x2="320" y2="49" stroke="#232323" stroke-width="1" />
<line x1="169" y1="20" x2="169" y2="170" stroke="#232323" stroke-width="1" />
<polyline points="20,93 24,93 34,99 42,124 51,119 62,128 70,133 80,147 89,152 98,155 105,157 113,158 146,156 158,160 171,162 180,163 189,163 197,166 205,167 215,168 224,168 233,168 243,168 252,168 262,168 272,168 281,168 290,168 300,168 311,168 318,168" fill="none" stroke="#FFFF00" stroke-width="2" stroke-linejoin="round" />
</svg>