<svg width="340" height="190" xmlns="http://www.w3.org/2000/svg" style="overflow:visible">
<style>.trade-dot:hover .dot-tip { opacity: 1 !important; } .trade-dot { cursor: crosshair; }</style>
<rect width="340" height="190" fill="#1e293b" />
<line x1="20" y1="139" x2="320" y2="139" stroke="#232323" stroke-width="1" />
<line x1="20" y1="109" x2="320" y2="109" stroke="#232323" stroke-width="1" />
<line x1="20" y1="94" x2="320" y2="94" stroke="#3C3C3C" stroke-width="1" />
<line x1="20" y1="79" x2="320" y2="79" stroke="#232323" stroke-width="1" />
<line x1="20" y1="49" x2="320" y2="49" stroke="#232323" stroke-width="1" />
<line x1="169" y1="20" x2="169" y2="170" stroke="#232323" stroke-width="1" />
<polyline points="20,133 89,133 100,133 107,140 114,140 120,141 124,137 130,142 138,149 143,153 149,156 159,157 165,160 171,161 178,162 186,162 193,163 205,165 210,165 215,165 221,165 226,166 230,166 235,168 241,168 247,168 253,168 286,168 293,168 300,168 308,168 316,168" fill="none" stroke="#FFFF00" stroke-width="2" stroke-linejoin="round" />
</svg>