<svg width="340" height="190" xmlns="http://www.w3.org/2000/svg" style="overflow:visible">
<style>.trade-dot:hover .dot-tip { opacity: 1 !important; } .trade-dot { cursor: crosshair; }</style>
<rect width="340" height="190" fill="#121212" />
<line x1="20" y1="139" x2="320" y2="139" stroke="#232323" stroke-width="1" />
<line x1="20" y1="109" x2="320" y2="109" stroke="#232323" stroke-width="1" />
<line x1="20" y1="94" x2="320" y2="94" stroke="#3C3C3C" stroke-width="1" />
<line x1="20" y1="79" x2="320" y2="79" stroke="#232323" stroke-width="1" />
<line x1="20" y1="49" x2="320" y2="49" stroke="#232323" stroke-width="1" />
<line x1="169" y1="20" x2="169" y2="170" stroke="#232323" stroke-width="1" />
<polyline points="20,102 78,102 90,116 96,95 104,90 111,91 117,105 122,104 126,101 131,95 137,101 143,109 153,126 159,133 164,135 169,127 175,120 181,122 186,130 193,118 198,111 206,110 214,118 219,122 227,98 236,106 247,100 253,78 262,68 274,60 281,64 288,56 295,41 304,22 312,20" fill="none" stroke="#FFFF00" stroke-width="2" stroke-linejoin="round" />
</svg>