<svg width="340" height="190" xmlns="http://www.w3.org/2000/svg" style="overflow:visible">
<style>.trade-dot:hover .dot-tip { opacity: 1 !important; } .trade-dot { cursor: crosshair; }</style>
<rect width="340" height="190" fill="#121212" />
<line x1="20" y1="139" x2="320" y2="139" stroke="#232323" stroke-width="1" />
<line x1="20" y1="109" x2="320" y2="109" stroke="#232323" stroke-width="1" />
<line x1="20" y1="94" x2="320" y2="94" stroke="#3C3C3C" stroke-width="1" />
<line x1="20" y1="79" x2="320" y2="79" stroke="#232323" stroke-width="1" />
<line x1="20" y1="49" x2="320" y2="49" stroke="#232323" stroke-width="1" />
<line x1="169" y1="20" x2="169" y2="170" stroke="#232323" stroke-width="1" />
<polyline points="20,92 26,95 32,81 38,75 44,68 51,60 60,62 67,62 89,65 97,61 103,50 108,52 115,56 123,53 130,53 137,53 143,53 149,52 155,52 161,43 168,41 173,38 179,38 186,35 194,34 205,28 212,28 218,34 234,31 240,35 249,41 257,32 264,28 274,29 279,29 286,25 293,23 300,22 309,21 317,20" fill="none" stroke="#FFFF00" stroke-width="2" stroke-linejoin="round" />
<line x1="20" y1="20" x2="20" y2="170" stroke="#00FFFF" stroke-width="1" stroke-dasharray="3,3" opacity="0.8">
  <title>Next window tilt: ▲UP 52¢</title>
</line>
<rect x="21" y="20" width="46" height="11" rx="2" fill="#000000" fill-opacity="0.8" stroke="#00FFFF" stroke-width="1"/>
<text x="23" y="29" font-size="8" fill="#00FFFF" font-family="monospace" font-weight="bold">▲UP 52¢</text>
<g class="trade-dot">
  <circle cx="42" cy="81" r="5" fill="#00FF00" stroke="#FFFFFF" stroke-width="1">
    <title>Briefing: UP @ 59¢</title>
  </circle>
  <g class="dot-tip" id="tip_0" opacity="0" style="pointer-events:none">
    <rect x="46" y="53" width="116" height="14" rx="3" fill="#000000" fill-opacity="0.85" stroke="#00FF00" stroke-width="1"/>
    <text x="50" y="63" font-size="9" fill="#00FF00" font-family="monospace">Briefing: UP @ 59¢</text>
  </g>
</g>
<g class="trade-dot">
  <circle cx="95" cy="67" r="5" fill="#00FF00" stroke="#FFFFFF" stroke-width="1">
    <title>Nitro: UP @ 68¢</title>
  </circle>
  <g class="dot-tip" id="tip_1" opacity="0" style="pointer-events:none">
    <rect x="99" y="39" width="98" height="14" rx="3" fill="#000000" fill-opacity="0.85" stroke="#00FF00" stroke-width="1"/>
    <text x="103" y="49" font-size="9" fill="#00FF00" font-family="monospace">Nitro: UP @ 68¢</text>
  </g>
</g>
<g class="trade-dot">
  <circle cx="95" cy="67" r="5" fill="#00FF00" stroke="#FFFFFF" stroke-width="1">
    <title>VolSnap: UP @ 68¢</title>
  </circle>
  <g class="dot-tip" id="tip_2" opacity="0" style="pointer-events:none">
    <rect x="99" y="39" width="110" height="14" rx="3" fill="#000000" fill-opacity="0.85" stroke="#00FF00" stroke-width="1"/>
    <text x="103" y="49" font-size="9" fill="#00FF00" font-family="monospace">VolSnap: UP @ 68¢</text>
  </g>
</g>
</svg>