<svg width="340" height="190" xmlns="http://www.w3.org/2000/svg" style="overflow:visible">
<style>.trade-dot:hover .dot-tip { opacity: 1 !important; } .trade-dot { cursor: crosshair; }</style>
<rect width="340" height="190" fill="#121212" />
<line x1="20" y1="139" x2="320" y2="139" stroke="#232323" stroke-width="1" />
<line x1="20" y1="109" x2="320" y2="109" stroke="#232323" stroke-width="1" />
<line x1="20" y1="94" x2="320" y2="94" stroke="#3C3C3C" stroke-width="1" />
<line x1="20" y1="79" x2="320" y2="79" stroke="#232323" stroke-width="1" />
<line x1="20" y1="49" x2="320" y2="49" stroke="#232323" stroke-width="1" />
<line x1="169" y1="20" x2="169" y2="170" stroke="#232323" stroke-width="1" />
<polyline points="20,95 27,101 33,102 41,110 46,122 53,121 62,119 71,130 81,131 87,111 94,114 100,114 106,107 112,100 118,101 124,101 130,103 136,103 143,118 148,125 155,133 160,133 166,133 173,134 178,136 185,136 191,139 199,142 207,143 214,141 222,145 229,146 237,157 243,157 252,158 259,163 269,147 280,146 287,150 294,156 300,162 313,168" fill="none" stroke="#FFFF00" stroke-width="2" stroke-linejoin="round" />
</svg>