<svg width="340" height="190" xmlns="http://www.w3.org/2000/svg" style="overflow:visible">
<style>.trade-dot:hover .dot-tip { opacity: 1 !important; } .trade-dot { cursor: crosshair; }</style>
<rect width="340" height="190" fill="#121212" />
<line x1="20" y1="139" x2="320" y2="139" stroke="#232323" stroke-width="1" />
<line x1="20" y1="109" x2="320" y2="109" stroke="#232323" stroke-width="1" />
<line x1="20" y1="94" x2="320" y2="94" stroke="#3C3C3C" stroke-width="1" />
<line x1="20" y1="79" x2="320" y2="79" stroke="#232323" stroke-width="1" />
<line x1="20" y1="49" x2="320" y2="49" stroke="#232323" stroke-width="1" />
<line x1="169" y1="20" x2="169" y2="170" stroke="#232323" stroke-width="1" />
<polyline points="20,78 20,78 29,89 45,117 56,113 70,114 81,129 87,127 93,121 100,119 107,129 117,121 122,123 128,129 136,142 144,142 150,138 156,139 165,119 173,84 181,76 188,75 196,76 206,77 211,69 217,60 225,34 231,30 241,22 247,24 256,28 263,32 272,30 279,26 285,23 290,22 294,21 301,20 308,20 315,20" fill="none" stroke="#FFFF00" stroke-width="2" stroke-linejoin="round" />
<line x1="20" y1="20" x2="20" y2="170" stroke="#00FFFF" stroke-width="1" stroke-dasharray="3,3" opacity="0.8">
  <title>Next window tilt: ▲UP 55¢</title>
</line>
<rect x="21" y="20" width="46" height="11" rx="2" fill="#000000" fill-opacity="0.8" stroke="#00FFFF" stroke-width="1"/>
<text x="23" y="29" font-size="8" fill="#00FFFF" font-family="monospace" font-weight="bold">▲UP 55¢</text>
<g class="trade-dot">
  <circle cx="41" cy="82" r="5" fill="#00FF00" stroke="#FFFFFF" stroke-width="1">
    <title>Manual: UP @ 57¢</title>
  </circle>
  <g class="dot-tip" id="tip_0" opacity="0" style="pointer-events:none">
    <rect x="45" y="54" width="104" height="14" rx="3" fill="#000000" fill-opacity="0.85" stroke="#00FF00" stroke-width="1"/>
    <text x="49" y="64" font-size="9" fill="#00FF00" font-family="monospace">Manual: UP @ 57¢</text>
  </g>
</g>
<g class="trade-dot">
  <circle cx="63" cy="112" r="5" fill="#00FF00" stroke="#FFFFFF" stroke-width="1">
    <title>Manual: UP @ 38¢</title>
  </circle>
  <g class="dot-tip" id="tip_1" opacity="0" style="pointer-events:none">
    <rect x="67" y="84" width="104" height="14" rx="3" fill="#000000" fill-opacity="0.85" stroke="#00FF00" stroke-width="1"/>
    <text x="71" y="94" font-size="9" fill="#00FF00" font-family="monospace">Manual: UP @ 38¢</text>
  </g>
</g>
<g class="trade-dot">
  <circle cx="86" cy="58" r="5" fill="#FF0000" stroke="#FFFFFF" stroke-width="1">
    <title>Nitro: DOWN @ 74¢</title>
  </circle>
  <g class="dot-tip" id="tip_2" opacity="0" style="pointer-events:none">
    <rect x="90" y="30" width="110" height="14" rx="3" fill="#000000" fill-opacity="0.85" stroke="#FF0000" stroke-width="1"/>
    <text x="94" y="40" font-size="9" fill="#FF0000" font-family="monospace">Nitro: DOWN @ 74¢</text>
  </g>
</g>
<g class="trade-dot">
  <circle cx="86" cy="58" r="5" fill="#FF0000" stroke="#FFFFFF" stroke-width="1">
    <title>VolSnap: DOWN @ 74¢</title>
  </circle>
  <g class="dot-tip" id="tip_3" opacity="0" style="pointer-events:none">
    <rect x="90" y="30" width="122" height="14" rx="3" fill="#000000" fill-opacity="0.85" stroke="#FF0000" stroke-width="1"/>
    <text x="94" y="40" font-size="9" fill="#FF0000" font-family="monospace">VolSnap: DOWN @ 74¢</text>
  </g>
</g>
</svg>