<svg width="340" height="190" xmlns="http://www.w3.org/2000/svg" style="overflow:visible">
<style>.trade-dot:hover .dot-tip { opacity: 1 !important; } .trade-dot { cursor: crosshair; }</style>
<rect width="340" height="190" fill="#312e81" />
<line x1="20" y1="139" x2="320" y2="139" stroke="#232323" stroke-width="1" />
<line x1="20" y1="109" x2="320" y2="109" stroke="#232323" stroke-width="1" />
<line x1="20" y1="94" x2="320" y2="94" stroke="#3C3C3C" stroke-width="1" />
<line x1="20" y1="79" x2="320" y2="79" stroke="#232323" stroke-width="1" />
<line x1="20" y1="49" x2="320" y2="49" stroke="#232323" stroke-width="1" />
<line x1="169" y1="20" x2="169" y2="170" stroke="#232323" stroke-width="1" />
<polyline points="20,72 78,72 90,66 98,54 104,66 111,80 120,90 127,81 133,105 139,121 145,126 152,116 159,119 171,115 177,95 184,96 190,101 197,84 209,72 223,112 231,107 238,99 247,81 257,87 268,119 276,116 286,125 295,155 303,164 313,167" fill="none" stroke="#FFFF00" stroke-width="2" stroke-linejoin="round" />
</svg>