<svg width="340" height="190" xmlns="http://www.w3.org/2000/svg">
<rect width="100%" height="100%" fill="#121212" />
<line x1="20" y1="139" x2="320" y2="139" stroke="#232323" stroke-width="1" />
<line x1="20" y1="109" x2="320" y2="109" stroke="#232323" stroke-width="1" />
<line x1="20" y1="94" x2="320" y2="94" stroke="#3C3C3C" stroke-width="1" />
<line x1="20" y1="79" x2="320" y2="79" stroke="#232323" stroke-width="1" />
<line x1="20" y1="49" x2="320" y2="49" stroke="#232323" stroke-width="1" />
<line x1="169" y1="20" x2="169" y2="170" stroke="#232323" stroke-width="1" />
<polyline points="20,101 23,101 29,109 35,90 40,91 45,93 51,85 57,94 63,107 70,93 75,107 79,140 85,134 90,117 95,118 100,115 109,116 117,125 121,150 126,161 131,165 135,165 140,164 145,160 150,157 160,160 164,160 169,161 177,164 182,163 186,162 192,164 197,160 206,164 210,164 219,166 224,166 228,167 233,167 238,167 243,167 249,167 256,168 263,167 270,167 276,167 282,168 291,168 297,168 304,168 312,168 317,168" fill="none" stroke="#FFFF00" stroke-width="2" stroke-linejoin="round" />
</svg>