<svg width="340" height="190" xmlns="http://www.w3.org/2000/svg">
<rect width="100%" height="100%" fill="#121212" />
<line x1="20" y1="139" x2="320" y2="139" stroke="#232323" stroke-width="1" />
<line x1="20" y1="109" x2="320" y2="109" stroke="#232323" stroke-width="1" />
<line x1="20" y1="94" x2="320" y2="94" stroke="#3C3C3C" stroke-width="1" />
<line x1="20" y1="79" x2="320" y2="79" stroke="#232323" stroke-width="1" />
<line x1="20" y1="49" x2="320" y2="49" stroke="#232323" stroke-width="1" />
<line x1="169" y1="20" x2="169" y2="170" stroke="#232323" stroke-width="1" />
<polyline points="20,91 20,91 26,93 31,89 35,98 40,115 45,122 49,131 54,133 60,145 65,145 69,140 74,148 79,154 83,154 88,147 92,150 97,137 103,145 108,154 113,153 119,154 123,153 128,148 134,151 139,154 144,150 148,154 154,154 159,163 164,162 168,160 173,160 178,158 184,160 190,159 194,165 199,166 203,166 208,166 213,167 217,167 222,167 227,167 236,167 241,167 246,167 250,167 260,167 265,167 270,167 275,167 280,167 285,167 291,167 296,167 301,167 309,167 315,167" fill="none" stroke="#FFFF00" stroke-width="2" stroke-linejoin="round" />
<circle cx="48" cy="66" r="4" fill="#FF0000" stroke="#FFFFFF" stroke-width="1">
  <title>Nitro DOWN (69¢)</title>
</circle>
<circle cx="102" cy="51" r="4" fill="#FF0000" stroke="#FFFFFF" stroke-width="1">
  <title>VolSnap DOWN (79¢)</title>
</circle>
</svg>