<svg width="340" height="190" xmlns="http://www.w3.org/2000/svg">
<rect width="100%" height="100%" fill="#121212" />
<line x1="20" y1="139" x2="320" y2="139" stroke="#232323" stroke-width="1" />
<line x1="20" y1="109" x2="320" y2="109" stroke="#232323" stroke-width="1" />
<line x1="20" y1="94" x2="320" y2="94" stroke="#3C3C3C" stroke-width="1" />
<line x1="20" y1="79" x2="320" y2="79" stroke="#232323" stroke-width="1" />
<line x1="20" y1="49" x2="320" y2="49" stroke="#232323" stroke-width="1" />
<line x1="169" y1="20" x2="169" y2="170" stroke="#232323" stroke-width="1" />
<polyline points="20,92 23,92 28,82 36,80 43,80 48,80 58,94 63,98 69,84 75,70 79,66 85,65 90,69 94,71 99,104 105,119 110,128 116,130 121,133 125,134 131,127 137,111 144,128 156,118 162,123 167,134 171,142 176,139 182,139 186,143 191,158 196,151 202,153 207,157 214,157 220,156 224,152 229,156 233,159 238,155 244,153 248,148 254,145 263,143 268,131 273,136 279,145 288,145 295,153 300,145 307,127 313,106 318,167" fill="none" stroke="#FFFF00" stroke-width="2" stroke-linejoin="round" />
<circle cx="170" cy="58" r="4" fill="#FF0000" stroke="#FFFFFF" stroke-width="1">
  <title>GrindSnap DOWN (74¢)</title>
</circle>
</svg>