<svg width="340" height="190" xmlns="http://www.w3.org/2000/svg">
<rect width="100%" height="100%" fill="#121212" />
<line x1="20" y1="139" x2="320" y2="139" stroke="#232323" stroke-width="1" />
<line x1="20" y1="109" x2="320" y2="109" stroke="#232323" stroke-width="1" />
<line x1="20" y1="94" x2="320" y2="94" stroke="#3C3C3C" stroke-width="1" />
<line x1="20" y1="79" x2="320" y2="79" stroke="#232323" stroke-width="1" />
<line x1="20" y1="49" x2="320" y2="49" stroke="#232323" stroke-width="1" />
<line x1="169" y1="20" x2="169" y2="170" stroke="#232323" stroke-width="1" />
<polyline points="20,92 24,80 28,79 33,82 38,96 44,104 50,112 55,112 61,102 66,105 75,84 83,92 91,104 96,99 103,94 108,98 122,106 128,96 133,97 138,77 149,73 155,78 160,84 165,89 169,101 174,106 185,110 189,113 194,119 202,114 212,95 217,87 231,74 235,66 244,95 249,116 259,106 264,111 270,111 274,93 279,69 285,101 291,93 296,97 300,96 305,113 311,101 316,38" fill="none" stroke="#FFFF00" stroke-width="2" stroke-linejoin="round" />
<circle cx="148" cy="81" r="4" fill="#00FF00" stroke="#FFFFFF" stroke-width="1">
  <title>VolSnap UP (59¢)</title>
</circle>
</svg>