<svg width="340" height="190" xmlns="http://www.w3.org/2000/svg">
<rect width="100%" height="100%" fill="#121212" />
<line x1="20" y1="139" x2="320" y2="139" stroke="#232323" stroke-width="1" />
<line x1="20" y1="109" x2="320" y2="109" stroke="#232323" stroke-width="1" />
<line x1="20" y1="94" x2="320" y2="94" stroke="#3C3C3C" stroke-width="1" />
<line x1="20" y1="79" x2="320" y2="79" stroke="#232323" stroke-width="1" />
<line x1="20" y1="49" x2="320" y2="49" stroke="#232323" stroke-width="1" />
<line x1="169" y1="20" x2="169" y2="170" stroke="#232323" stroke-width="1" />
<polyline points="20,98 23,98 29,95 33,96 38,97 43,99 49,98 55,80 70,66 75,67 80,79 91,79 96,85 101,85 105,83 110,81 114,86 119,73 129,80 136,81 141,96 145,92 150,104 159,104 163,106 168,110 173,116 181,118 187,128 192,117 197,136 206,137 210,134 218,131 223,134 228,148 234,155 239,159 244,157 249,156 254,160 258,166 266,166 271,166 276,166 286,167 292,167 298,167 304,167 309,167 315,167" fill="none" stroke="#FFFF00" stroke-width="2" stroke-linejoin="round" />
<circle cx="172" cy="79" r="4" fill="#FF0000" stroke="#FFFFFF" stroke-width="1">
  <title>VolSnap DOWN (60¢)</title>
</circle>
</svg>