<svg width="340" height="190" xmlns="http://www.w3.org/2000/svg" style="overflow:visible">
<style>.trade-dot:hover .dot-tip { opacity: 1 !important; } .trade-dot { cursor: crosshair; }</style>
<rect width="340" height="190" fill="#4c1d95" />
<line x1="20" y1="139" x2="320" y2="139" stroke="#232323" stroke-width="1" />
<line x1="20" y1="109" x2="320" y2="109" stroke="#232323" stroke-width="1" />
<line x1="20" y1="94" x2="320" y2="94" stroke="#3C3C3C" stroke-width="1" />
<line x1="20" y1="79" x2="320" y2="79" stroke="#232323" stroke-width="1" />
<line x1="20" y1="49" x2="320" y2="49" stroke="#232323" stroke-width="1" />
<line x1="169" y1="20" x2="169" y2="170" stroke="#232323" stroke-width="1" />
<polyline points="20,90 24,90 31,87 37,90 46,99 52,105 59,100 66,101 72,113 82,102 88,89 94,100 100,89 107,93 113,97 119,101 126,89 135,92 141,104 147,82 153,87 159,85 166,81 172,61 179,60 185,55 193,64 199,66 205,46 211,43 217,67 223,60 229,52 235,37 241,41 249,50 256,46 263,47 271,43 279,40 286,33 292,39 299,69 307,25 314,20" fill="none" stroke="#FFFF00" stroke-width="2" stroke-linejoin="round" />
<line x1="20" y1="20" x2="20" y2="170" stroke="#FF00FF" stroke-width="1" stroke-dasharray="3,3" opacity="0.8">
  <title>Next window tilt: ▼DOWN 52¢</title>
</line>
<rect x="21" y="20" width="58" height="11" rx="2" fill="#000000" fill-opacity="0.8" stroke="#FF00FF" stroke-width="1"/>
<text x="23" y="29" font-size="8" fill="#FF00FF" font-family="monospace" font-weight="bold">▼DOWN 52¢</text>
<g class="trade-dot">
  <circle cx="112" cy="94" r="5" fill="#00FF00" stroke="#FFFFFF" stroke-width="1">
    <title>VolSnap: UP @ 50¢</title>
  </circle>
  <g class="dot-tip" id="tip_0" opacity="0" style="pointer-events:none">
    <rect x="116" y="66" width="110" height="14" rx="3" fill="#000000" fill-opacity="0.85" stroke="#00FF00" stroke-width="1"/>
    <text x="120" y="76" font-size="9" fill="#00FF00" font-family="monospace">VolSnap: UP @ 50¢</text>
  </g>
</g>
</svg>