<svg width="340" height="190" xmlns="http://www.w3.org/2000/svg" style="overflow:visible">
<style>.trade-dot:hover .dot-tip { opacity: 1 !important; } .trade-dot { cursor: crosshair; }</style>
<rect width="340" height="190" fill="#312e81" />
<line x1="20" y1="139" x2="320" y2="139" stroke="#232323" stroke-width="1" />
<line x1="20" y1="109" x2="320" y2="109" stroke="#232323" stroke-width="1" />
<line x1="20" y1="94" x2="320" y2="94" stroke="#3C3C3C" stroke-width="1" />
<line x1="20" y1="79" x2="320" y2="79" stroke="#232323" stroke-width="1" />
<line x1="20" y1="49" x2="320" y2="49" stroke="#232323" stroke-width="1" />
<line x1="169" y1="20" x2="169" y2="170" stroke="#232323" stroke-width="1" />
<polyline points="20,96 24,96 34,122 42,131 49,129 58,129 65,128 73,131 79,130 85,125 91,104 99,101 106,95 112,84 118,78 125,60 131,49 137,47 143,45 149,50 155,59 165,60 174,70 182,67 191,84 199,73 206,100 212,93 219,101 226,105 233,98 240,100 248,101 254,104 261,91 268,92 274,77 280,78 286,115 292,124 298,120 305,133 312,109 318,22" fill="none" stroke="#FFFF00" stroke-width="2" stroke-linejoin="round" />
<g class="trade-dot">
  <circle cx="111" cy="95" r="5" fill="#00FF00" stroke="#FFFFFF" stroke-width="1">
    <title>WCP: UP @ 49¢</title>
  </circle>
  <g class="dot-tip" id="tip_0" opacity="0" style="pointer-events:none">
    <rect x="115" y="67" width="86" height="14" rx="3" fill="#000000" fill-opacity="0.85" stroke="#00FF00" stroke-width="1"/>
    <text x="119" y="77" font-size="9" fill="#00FF00" font-family="monospace">WCP: UP @ 49¢</text>
  </g>
</g>
<g class="trade-dot">
  <circle cx="211" cy="87" r="5" fill="#FF0000" stroke="#FFFFFF" stroke-width="1">
    <title>Nitro: DOWN @ 55¢</title>
  </circle>
  <g class="dot-tip" id="tip_1" opacity="0" style="pointer-events:none">
    <rect x="215" y="59" width="110" height="14" rx="3" fill="#000000" fill-opacity="0.85" stroke="#FF0000" stroke-width="1"/>
    <text x="219" y="69" font-size="9" fill="#FF0000" font-family="monospace">Nitro: DOWN @ 55¢</text>
  </g>
</g>
<g class="trade-dot">
  <circle cx="211" cy="87" r="5" fill="#FF0000" stroke="#FFFFFF" stroke-width="1">
    <title>VolSnap: DOWN @ 55¢</title>
  </circle>
  <g class="dot-tip" id="tip_2" opacity="0" style="pointer-events:none">
    <rect x="215" y="59" width="122" height="14" rx="3" fill="#000000" fill-opacity="0.85" stroke="#FF0000" stroke-width="1"/>
    <text x="219" y="69" font-size="9" fill="#FF0000" font-family="monospace">VolSnap: DOWN @ 55¢</text>
  </g>
</g>
</svg>