<svg width="340" height="190" xmlns="http://www.w3.org/2000/svg" style="overflow:visible">
<style>.trade-dot:hover .dot-tip { opacity: 1 !important; } .trade-dot { cursor: crosshair; }</style>
<rect width="340" height="190" fill="#121212" />
<line x1="20" y1="139" x2="320" y2="139" stroke="#232323" stroke-width="1" />
<line x1="20" y1="109" x2="320" y2="109" stroke="#232323" stroke-width="1" />
<line x1="20" y1="94" x2="320" y2="94" stroke="#3C3C3C" stroke-width="1" />
<line x1="20" y1="79" x2="320" y2="79" stroke="#232323" stroke-width="1" />
<line x1="20" y1="49" x2="320" y2="49" stroke="#232323" stroke-width="1" />
<line x1="169" y1="20" x2="169" y2="170" stroke="#232323" stroke-width="1" />
<polyline points="20,77 66,77 82,85 92,108 100,108 109,111 115,108 124,107 130,109 137,122 143,128 149,126 155,134 163,133 169,145 175,152 181,151 187,156 193,161 199,163 206,163 212,159 219,154 225,160 233,164 239,165 245,166 257,166 264,168 271,168 279,168 287,168 294,168 301,168 315,168" fill="none" stroke="#FFFF00" stroke-width="2" stroke-linejoin="round" />
<g class="trade-dot">
  <circle cx="98" cy="81" r="5" fill="#FF0000" stroke="#FFFFFF" stroke-width="1">
    <title>Nitro: DOWN @ 59¢</title>
  </circle>
  <g class="dot-tip" id="tip_0" opacity="0" style="pointer-events:none">
    <rect x="102" y="53" width="110" height="14" rx="3" fill="#000000" fill-opacity="0.85" stroke="#FF0000" stroke-width="1"/>
    <text x="106" y="63" font-size="9" fill="#FF0000" font-family="monospace">Nitro: DOWN @ 59¢</text>
  </g>
</g>
<g class="trade-dot">
  <circle cx="98" cy="81" r="5" fill="#FF0000" stroke="#FFFFFF" stroke-width="1">
    <title>VolSnap: DOWN @ 59¢</title>
  </circle>
  <g class="dot-tip" id="tip_1" opacity="0" style="pointer-events:none">
    <rect x="102" y="53" width="122" height="14" rx="3" fill="#000000" fill-opacity="0.85" stroke="#FF0000" stroke-width="1"/>
    <text x="106" y="63" font-size="9" fill="#FF0000" font-family="monospace">VolSnap: DOWN @ 59¢</text>
  </g>
</g>
</svg>