<svg width="340" height="190" xmlns="http://www.w3.org/2000/svg" style="overflow:visible">
<style>.trade-dot:hover .dot-tip { opacity: 1 !important; } .trade-dot { cursor: crosshair; }</style>
<rect width="340" height="190" fill="#121212" />
<line x1="20" y1="139" x2="320" y2="139" stroke="#232323" stroke-width="1" />
<line x1="20" y1="109" x2="320" y2="109" stroke="#232323" stroke-width="1" />
<line x1="20" y1="94" x2="320" y2="94" stroke="#3C3C3C" stroke-width="1" />
<line x1="20" y1="79" x2="320" y2="79" stroke="#232323" stroke-width="1" />
<line x1="20" y1="49" x2="320" y2="49" stroke="#232323" stroke-width="1" />
<line x1="169" y1="20" x2="169" y2="170" stroke="#232323" stroke-width="1" />
<polyline points="20,90 21,90 35,97 45,95 54,97 63,104 71,81 84,65 93,55 103,51 114,56 123,59 132,52 142,57 151,65 160,76 169,74 178,95 187,126 196,113 211,117 226,138 240,162 251,160 264,165 276,166 290,168 300,168 310,168" fill="none" stroke="#FFFF00" stroke-width="2" stroke-linejoin="round" />
<line x1="20" y1="20" x2="20" y2="170" stroke="#FF00FF" stroke-width="1" stroke-dasharray="3,3" opacity="0.8">
  <title>Next window tilt: ▼DOWN 53¢</title>
</line>
<rect x="21" y="20" width="58" height="11" rx="2" fill="#000000" fill-opacity="0.8" stroke="#FF00FF" stroke-width="1"/>
<text x="23" y="29" font-size="8" fill="#FF00FF" font-family="monospace" font-weight="bold">▼DOWN 53¢</text>
<g class="trade-dot">
  <circle cx="43" cy="91" r="5" fill="#FF0000" stroke="#FFFFFF" stroke-width="1">
    <title>Nitro: DOWN @ 52¢</title>
  </circle>
  <g class="dot-tip" id="tip_0" opacity="0" style="pointer-events:none">
    <rect x="47" y="63" width="110" height="14" rx="3" fill="#000000" fill-opacity="0.85" stroke="#FF0000" stroke-width="1"/>
    <text x="51" y="73" font-size="9" fill="#FF0000" font-family="monospace">Nitro: DOWN @ 52¢</text>
  </g>
</g>
<g class="trade-dot">
  <circle cx="92" cy="70" r="5" fill="#00FF00" stroke="#FFFFFF" stroke-width="1">
    <title>HDO: UP @ 66¢</title>
  </circle>
  <g class="dot-tip" id="tip_1" opacity="0" style="pointer-events:none">
    <rect x="96" y="42" width="86" height="14" rx="3" fill="#000000" fill-opacity="0.85" stroke="#00FF00" stroke-width="1"/>
    <text x="100" y="52" font-size="9" fill="#00FF00" font-family="monospace">HDO: UP @ 66¢</text>
  </g>
</g>
</svg>