<svg width="340" height="190" xmlns="http://www.w3.org/2000/svg" style="overflow:visible">
<style>.trade-dot:hover .dot-tip { opacity: 1 !important; } .trade-dot { cursor: crosshair; }</style>
<rect width="340" height="190" fill="#121212" />
<line x1="20" y1="139" x2="320" y2="139" stroke="#232323" stroke-width="1" />
<line x1="20" y1="109" x2="320" y2="109" stroke="#232323" stroke-width="1" />
<line x1="20" y1="94" x2="320" y2="94" stroke="#3C3C3C" stroke-width="1" />
<line x1="20" y1="79" x2="320" y2="79" stroke="#232323" stroke-width="1" />
<line x1="20" y1="49" x2="320" y2="49" stroke="#232323" stroke-width="1" />
<line x1="169" y1="20" x2="169" y2="170" stroke="#232323" stroke-width="1" />
<polyline points="20,81 34,81 57,66 89,58 113,78 131,97 146,110 161,90 176,99 192,93 209,60 232,55 250,52 267,64 278,83 285,125 304,140" fill="none" stroke="#FFFF00" stroke-width="2" stroke-linejoin="round" />
<line x1="20" y1="20" x2="20" y2="170" stroke="#00FFFF" stroke-width="1" stroke-dasharray="3,3" opacity="0.8">
  <title>Next window tilt: ▲UP 54¢</title>
</line>
<rect x="21" y="20" width="46" height="11" rx="2" fill="#000000" fill-opacity="0.8" stroke="#00FFFF" stroke-width="1"/>
<text x="23" y="29" font-size="8" fill="#00FFFF" font-family="monospace" font-weight="bold">▲UP 54¢</text>
<g class="trade-dot">
  <circle cx="55" cy="79" r="5" fill="#00FF00" stroke="#FFFFFF" stroke-width="1">
    <title>Briefing: UP @ 60¢</title>
  </circle>
  <g class="dot-tip" id="tip_0" opacity="0" style="pointer-events:none">
    <rect x="59" y="51" width="116" height="14" rx="3" fill="#000000" fill-opacity="0.85" stroke="#00FF00" stroke-width="1"/>
    <text x="63" y="61" font-size="9" fill="#00FF00" font-family="monospace">Briefing: UP @ 60¢</text>
  </g>
</g>
<g class="trade-dot">
  <circle cx="111" cy="60" r="5" fill="#00FF00" stroke="#FFFFFF" stroke-width="1">
    <title>VolSnap: UP @ 73¢</title>
  </circle>
  <g class="dot-tip" id="tip_1" opacity="0" style="pointer-events:none">
    <rect x="115" y="32" width="110" height="14" rx="3" fill="#000000" fill-opacity="0.85" stroke="#00FF00" stroke-width="1"/>
    <text x="119" y="42" font-size="9" fill="#00FF00" font-family="monospace">VolSnap: UP @ 73¢</text>
  </g>
</g>
<g class="trade-dot">
  <circle cx="159" cy="79" r="5" fill="#FF0000" stroke="#FFFFFF" stroke-width="1">
    <title>Nitro: DOWN @ 60¢</title>
  </circle>
  <g class="dot-tip" id="tip_2" opacity="0" style="pointer-events:none">
    <rect x="163" y="51" width="110" height="14" rx="3" fill="#000000" fill-opacity="0.85" stroke="#FF0000" stroke-width="1"/>
    <text x="167" y="61" font-size="9" fill="#FF0000" font-family="monospace">Nitro: DOWN @ 60¢</text>
  </g>
</g>
<g class="trade-dot">
  <circle cx="248" cy="55" r="5" fill="#00FF00" stroke="#FFFFFF" stroke-width="1">
    <title>GrindSnap: UP @ 76¢</title>
  </circle>
  <g class="dot-tip" id="tip_3" opacity="0" style="pointer-events:none">
    <rect x="238" y="27" width="122" height="14" rx="3" fill="#000000" fill-opacity="0.85" stroke="#00FF00" stroke-width="1"/>
    <text x="242" y="37" font-size="9" fill="#00FF00" font-family="monospace">GrindSnap: UP @ 76¢</text>
  </g>
</g>
<g class="trade-dot">
  <circle cx="319" cy="58" r="5" fill="#FF0000" stroke="#FFFFFF" stroke-width="1">
    <title>HDO: DOWN @ 74¢</title>
  </circle>
  <g class="dot-tip" id="tip_4" opacity="0" style="pointer-events:none">
    <rect x="238" y="30" width="98" height="14" rx="3" fill="#000000" fill-opacity="0.85" stroke="#FF0000" stroke-width="1"/>
    <text x="242" y="40" font-size="9" fill="#FF0000" font-family="monospace">HDO: DOWN @ 74¢</text>
  </g>
</g>
</svg>