<svg width="340" height="190" xmlns="http://www.w3.org/2000/svg" style="overflow:visible">
<style>.trade-dot:hover .dot-tip { opacity: 1 !important; } .trade-dot { cursor: crosshair; }</style>
<rect width="340" height="190" fill="#121212" />
<line x1="20" y1="139" x2="320" y2="139" stroke="#232323" stroke-width="1" />
<line x1="20" y1="109" x2="320" y2="109" stroke="#232323" stroke-width="1" />
<line x1="20" y1="94" x2="320" y2="94" stroke="#3C3C3C" stroke-width="1" />
<line x1="20" y1="79" x2="320" y2="79" stroke="#232323" stroke-width="1" />
<line x1="20" y1="49" x2="320" y2="49" stroke="#232323" stroke-width="1" />
<line x1="169" y1="20" x2="169" y2="170" stroke="#232323" stroke-width="1" />
<polyline points="20,86 26,86 42,90 54,104 69,93 88,99 102,107 121,98 139,97 157,98 177,95 192,87 204,74 219,82 230,89 246,89 259,89 270,92 280,81 290,52 303,23 313,20" fill="none" stroke="#FFFF00" stroke-width="2" stroke-linejoin="round" />
<line x1="20" y1="20" x2="20" y2="170" stroke="#00FFFF" stroke-width="1" stroke-dasharray="3,3" opacity="0.8">
  <title>Next window tilt: ▲UP 58¢</title>
</line>
<rect x="21" y="20" width="46" height="11" rx="2" fill="#000000" fill-opacity="0.8" stroke="#00FFFF" stroke-width="1"/>
<text x="23" y="29" font-size="8" fill="#00FFFF" font-family="monospace" font-weight="bold">▲UP 58¢</text>
<g class="trade-dot">
  <circle cx="67" cy="85" r="5" fill="#FF0000" stroke="#FFFFFF" stroke-width="1">
    <title>Nitro: DOWN @ 56¢</title>
  </circle>
  <g class="dot-tip" id="tip_0" opacity="0" style="pointer-events:none">
    <rect x="71" y="57" width="110" height="14" rx="3" fill="#000000" fill-opacity="0.85" stroke="#FF0000" stroke-width="1"/>
    <text x="75" y="67" font-size="9" fill="#FF0000" font-family="monospace">Nitro: DOWN @ 56¢</text>
  </g>
</g>
<g class="trade-dot">
  <circle cx="67" cy="85" r="5" fill="#FF0000" stroke="#FFFFFF" stroke-width="1">
    <title>WCP: DOWN @ 56¢</title>
  </circle>
  <g class="dot-tip" id="tip_1" opacity="0" style="pointer-events:none">
    <rect x="71" y="57" width="98" height="14" rx="3" fill="#000000" fill-opacity="0.85" stroke="#FF0000" stroke-width="1"/>
    <text x="75" y="67" font-size="9" fill="#FF0000" font-family="monospace">WCP: DOWN @ 56¢</text>
  </g>
</g>
<g class="trade-dot">
  <circle cx="301" cy="63" r="5" fill="#00FF00" stroke="#FFFFFF" stroke-width="1">
    <title>HDO: UP @ 71¢</title>
  </circle>
  <g class="dot-tip" id="tip_2" opacity="0" style="pointer-events:none">
    <rect x="238" y="35" width="86" height="14" rx="3" fill="#000000" fill-opacity="0.85" stroke="#00FF00" stroke-width="1"/>
    <text x="242" y="45" font-size="9" fill="#00FF00" font-family="monospace">HDO: UP @ 71¢</text>
  </g>
</g>
</svg>