<svg width="340" height="190" xmlns="http://www.w3.org/2000/svg" style="overflow:visible">
<style>.trade-dot:hover .dot-tip { opacity: 1 !important; } .trade-dot { cursor: crosshair; }</style>
<rect width="340" height="190" fill="#121212" />
<line x1="20" y1="139" x2="320" y2="139" stroke="#232323" stroke-width="1" />
<line x1="20" y1="109" x2="320" y2="109" stroke="#232323" stroke-width="1" />
<line x1="20" y1="94" x2="320" y2="94" stroke="#3C3C3C" stroke-width="1" />
<line x1="20" y1="79" x2="320" y2="79" stroke="#232323" stroke-width="1" />
<line x1="20" y1="49" x2="320" y2="49" stroke="#232323" stroke-width="1" />
<line x1="169" y1="20" x2="169" y2="170" stroke="#232323" stroke-width="1" />
<polyline points="20,112 21,112 43,107 62,97 77,69 90,83 102,72 118,94 133,128 150,135 161,129 171,129 180,118 191,132 205,136 213,152 224,163 233,163 244,160 254,160 262,161 271,165 287,167 299,168 312,168" fill="none" stroke="#FFFF00" stroke-width="2" stroke-linejoin="round" />
<line x1="20" y1="20" x2="20" y2="170" stroke="#FF00FF" stroke-width="1" stroke-dasharray="3,3" opacity="0.8">
  <title>Next window tilt: ▼DOWN 59¢</title>
</line>
<rect x="21" y="20" width="58" height="11" rx="2" fill="#000000" fill-opacity="0.8" stroke="#FF00FF" stroke-width="1"/>
<text x="23" y="29" font-size="8" fill="#FF00FF" font-family="monospace" font-weight="bold">▼DOWN 59¢</text>
<g class="trade-dot">
  <circle cx="101" cy="90" r="5" fill="#00FF00" stroke="#FFFFFF" stroke-width="1">
    <title>Nitro: UP @ 53¢</title>
  </circle>
  <g class="dot-tip" id="tip_0" opacity="0" style="pointer-events:none">
    <rect x="105" y="62" width="98" height="14" rx="3" fill="#000000" fill-opacity="0.85" stroke="#00FF00" stroke-width="1"/>
    <text x="109" y="72" font-size="9" fill="#00FF00" font-family="monospace">Nitro: UP @ 53¢</text>
  </g>
</g>
<g class="trade-dot">
  <circle cx="101" cy="90" r="5" fill="#00FF00" stroke="#FFFFFF" stroke-width="1">
    <title>VolSnap: UP @ 53¢</title>
  </circle>
  <g class="dot-tip" id="tip_1" opacity="0" style="pointer-events:none">
    <rect x="105" y="62" width="110" height="14" rx="3" fill="#000000" fill-opacity="0.85" stroke="#00FF00" stroke-width="1"/>
    <text x="109" y="72" font-size="9" fill="#00FF00" font-family="monospace">VolSnap: UP @ 53¢</text>
  </g>
</g>
<g class="trade-dot">
  <circle cx="148" cy="72" r="5" fill="#FF0000" stroke="#FFFFFF" stroke-width="1">
    <title>HDO: DOWN @ 65¢</title>
  </circle>
  <g class="dot-tip" id="tip_2" opacity="0" style="pointer-events:none">
    <rect x="152" y="44" width="98" height="14" rx="3" fill="#000000" fill-opacity="0.85" stroke="#FF0000" stroke-width="1"/>
    <text x="156" y="54" font-size="9" fill="#FF0000" font-family="monospace">HDO: DOWN @ 65¢</text>
  </g>
</g>
</svg>