<svg width="340" height="190" xmlns="http://www.w3.org/2000/svg" style="overflow:visible">
<style>.trade-dot:hover .dot-tip { opacity: 1 !important; } .trade-dot { cursor: crosshair; }</style>
<rect width="340" height="190" fill="#121212" />
<line x1="20" y1="139" x2="320" y2="139" stroke="#232323" stroke-width="1" />
<line x1="20" y1="109" x2="320" y2="109" stroke="#232323" stroke-width="1" />
<line x1="20" y1="94" x2="320" y2="94" stroke="#3C3C3C" stroke-width="1" />
<line x1="20" y1="79" x2="320" y2="79" stroke="#232323" stroke-width="1" />
<line x1="20" y1="49" x2="320" y2="49" stroke="#232323" stroke-width="1" />
<line x1="169" y1="20" x2="169" y2="170" stroke="#232323" stroke-width="1" />
<polyline points="20,97 21,97 33,91 43,99 54,111 63,103 71,90 78,90 84,81 91,57 100,70 109,52 118,63 129,59 141,73 151,69 160,89 167,90 177,82 186,77 194,90 203,95 212,93 219,90 225,95 232,93 239,120 246,142 253,160 264,165 274,168 284,168 292,168 298,168 304,168 310,168 316,168" fill="none" stroke="#FFFF00" stroke-width="2" stroke-linejoin="round" />
<line x1="20" y1="20" x2="20" y2="170" stroke="#00FFFF" stroke-width="1" stroke-dasharray="3,3" opacity="0.8">
  <title>Next window tilt: ▲UP 52¢</title>
</line>
<rect x="21" y="20" width="46" height="11" rx="2" fill="#000000" fill-opacity="0.8" stroke="#00FFFF" stroke-width="1"/>
<text x="23" y="29" font-size="8" fill="#00FFFF" font-family="monospace" font-weight="bold">▲UP 52¢</text>
<g class="trade-dot">
  <circle cx="89" cy="82" r="5" fill="#00FF00" stroke="#FFFFFF" stroke-width="1">
    <title>VolSnap: UP @ 57¢</title>
  </circle>
  <g class="dot-tip" id="tip_0" opacity="0" style="pointer-events:none">
    <rect x="93" y="54" width="110" height="14" rx="3" fill="#000000" fill-opacity="0.85" stroke="#00FF00" stroke-width="1"/>
    <text x="97" y="64" font-size="9" fill="#00FF00" font-family="monospace">VolSnap: UP @ 57¢</text>
  </g>
</g>
<g class="trade-dot">
  <circle cx="127" cy="60" r="5" fill="#00FF00" stroke="#FFFFFF" stroke-width="1">
    <title>Nitro: UP @ 73¢</title>
  </circle>
  <g class="dot-tip" id="tip_1" opacity="0" style="pointer-events:none">
    <rect x="131" y="32" width="98" height="14" rx="3" fill="#000000" fill-opacity="0.85" stroke="#00FF00" stroke-width="1"/>
    <text x="135" y="42" font-size="9" fill="#00FF00" font-family="monospace">Nitro: UP @ 73¢</text>
  </g>
</g>
<g class="trade-dot">
  <circle cx="244" cy="67" r="5" fill="#FF0000" stroke="#FFFFFF" stroke-width="1">
    <title>HDO: DOWN @ 68¢</title>
  </circle>
  <g class="dot-tip" id="tip_2" opacity="0" style="pointer-events:none">
    <rect x="238" y="39" width="98" height="14" rx="3" fill="#000000" fill-opacity="0.85" stroke="#FF0000" stroke-width="1"/>
    <text x="242" y="49" font-size="9" fill="#FF0000" font-family="monospace">HDO: DOWN @ 68¢</text>
  </g>
</g>
</svg>