<svg width="340" height="190" xmlns="http://www.w3.org/2000/svg" style="overflow:visible">
<style>.trade-dot:hover .dot-tip { opacity: 1 !important; } .trade-dot { cursor: crosshair; }</style>
<rect width="340" height="190" fill="#121212" />
<line x1="20" y1="139" x2="320" y2="139" stroke="#232323" stroke-width="1" />
<line x1="20" y1="109" x2="320" y2="109" stroke="#232323" stroke-width="1" />
<line x1="20" y1="94" x2="320" y2="94" stroke="#3C3C3C" stroke-width="1" />
<line x1="20" y1="79" x2="320" y2="79" stroke="#232323" stroke-width="1" />
<line x1="20" y1="49" x2="320" y2="49" stroke="#232323" stroke-width="1" />
<line x1="169" y1="20" x2="169" y2="170" stroke="#232323" stroke-width="1" />
<polyline points="20,90 31,90 43,92 54,65 66,63 77,66 85,76 93,63 102,68 109,87 125,104 135,123 145,148 155,138 164,145 173,142 184,152 194,156 204,157 215,160 225,161 236,166 248,168 260,168 269,168 278,168 292,168 305,168 317,168" fill="none" stroke="#FFFF00" stroke-width="2" stroke-linejoin="round" />
<g class="trade-dot">
  <circle cx="41" cy="85" r="5" fill="#00FF00" stroke="#FFFFFF" stroke-width="1">
    <title>WCP: UP @ 56¢</title>
  </circle>
  <g class="dot-tip" id="tip_0" opacity="0" style="pointer-events:none">
    <rect x="45" y="57" width="86" height="14" rx="3" fill="#000000" fill-opacity="0.85" stroke="#00FF00" stroke-width="1"/>
    <text x="49" y="67" font-size="9" fill="#00FF00" font-family="monospace">WCP: UP @ 56¢</text>
  </g>
</g>
<g class="trade-dot">
  <circle cx="65" cy="72" r="5" fill="#00FF00" stroke="#FFFFFF" stroke-width="1">
    <title>Nitro: UP @ 65¢</title>
  </circle>
  <g class="dot-tip" id="tip_1" opacity="0" style="pointer-events:none">
    <rect x="69" y="44" width="98" height="14" rx="3" fill="#000000" fill-opacity="0.85" stroke="#00FF00" stroke-width="1"/>
    <text x="73" y="54" font-size="9" fill="#00FF00" font-family="monospace">Nitro: UP @ 65¢</text>
  </g>
</g>
<g class="trade-dot">
  <circle cx="91" cy="82" r="5" fill="#00FF00" stroke="#FFFFFF" stroke-width="1">
    <title>VolSnap: UP @ 57¢</title>
  </circle>
  <g class="dot-tip" id="tip_2" opacity="0" style="pointer-events:none">
    <rect x="95" y="54" width="110" height="14" rx="3" fill="#000000" fill-opacity="0.85" stroke="#00FF00" stroke-width="1"/>
    <text x="99" y="64" font-size="9" fill="#00FF00" font-family="monospace">VolSnap: UP @ 57¢</text>
  </g>
</g>
<g class="trade-dot">
  <circle cx="143" cy="63" r="5" fill="#FF0000" stroke="#FFFFFF" stroke-width="1">
    <title>HDO: DOWN @ 71¢</title>
  </circle>
  <g class="dot-tip" id="tip_3" opacity="0" style="pointer-events:none">
    <rect x="147" y="35" width="98" height="14" rx="3" fill="#000000" fill-opacity="0.85" stroke="#FF0000" stroke-width="1"/>
    <text x="151" y="45" font-size="9" fill="#FF0000" font-family="monospace">HDO: DOWN @ 71¢</text>
  </g>
</g>
</svg>