<svg width="340" height="190" xmlns="http://www.w3.org/2000/svg" style="overflow:visible">
<style>.trade-dot:hover .dot-tip { opacity: 1 !important; } .trade-dot { cursor: crosshair; }</style>
<rect width="340" height="190" fill="#121212" />
<line x1="20" y1="139" x2="320" y2="139" stroke="#232323" stroke-width="1" />
<line x1="20" y1="109" x2="320" y2="109" stroke="#232323" stroke-width="1" />
<line x1="20" y1="94" x2="320" y2="94" stroke="#3C3C3C" stroke-width="1" />
<line x1="20" y1="79" x2="320" y2="79" stroke="#232323" stroke-width="1" />
<line x1="20" y1="49" x2="320" y2="49" stroke="#232323" stroke-width="1" />
<line x1="169" y1="20" x2="169" y2="170" stroke="#232323" stroke-width="1" />
<polyline points="20,101 26,101 33,92 46,119 65,116 79,115 89,114 101,93 116,91 125,95 133,94 140,94 151,98 159,62 170,62 177,60 185,63 194,64 202,66 209,48 216,40 225,45 231,43 237,37 245,37 252,37 258,32 264,31 271,29 277,29 283,29 292,25 299,23 309,21 316,20" fill="none" stroke="#FFFF00" stroke-width="2" stroke-linejoin="round" />
<line x1="20" y1="20" x2="20" y2="170" stroke="#FF00FF" stroke-width="1" stroke-dasharray="3,3" opacity="0.8">
  <title>Next window tilt: ▼DOWN 57¢</title>
</line>
<rect x="21" y="20" width="58" height="11" rx="2" fill="#000000" fill-opacity="0.8" stroke="#FF00FF" stroke-width="1"/>
<text x="23" y="29" font-size="8" fill="#FF00FF" font-family="monospace" font-weight="bold">▼DOWN 57¢</text>
<g class="trade-dot">
  <circle cx="63" cy="69" r="5" fill="#FF0000" stroke="#FFFFFF" stroke-width="1">
    <title>WCP: DOWN @ 67¢</title>
  </circle>
  <g class="dot-tip" id="tip_0" opacity="0" style="pointer-events:none">
    <rect x="67" y="41" width="98" height="14" rx="3" fill="#000000" fill-opacity="0.85" stroke="#FF0000" stroke-width="1"/>
    <text x="71" y="51" font-size="9" fill="#FF0000" font-family="monospace">WCP: DOWN @ 67¢</text>
  </g>
</g>
</svg>