<svg width="340" height="190" xmlns="http://www.w3.org/2000/svg" style="overflow:visible">
<style>.trade-dot:hover .dot-tip { opacity: 1 !important; } .trade-dot { cursor: crosshair; }</style>
<rect width="340" height="190" fill="#121212" />
<line x1="20" y1="139" x2="320" y2="139" stroke="#232323" stroke-width="1" />
<line x1="20" y1="109" x2="320" y2="109" stroke="#232323" stroke-width="1" />
<line x1="20" y1="94" x2="320" y2="94" stroke="#3C3C3C" stroke-width="1" />
<line x1="20" y1="79" x2="320" y2="79" stroke="#232323" stroke-width="1" />
<line x1="20" y1="49" x2="320" y2="49" stroke="#232323" stroke-width="1" />
<line x1="169" y1="20" x2="169" y2="170" stroke="#232323" stroke-width="1" />
<polyline points="20,107 23,107 35,119 47,122 57,122 66,108 75,104 82,114 90,117 98,114 108,108 116,118 128,111 137,119 144,107 150,110 156,109 162,113 169,116 174,117 182,93 189,94 195,90 204,85 212,87 219,93 225,107 231,123 235,122 242,129 252,116 261,85 269,100 276,59 282,104 289,89 295,98 305,136 311,126 317,160" fill="none" stroke="#FFFF00" stroke-width="2" stroke-linejoin="round" />
<line x1="20" y1="20" x2="20" y2="170" stroke="#FF00FF" stroke-width="1" stroke-dasharray="3,3" opacity="0.8">
  <title>Next window tilt: ▼DOWN 52¢</title>
</line>
<rect x="21" y="20" width="58" height="11" rx="2" fill="#000000" fill-opacity="0.8" stroke="#FF00FF" stroke-width="1"/>
<text x="23" y="29" font-size="8" fill="#FF00FF" font-family="monospace" font-weight="bold">▼DOWN 52¢</text>
<g class="trade-dot">
  <circle cx="46" cy="73" r="5" fill="#FF0000" stroke="#FFFFFF" stroke-width="1">
    <title>WCP: DOWN @ 64¢</title>
  </circle>
  <g class="dot-tip" id="tip_0" opacity="0" style="pointer-events:none">
    <rect x="50" y="45" width="98" height="14" rx="3" fill="#000000" fill-opacity="0.85" stroke="#FF0000" stroke-width="1"/>
    <text x="54" y="55" font-size="9" fill="#FF0000" font-family="monospace">WCP: DOWN @ 64¢</text>
  </g>
</g>
<g class="trade-dot">
  <circle cx="281" cy="63" r="5" fill="#00FF00" stroke="#FFFFFF" stroke-width="1">
    <title>Nitro: UP @ 71¢</title>
  </circle>
  <g class="dot-tip" id="tip_1" opacity="0" style="pointer-events:none">
    <rect x="238" y="35" width="98" height="14" rx="3" fill="#000000" fill-opacity="0.85" stroke="#00FF00" stroke-width="1"/>
    <text x="242" y="45" font-size="9" fill="#00FF00" font-family="monospace">Nitro: UP @ 71¢</text>
  </g>
</g>
</svg>