<svg width="340" height="190" xmlns="http://www.w3.org/2000/svg">
<rect width="100%" height="100%" fill="#121212" />
<line x1="20" y1="139" x2="320" y2="139" stroke="#232323" stroke-width="1" />
<line x1="20" y1="109" x2="320" y2="109" stroke="#232323" stroke-width="1" />
<line x1="20" y1="94" x2="320" y2="94" stroke="#3C3C3C" stroke-width="1" />
<line x1="20" y1="79" x2="320" y2="79" stroke="#232323" stroke-width="1" />
<line x1="20" y1="49" x2="320" y2="49" stroke="#232323" stroke-width="1" />
<line x1="169" y1="20" x2="169" y2="170" stroke="#232323" stroke-width="1" />
<polyline points="20,70 21,70 26,66 29,66 32,69 35,75 38,73 41,74 44,78 48,81 52,69 56,71 60,60 63,63 67,68 70,78 74,81 77,78 81,60 84,63 88,55 91,52 95,46 98,49 102,52 105,53 109,53 112,56 115,63 118,55 121,50 124,47 128,43 131,44 135,34 138,28 142,26 145,25 149,25 152,25 156,25 159,23 163,25 167,26 172,26 175,28 179,25 182,29 187,25 190,27 194,32 197,34 201,32 204,34 208,32 211,31 215,29 218,28 222,31 225,31 229,29 232,28 235,28 236,29 239,40 242,32 243,30 246,28 249,26 253,35 257,33 260,25 265,22 268,22 272,22 276,22 280,20 283,20 287,20 290,20 294,20 297,20 301,20 304,20 308,20 311,20 315,20 318,20" fill="none" stroke="#FFFF00" stroke-width="2" stroke-linejoin="round" />
</svg>