<svg width="340" height="190" xmlns="http://www.w3.org/2000/svg">
<rect width="100%" height="100%" fill="#121212" />
<line x1="20" y1="139" x2="320" y2="139" stroke="#232323" stroke-width="1" />
<line x1="20" y1="109" x2="320" y2="109" stroke="#232323" stroke-width="1" />
<line x1="20" y1="94" x2="320" y2="94" stroke="#3C3C3C" stroke-width="1" />
<line x1="20" y1="79" x2="320" y2="79" stroke="#232323" stroke-width="1" />
<line x1="20" y1="49" x2="320" y2="49" stroke="#232323" stroke-width="1" />
<line x1="169" y1="20" x2="169" y2="170" stroke="#232323" stroke-width="1" />
<polyline points="20,99 209,99 216,87 220,108 223,119 227,119 230,122 233,117 236,108 239,108 242,95 245,114 248,95 252,107 255,111 258,113 261,111 265,116 268,125 271,131 274,132 278,151 281,158 287,163 290,166 295,167 298,166 302,163 305,160 309,165 312,162 315,84 318,126" fill="none" stroke="#FFFF00" stroke-width="2" stroke-linejoin="round" />
</svg>