<svg width="340" height="190" xmlns="http://www.w3.org/2000/svg">
<rect width="100%" height="100%" fill="#121212" />
<line x1="20" y1="139" x2="320" y2="139" stroke="#232323" stroke-width="1" />
<line x1="20" y1="109" x2="320" y2="109" stroke="#232323" stroke-width="1" />
<line x1="20" y1="94" x2="320" y2="94" stroke="#3C3C3C" stroke-width="1" />
<line x1="20" y1="79" x2="320" y2="79" stroke="#232323" stroke-width="1" />
<line x1="20" y1="49" x2="320" y2="49" stroke="#232323" stroke-width="1" />
<line x1="169" y1="20" x2="169" y2="170" stroke="#232323" stroke-width="1" />
<polyline points="20,102 22,102 26,111 30,108 33,110 38,110 42,102 47,103 51,105 54,107 58,99 59,96 62,102 66,105 69,101 73,99 74,99 77,102 80,105 81,105 84,109 87,105 88,99 91,98 96,96 99,102 103,105 106,116 111,111 114,116 119,117 122,116 126,99 129,98 133,98 136,93 141,89 144,81 148,71 151,74 155,74 159,72 163,74 166,81 170,74 173,77 176,78 177,86 180,101 183,101 186,89 190,92 193,98 198,87 201,83 206,74 209,69 214,86 217,98 221,95 224,99 228,96 231,96 235,93 238,105 243,102 246,95 250,90 253,96 257,90 260,82 264,92 267,92 270,92 273,84 276,81 277,84 280,75 284,81 287,60 291,52 294,48 298,44 301,25 306,25 310,22 313,20 318,20" fill="none" stroke="#FFFF00" stroke-width="2" stroke-linejoin="round" />
<circle cx="86" cy="81" r="4" fill="#FF0000" stroke="#FFFFFF" stroke-width="1">
  <title>VolSnap DOWN (59¢)</title>
</circle>
</svg>