<svg width="340" height="190" xmlns="http://www.w3.org/2000/svg">
<rect width="100%" height="100%" fill="#121212" />
<line x1="20" y1="139" x2="320" y2="139" stroke="#232323" stroke-width="1" />
<line x1="20" y1="109" x2="320" y2="109" stroke="#232323" stroke-width="1" />
<line x1="20" y1="94" x2="320" y2="94" stroke="#3C3C3C" stroke-width="1" />
<line x1="20" y1="79" x2="320" y2="79" stroke="#232323" stroke-width="1" />
<line x1="20" y1="49" x2="320" y2="49" stroke="#232323" stroke-width="1" />
<line x1="169" y1="20" x2="169" y2="170" stroke="#232323" stroke-width="1" />
<polyline points="20,95 22,95 25,92 29,85 32,86 35,99 40,98 43,84 47,85 50,90 55,104 58,97 63,93 66,99 70,101 73,93 77,82 80,87 85,90 88,82 92,73 95,66 99,60 102,57 107,57 110,58 114,53 117,52 121,60 124,57 128,53 131,56 137,69 140,73 144,62 147,59 151,56 154,46 158,41 161,40 165,32 168,31 172,35 175,40 179,46 182,38 186,38 189,35 193,36 196,35 200,34 205,31 208,25 212,29 216,28 221,32 224,29 228,28 231,25 235,25 238,29 243,31 246,29 251,41 254,46 258,34 262,40 267,46 270,37 275,26 280,32 283,31 287,23 290,23 294,22 299,22 305,22 308,20 312,20 315,20" fill="none" stroke="#FFFF00" stroke-width="2" stroke-linejoin="round" />
<circle cx="94" cy="78" r="4" fill="#00FF00" stroke="#FFFFFF" stroke-width="1">
  <title>Briefing UP (61¢)</title>
</circle>
</svg>