<svg width="340" height="190" xmlns="http://www.w3.org/2000/svg">
<rect width="100%" height="100%" fill="#121212" />
<line x1="20" y1="139" x2="320" y2="139" stroke="#232323" stroke-width="1" />
<line x1="20" y1="109" x2="320" y2="109" stroke="#232323" stroke-width="1" />
<line x1="20" y1="94" x2="320" y2="94" stroke="#3C3C3C" stroke-width="1" />
<line x1="20" y1="79" x2="320" y2="79" stroke="#232323" stroke-width="1" />
<line x1="20" y1="49" x2="320" y2="49" stroke="#232323" stroke-width="1" />
<line x1="169" y1="20" x2="169" y2="170" stroke="#232323" stroke-width="1" />
<polyline points="20,95 23,99 28,111 31,113 35,107 38,99 42,102 45,98 49,105 53,116 57,114 61,108 66,110 70,109 74,112 77,119 82,122 85,132 89,131 92,125 96,136 99,133 103,131 107,144 111,154 114,152 118,151 121,148 125,148 128,142 132,147 135,142 139,147 142,136 146,138 149,136 154,138 157,138 161,135 164,135 168,138 171,142 175,139 178,142 182,141 185,135 189,135 192,142 196,151 203,157 206,157 210,157 213,160 218,163 221,162 225,160 228,163 232,163 235,165 239,165 242,165 247,166 251,165 255,165 258,166 262,166 266,167 270,167 273,167 277,167 281,167 286,167 292,167 297,167 305,167 310,167 313,167 317,167" fill="none" stroke="#FFFF00" stroke-width="2" stroke-linejoin="round" />
<circle cx="56" cy="73" r="4" fill="#FF0000" stroke="#FFFFFF" stroke-width="1">
  <title>Nitro DOWN (64¢)</title>
</circle>
<circle cx="84" cy="67" r="4" fill="#FF0000" stroke="#FFFFFF" stroke-width="1">
  <title>VolSnap DOWN (68¢)</title>
</circle>
<circle cx="234" cy="25" r="4" fill="#FF0000" stroke="#FFFFFF" stroke-width="1">
  <title>Moshe DOWN (96¢)</title>
</circle>
</svg>