<svg width="340" height="190" xmlns="http://www.w3.org/2000/svg" style="overflow:visible">
<style>.trade-dot:hover .dot-tip { opacity: 1 !important; } .trade-dot { cursor: crosshair; }</style>
<rect width="340" height="190" fill="#121212" />
<line x1="20" y1="139" x2="320" y2="139" stroke="#232323" stroke-width="1" />
<line x1="20" y1="109" x2="320" y2="109" stroke="#232323" stroke-width="1" />
<line x1="20" y1="94" x2="320" y2="94" stroke="#3C3C3C" stroke-width="1" />
<line x1="20" y1="79" x2="320" y2="79" stroke="#232323" stroke-width="1" />
<line x1="20" y1="49" x2="320" y2="49" stroke="#232323" stroke-width="1" />
<line x1="169" y1="20" x2="169" y2="170" stroke="#232323" stroke-width="1" />
<polyline points="20,93 25,84 35,82 42,89 48,83 55,93 62,95 68,112 73,119 79,123 84,122 92,138 99,144 104,149 111,154 116,158 121,162 127,163 135,161 141,155 146,153 150,156 156,158 162,157 168,151 172,151 177,154 184,160 190,161 196,165 201,165 210,163 214,164 220,165 226,156 232,150 240,151 246,156 252,159 259,160 266,162 271,163 277,165 287,163 294,164 300,166 306,164 311,166 315,168" fill="none" stroke="#FFFF00" stroke-width="2" stroke-linejoin="round" />
<g class="trade-dot">
  <circle cx="83" cy="66" r="5" fill="#FF0000" stroke="#FFFFFF" stroke-width="1">
    <title>Nitro: DOWN @ 69¢</title>
  </circle>
  <g class="dot-tip" id="tip_0" opacity="0" style="pointer-events:none">
    <rect x="87" y="38" width="110" height="14" rx="3" fill="#000000" fill-opacity="0.85" stroke="#FF0000" stroke-width="1"/>
    <text x="91" y="48" font-size="9" fill="#FF0000" font-family="monospace">Nitro: DOWN @ 69¢</text>
  </g>
</g>
</svg>