<svg width="340" height="190" xmlns="http://www.w3.org/2000/svg" style="overflow:visible">
<style>.trade-dot:hover .dot-tip { opacity: 1 !important; } .trade-dot { cursor: crosshair; }</style>
<rect width="340" height="190" fill="#121212" />
<line x1="20" y1="139" x2="320" y2="139" stroke="#232323" stroke-width="1" />
<line x1="20" y1="109" x2="320" y2="109" stroke="#232323" stroke-width="1" />
<line x1="20" y1="94" x2="320" y2="94" stroke="#3C3C3C" stroke-width="1" />
<line x1="20" y1="79" x2="320" y2="79" stroke="#232323" stroke-width="1" />
<line x1="20" y1="49" x2="320" y2="49" stroke="#232323" stroke-width="1" />
<line x1="169" y1="20" x2="169" y2="170" stroke="#232323" stroke-width="1" />
<polyline points="20,93 20,93 26,85 32,72 38,81 46,90 55,83 62,87 68,92 75,115 80,129 84,136 89,142 95,146 103,148 109,148 115,147 121,148 127,153 134,153 140,148 146,140 151,143 156,145 161,136 169,129 177,128 183,113 189,118 196,97 202,78 208,86 214,72 221,79 228,72 239,53 245,50 252,75 258,52 265,32 271,22 298,20" fill="none" stroke="#FFFF00" stroke-width="2" stroke-linejoin="round" />
<line x1="20" y1="20" x2="20" y2="170" stroke="#00FFFF" stroke-width="1" stroke-dasharray="3,3" opacity="0.8">
  <title>Next window tilt: ▲UP 53¢</title>
</line>
<rect x="21" y="20" width="46" height="11" rx="2" fill="#000000" fill-opacity="0.8" stroke="#00FFFF" stroke-width="1"/>
<text x="23" y="29" font-size="8" fill="#00FFFF" font-family="monospace" font-weight="bold">▲UP 53¢</text>
<g class="trade-dot">
  <circle cx="37" cy="76" r="5" fill="#00FF00" stroke="#FFFFFF" stroke-width="1">
    <title>WCP: UP @ 62¢</title>
  </circle>
  <g class="dot-tip" id="tip_0" opacity="0" style="pointer-events:none">
    <rect x="41" y="48" width="86" height="14" rx="3" fill="#000000" fill-opacity="0.85" stroke="#00FF00" stroke-width="1"/>
    <text x="45" y="58" font-size="9" fill="#00FF00" font-family="monospace">WCP: UP @ 62¢</text>
  </g>
</g>
<g class="trade-dot">
  <circle cx="168" cy="54" r="5" fill="#FF0000" stroke="#FFFFFF" stroke-width="1">
    <title>Nitro: DOWN @ 77¢</title>
  </circle>
  <g class="dot-tip" id="tip_1" opacity="0" style="pointer-events:none">
    <rect x="172" y="26" width="110" height="14" rx="3" fill="#000000" fill-opacity="0.85" stroke="#FF0000" stroke-width="1"/>
    <text x="176" y="36" font-size="9" fill="#FF0000" font-family="monospace">Nitro: DOWN @ 77¢</text>
  </g>
</g>
<g class="trade-dot">
  <circle cx="220" cy="67" r="5" fill="#00FF00" stroke="#FFFFFF" stroke-width="1">
    <title>VolSnap: UP @ 68¢</title>
  </circle>
  <g class="dot-tip" id="tip_2" opacity="0" style="pointer-events:none">
    <rect x="224" y="39" width="110" height="14" rx="3" fill="#000000" fill-opacity="0.85" stroke="#00FF00" stroke-width="1"/>
    <text x="228" y="49" font-size="9" fill="#00FF00" font-family="monospace">VolSnap: UP @ 68¢</text>
  </g>
</g>
</svg>