<svg width="340" height="190" xmlns="http://www.w3.org/2000/svg" style="overflow:visible">
<style>.trade-dot:hover .dot-tip { opacity: 1 !important; } .trade-dot { cursor: crosshair; }</style>
<rect width="340" height="190" fill="#121212" />
<line x1="20" y1="139" x2="320" y2="139" stroke="#232323" stroke-width="1" />
<line x1="20" y1="109" x2="320" y2="109" stroke="#232323" stroke-width="1" />
<line x1="20" y1="94" x2="320" y2="94" stroke="#3C3C3C" stroke-width="1" />
<line x1="20" y1="79" x2="320" y2="79" stroke="#232323" stroke-width="1" />
<line x1="20" y1="49" x2="320" y2="49" stroke="#232323" stroke-width="1" />
<line x1="169" y1="20" x2="169" y2="170" stroke="#232323" stroke-width="1" />
<polyline points="20,120 21,120 27,117 35,126 43,119 51,120 58,139 65,148 73,145 81,145 90,144 97,139 104,121 113,113 121,111 126,113 132,111 140,125 148,119 155,96 164,110 172,98 179,95 186,98 193,120 202,129 210,111 218,113 226,116 234,150 243,150 251,150 259,158 266,160 274,159 281,161 289,164 312,168" fill="none" stroke="#FFFF00" stroke-width="2" stroke-linejoin="round" />
<g class="trade-dot">
  <circle cx="111" cy="72" r="5" fill="#FF0000" stroke="#FFFFFF" stroke-width="1">
    <title>Nitro: DOWN @ 65¢</title>
  </circle>
  <g class="dot-tip" id="tip_0" opacity="0" style="pointer-events:none">
    <rect x="115" y="44" width="110" height="14" rx="3" fill="#000000" fill-opacity="0.85" stroke="#FF0000" stroke-width="1"/>
    <text x="119" y="54" font-size="9" fill="#FF0000" font-family="monospace">Nitro: DOWN @ 65¢</text>
  </g>
</g>
<g class="trade-dot">
  <circle cx="192" cy="91" r="5" fill="#FF0000" stroke="#FFFFFF" stroke-width="1">
    <title>GrindSnap: DOWN @ 52¢</title>
  </circle>
  <g class="dot-tip" id="tip_1" opacity="0" style="pointer-events:none">
    <rect x="196" y="63" width="134" height="14" rx="3" fill="#000000" fill-opacity="0.85" stroke="#FF0000" stroke-width="1"/>
    <text x="200" y="73" font-size="9" fill="#FF0000" font-family="monospace">GrindSnap: DOWN @ 52¢</text>
  </g>
</g>
</svg>