<svg width="340" height="190" xmlns="http://www.w3.org/2000/svg">
<rect width="100%" height="100%" fill="#121212" />
<line x1="20" y1="139" x2="320" y2="139" stroke="#232323" stroke-width="1" />
<line x1="20" y1="109" x2="320" y2="109" stroke="#232323" stroke-width="1" />
<line x1="20" y1="94" x2="320" y2="94" stroke="#3C3C3C" stroke-width="1" />
<line x1="20" y1="79" x2="320" y2="79" stroke="#232323" stroke-width="1" />
<line x1="20" y1="49" x2="320" y2="49" stroke="#232323" stroke-width="1" />
<line x1="169" y1="20" x2="169" y2="170" stroke="#232323" stroke-width="1" />
<polyline points="20,83 21,83 24,91 28,101 31,107 35,116 38,111 42,108 48,104 51,93 55,84 58,84 62,78 65,78 71,87 79,78 82,80 86,75 89,71 98,72 101,87 105,78 108,87 113,93 121,92 124,105 130,103 134,102 138,104 141,104 144,107 153,112 157,123 161,117 170,111 173,110 176,110 182,110 190,110 193,107 197,99 201,105 211,107 214,105 218,111 221,111 225,111 228,110 235,119 240,119 244,119 248,119 251,123 258,116 265,114 268,108 272,102 275,72 281,128 284,154 287,163 290,165 294,167 298,167 305,165 308,167 313,167 317,167" fill="none" stroke="#FFFF00" stroke-width="2" stroke-linejoin="round" />
</svg>