<svg width="340" height="190" xmlns="http://www.w3.org/2000/svg">
<rect width="100%" height="100%" fill="#121212" />
<line x1="20" y1="139" x2="320" y2="139" stroke="#232323" stroke-width="1" />
<line x1="20" y1="109" x2="320" y2="109" stroke="#232323" stroke-width="1" />
<line x1="20" y1="94" x2="320" y2="94" stroke="#3C3C3C" stroke-width="1" />
<line x1="20" y1="79" x2="320" y2="79" stroke="#232323" stroke-width="1" />
<line x1="20" y1="49" x2="320" y2="49" stroke="#232323" stroke-width="1" />
<line x1="169" y1="20" x2="169" y2="170" stroke="#232323" stroke-width="1" />
<polyline points="20,92 23,92 26,92 30,98 33,90 46,93 49,90 55,74 68,78 71,80 76,77 79,89 84,92 87,95 91,96 100,110 106,121 109,123 113,120 119,116 122,117 127,116 130,113 136,116 139,116 143,122 146,128 150,125 153,142 160,146 163,148 167,147 170,148 175,148 178,145 186,138 190,142 193,142 199,145 202,92 206,86 209,90 213,92 216,102 225,95 228,77 232,74 239,69 242,75 246,76 249,77 253,75 256,81 260,67 263,55 267,29 271,31 277,22 292,20 296,20 302,20 311,20 318,20" fill="none" stroke="#FFFF00" stroke-width="2" stroke-linejoin="round" />
</svg>