<svg width="340" height="190" xmlns="http://www.w3.org/2000/svg">
<rect width="100%" height="100%" fill="#121212" />
<line x1="20" y1="139" x2="320" y2="139" stroke="#232323" stroke-width="1" />
<line x1="20" y1="109" x2="320" y2="109" stroke="#232323" stroke-width="1" />
<line x1="20" y1="94" x2="320" y2="94" stroke="#3C3C3C" stroke-width="1" />
<line x1="20" y1="79" x2="320" y2="79" stroke="#232323" stroke-width="1" />
<line x1="20" y1="49" x2="320" y2="49" stroke="#232323" stroke-width="1" />
<line x1="169" y1="20" x2="169" y2="170" stroke="#232323" stroke-width="1" />
<polyline points="20,104 22,104 32,104 35,101 47,84 68,93 71,104 75,101 78,102 82,113 85,110 89,110 97,107 100,105 104,108 109,105 117,101 120,104 127,124 133,131 136,128 140,114 143,111 149,98 152,87 156,86 162,88 168,101 171,101 179,95 182,95 188,95 191,78 197,74 205,66 208,66 212,57 215,56 219,44 224,48 227,44 234,39 237,49 241,44 244,46 248,46 253,52 256,46 266,40 273,38 280,38 283,39 287,38 292,37 296,42 305,40 308,43 312,23" fill="none" stroke="#FFFF00" stroke-width="2" stroke-linejoin="round" />
</svg>