<svg width="340" height="190" xmlns="http://www.w3.org/2000/svg">
<rect width="100%" height="100%" fill="#121212" />
<line x1="20" y1="139" x2="320" y2="139" stroke="#232323" stroke-width="1" />
<line x1="20" y1="109" x2="320" y2="109" stroke="#232323" stroke-width="1" />
<line x1="20" y1="94" x2="320" y2="94" stroke="#3C3C3C" stroke-width="1" />
<line x1="20" y1="79" x2="320" y2="79" stroke="#232323" stroke-width="1" />
<line x1="20" y1="49" x2="320" y2="49" stroke="#232323" stroke-width="1" />
<line x1="169" y1="20" x2="169" y2="170" stroke="#232323" stroke-width="1" />
<polyline points="20,101 21,101 32,83 48,72 62,73 79,81 89,77 95,74 102,68 106,68 109,65 112,57 115,77 119,86 122,84 127,84 130,81 134,93 144,104 147,102 151,107 154,107 158,81 163,71 172,72 175,69 183,69 186,68 190,75 195,74 198,74 202,59 208,69 218,87 221,87 224,87 227,72 231,59 240,72 247,84 252,81 255,77 260,82 266,90 269,72 277,55 280,52 284,53 294,43 300,50 308,59 311,60 315,37 318,20" fill="none" stroke="#FFFF00" stroke-width="2" stroke-linejoin="round" />
</svg>