<svg width="340" height="190" xmlns="http://www.w3.org/2000/svg">
<rect width="100%" height="100%" fill="#121212" />
<line x1="20" y1="139" x2="320" y2="139" stroke="#232323" stroke-width="1" />
<line x1="20" y1="109" x2="320" y2="109" stroke="#232323" stroke-width="1" />
<line x1="20" y1="94" x2="320" y2="94" stroke="#3C3C3C" stroke-width="1" />
<line x1="20" y1="79" x2="320" y2="79" stroke="#232323" stroke-width="1" />
<line x1="20" y1="49" x2="320" y2="49" stroke="#232323" stroke-width="1" />
<line x1="169" y1="20" x2="169" y2="170" stroke="#232323" stroke-width="1" />
<polyline points="20,101 22,101 26,99 30,95 33,92 37,83 41,78 44,75 48,74 51,74 55,66 58,72 63,68 68,71 71,72 75,74 78,75 85,77 88,72 92,72 100,72 103,74 108,72 111,84 115,96 118,89 124,77 134,74 140,74 143,74 149,69 152,65 163,65 167,66 172,63 175,60 180,66 183,59 187,71 191,68 197,80 205,73 218,65 229,51 233,43 237,42 240,46 244,49 247,38 250,38 253,38 257,41 260,47 266,44 269,34 283,31 288,29 291,28 297,25 310,22 315,20" fill="none" stroke="#FFFF00" stroke-width="2" stroke-linejoin="round" />
</svg>