<svg width="340" height="190" xmlns="http://www.w3.org/2000/svg">
<rect width="100%" height="100%" fill="#121212" />
<line x1="20" y1="139" x2="320" y2="139" stroke="#232323" stroke-width="1" />
<line x1="20" y1="109" x2="320" y2="109" stroke="#232323" stroke-width="1" />
<line x1="20" y1="94" x2="320" y2="94" stroke="#3C3C3C" stroke-width="1" />
<line x1="20" y1="79" x2="320" y2="79" stroke="#232323" stroke-width="1" />
<line x1="20" y1="49" x2="320" y2="49" stroke="#232323" stroke-width="1" />
<line x1="169" y1="20" x2="169" y2="170" stroke="#232323" stroke-width="1" />
<polyline points="20,90 25,90 38,90 48,94 53,95 56,95 60,104 69,107 72,113 77,117 80,116 84,116 87,119 91,128 101,111 107,110 110,98 114,83 117,83 121,80 124,77 128,77 131,71 138,81 141,93 145,96 148,107 154,114 160,123 167,122 173,122 176,107 181,113 185,103 189,102 192,104 195,116 198,115 202,128 206,129 210,128 213,128 217,126 221,113 227,119 232,116 235,125 238,128 241,123 248,126 251,125 255,127 258,129 262,128 265,131 269,151 272,153 276,145 279,150 286,156 289,157 293,159 298,162 301,163 304,165 310,166 313,166 317,167" fill="none" stroke="#FFFF00" stroke-width="2" stroke-linejoin="round" />
</svg>