<svg width="340" height="190" xmlns="http://www.w3.org/2000/svg">
<rect width="100%" height="100%" fill="#121212" />
<line x1="20" y1="139" x2="320" y2="139" stroke="#232323" stroke-width="1" />
<line x1="20" y1="109" x2="320" y2="109" stroke="#232323" stroke-width="1" />
<line x1="20" y1="94" x2="320" y2="94" stroke="#3C3C3C" stroke-width="1" />
<line x1="20" y1="79" x2="320" y2="79" stroke="#232323" stroke-width="1" />
<line x1="20" y1="49" x2="320" y2="49" stroke="#232323" stroke-width="1" />
<line x1="169" y1="20" x2="169" y2="170" stroke="#232323" stroke-width="1" />
<polyline points="20,81 23,81 26,86 30,88 33,86 38,88 51,65 66,60 69,57 93,60 96,69 101,77 112,63 115,66 119,64 122,57 135,59 138,59 142,56 151,52 158,59 161,59 165,49 168,47 174,53 177,52 181,49 184,46 187,41 190,37 194,34 197,37 201,33 204,28 208,29 211,34 214,28 223,26 226,26 229,25 232,25 236,23 243,23 246,23 251,22 258,22 261,22 265,22 268,22 271,22 274,22 278,20 281,20 285,20 288,20 295,20 303,20 306,20 309,20 312,20 316,20" fill="none" stroke="#FFFF00" stroke-width="2" stroke-linejoin="round" />
</svg>