<svg width="340" height="190" xmlns="http://www.w3.org/2000/svg">
<rect width="100%" height="100%" fill="#121212" />
<line x1="20" y1="139" x2="320" y2="139" stroke="#232323" stroke-width="1" />
<line x1="20" y1="109" x2="320" y2="109" stroke="#232323" stroke-width="1" />
<line x1="20" y1="94" x2="320" y2="94" stroke="#3C3C3C" stroke-width="1" />
<line x1="20" y1="79" x2="320" y2="79" stroke="#232323" stroke-width="1" />
<line x1="20" y1="49" x2="320" y2="49" stroke="#232323" stroke-width="1" />
<line x1="169" y1="20" x2="169" y2="170" stroke="#232323" stroke-width="1" />
<polyline points="20,99 22,99 25,96 31,101 36,98 41,98 44,95 55,92 58,92 62,92 65,92 68,74 75,74 78,74 83,75 86,80 91,96 94,96 98,81 106,77 109,80 114,100 124,101 127,96 131,92 134,90 138,87 142,86 145,74 148,65 152,65 155,72 162,78 170,80 175,80 178,80 182,62 191,60 195,63 199,66 205,68 208,68 215,76 223,69 234,57 242,60 245,59 248,59 258,56 261,60 265,57 268,61 277,53 280,52 284,35 293,46 301,45 307,120 313,162 316,165" fill="none" stroke="#FFFF00" stroke-width="2" stroke-linejoin="round" />
</svg>