<svg width="340" height="190" xmlns="http://www.w3.org/2000/svg">
<rect width="100%" height="100%" fill="#121212" />
<line x1="20" y1="139" x2="320" y2="139" stroke="#232323" stroke-width="1" />
<line x1="20" y1="109" x2="320" y2="109" stroke="#232323" stroke-width="1" />
<line x1="20" y1="94" x2="320" y2="94" stroke="#3C3C3C" stroke-width="1" />
<line x1="20" y1="79" x2="320" y2="79" stroke="#232323" stroke-width="1" />
<line x1="20" y1="49" x2="320" y2="49" stroke="#232323" stroke-width="1" />
<line x1="169" y1="20" x2="169" y2="170" stroke="#232323" stroke-width="1" />
<polyline points="20,83 20,83 26,101 35,99 47,95 50,95 54,100 58,101 61,101 64,101 72,102 77,104 80,112 84,144 98,149 104,147 107,139 113,136 120,136 123,138 127,128 130,116 134,107 141,106 144,108 148,96 151,95 155,90 158,96 162,99 169,108 179,108 182,114 186,110 191,111 194,111 198,113 203,117 210,119 213,102 217,90 233,90 236,92 240,95 250,90 257,90 260,90 265,74 273,83 276,114 281,113 284,105 288,102 291,95 295,87 301,100 305,112 308,125 312,70 315,20" fill="none" stroke="#FFFF00" stroke-width="2" stroke-linejoin="round" />
</svg>