<svg width="340" height="190" xmlns="http://www.w3.org/2000/svg">
<rect width="100%" height="100%" fill="#121212" />
<line x1="20" y1="139" x2="320" y2="139" stroke="#232323" stroke-width="1" />
<line x1="20" y1="109" x2="320" y2="109" stroke="#232323" stroke-width="1" />
<line x1="20" y1="94" x2="320" y2="94" stroke="#3C3C3C" stroke-width="1" />
<line x1="20" y1="79" x2="320" y2="79" stroke="#232323" stroke-width="1" />
<line x1="20" y1="49" x2="320" y2="49" stroke="#232323" stroke-width="1" />
<line x1="169" y1="20" x2="169" y2="170" stroke="#232323" stroke-width="1" />
<polyline points="20,99 98,99 107,108 110,105 115,105 120,107 126,105 129,108 133,110 136,110 140,105 143,83 147,86 157,87 160,83 169,86 177,90 182,80 185,71 189,71 192,77 198,65 202,60 205,66 218,66 221,66 227,72 230,75 235,73 238,74 242,74 245,78 249,69 252,75 259,71 264,80 268,108 279,122 283,129 287,116 290,104 294,140 303,153 306,159 310,145 313,148 316,165" fill="none" stroke="#FFFF00" stroke-width="2" stroke-linejoin="round" />
</svg>