<svg width="340" height="190" xmlns="http://www.w3.org/2000/svg" style="overflow:visible">
<style>.trade-dot:hover .dot-tip { opacity: 1 !important; } .trade-dot { cursor: crosshair; }</style>
<rect width="340" height="190" fill="#121212" />
<line x1="20" y1="139" x2="320" y2="139" stroke="#232323" stroke-width="1" />
<line x1="20" y1="109" x2="320" y2="109" stroke="#232323" stroke-width="1" />
<line x1="20" y1="94" x2="320" y2="94" stroke="#3C3C3C" stroke-width="1" />
<line x1="20" y1="79" x2="320" y2="79" stroke="#232323" stroke-width="1" />
<line x1="20" y1="49" x2="320" y2="49" stroke="#232323" stroke-width="1" />
<line x1="169" y1="20" x2="169" y2="170" stroke="#232323" stroke-width="1" />
<polyline points="20,87 20,87 27,65 34,64 39,78 46,77 52,79 62,82 69,77 76,72 83,73 89,97 96,95 107,96 113,82 120,101 127,131 136,154 145,156 151,160 159,152 172,155 179,163 186,163 196,164 203,166 212,168 219,168 227,168 235,168 243,168 249,168 255,167 262,168 271,168 287,168 299,168 310,168" fill="none" stroke="#FFFF00" stroke-width="2" stroke-linejoin="round" />
<g class="trade-dot">
  <circle cx="38" cy="66" r="5" fill="#00FF00" stroke="#FFFFFF" stroke-width="1">
    <title>WCP: UP @ 69¢</title>
  </circle>
  <g class="dot-tip" id="tip_0" opacity="0" style="pointer-events:none">
    <rect x="42" y="38" width="86" height="14" rx="3" fill="#000000" fill-opacity="0.85" stroke="#00FF00" stroke-width="1"/>
    <text x="46" y="48" font-size="9" fill="#00FF00" font-family="monospace">WCP: UP @ 69¢</text>
  </g>
</g>
<g class="trade-dot">
  <circle cx="44" cy="79" r="5" fill="#00FF00" stroke="#FFFFFF" stroke-width="1">
    <title>Nitro: UP @ 60¢</title>
  </circle>
  <g class="dot-tip" id="tip_1" opacity="0" style="pointer-events:none">
    <rect x="48" y="51" width="98" height="14" rx="3" fill="#000000" fill-opacity="0.85" stroke="#00FF00" stroke-width="1"/>
    <text x="52" y="61" font-size="9" fill="#00FF00" font-family="monospace">Nitro: UP @ 60¢</text>
  </g>
</g>
<g class="trade-dot">
  <circle cx="88" cy="73" r="5" fill="#00FF00" stroke="#FFFFFF" stroke-width="1">
    <title>VolSnap: UP @ 64¢</title>
  </circle>
  <g class="dot-tip" id="tip_2" opacity="0" style="pointer-events:none">
    <rect x="92" y="45" width="110" height="14" rx="3" fill="#000000" fill-opacity="0.85" stroke="#00FF00" stroke-width="1"/>
    <text x="96" y="55" font-size="9" fill="#00FF00" font-family="monospace">VolSnap: UP @ 64¢</text>
  </g>
</g>
</svg>