<svg width="340" height="190" xmlns="http://www.w3.org/2000/svg" style="overflow:visible">
<style>.trade-dot:hover .dot-tip { opacity: 1 !important; } .trade-dot { cursor: crosshair; }</style>
<rect width="340" height="190" fill="#121212" />
<line x1="20" y1="139" x2="320" y2="139" stroke="#232323" stroke-width="1" />
<line x1="20" y1="109" x2="320" y2="109" stroke="#232323" stroke-width="1" />
<line x1="20" y1="94" x2="320" y2="94" stroke="#3C3C3C" stroke-width="1" />
<line x1="20" y1="79" x2="320" y2="79" stroke="#232323" stroke-width="1" />
<line x1="20" y1="49" x2="320" y2="49" stroke="#232323" stroke-width="1" />
<line x1="169" y1="20" x2="169" y2="170" stroke="#232323" stroke-width="1" />
<polyline points="20,89 24,89 33,91 38,93 44,87 47,87 50,87 54,86 57,84 63,96 67,87 70,84 73,90 76,87 79,87 82,81 85,85 88,90 91,89 94,89 97,90 100,84 103,86 106,86 109,87 112,83 115,85 118,85 121,84 124,84 127,84 130,77 133,74 136,65 139,63 142,60 145,59 148,62 151,58 154,48 157,48 160,46 163,39 166,40 169,41 172,43 175,46 178,43 181,40 184,47 187,53 190,62 193,64 196,63 199,60 202,70 205,77 208,95 211,116 214,115 217,116 220,128 223,133 226,125 229,107 232,111 235,116 238,129 241,131 244,131 248,130 251,123 254,125 257,142 260,139 263,142 266,150 269,154 272,162 275,156 278,161 281,163 284,162 287,164 290,145 293,146 296,147 299,151 302,150 305,131 308,120 311,165 314,167 317,167" fill="none" stroke="#FFFF00" stroke-width="2" stroke-linejoin="round" />
<line x1="20" y1="20" x2="20" y2="170" stroke="#FF00FF" stroke-width="1" stroke-dasharray="3,3" opacity="0.8">
  <title>Next window tilt: ▼DOWN 52¢</title>
</line>
<rect x="21" y="20" width="58" height="11" rx="2" fill="#000000" fill-opacity="0.8" stroke="#FF00FF" stroke-width="1"/>
<text x="23" y="29" font-size="8" fill="#FF00FF" font-family="monospace" font-weight="bold">▼DOWN 52¢</text>
<g class="trade-dot">
  <circle cx="131" cy="78" r="5" fill="#00FF00" stroke="#FFFFFF" stroke-width="1">
    <title>VolSnap: UP @ 61¢</title>
  </circle>
  <g class="dot-tip" id="tip_0" opacity="0" style="pointer-events:none">
    <rect x="135" y="50" width="110" height="14" rx="3" fill="#000000" fill-opacity="0.85" stroke="#00FF00" stroke-width="1"/>
    <text x="139" y="60" font-size="9" fill="#00FF00" font-family="monospace">VolSnap: UP @ 61¢</text>
  </g>
</g>
</svg>