<svg width="340" height="190" xmlns="http://www.w3.org/2000/svg" style="overflow:visible">
<style>.trade-dot:hover .dot-tip { opacity: 1 !important; } .trade-dot { cursor: crosshair; }</style>
<rect width="340" height="190" fill="#121212" />
<line x1="20" y1="139" x2="320" y2="139" stroke="#232323" stroke-width="1" />
<line x1="20" y1="109" x2="320" y2="109" stroke="#232323" stroke-width="1" />
<line x1="20" y1="94" x2="320" y2="94" stroke="#3C3C3C" stroke-width="1" />
<line x1="20" y1="79" x2="320" y2="79" stroke="#232323" stroke-width="1" />
<line x1="20" y1="49" x2="320" y2="49" stroke="#232323" stroke-width="1" />
<line x1="169" y1="20" x2="169" y2="170" stroke="#232323" stroke-width="1" />
<polyline points="20,98 25,97 30,103 33,87 37,98 42,95 47,89 54,94 58,107 65,101 69,106 74,112 79,116 83,122 87,113 91,112 98,129 103,129 109,132 114,136 118,137 124,140 129,138 133,131 139,133 143,135 147,138 152,150 158,142 162,141 166,136 174,133 177,133 181,135 184,134 188,119 191,107 195,98 198,107 203,96 207,97 212,107 216,119 221,120 225,122 229,100 235,101 239,110 244,100 248,95 253,88 258,87 262,98 267,95 271,116 275,127 282,152 286,148 290,142 293,148 297,165 305,166 309,168 313,168 318,168" fill="none" stroke="#FFFF00" stroke-width="2" stroke-linejoin="round" />
<line x1="20" y1="20" x2="20" y2="170" stroke="#FF00FF" stroke-width="1" stroke-dasharray="3,3" opacity="0.8">
  <title>Next window tilt: ▼DOWN 53¢</title>
</line>
<rect x="21" y="20" width="58" height="11" rx="2" fill="#000000" fill-opacity="0.8" stroke="#FF00FF" stroke-width="1"/>
<text x="23" y="29" font-size="8" fill="#FF00FF" font-family="monospace" font-weight="bold">▼DOWN 53¢</text>
</svg>