<svg width="340" height="190" xmlns="http://www.w3.org/2000/svg" style="overflow:visible">
<style>.trade-dot:hover .dot-tip { opacity: 1 !important; } .trade-dot { cursor: crosshair; }</style>
<rect width="340" height="190" fill="#121212" />
<line x1="20" y1="139" x2="320" y2="139" stroke="#232323" stroke-width="1" />
<line x1="20" y1="109" x2="320" y2="109" stroke="#232323" stroke-width="1" />
<line x1="20" y1="94" x2="320" y2="94" stroke="#3C3C3C" stroke-width="1" />
<line x1="20" y1="79" x2="320" y2="79" stroke="#232323" stroke-width="1" />
<line x1="20" y1="49" x2="320" y2="49" stroke="#232323" stroke-width="1" />
<line x1="169" y1="20" x2="169" y2="170" stroke="#232323" stroke-width="1" />
<polyline points="20,95 20,95 23,101 26,107 29,113 32,119 35,128 38,121 41,112 44,116 47,115 50,120 53,122 56,116 59,116 62,114 65,101 68,104 71,118 74,119 77,122 80,117 83,116 86,116 89,116 92,122 95,122 98,110 101,104 104,105 107,107 110,111 113,111 116,111 119,110 122,110 125,107 128,106 131,104 134,110 137,110 140,117 143,124 146,125 149,128 152,133 155,132 158,127 161,137 164,133 167,135 170,134 173,137 176,136 179,142 182,142 185,143 188,136 191,128 194,128 197,131 200,126 203,125 206,133 209,133 212,134 215,138 218,136 221,139 224,130 227,128 230,124 233,127 236,133 239,126 242,128 245,133 248,131 251,122 254,122 257,109 260,110 263,111 266,113 269,113 272,116 275,132 278,120 281,95 284,94 287,76 290,55 293,38 296,34 299,32 302,34 305,29 308,37 311,34 314,27 317,21" fill="none" stroke="#FFFF00" stroke-width="2" stroke-linejoin="round" />
<line x1="20" y1="20" x2="20" y2="170" stroke="#00FFFF" stroke-width="1" stroke-dasharray="3,3" opacity="0.8">
  <title>Next window tilt: ▲UP 53¢</title>
</line>
<rect x="21" y="20" width="46" height="11" rx="2" fill="#000000" fill-opacity="0.8" stroke="#00FFFF" stroke-width="1"/>
<text x="23" y="29" font-size="8" fill="#00FFFF" font-family="monospace" font-weight="bold">▲UP 53¢</text>
<g class="trade-dot">
  <circle cx="39" cy="67" r="5" fill="#FF0000" stroke="#FFFFFF" stroke-width="1">
    <title>Nitro: DOWN @ 68¢</title>
  </circle>
  <g class="dot-tip" id="tip_0" opacity="0" style="pointer-events:none">
    <rect x="43" y="39" width="110" height="14" rx="3" fill="#000000" fill-opacity="0.85" stroke="#FF0000" stroke-width="1"/>
    <text x="47" y="49" font-size="9" fill="#FF0000" font-family="monospace">Nitro: DOWN @ 68¢</text>
  </g>
</g>
<g class="trade-dot">
  <circle cx="81" cy="73" r="5" fill="#FF0000" stroke="#FFFFFF" stroke-width="1">
    <title>VolSnap: DOWN @ 64¢</title>
  </circle>
  <g class="dot-tip" id="tip_1" opacity="0" style="pointer-events:none">
    <rect x="85" y="45" width="122" height="14" rx="3" fill="#000000" fill-opacity="0.85" stroke="#FF0000" stroke-width="1"/>
    <text x="89" y="55" font-size="9" fill="#FF0000" font-family="monospace">VolSnap: DOWN @ 64¢</text>
  </g>
</g>
</svg>