<svg width="340" height="190" xmlns="http://www.w3.org/2000/svg" style="overflow:visible">
<style>.trade-dot:hover .dot-tip { opacity: 1 !important; } .trade-dot { cursor: crosshair; }</style>
<rect width="340" height="190" fill="#121212" />
<line x1="20" y1="139" x2="320" y2="139" stroke="#232323" stroke-width="1" />
<line x1="20" y1="109" x2="320" y2="109" stroke="#232323" stroke-width="1" />
<line x1="20" y1="94" x2="320" y2="94" stroke="#3C3C3C" stroke-width="1" />
<line x1="20" y1="79" x2="320" y2="79" stroke="#232323" stroke-width="1" />
<line x1="20" y1="49" x2="320" y2="49" stroke="#232323" stroke-width="1" />
<line x1="169" y1="20" x2="169" y2="170" stroke="#232323" stroke-width="1" />
<polyline points="20,93 20,93 26,103 32,104 38,113 44,105 50,109 56,112 64,114 69,116 73,114 80,114 83,116 88,101 92,99 97,99 101,101 106,98 111,87 115,88 119,93 127,96 131,116 142,101 146,96 151,96 157,87 163,80 167,78 173,71 178,78 184,72 190,74 195,104 207,96 215,81 225,69 234,82 240,76 247,87 255,95 260,114 268,89 274,89 280,90 286,91 292,90 300,87 307,49 314,75" fill="none" stroke="#FFFF00" stroke-width="2" stroke-linejoin="round" />
<g class="trade-dot">
  <circle cx="165" cy="81" r="5" fill="#00FF00" stroke="#FFFFFF" stroke-width="1">
    <title>WCP: UP @ 59¢</title>
  </circle>
  <g class="dot-tip" id="tip_0" opacity="0" style="pointer-events:none">
    <rect x="169" y="53" width="86" height="14" rx="3" fill="#000000" fill-opacity="0.85" stroke="#00FF00" stroke-width="1"/>
    <text x="173" y="63" font-size="9" fill="#00FF00" font-family="monospace">WCP: UP @ 59¢</text>
  </g>
</g>
</svg>