<svg width="340" height="190" xmlns="http://www.w3.org/2000/svg" style="overflow:visible">
<style>.trade-dot:hover .dot-tip { opacity: 1 !important; } .trade-dot { cursor: crosshair; }</style>
<rect width="340" height="190" fill="#121212" />
<line x1="20" y1="139" x2="320" y2="139" stroke="#232323" stroke-width="1" />
<line x1="20" y1="109" x2="320" y2="109" stroke="#232323" stroke-width="1" />
<line x1="20" y1="94" x2="320" y2="94" stroke="#3C3C3C" stroke-width="1" />
<line x1="20" y1="79" x2="320" y2="79" stroke="#232323" stroke-width="1" />
<line x1="20" y1="49" x2="320" y2="49" stroke="#232323" stroke-width="1" />
<line x1="169" y1="20" x2="169" y2="170" stroke="#232323" stroke-width="1" />
<polyline points="20,87 22,84 25,90 28,92 31,92 34,93 37,89 40,90 43,96 46,96 49,95 52,102 55,121 58,111 61,108 64,108 67,112 70,115 73,115 76,113 79,117 82,115 85,119 88,121 91,120 94,122 97,123 100,122 103,122 106,120 109,129 112,127 115,128 118,128 121,133 124,132 127,132 130,126 133,132 136,133 139,134 142,131 145,136 149,132 152,132 155,133 158,135 161,136 164,138 167,150 170,152 173,154 176,154 179,163 182,163 185,165 191,163 194,162 197,160 200,160 203,159 206,159 209,154 212,151 215,152 218,145 221,147 224,145 227,142 230,154 233,160 236,160 239,162 242,162 245,157 248,162 251,156 254,154 257,148 260,151 263,148 266,145 269,152 272,154 275,148 278,163 281,165 284,165 287,166 290,166 293,166 296,166 299,167 302,167 308,167 316,167" fill="none" stroke="#FFFF00" stroke-width="2" stroke-linejoin="round" />
<line x1="20" y1="20" x2="20" y2="170" stroke="#00FFFF" stroke-width="1" stroke-dasharray="3,3" opacity="0.8">
  <title>Next window tilt: ▲UP 55¢</title>
</line>
<rect x="21" y="20" width="46" height="11" rx="2" fill="#000000" fill-opacity="0.8" stroke="#00FFFF" stroke-width="1"/>
<text x="23" y="29" font-size="8" fill="#00FFFF" font-family="monospace" font-weight="bold">▲UP 55¢</text>
<g class="trade-dot">
  <circle cx="80" cy="73" r="5" fill="#FF0000" stroke="#FFFFFF" stroke-width="1">
    <title>Nitro: DOWN @ 64¢</title>
  </circle>
  <g class="dot-tip" id="tip_0" opacity="0" style="pointer-events:none">
    <rect x="84" y="45" width="110" height="14" rx="3" fill="#000000" fill-opacity="0.85" stroke="#FF0000" stroke-width="1"/>
    <text x="88" y="55" font-size="9" fill="#FF0000" font-family="monospace">Nitro: DOWN @ 64¢</text>
  </g>
</g>
<g class="trade-dot">
  <circle cx="83" cy="75" r="5" fill="#FF0000" stroke="#FFFFFF" stroke-width="1">
    <title>VolSnap: DOWN @ 63¢</title>
  </circle>
  <g class="dot-tip" id="tip_1" opacity="0" style="pointer-events:none">
    <rect x="87" y="47" width="122" height="14" rx="3" fill="#000000" fill-opacity="0.85" stroke="#FF0000" stroke-width="1"/>
    <text x="91" y="57" font-size="9" fill="#FF0000" font-family="monospace">VolSnap: DOWN @ 63¢</text>
  </g>
</g>
</svg>