<svg width="340" height="190" xmlns="http://www.w3.org/2000/svg" style="overflow:visible">
<style>.trade-dot:hover .dot-tip { opacity: 1 !important; } .trade-dot { cursor: crosshair; }</style>
<rect width="340" height="190" fill="#121212" />
<line x1="20" y1="139" x2="320" y2="139" stroke="#232323" stroke-width="1" />
<line x1="20" y1="109" x2="320" y2="109" stroke="#232323" stroke-width="1" />
<line x1="20" y1="94" x2="320" y2="94" stroke="#3C3C3C" stroke-width="1" />
<line x1="20" y1="79" x2="320" y2="79" stroke="#232323" stroke-width="1" />
<line x1="20" y1="49" x2="320" y2="49" stroke="#232323" stroke-width="1" />
<line x1="169" y1="20" x2="169" y2="170" stroke="#232323" stroke-width="1" />
<polyline points="20,92 26,104 31,104 36,103 43,108 49,113 56,117 62,120 67,123 71,123 76,126 80,127 87,116 94,113 101,125 106,128 110,127 115,116 121,124 126,122 130,126 135,125 139,137 144,121 150,131 155,128 159,134 164,133 169,138 173,128 178,135 184,139 191,142 196,121 205,116 211,110 217,125 223,106 230,107 235,113 239,120 245,142 249,150 254,149 259,155 264,145 268,150 273,142 277,139 282,139 286,149 292,138 297,95 302,145 307,165 311,166 317,168" fill="none" stroke="#FFFF00" stroke-width="2" stroke-linejoin="round" />
<g class="trade-dot">
  <circle cx="86" cy="60" r="5" fill="#FF0000" stroke="#FFFFFF" stroke-width="1">
    <title>VolSnap: DOWN @ 73¢</title>
  </circle>
  <g class="dot-tip" id="tip_0" opacity="0" style="pointer-events:none">
    <rect x="90" y="32" width="122" height="14" rx="3" fill="#000000" fill-opacity="0.85" stroke="#FF0000" stroke-width="1"/>
    <text x="94" y="42" font-size="9" fill="#FF0000" font-family="monospace">VolSnap: DOWN @ 73¢</text>
  </g>
</g>
<g class="trade-dot">
  <circle cx="93" cy="76" r="5" fill="#FF0000" stroke="#FFFFFF" stroke-width="1">
    <title>Nitro: DOWN @ 62¢</title>
  </circle>
  <g class="dot-tip" id="tip_1" opacity="0" style="pointer-events:none">
    <rect x="97" y="48" width="110" height="14" rx="3" fill="#000000" fill-opacity="0.85" stroke="#FF0000" stroke-width="1"/>
    <text x="101" y="58" font-size="9" fill="#FF0000" font-family="monospace">Nitro: DOWN @ 62¢</text>
  </g>
</g>
</svg>