<svg width="340" height="190" xmlns="http://www.w3.org/2000/svg" style="overflow:visible">
<style>.trade-dot:hover .dot-tip { opacity: 1 !important; } .trade-dot { cursor: crosshair; }</style>
<rect width="340" height="190" fill="#121212" />
<line x1="20" y1="139" x2="320" y2="139" stroke="#232323" stroke-width="1" />
<line x1="20" y1="109" x2="320" y2="109" stroke="#232323" stroke-width="1" />
<line x1="20" y1="94" x2="320" y2="94" stroke="#3C3C3C" stroke-width="1" />
<line x1="20" y1="79" x2="320" y2="79" stroke="#232323" stroke-width="1" />
<line x1="20" y1="49" x2="320" y2="49" stroke="#232323" stroke-width="1" />
<line x1="169" y1="20" x2="169" y2="170" stroke="#232323" stroke-width="1" />
<polyline points="20,101 22,101 29,101 35,101 42,121 49,122 60,119 70,129 80,133 86,110 93,115 99,114 105,107 111,100 118,101 124,101 131,103 137,105 143,121 149,125 156,133 161,133 169,133 176,135 182,136 190,139 199,142 207,144 214,138 222,146 229,146 236,157 242,157 251,160 258,163 268,154 280,145 287,149 295,156 305,166 316,168" fill="none" stroke="#FFFF00" stroke-width="2" stroke-linejoin="round" />
</svg>