<svg width="340" height="190" xmlns="http://www.w3.org/2000/svg" style="overflow:visible">
<style>.trade-dot:hover .dot-tip { opacity: 1 !important; } .trade-dot { cursor: crosshair; }</style>
<rect width="340" height="190" fill="#121212" />
<line x1="20" y1="139" x2="320" y2="139" stroke="#232323" stroke-width="1" />
<line x1="20" y1="109" x2="320" y2="109" stroke="#232323" stroke-width="1" />
<line x1="20" y1="94" x2="320" y2="94" stroke="#3C3C3C" stroke-width="1" />
<line x1="20" y1="79" x2="320" y2="79" stroke="#232323" stroke-width="1" />
<line x1="20" y1="49" x2="320" y2="49" stroke="#232323" stroke-width="1" />
<line x1="169" y1="20" x2="169" y2="170" stroke="#232323" stroke-width="1" />
<polyline points="20,87 25,87 30,88 34,79 41,66 49,67 55,67 61,67 66,85 70,74 79,83 86,77 91,90 98,95 105,93 109,99 115,90 119,95 124,117 135,128 140,127 146,115 150,110 155,125 163,133 167,154 172,139 177,139 181,141 186,142 194,143 199,154 204,154 208,150 213,149 217,137 224,142 229,147 234,154 244,159 248,159 253,160 257,165 263,166 268,166 272,168 276,168 280,168 285,168 289,168 294,168 301,168 306,168 310,168 316,168" fill="none" stroke="#FFFF00" stroke-width="2" stroke-linejoin="round" />
<line x1="20" y1="20" x2="20" y2="170" stroke="#00FFFF" stroke-width="1" stroke-dasharray="3,3" opacity="0.8">
  <title>Next window tilt: ▲UP 52¢</title>
</line>
<rect x="21" y="20" width="46" height="11" rx="2" fill="#000000" fill-opacity="0.8" stroke="#00FFFF" stroke-width="1"/>
<text x="23" y="29" font-size="8" fill="#00FFFF" font-family="monospace" font-weight="bold">▲UP 52¢</text>
<g class="trade-dot">
  <circle cx="90" cy="75" r="5" fill="#00FF00" stroke="#FFFFFF" stroke-width="1">
    <title>VolSnap: UP @ 63¢</title>
  </circle>
  <g class="dot-tip" id="tip_0" opacity="0" style="pointer-events:none">
    <rect x="94" y="47" width="110" height="14" rx="3" fill="#000000" fill-opacity="0.85" stroke="#00FF00" stroke-width="1"/>
    <text x="98" y="57" font-size="9" fill="#00FF00" font-family="monospace">VolSnap: UP @ 63¢</text>
  </g>
</g>
</svg>