<svg width="340" height="190" xmlns="http://www.w3.org/2000/svg" style="overflow:visible">
<style>.trade-dot:hover .dot-tip { opacity: 1 !important; } .trade-dot { cursor: crosshair; }</style>
<rect width="340" height="190" fill="#121212" />
<line x1="20" y1="139" x2="320" y2="139" stroke="#232323" stroke-width="1" />
<line x1="20" y1="109" x2="320" y2="109" stroke="#232323" stroke-width="1" />
<line x1="20" y1="94" x2="320" y2="94" stroke="#3C3C3C" stroke-width="1" />
<line x1="20" y1="79" x2="320" y2="79" stroke="#232323" stroke-width="1" />
<line x1="20" y1="49" x2="320" y2="49" stroke="#232323" stroke-width="1" />
<line x1="169" y1="20" x2="169" y2="170" stroke="#232323" stroke-width="1" />
<polyline points="20,95 21,95 24,98 27,87 30,93 33,91 36,89 39,84 42,92 45,86 48,74 51,75 54,84 57,87 60,90 63,87 66,91 69,93 72,108 75,114 78,127 81,120 84,120 87,126 90,127 93,131 96,130 99,128 102,125 105,122 108,139 111,138 114,142 117,132 120,141 123,129 126,133 129,130 132,142 135,138 138,139 141,136 144,147 147,149 150,148 153,145 156,145 159,147 162,146 165,146 168,147 171,144 174,145 177,144 180,148 183,151 186,154 189,156 192,159 195,159 198,157 201,156 204,151 207,154 210,157 213,159 216,160 219,160 222,160 225,160 228,160 231,162 234,163 237,163 240,163 243,163 246,164 249,165 252,166 255,167 258,167 261,167 264,167 267,167 270,167 273,167 276,167 279,167 282,167 285,167 288,167 291,167 294,167 297,167 300,167 303,167 306,167 309,167 312,167 315,167 318,167" fill="none" stroke="#FFFF00" stroke-width="2" stroke-linejoin="round" />
<line x1="20" y1="20" x2="20" y2="170" stroke="#00FFFF" stroke-width="1" stroke-dasharray="3,3" opacity="0.8">
  <title>Next window tilt: ▲UP 71¢</title>
</line>
<rect x="21" y="20" width="46" height="11" rx="2" fill="#000000" fill-opacity="0.8" stroke="#00FFFF" stroke-width="1"/>
<text x="23" y="29" font-size="8" fill="#00FFFF" font-family="monospace" font-weight="bold">▲UP 71¢</text>
<g class="trade-dot">
  <circle cx="82" cy="69" r="5" fill="#FF0000" stroke="#FFFFFF" stroke-width="1">
    <title>VolSnap: DOWN @ 67¢</title>
  </circle>
  <g class="dot-tip" id="tip_0" opacity="0" style="pointer-events:none">
    <rect x="86" y="41" width="122" height="14" rx="3" fill="#000000" fill-opacity="0.85" stroke="#FF0000" stroke-width="1"/>
    <text x="90" y="51" font-size="9" fill="#FF0000" font-family="monospace">VolSnap: DOWN @ 67¢</text>
  </g>
</g>
<g class="trade-dot">
  <circle cx="112" cy="51" r="5" fill="#FF0000" stroke="#FFFFFF" stroke-width="1">
    <title>Nitro: DOWN @ 79¢</title>
  </circle>
  <g class="dot-tip" id="tip_1" opacity="0" style="pointer-events:none">
    <rect x="116" y="23" width="110" height="14" rx="3" fill="#000000" fill-opacity="0.85" stroke="#FF0000" stroke-width="1"/>
    <text x="120" y="33" font-size="9" fill="#FF0000" font-family="monospace">Nitro: DOWN @ 79¢</text>
  </g>
</g>
</svg>