<svg width="340" height="190" xmlns="http://www.w3.org/2000/svg" style="overflow:visible">
<style>.trade-dot:hover .dot-tip { opacity: 1 !important; } .trade-dot { cursor: crosshair; }</style>
<rect width="340" height="190" fill="#121212" />
<line x1="20" y1="139" x2="320" y2="139" stroke="#232323" stroke-width="1" />
<line x1="20" y1="109" x2="320" y2="109" stroke="#232323" stroke-width="1" />
<line x1="20" y1="94" x2="320" y2="94" stroke="#3C3C3C" stroke-width="1" />
<line x1="20" y1="79" x2="320" y2="79" stroke="#232323" stroke-width="1" />
<line x1="20" y1="49" x2="320" y2="49" stroke="#232323" stroke-width="1" />
<line x1="169" y1="20" x2="169" y2="170" stroke="#232323" stroke-width="1" />
<polyline points="20,94 22,101 25,114 28,114 31,107 34,102 37,99 40,89 43,87 46,80 49,78 52,80 55,79 58,83 61,93 64,89 67,89 70,89 73,89 76,93 79,78 82,77 85,72 88,78 91,78 94,94 97,87 100,93 103,102 106,89 109,86 112,90 115,85 118,84 121,87 124,93 127,81 130,80 133,82 136,92 139,90 142,79 145,72 148,71 151,68 154,68 157,72 160,74 163,71 166,71 169,72 172,74 175,73 178,72 181,71 184,71 187,63 190,60 193,56 196,55 199,52 202,44 205,45 208,34 211,37 214,37 217,37 220,33 223,44 226,36 229,28 232,28 235,26 238,29 241,29 244,30 247,34 250,35 253,69 256,69 259,69 262,78 265,125 268,125 271,122 274,133 277,132 280,134 283,137 286,139 289,144 292,118 295,129 298,128 301,120 304,142 307,155 310,157 313,160 316,167" fill="none" stroke="#FFFF00" stroke-width="2" stroke-linejoin="round" />
<line x1="20" y1="20" x2="20" y2="170" stroke="#00FFFF" stroke-width="1" stroke-dasharray="3,3" opacity="0.8">
  <title>Next window tilt: ▲UP 52¢</title>
</line>
<rect x="21" y="20" width="46" height="11" rx="2" fill="#000000" fill-opacity="0.8" stroke="#00FFFF" stroke-width="1"/>
<text x="23" y="29" font-size="8" fill="#00FFFF" font-family="monospace" font-weight="bold">▲UP 52¢</text>
</svg>