<svg width="340" height="190" xmlns="http://www.w3.org/2000/svg" style="overflow:visible">
<style>.trade-dot:hover .dot-tip { opacity: 1 !important; } .trade-dot { cursor: crosshair; }</style>
<rect width="340" height="190" fill="#121212" />
<line x1="20" y1="139" x2="320" y2="139" stroke="#232323" stroke-width="1" />
<line x1="20" y1="109" x2="320" y2="109" stroke="#232323" stroke-width="1" />
<line x1="20" y1="94" x2="320" y2="94" stroke="#3C3C3C" stroke-width="1" />
<line x1="20" y1="79" x2="320" y2="79" stroke="#232323" stroke-width="1" />
<line x1="20" y1="49" x2="320" y2="49" stroke="#232323" stroke-width="1" />
<line x1="169" y1="20" x2="169" y2="170" stroke="#232323" stroke-width="1" />
<polyline points="20,84 22,84 30,66 37,65 48,78 64,77 76,68 88,57 94,70 101,70 109,75 116,72 126,57 140,57 152,48 162,47 174,43 184,34 202,28 218,22 229,22 236,22 242,20 248,20 262,20 272,20 283,20 291,20 312,20" fill="none" stroke="#FFFF00" stroke-width="2" stroke-linejoin="round" />
<line x1="20" y1="20" x2="20" y2="170" stroke="#FF00FF" stroke-width="1" stroke-dasharray="3,3" opacity="0.8">
  <title>Next window tilt: ▼DOWN 53¢</title>
</line>
<rect x="21" y="20" width="58" height="11" rx="2" fill="#000000" fill-opacity="0.8" stroke="#FF00FF" stroke-width="1"/>
<text x="23" y="29" font-size="8" fill="#FF00FF" font-family="monospace" font-weight="bold">▼DOWN 53¢</text>
<g class="trade-dot">
  <circle cx="47" cy="66" r="5" fill="#00FF00" stroke="#FFFFFF" stroke-width="1">
    <title>Nitro: UP @ 69¢</title>
  </circle>
  <g class="dot-tip" id="tip_0" opacity="0" style="pointer-events:none">
    <rect x="51" y="38" width="98" height="14" rx="3" fill="#000000" fill-opacity="0.85" stroke="#00FF00" stroke-width="1"/>
    <text x="55" y="48" font-size="9" fill="#00FF00" font-family="monospace">Nitro: UP @ 69¢</text>
  </g>
</g>
<g class="trade-dot">
  <circle cx="93" cy="58" r="5" fill="#00FF00" stroke="#FFFFFF" stroke-width="1">
    <title>VolSnap: UP @ 74¢</title>
  </circle>
  <g class="dot-tip" id="tip_1" opacity="0" style="pointer-events:none">
    <rect x="97" y="30" width="110" height="14" rx="3" fill="#000000" fill-opacity="0.85" stroke="#00FF00" stroke-width="1"/>
    <text x="101" y="40" font-size="9" fill="#00FF00" font-family="monospace">VolSnap: UP @ 74¢</text>
  </g>
</g>
</svg>