<svg width="340" height="190" xmlns="http://www.w3.org/2000/svg" style="overflow:visible">
<style>.trade-dot:hover .dot-tip { opacity: 1 !important; } .trade-dot { cursor: crosshair; }</style>
<rect width="340" height="190" fill="#121212" />
<line x1="20" y1="139" x2="320" y2="139" stroke="#232323" stroke-width="1" />
<line x1="20" y1="109" x2="320" y2="109" stroke="#232323" stroke-width="1" />
<line x1="20" y1="94" x2="320" y2="94" stroke="#3C3C3C" stroke-width="1" />
<line x1="20" y1="79" x2="320" y2="79" stroke="#232323" stroke-width="1" />
<line x1="20" y1="49" x2="320" y2="49" stroke="#232323" stroke-width="1" />
<line x1="169" y1="20" x2="169" y2="170" stroke="#232323" stroke-width="1" />
<polyline points="20,90 22,86 25,99 28,98 31,98 34,96 37,95 40,86 43,86 46,86 49,86 52,84 55,90 58,98 61,98 64,98 67,98 70,87 73,88 76,88 79,89 82,90 85,93 88,89 91,90 94,92 97,89 100,88 103,86 106,82 109,55 112,49 115,63 118,61 121,66 124,68 127,67 130,59 133,58 136,70 139,69 142,68 145,62 148,53 151,51 154,49 157,47 160,47 163,47 166,47 169,40 172,34 175,29 178,28 181,27 184,25 187,26 190,26 193,28 196,37 199,35 202,34 205,34 208,38 211,34 214,54 217,54 220,53 223,38 226,37 229,37 232,37 235,34 238,34 241,34 244,40 248,37 251,35 254,36 257,37 260,34 263,38 266,28 269,33 272,32 275,33 278,26 281,23 284,23 287,24 290,23 293,23 296,23 299,22 302,22 305,30 308,24 311,25 314,21 317,20" fill="none" stroke="#FFFF00" stroke-width="2" stroke-linejoin="round" />
<line x1="20" y1="20" x2="20" y2="170" stroke="#00FFFF" stroke-width="1" stroke-dasharray="3,3" opacity="0.8">
  <title>Next window tilt: ▲UP 54¢</title>
</line>
<rect x="21" y="20" width="46" height="11" rx="2" fill="#000000" fill-opacity="0.8" stroke="#00FFFF" stroke-width="1"/>
<text x="23" y="29" font-size="8" fill="#00FFFF" font-family="monospace" font-weight="bold">▲UP 54¢</text>
<g class="trade-dot">
  <circle cx="140" cy="72" r="5" fill="#00FF00" stroke="#FFFFFF" stroke-width="1">
    <title>Nitro: UP @ 65¢</title>
  </circle>
  <g class="dot-tip" id="tip_0" opacity="0" style="pointer-events:none">
    <rect x="144" y="44" width="98" height="14" rx="3" fill="#000000" fill-opacity="0.85" stroke="#00FF00" stroke-width="1"/>
    <text x="148" y="54" font-size="9" fill="#00FF00" font-family="monospace">Nitro: UP @ 65¢</text>
  </g>
</g>
</svg>