<svg width="340" height="190" xmlns="http://www.w3.org/2000/svg" style="overflow:visible">
<style>.trade-dot:hover .dot-tip { opacity: 1 !important; } .trade-dot { cursor: crosshair; }</style>
<rect width="340" height="190" fill="#121212" />
<line x1="20" y1="139" x2="320" y2="139" stroke="#232323" stroke-width="1" />
<line x1="20" y1="109" x2="320" y2="109" stroke="#232323" stroke-width="1" />
<line x1="20" y1="94" x2="320" y2="94" stroke="#3C3C3C" stroke-width="1" />
<line x1="20" y1="79" x2="320" y2="79" stroke="#232323" stroke-width="1" />
<line x1="20" y1="49" x2="320" y2="49" stroke="#232323" stroke-width="1" />
<line x1="169" y1="20" x2="169" y2="170" stroke="#232323" stroke-width="1" />
<polyline points="20,87 21,87 29,66 34,73 38,77 43,89 50,78 58,75 66,72 72,70 79,63 82,66 86,61 90,57 94,71 97,70 101,63 104,61 108,69 112,67 117,62 121,69 125,72 132,69 136,69 140,59 146,68 152,64 171,64 178,70 182,65 188,52 200,56 206,46 211,52 215,57 223,125 229,139 234,140 240,148 245,154 249,158 255,163 260,165 266,166 271,168 279,168 283,168 289,168 293,168 298,168 304,168 308,168 317,168" fill="none" stroke="#FFFF00" stroke-width="2" stroke-linejoin="round" />
<g class="trade-dot">
  <circle cx="85" cy="67" r="5" fill="#00FF00" stroke="#FFFFFF" stroke-width="1">
    <title>VolSnap: UP @ 68¢</title>
  </circle>
  <g class="dot-tip" id="tip_0" opacity="0" style="pointer-events:none">
    <rect x="89" y="39" width="110" height="14" rx="3" fill="#000000" fill-opacity="0.85" stroke="#00FF00" stroke-width="1"/>
    <text x="93" y="49" font-size="9" fill="#00FF00" font-family="monospace">VolSnap: UP @ 68¢</text>
  </g>
</g>
</svg>