<svg width="340" height="190" xmlns="http://www.w3.org/2000/svg" style="overflow:visible">
<style>.trade-dot:hover .dot-tip { opacity: 1 !important; } .trade-dot { cursor: crosshair; }</style>
<rect width="340" height="190" fill="#121212" />
<line x1="20" y1="139" x2="320" y2="139" stroke="#232323" stroke-width="1" />
<line x1="20" y1="109" x2="320" y2="109" stroke="#232323" stroke-width="1" />
<line x1="20" y1="94" x2="320" y2="94" stroke="#3C3C3C" stroke-width="1" />
<line x1="20" y1="79" x2="320" y2="79" stroke="#232323" stroke-width="1" />
<line x1="20" y1="49" x2="320" y2="49" stroke="#232323" stroke-width="1" />
<line x1="169" y1="20" x2="169" y2="170" stroke="#232323" stroke-width="1" />
<polyline points="20,88 22,88 32,94 38,91 45,91 52,101 58,104 65,102 69,104 72,108 75,105 78,105 81,104 84,101 87,107 90,112 93,111 96,110 99,114 102,111 105,113 108,113 111,104 114,98 117,98 120,98 123,99 126,90 129,87 132,77 135,75 138,72 141,90 144,89 147,92 150,92 153,90 156,72 159,63 162,60 165,56 168,59 171,56 174,50 177,52 180,54 183,44 186,40 189,41 192,41 195,42 198,55 201,48 204,40 207,41 210,34 213,31 216,29 219,29 222,28 225,26 228,28 231,29 234,25 237,26 240,27 243,26 246,26 249,25 252,25 255,25 258,25 261,23 264,23 267,23 270,23 273,23 276,22 279,22 282,20 285,20 288,20 291,20 294,20 297,20 300,20 303,20 306,20 309,20 312,20 315,20 318,20" fill="none" stroke="#FFFF00" stroke-width="2" stroke-linejoin="round" />
<line x1="20" y1="20" x2="20" y2="170" stroke="#00FFFF" stroke-width="1" stroke-dasharray="3,3" opacity="0.8">
  <title>Next window tilt: ▲UP 52¢</title>
</line>
<rect x="21" y="20" width="46" height="11" rx="2" fill="#000000" fill-opacity="0.8" stroke="#00FFFF" stroke-width="1"/>
<text x="23" y="29" font-size="8" fill="#00FFFF" font-family="monospace" font-weight="bold">▲UP 52¢</text>
<g class="trade-dot">
  <circle cx="91" cy="78" r="5" fill="#FF0000" stroke="#FFFFFF" stroke-width="1">
    <title>VolSnap: DOWN @ 61¢</title>
  </circle>
  <g class="dot-tip" id="tip_0" opacity="0" style="pointer-events:none">
    <rect x="95" y="50" width="122" height="14" rx="3" fill="#000000" fill-opacity="0.85" stroke="#FF0000" stroke-width="1"/>
    <text x="99" y="60" font-size="9" fill="#FF0000" font-family="monospace">VolSnap: DOWN @ 61¢</text>
  </g>
</g>
</svg>