<svg width="340" height="190" xmlns="http://www.w3.org/2000/svg" style="overflow:visible">
<style>.trade-dot:hover .dot-tip { opacity: 1 !important; } .trade-dot { cursor: crosshair; }</style>
<rect width="340" height="190" fill="#121212" />
<line x1="20" y1="139" x2="320" y2="139" stroke="#232323" stroke-width="1" />
<line x1="20" y1="109" x2="320" y2="109" stroke="#232323" stroke-width="1" />
<line x1="20" y1="94" x2="320" y2="94" stroke="#3C3C3C" stroke-width="1" />
<line x1="20" y1="79" x2="320" y2="79" stroke="#232323" stroke-width="1" />
<line x1="20" y1="49" x2="320" y2="49" stroke="#232323" stroke-width="1" />
<line x1="169" y1="20" x2="169" y2="170" stroke="#232323" stroke-width="1" />
<polyline points="20,92 23,92 29,105 33,101 38,95 44,95 49,80 56,66 62,66 66,66 76,78 80,81 86,92 91,88 95,90 101,93 105,110 109,112 113,121 122,122 126,122 131,107 136,101 140,105 144,102 148,108 153,111 157,117 162,110 167,105 171,100 175,100 179,92 184,84 188,81 193,94 202,97 207,99 213,104 217,107 222,117 228,136 234,147 238,142 245,152 252,156 263,148 267,151 273,160 277,160 282,163 289,163 295,165 300,166 305,167 311,168 315,168" fill="none" stroke="#FFFF00" stroke-width="2" stroke-linejoin="round" />
<line x1="20" y1="20" x2="20" y2="170" stroke="#00FFFF" stroke-width="1" stroke-dasharray="3,3" opacity="0.8">
  <title>Next window tilt: ▲UP 55¢</title>
</line>
<rect x="21" y="20" width="46" height="11" rx="2" fill="#000000" fill-opacity="0.8" stroke="#00FFFF" stroke-width="1"/>
<text x="23" y="29" font-size="8" fill="#00FFFF" font-family="monospace" font-weight="bold">▲UP 55¢</text>
<g class="trade-dot">
  <circle cx="108" cy="79" r="5" fill="#FF0000" stroke="#FFFFFF" stroke-width="1">
    <title>Briefing: DOWN @ 60¢</title>
  </circle>
  <g class="dot-tip" id="tip_0" opacity="0" style="pointer-events:none">
    <rect x="112" y="51" width="128" height="14" rx="3" fill="#000000" fill-opacity="0.85" stroke="#FF0000" stroke-width="1"/>
    <text x="116" y="61" font-size="9" fill="#FF0000" font-family="monospace">Briefing: DOWN @ 60¢</text>
  </g>
</g>
</svg>