<svg width="340" height="190" xmlns="http://www.w3.org/2000/svg" style="overflow:visible">
<style>.trade-dot:hover .dot-tip { opacity: 1 !important; } .trade-dot { cursor: crosshair; }</style>
<rect width="340" height="190" fill="#121212" />
<line x1="20" y1="139" x2="320" y2="139" stroke="#232323" stroke-width="1" />
<line x1="20" y1="109" x2="320" y2="109" stroke="#232323" stroke-width="1" />
<line x1="20" y1="94" x2="320" y2="94" stroke="#3C3C3C" stroke-width="1" />
<line x1="20" y1="79" x2="320" y2="79" stroke="#232323" stroke-width="1" />
<line x1="20" y1="49" x2="320" y2="49" stroke="#232323" stroke-width="1" />
<line x1="169" y1="20" x2="169" y2="170" stroke="#232323" stroke-width="1" />
<polyline points="20,85 21,85 24,77 27,77 30,66 33,69 36,72 39,69 42,63 45,66 48,62 51,62 54,60 57,55 60,36 63,46 66,41 69,34 72,35 75,38 78,39 81,42 84,46 87,47 90,43 93,47 96,43 99,39 102,35 105,34 108,32 111,31 114,30 117,31 120,31 124,29 127,28 130,30 133,31 136,32 139,30 142,31 145,32 148,31 151,29 154,29 157,31 160,32 163,28 166,31 169,31 172,28 175,28 178,26 181,26 184,25 187,25 190,25 193,25 196,25 199,25 202,23 205,23 208,23 211,24 214,26 217,26 220,23 223,23 226,23 229,23 232,23 235,23 238,22 241,23 244,23 247,22 250,22 253,22 256,22 259,22 262,22 265,22 268,22 271,24 274,23 277,22 280,22 283,22 286,20 289,20 292,20 295,20 298,20 301,20 304,20 307,20 310,20 313,20 316,20" fill="none" stroke="#FFFF00" stroke-width="2" stroke-linejoin="round" />
<line x1="20" y1="20" x2="20" y2="170" stroke="#00FFFF" stroke-width="1" stroke-dasharray="3,3" opacity="0.8">
  <title>Next window tilt: ▲UP 57¢</title>
</line>
<rect x="21" y="20" width="46" height="11" rx="2" fill="#000000" fill-opacity="0.8" stroke="#00FFFF" stroke-width="1"/>
<text x="23" y="29" font-size="8" fill="#00FFFF" font-family="monospace" font-weight="bold">▲UP 57¢</text>
</svg>