<svg width="340" height="190" xmlns="http://www.w3.org/2000/svg" style="overflow:visible">
<style>.trade-dot:hover .dot-tip { opacity: 1 !important; } .trade-dot { cursor: crosshair; }</style>
<rect width="340" height="190" fill="#121212" />
<line x1="20" y1="139" x2="320" y2="139" stroke="#232323" stroke-width="1" />
<line x1="20" y1="109" x2="320" y2="109" stroke="#232323" stroke-width="1" />
<line x1="20" y1="94" x2="320" y2="94" stroke="#3C3C3C" stroke-width="1" />
<line x1="20" y1="79" x2="320" y2="79" stroke="#232323" stroke-width="1" />
<line x1="20" y1="49" x2="320" y2="49" stroke="#232323" stroke-width="1" />
<line x1="169" y1="20" x2="169" y2="170" stroke="#232323" stroke-width="1" />
<polyline points="20,98 20,98 23,92 26,79 29,85 32,81 35,84 38,94 41,98 44,98 47,99 50,99 53,101 56,100 59,108 62,122 65,132 68,136 71,128 74,117 77,114 80,110 83,110 86,113 89,116 92,114 95,110 98,110 101,107 104,104 107,116 110,116 113,116 116,117 119,120 122,133 125,135 128,136 131,132 134,133 137,135 140,131 143,132 146,133 149,139 152,136 155,135 158,133 161,132 164,132 167,132 170,129 173,133 176,135 179,125 182,126 185,125 188,128 191,131 194,131 197,120 200,107 203,115 206,104 209,97 212,97 215,113 218,109 221,112 224,122 227,114 230,104 233,123 236,117 239,123 242,122 245,142 248,139 251,133 254,143 257,145 260,128 263,129 266,129 269,131 272,141 275,145 278,147 281,151 284,154 287,156 290,157 293,158 296,160 299,161 302,165 305,167 308,166 311,167 314,167 317,167" fill="none" stroke="#FFFF00" stroke-width="2" stroke-linejoin="round" />
<g class="trade-dot">
  <circle cx="33" cy="78" r="5" fill="#00FF00" stroke="#FFFFFF" stroke-width="1">
    <title>WCP: UP @ 61¢</title>
  </circle>
  <g class="dot-tip" id="tip_0" opacity="0" style="pointer-events:none">
    <rect x="37" y="50" width="86" height="14" rx="3" fill="#000000" fill-opacity="0.85" stroke="#00FF00" stroke-width="1"/>
    <text x="41" y="60" font-size="9" fill="#00FF00" font-family="monospace">WCP: UP @ 61¢</text>
  </g>
</g>
<g class="trade-dot">
  <circle cx="63" cy="66" r="5" fill="#FF0000" stroke="#FFFFFF" stroke-width="1">
    <title>Nitro: DOWN @ 69¢</title>
  </circle>
  <g class="dot-tip" id="tip_1" opacity="0" style="pointer-events:none">
    <rect x="67" y="38" width="110" height="14" rx="3" fill="#000000" fill-opacity="0.85" stroke="#FF0000" stroke-width="1"/>
    <text x="71" y="48" font-size="9" fill="#FF0000" font-family="monospace">Nitro: DOWN @ 69¢</text>
  </g>
</g>
<g class="trade-dot">
  <circle cx="81" cy="79" r="5" fill="#FF0000" stroke="#FFFFFF" stroke-width="1">
    <title>VolSnap: DOWN @ 60¢</title>
  </circle>
  <g class="dot-tip" id="tip_2" opacity="0" style="pointer-events:none">
    <rect x="85" y="51" width="122" height="14" rx="3" fill="#000000" fill-opacity="0.85" stroke="#FF0000" stroke-width="1"/>
    <text x="89" y="61" font-size="9" fill="#FF0000" font-family="monospace">VolSnap: DOWN @ 60¢</text>
  </g>
</g>
</svg>