<svg width="340" height="190" xmlns="http://www.w3.org/2000/svg" style="overflow:visible">
<style>.trade-dot:hover .dot-tip { opacity: 1 !important; } .trade-dot { cursor: crosshair; }</style>
<rect width="340" height="190" fill="#121212" />
<line x1="20" y1="139" x2="320" y2="139" stroke="#232323" stroke-width="1" />
<line x1="20" y1="109" x2="320" y2="109" stroke="#232323" stroke-width="1" />
<line x1="20" y1="94" x2="320" y2="94" stroke="#3C3C3C" stroke-width="1" />
<line x1="20" y1="79" x2="320" y2="79" stroke="#232323" stroke-width="1" />
<line x1="20" y1="49" x2="320" y2="49" stroke="#232323" stroke-width="1" />
<line x1="169" y1="20" x2="169" y2="170" stroke="#232323" stroke-width="1" />
<polyline points="20,91 22,91 29,92 35,87 44,81 48,72 52,70 55,63 59,61 63,59 67,57 70,59 74,60 77,60 80,59 83,67 86,60 89,57 92,59 95,60 98,57 101,52 104,46 107,49 110,39 113,43 116,49 119,49 122,50 126,52 129,49 132,43 135,45 138,54 141,81 144,78 147,77 150,72 153,67 156,57 159,53 162,51 165,51 168,59 171,57 175,56 178,56 181,56 184,52 187,55 190,55 193,40 196,42 199,41 202,43 205,44 208,43 211,55 214,55 217,52 220,51 223,53 226,50 229,41 232,43 235,40 238,38 241,38 244,32 247,29 250,28 253,28 256,25 259,25 262,31 265,29 268,29 271,35 274,28 277,28 280,31 283,31 286,26 289,22 292,22 295,22 298,22 301,20 304,20 307,20 310,20 313,20 316,20" fill="none" stroke="#FFFF00" stroke-width="2" stroke-linejoin="round" />
<line x1="20" y1="20" x2="20" y2="170" stroke="#00FFFF" stroke-width="1" stroke-dasharray="3,3" opacity="0.8">
  <title>Next window tilt: ▲UP 53¢</title>
</line>
<rect x="21" y="20" width="46" height="11" rx="2" fill="#000000" fill-opacity="0.8" stroke="#00FFFF" stroke-width="1"/>
<text x="23" y="29" font-size="8" fill="#00FFFF" font-family="monospace" font-weight="bold">▲UP 53¢</text>
<g class="trade-dot">
  <circle cx="81" cy="60" r="5" fill="#00FF00" stroke="#FFFFFF" stroke-width="1">
    <title>VolSnap: UP @ 73¢</title>
  </circle>
  <g class="dot-tip" id="tip_0" opacity="0" style="pointer-events:none">
    <rect x="85" y="32" width="110" height="14" rx="3" fill="#000000" fill-opacity="0.85" stroke="#00FF00" stroke-width="1"/>
    <text x="89" y="42" font-size="9" fill="#00FF00" font-family="monospace">VolSnap: UP @ 73¢</text>
  </g>
</g>
</svg>