<svg width="340" height="190" xmlns="http://www.w3.org/2000/svg" style="overflow:visible">
<style>.trade-dot:hover .dot-tip { opacity: 1 !important; } .trade-dot { cursor: crosshair; }</style>
<rect width="340" height="190" fill="#121212" />
<line x1="20" y1="139" x2="320" y2="139" stroke="#232323" stroke-width="1" />
<line x1="20" y1="109" x2="320" y2="109" stroke="#232323" stroke-width="1" />
<line x1="20" y1="94" x2="320" y2="94" stroke="#3C3C3C" stroke-width="1" />
<line x1="20" y1="79" x2="320" y2="79" stroke="#232323" stroke-width="1" />
<line x1="20" y1="49" x2="320" y2="49" stroke="#232323" stroke-width="1" />
<line x1="169" y1="20" x2="169" y2="170" stroke="#232323" stroke-width="1" />
<polyline points="20,93 25,93 35,78 52,81 64,82 78,85 85,85 92,83 99,83 105,83 111,83 116,78 124,58 132,52 138,52 144,57 153,56 161,57 172,43 182,44 190,49 200,55 210,55 217,65 222,60 228,80 236,84 246,81 252,60 260,51 264,43 269,38 273,50 281,93 287,102 294,81 301,46 312,91" fill="none" stroke="#FFFF00" stroke-width="2" stroke-linejoin="round" />
</svg>