<svg width="340" height="190" xmlns="http://www.w3.org/2000/svg" style="overflow:visible">
<style>.trade-dot:hover .dot-tip { opacity: 1 !important; } .trade-dot { cursor: crosshair; }</style>
<rect width="340" height="190" fill="#121212" />
<line x1="20" y1="139" x2="320" y2="139" stroke="#232323" stroke-width="1" />
<line x1="20" y1="109" x2="320" y2="109" stroke="#232323" stroke-width="1" />
<line x1="20" y1="94" x2="320" y2="94" stroke="#3C3C3C" stroke-width="1" />
<line x1="20" y1="79" x2="320" y2="79" stroke="#232323" stroke-width="1" />
<line x1="20" y1="49" x2="320" y2="49" stroke="#232323" stroke-width="1" />
<line x1="169" y1="20" x2="169" y2="170" stroke="#232323" stroke-width="1" />
<polyline points="20,97 20,97 23,94 26,93 29,101 32,100 35,104 38,104 41,119 44,113 47,111 50,116 53,126 56,129 59,133 62,123 65,126 68,138 71,141 74,139 77,151 80,157 83,154 86,139 89,129 92,136 95,148 98,151 101,148 104,142 107,145 110,148 113,150 116,148 119,145 122,145 125,148 129,142 132,142 135,144 138,135 141,142 144,147 147,147 150,148 153,148 156,148 159,147 162,144 165,141 168,145 171,143 174,144 177,145 180,146 183,147 186,150 189,157 192,157 195,157 198,157 201,157 204,159 207,158 210,159 213,160 216,160 219,160 222,162 225,161 228,162 231,163 234,165 237,165 240,163 243,163 246,162 249,162 252,163 255,165 258,165 261,165 264,165 267,165 270,166 273,166 276,166 279,165 282,166 285,165 288,165 291,165 294,166 297,166 300,166 303,167 306,167 309,167 312,167 315,167 318,167" fill="none" stroke="#FFFF00" stroke-width="2" stroke-linejoin="round" />
<line x1="20" y1="20" x2="20" y2="170" stroke="#FF00FF" stroke-width="1" stroke-dasharray="3,3" opacity="0.8">
  <title>Next window tilt: ▼DOWN 52¢</title>
</line>
<rect x="21" y="20" width="58" height="11" rx="2" fill="#000000" fill-opacity="0.8" stroke="#FF00FF" stroke-width="1"/>
<text x="23" y="29" font-size="8" fill="#FF00FF" font-family="monospace" font-weight="bold">▼DOWN 52¢</text>
<g class="trade-dot">
  <circle cx="42" cy="73" r="5" fill="#FF0000" stroke="#FFFFFF" stroke-width="1">
    <title>Briefing: DOWN @ 64¢</title>
  </circle>
  <g class="dot-tip" id="tip_0" opacity="0" style="pointer-events:none">
    <rect x="46" y="45" width="128" height="14" rx="3" fill="#000000" fill-opacity="0.85" stroke="#FF0000" stroke-width="1"/>
    <text x="50" y="55" font-size="9" fill="#FF0000" font-family="monospace">Briefing: DOWN @ 64¢</text>
  </g>
</g>
<g class="trade-dot">
  <circle cx="75" cy="49" r="5" fill="#FF0000" stroke="#FFFFFF" stroke-width="1">
    <title>Nitro: DOWN @ 80¢</title>
  </circle>
  <g class="dot-tip" id="tip_1" opacity="0" style="pointer-events:none">
    <rect x="79" y="21" width="110" height="14" rx="3" fill="#000000" fill-opacity="0.85" stroke="#FF0000" stroke-width="1"/>
    <text x="83" y="31" font-size="9" fill="#FF0000" font-family="monospace">Nitro: DOWN @ 80¢</text>
  </g>
</g>
<g class="trade-dot">
  <circle cx="87" cy="51" r="5" fill="#FF0000" stroke="#FFFFFF" stroke-width="1">
    <title>VolSnap: DOWN @ 79¢</title>
  </circle>
  <g class="dot-tip" id="tip_2" opacity="0" style="pointer-events:none">
    <rect x="91" y="23" width="122" height="14" rx="3" fill="#000000" fill-opacity="0.85" stroke="#FF0000" stroke-width="1"/>
    <text x="95" y="33" font-size="9" fill="#FF0000" font-family="monospace">VolSnap: DOWN @ 79¢</text>
  </g>
</g>
</svg>