<svg width="340" height="190" xmlns="http://www.w3.org/2000/svg" style="overflow:visible">
<style>.trade-dot:hover .dot-tip { opacity: 1 !important; } .trade-dot { cursor: crosshair; }</style>
<rect width="340" height="190" fill="#121212" />
<line x1="20" y1="139" x2="320" y2="139" stroke="#232323" stroke-width="1" />
<line x1="20" y1="109" x2="320" y2="109" stroke="#232323" stroke-width="1" />
<line x1="20" y1="94" x2="320" y2="94" stroke="#3C3C3C" stroke-width="1" />
<line x1="20" y1="79" x2="320" y2="79" stroke="#232323" stroke-width="1" />
<line x1="20" y1="49" x2="320" y2="49" stroke="#232323" stroke-width="1" />
<line x1="169" y1="20" x2="169" y2="170" stroke="#232323" stroke-width="1" />
<polyline points="20,93 20,93 25,91 29,90 35,87 43,81 48,81 55,75 61,77 67,76 74,80 78,80 84,75 88,78 93,81 97,80 103,90 107,83 113,82 117,76 122,76 127,62 133,57 138,49 143,46 147,44 152,37 157,38 163,41 167,52 173,53 177,56 182,54 188,56 193,64 197,78 202,69 207,84 211,89 218,55 224,41 228,35 232,37 237,36 242,34 246,29 252,24 260,22 264,22 269,21 277,20 284,20 288,20 293,20 298,20 303,20 308,20 316,20" fill="none" stroke="#FFFF00" stroke-width="2" stroke-linejoin="round" />
<g class="trade-dot">
  <circle cx="60" cy="75" r="5" fill="#00FF00" stroke="#FFFFFF" stroke-width="1">
    <title>Briefing: UP @ 63¢</title>
  </circle>
  <g class="dot-tip" id="tip_0" opacity="0" style="pointer-events:none">
    <rect x="64" y="47" width="116" height="14" rx="3" fill="#000000" fill-opacity="0.85" stroke="#00FF00" stroke-width="1"/>
    <text x="68" y="57" font-size="9" fill="#00FF00" font-family="monospace">Briefing: UP @ 63¢</text>
  </g>
</g>
<g class="trade-dot">
  <circle cx="86" cy="76" r="5" fill="#00FF00" stroke="#FFFFFF" stroke-width="1">
    <title>VolSnap: UP @ 62¢</title>
  </circle>
  <g class="dot-tip" id="tip_1" opacity="0" style="pointer-events:none">
    <rect x="90" y="48" width="110" height="14" rx="3" fill="#000000" fill-opacity="0.85" stroke="#00FF00" stroke-width="1"/>
    <text x="94" y="58" font-size="9" fill="#00FF00" font-family="monospace">VolSnap: UP @ 62¢</text>
  </g>
</g>
</svg>