<svg width="340" height="190" xmlns="http://www.w3.org/2000/svg" style="overflow:visible">
<style>.trade-dot:hover .dot-tip { opacity: 1 !important; } .trade-dot { cursor: crosshair; }</style>
<rect width="340" height="190" fill="#121212" />
<line x1="20" y1="139" x2="320" y2="139" stroke="#232323" stroke-width="1" />
<line x1="20" y1="109" x2="320" y2="109" stroke="#232323" stroke-width="1" />
<line x1="20" y1="94" x2="320" y2="94" stroke="#3C3C3C" stroke-width="1" />
<line x1="20" y1="79" x2="320" y2="79" stroke="#232323" stroke-width="1" />
<line x1="20" y1="49" x2="320" y2="49" stroke="#232323" stroke-width="1" />
<line x1="169" y1="20" x2="169" y2="170" stroke="#232323" stroke-width="1" />
<polyline points="20,92 21,92 24,97 27,107 30,108 33,108 36,104 39,105 42,99 45,107 48,107 51,106 54,114 57,116 60,110 63,119 66,116 69,123 72,121 75,116 78,117 81,119 84,122 87,128 90,133 93,135 96,130 99,120 102,125 105,112 108,128 111,131 114,127 117,114 120,113 123,116 126,133 129,129 132,136 135,138 138,136 141,116 144,104 147,104 150,96 153,92 156,93 159,103 162,107 165,103 168,107 171,105 174,110 177,107 180,105 183,113 186,113 189,113 192,123 195,124 198,122 201,104 204,108 207,107 210,108 213,104 216,117 219,116 222,120 225,117 228,120 231,123 234,125 237,124 240,115 243,117 246,113 249,125 252,123 255,124 258,119 261,132 264,154 267,160 270,161 273,165 276,163 279,163 282,164 285,165 288,163 291,166 294,166 297,167 300,167 303,167 306,167 309,167 312,167 315,167 318,167" fill="none" stroke="#FFFF00" stroke-width="2" stroke-linejoin="round" />
<line x1="20" y1="20" x2="20" y2="170" stroke="#00FFFF" stroke-width="1" stroke-dasharray="3,3" opacity="0.8">
  <title>Next window tilt: ▲UP 55¢</title>
</line>
<rect x="21" y="20" width="46" height="11" rx="2" fill="#000000" fill-opacity="0.8" stroke="#00FFFF" stroke-width="1"/>
<text x="23" y="29" font-size="8" fill="#00FFFF" font-family="monospace" font-weight="bold">▲UP 55¢</text>
<g class="trade-dot">
  <circle cx="82" cy="70" r="5" fill="#FF0000" stroke="#FFFFFF" stroke-width="1">
    <title>Nitro: DOWN @ 66¢</title>
  </circle>
  <g class="dot-tip" id="tip_0" opacity="0" style="pointer-events:none">
    <rect x="86" y="42" width="110" height="14" rx="3" fill="#000000" fill-opacity="0.85" stroke="#FF0000" stroke-width="1"/>
    <text x="90" y="52" font-size="9" fill="#FF0000" font-family="monospace">Nitro: DOWN @ 66¢</text>
  </g>
</g>
<g class="trade-dot">
  <circle cx="82" cy="70" r="5" fill="#FF0000" stroke="#FFFFFF" stroke-width="1">
    <title>VolSnap: DOWN @ 66¢</title>
  </circle>
  <g class="dot-tip" id="tip_1" opacity="0" style="pointer-events:none">
    <rect x="86" y="42" width="122" height="14" rx="3" fill="#000000" fill-opacity="0.85" stroke="#FF0000" stroke-width="1"/>
    <text x="90" y="52" font-size="9" fill="#FF0000" font-family="monospace">VolSnap: DOWN @ 66¢</text>
  </g>
</g>
</svg>