<svg width="340" height="190" xmlns="http://www.w3.org/2000/svg" style="overflow:visible">
<style>.trade-dot:hover .dot-tip { opacity: 1 !important; } .trade-dot { cursor: crosshair; }</style>
<rect width="340" height="190" fill="#121212" />
<line x1="20" y1="139" x2="320" y2="139" stroke="#232323" stroke-width="1" />
<line x1="20" y1="109" x2="320" y2="109" stroke="#232323" stroke-width="1" />
<line x1="20" y1="94" x2="320" y2="94" stroke="#3C3C3C" stroke-width="1" />
<line x1="20" y1="79" x2="320" y2="79" stroke="#232323" stroke-width="1" />
<line x1="20" y1="49" x2="320" y2="49" stroke="#232323" stroke-width="1" />
<line x1="169" y1="20" x2="169" y2="170" stroke="#232323" stroke-width="1" />
<polyline points="20,103 23,103 37,100 49,115 56,117 60,131 65,131 72,135 78,133 84,126 87,120 92,113 98,107 104,109 107,108 113,112 117,115 121,114 125,117 131,99 135,101 139,96 143,80 147,72 150,71 154,74 158,63 164,63 169,78 174,81 179,80 182,88 186,102 192,98 197,97 202,84 206,90 211,90 216,83 220,77 225,81 230,82 233,84 238,89 242,106 246,96 249,92 256,91 260,92 264,107 267,109 272,96 281,99 285,120 290,116 294,115 298,88 302,92 306,115 314,136" fill="none" stroke="#FFFF00" stroke-width="2" stroke-linejoin="round" />
<g class="trade-dot">
  <circle cx="86" cy="63" r="5" fill="#FF0000" stroke="#FFFFFF" stroke-width="1">
    <title>Nitro: DOWN @ 71¢</title>
  </circle>
  <g class="dot-tip" id="tip_0" opacity="0" style="pointer-events:none">
    <rect x="90" y="35" width="110" height="14" rx="3" fill="#000000" fill-opacity="0.85" stroke="#FF0000" stroke-width="1"/>
    <text x="94" y="45" font-size="9" fill="#FF0000" font-family="monospace">Nitro: DOWN @ 71¢</text>
  </g>
</g>
<g class="trade-dot">
  <circle cx="86" cy="63" r="5" fill="#FF0000" stroke="#FFFFFF" stroke-width="1">
    <title>VolSnap: DOWN @ 71¢</title>
  </circle>
  <g class="dot-tip" id="tip_1" opacity="0" style="pointer-events:none">
    <rect x="90" y="35" width="122" height="14" rx="3" fill="#000000" fill-opacity="0.85" stroke="#FF0000" stroke-width="1"/>
    <text x="94" y="45" font-size="9" fill="#FF0000" font-family="monospace">VolSnap: DOWN @ 71¢</text>
  </g>
</g>
</svg>