<svg width="340" height="190" xmlns="http://www.w3.org/2000/svg" style="overflow:visible">
<style>.trade-dot:hover .dot-tip { opacity: 1 !important; } .trade-dot { cursor: crosshair; }</style>
<rect width="340" height="190" fill="#121212" />
<line x1="20" y1="139" x2="320" y2="139" stroke="#232323" stroke-width="1" />
<line x1="20" y1="109" x2="320" y2="109" stroke="#232323" stroke-width="1" />
<line x1="20" y1="94" x2="320" y2="94" stroke="#3C3C3C" stroke-width="1" />
<line x1="20" y1="79" x2="320" y2="79" stroke="#232323" stroke-width="1" />
<line x1="20" y1="49" x2="320" y2="49" stroke="#232323" stroke-width="1" />
<line x1="169" y1="20" x2="169" y2="170" stroke="#232323" stroke-width="1" />
<polyline points="20,104 21,104 33,105 55,111 70,117 81,117 93,80 118,81 143,73 153,74 161,67 170,74 181,74 188,71 196,72 203,94 212,92 220,106 231,81 240,69 251,60 257,66 269,107 283,101 290,104 300,125 312,57" fill="none" stroke="#FFFF00" stroke-width="2" stroke-linejoin="round" />
<line x1="20" y1="20" x2="20" y2="170" stroke="#FF00FF" stroke-width="1" stroke-dasharray="3,3" opacity="0.8">
  <title>Next window tilt: ▼DOWN 55¢</title>
</line>
<rect x="21" y="20" width="58" height="11" rx="2" fill="#000000" fill-opacity="0.8" stroke="#FF00FF" stroke-width="1"/>
<text x="23" y="29" font-size="8" fill="#FF00FF" font-family="monospace" font-weight="bold">▼DOWN 55¢</text>
<g class="trade-dot">
  <circle cx="68" cy="78" r="5" fill="#FF0000" stroke="#FFFFFF" stroke-width="1">
    <title>WCP: DOWN @ 61¢</title>
  </circle>
  <g class="dot-tip" id="tip_0" opacity="0" style="pointer-events:none">
    <rect x="72" y="50" width="98" height="14" rx="3" fill="#000000" fill-opacity="0.85" stroke="#FF0000" stroke-width="1"/>
    <text x="76" y="60" font-size="9" fill="#FF0000" font-family="monospace">WCP: DOWN @ 61¢</text>
  </g>
</g>
<g class="trade-dot">
  <circle cx="152" cy="73" r="5" fill="#00FF00" stroke="#FFFFFF" stroke-width="1">
    <title>Nitro: UP @ 64¢</title>
  </circle>
  <g class="dot-tip" id="tip_1" opacity="0" style="pointer-events:none">
    <rect x="156" y="45" width="98" height="14" rx="3" fill="#000000" fill-opacity="0.85" stroke="#00FF00" stroke-width="1"/>
    <text x="160" y="55" font-size="9" fill="#00FF00" font-family="monospace">Nitro: UP @ 64¢</text>
  </g>
</g>
</svg>