<svg width="340" height="190" xmlns="http://www.w3.org/2000/svg" style="overflow:visible">
<style>.trade-dot:hover .dot-tip { opacity: 1 !important; } .trade-dot { cursor: crosshair; }</style>
<rect width="340" height="190" fill="#121212" />
<line x1="20" y1="139" x2="320" y2="139" stroke="#232323" stroke-width="1" />
<line x1="20" y1="109" x2="320" y2="109" stroke="#232323" stroke-width="1" />
<line x1="20" y1="94" x2="320" y2="94" stroke="#3C3C3C" stroke-width="1" />
<line x1="20" y1="79" x2="320" y2="79" stroke="#232323" stroke-width="1" />
<line x1="20" y1="49" x2="320" y2="49" stroke="#232323" stroke-width="1" />
<line x1="169" y1="20" x2="169" y2="170" stroke="#232323" stroke-width="1" />
<polyline points="20,86 25,86 36,76 47,71 59,91 73,61 88,69 98,76 111,77 125,72 137,72 148,69 159,63 173,60 184,59 196,38 212,38 222,41 233,43 244,28 259,22 274,22 285,22 295,22 311,20" fill="none" stroke="#FFFF00" stroke-width="2" stroke-linejoin="round" />
<g class="trade-dot">
  <circle cx="95" cy="70" r="5" fill="#00FF00" stroke="#FFFFFF" stroke-width="1">
    <title>VolSnap: UP @ 66¢</title>
  </circle>
  <g class="dot-tip" id="tip_0" opacity="0" style="pointer-events:none">
    <rect x="99" y="42" width="110" height="14" rx="3" fill="#000000" fill-opacity="0.85" stroke="#00FF00" stroke-width="1"/>
    <text x="103" y="52" font-size="9" fill="#00FF00" font-family="monospace">VolSnap: UP @ 66¢</text>
  </g>
</g>
</svg>