<svg width="340" height="190" xmlns="http://www.w3.org/2000/svg" style="overflow:visible">
<style>.trade-dot:hover .dot-tip { opacity: 1 !important; } .trade-dot { cursor: crosshair; }</style>
<rect width="340" height="190" fill="#121212" />
<line x1="20" y1="139" x2="320" y2="139" stroke="#232323" stroke-width="1" />
<line x1="20" y1="109" x2="320" y2="109" stroke="#232323" stroke-width="1" />
<line x1="20" y1="94" x2="320" y2="94" stroke="#3C3C3C" stroke-width="1" />
<line x1="20" y1="79" x2="320" y2="79" stroke="#232323" stroke-width="1" />
<line x1="20" y1="49" x2="320" y2="49" stroke="#232323" stroke-width="1" />
<line x1="169" y1="20" x2="169" y2="170" stroke="#232323" stroke-width="1" />
<polyline points="20,107 50,107 60,122 67,136 82,140 91,132 103,136 116,133 132,135 146,133 151,148 160,147 170,148 178,139 184,139 190,149 200,146 208,143 214,142 255,146 281,120" fill="none" stroke="#FFFF00" stroke-width="2" stroke-linejoin="round" />
<g class="trade-dot">
  <circle cx="101" cy="58" r="5" fill="#FF0000" stroke="#FFFFFF" stroke-width="1">
    <title>Nitro: DOWN @ 74¢</title>
  </circle>
  <g class="dot-tip" id="tip_0" opacity="0" style="pointer-events:none">
    <rect x="105" y="30" width="110" height="14" rx="3" fill="#000000" fill-opacity="0.85" stroke="#FF0000" stroke-width="1"/>
    <text x="109" y="40" font-size="9" fill="#FF0000" font-family="monospace">Nitro: DOWN @ 74¢</text>
  </g>
</g>
<g class="trade-dot">
  <circle cx="101" cy="58" r="5" fill="#FF0000" stroke="#FFFFFF" stroke-width="1">
    <title>VolSnap: DOWN @ 74¢</title>
  </circle>
  <g class="dot-tip" id="tip_1" opacity="0" style="pointer-events:none">
    <rect x="105" y="30" width="122" height="14" rx="3" fill="#000000" fill-opacity="0.85" stroke="#FF0000" stroke-width="1"/>
    <text x="109" y="40" font-size="9" fill="#FF0000" font-family="monospace">VolSnap: DOWN @ 74¢</text>
  </g>
</g>
</svg>