<svg width="340" height="190" xmlns="http://www.w3.org/2000/svg" style="overflow:visible">
<style>.trade-dot:hover .dot-tip { opacity: 1 !important; } .trade-dot { cursor: crosshair; }</style>
<rect width="340" height="190" fill="#121212" />
<line x1="20" y1="139" x2="320" y2="139" stroke="#232323" stroke-width="1" />
<line x1="20" y1="109" x2="320" y2="109" stroke="#232323" stroke-width="1" />
<line x1="20" y1="94" x2="320" y2="94" stroke="#3C3C3C" stroke-width="1" />
<line x1="20" y1="79" x2="320" y2="79" stroke="#232323" stroke-width="1" />
<line x1="20" y1="49" x2="320" y2="49" stroke="#232323" stroke-width="1" />
<line x1="169" y1="20" x2="169" y2="170" stroke="#232323" stroke-width="1" />
<polyline points="20,90 21,90 24,91 27,93 30,76 33,83 36,73 39,77 42,78 45,65 48,75 51,75 54,75 57,74 60,74 63,77 66,77 69,87 72,84 75,84 78,65 81,65 84,65 87,65 90,61 93,54 96,55 99,50 102,49 105,49 108,52 111,48 114,46 117,56 120,62 123,54 126,52 129,52 132,59 135,61 138,59 141,66 144,57 147,62 150,57 153,56 156,55 159,55 162,56 165,55 168,55 171,49 174,49 177,48 180,43 183,48 186,43 189,40 192,40 195,40 198,38 201,32 204,31 207,31 210,29 213,29 216,26 219,26 222,25 225,25 228,25 231,25 234,25 237,25 240,25 243,25 246,25 249,25 252,25 255,26 258,26 261,25 264,25 267,23 270,23 273,23 276,22 279,22 282,22 285,22 288,22 291,20 294,20 297,20 300,20 303,20 306,20 311,20 315,20" fill="none" stroke="#FFFF00" stroke-width="2" stroke-linejoin="round" />
<line x1="20" y1="20" x2="20" y2="170" stroke="#00FFFF" stroke-width="1" stroke-dasharray="3,3" opacity="0.8">
  <title>Next window tilt: ▲UP 54¢</title>
</line>
<rect x="21" y="20" width="46" height="11" rx="2" fill="#000000" fill-opacity="0.8" stroke="#00FFFF" stroke-width="1"/>
<text x="23" y="29" font-size="8" fill="#00FFFF" font-family="monospace" font-weight="bold">▲UP 54¢</text>
<g class="trade-dot">
  <circle cx="31" cy="76" r="5" fill="#00FF00" stroke="#FFFFFF" stroke-width="1">
    <title>Briefing: UP @ 62¢</title>
  </circle>
  <g class="dot-tip" id="tip_0" opacity="0" style="pointer-events:none">
    <rect x="35" y="48" width="116" height="14" rx="3" fill="#000000" fill-opacity="0.85" stroke="#00FF00" stroke-width="1"/>
    <text x="39" y="58" font-size="9" fill="#00FF00" font-family="monospace">Briefing: UP @ 62¢</text>
  </g>
</g>
<g class="trade-dot">
  <circle cx="82" cy="66" r="5" fill="#00FF00" stroke="#FFFFFF" stroke-width="1">
    <title>Nitro: UP @ 69¢</title>
  </circle>
  <g class="dot-tip" id="tip_1" opacity="0" style="pointer-events:none">
    <rect x="86" y="38" width="98" height="14" rx="3" fill="#000000" fill-opacity="0.85" stroke="#00FF00" stroke-width="1"/>
    <text x="90" y="48" font-size="9" fill="#00FF00" font-family="monospace">Nitro: UP @ 69¢</text>
  </g>
</g>
<g class="trade-dot">
  <circle cx="82" cy="66" r="5" fill="#00FF00" stroke="#FFFFFF" stroke-width="1">
    <title>VolSnap: UP @ 69¢</title>
  </circle>
  <g class="dot-tip" id="tip_2" opacity="0" style="pointer-events:none">
    <rect x="86" y="38" width="110" height="14" rx="3" fill="#000000" fill-opacity="0.85" stroke="#00FF00" stroke-width="1"/>
    <text x="90" y="48" font-size="9" fill="#00FF00" font-family="monospace">VolSnap: UP @ 69¢</text>
  </g>
</g>
</svg>