<svg width="340" height="190" xmlns="http://www.w3.org/2000/svg" style="overflow:visible">
<style>.trade-dot:hover .dot-tip { opacity: 1 !important; } .trade-dot { cursor: crosshair; }</style>
<rect width="340" height="190" fill="#121212" />
<line x1="20" y1="139" x2="320" y2="139" stroke="#232323" stroke-width="1" />
<line x1="20" y1="109" x2="320" y2="109" stroke="#232323" stroke-width="1" />
<line x1="20" y1="94" x2="320" y2="94" stroke="#3C3C3C" stroke-width="1" />
<line x1="20" y1="79" x2="320" y2="79" stroke="#232323" stroke-width="1" />
<line x1="20" y1="49" x2="320" y2="49" stroke="#232323" stroke-width="1" />
<line x1="169" y1="20" x2="169" y2="170" stroke="#232323" stroke-width="1" />
<polyline points="20,104 24,104 30,90 37,76 46,77 52,90 62,89 70,94 78,95 84,109 91,120 96,110 102,106 107,116 112,103 120,97 126,99 132,99 137,101 143,102 149,106 156,106 162,107 168,96 175,96 180,93 190,90 196,90 201,115 208,128 213,136 220,131 227,125 232,127 239,117 244,109 250,106 256,87 261,81 266,110 270,114 276,145 281,110 291,122 297,145 303,157 310,166 317,161" fill="none" stroke="#FFFF00" stroke-width="2" stroke-linejoin="round" />
<line x1="20" y1="20" x2="20" y2="170" stroke="#FF00FF" stroke-width="1" stroke-dasharray="3,3" opacity="0.8">
  <title>Next window tilt: ▼DOWN 54¢</title>
</line>
<rect x="21" y="20" width="58" height="11" rx="2" fill="#000000" fill-opacity="0.8" stroke="#FF00FF" stroke-width="1"/>
<text x="23" y="29" font-size="8" fill="#FF00FF" font-family="monospace" font-weight="bold">▼DOWN 54¢</text>
<g class="trade-dot">
  <circle cx="168" cy="82" r="5" fill="#FF0000" stroke="#FFFFFF" stroke-width="1">
    <title>Manual: DOWN @ 57¢</title>
  </circle>
  <g class="dot-tip" id="tip_0" opacity="0" style="pointer-events:none">
    <rect x="172" y="54" width="116" height="14" rx="3" fill="#000000" fill-opacity="0.85" stroke="#FF0000" stroke-width="1"/>
    <text x="176" y="64" font-size="9" fill="#FF0000" font-family="monospace">Manual: DOWN @ 57¢</text>
  </g>
</g>
</svg>