<svg width="340" height="190" xmlns="http://www.w3.org/2000/svg" style="overflow:visible">
<style>.trade-dot:hover .dot-tip { opacity: 1 !important; } .trade-dot { cursor: crosshair; }</style>
<rect width="340" height="190" fill="#121212" />
<line x1="20" y1="139" x2="320" y2="139" stroke="#232323" stroke-width="1" />
<line x1="20" y1="109" x2="320" y2="109" stroke="#232323" stroke-width="1" />
<line x1="20" y1="94" x2="320" y2="94" stroke="#3C3C3C" stroke-width="1" />
<line x1="20" y1="79" x2="320" y2="79" stroke="#232323" stroke-width="1" />
<line x1="20" y1="49" x2="320" y2="49" stroke="#232323" stroke-width="1" />
<line x1="169" y1="20" x2="169" y2="170" stroke="#232323" stroke-width="1" />
<polyline points="20,101 25,101 37,95 47,109 54,111 63,109 70,119 77,108 83,124 90,119 94,121 102,122 109,122 115,116 120,126 125,126 131,126 139,128 146,132 150,133 155,136 162,149 168,139 174,137 180,138 186,148 195,148 201,142 207,132 212,123 218,109 229,98 238,115 244,117 250,140 257,138 263,139 267,143 272,145 278,138 285,132 289,136 295,127 300,154 307,155 313,156" fill="none" stroke="#FFFF00" stroke-width="2" stroke-linejoin="round" />
<line x1="20" y1="20" x2="20" y2="170" stroke="#FF00FF" stroke-width="1" stroke-dasharray="3,3" opacity="0.8">
  <title>Next window tilt: ▼DOWN 52¢</title>
</line>
<rect x="21" y="20" width="58" height="11" rx="2" fill="#000000" fill-opacity="0.8" stroke="#FF00FF" stroke-width="1"/>
<text x="23" y="29" font-size="8" fill="#FF00FF" font-family="monospace" font-weight="bold">▼DOWN 52¢</text>
<g class="trade-dot">
  <circle cx="102" cy="69" r="5" fill="#FF0000" stroke="#FFFFFF" stroke-width="1">
    <title>Manual: DOWN @ 67¢</title>
  </circle>
  <g class="dot-tip" id="tip_0" opacity="0" style="pointer-events:none">
    <rect x="106" y="41" width="116" height="14" rx="3" fill="#000000" fill-opacity="0.85" stroke="#FF0000" stroke-width="1"/>
    <text x="110" y="51" font-size="9" fill="#FF0000" font-family="monospace">Manual: DOWN @ 67¢</text>
  </g>
</g>
<g class="trade-dot">
  <circle cx="107" cy="67" r="5" fill="#FF0000" stroke="#FFFFFF" stroke-width="1">
    <title>Nitro: DOWN @ 68¢</title>
  </circle>
  <g class="dot-tip" id="tip_1" opacity="0" style="pointer-events:none">
    <rect x="111" y="39" width="110" height="14" rx="3" fill="#000000" fill-opacity="0.85" stroke="#FF0000" stroke-width="1"/>
    <text x="115" y="49" font-size="9" fill="#FF0000" font-family="monospace">Nitro: DOWN @ 68¢</text>
  </g>
</g>
<g class="trade-dot">
  <circle cx="122" cy="78" r="5" fill="#FF0000" stroke="#FFFFFF" stroke-width="1">
    <title>Manual: DOWN @ 61¢</title>
  </circle>
  <g class="dot-tip" id="tip_2" opacity="0" style="pointer-events:none">
    <rect x="126" y="50" width="116" height="14" rx="3" fill="#000000" fill-opacity="0.85" stroke="#FF0000" stroke-width="1"/>
    <text x="130" y="60" font-size="9" fill="#FF0000" font-family="monospace">Manual: DOWN @ 61¢</text>
  </g>
</g>
</svg>