<svg width="340" height="190" xmlns="http://www.w3.org/2000/svg" style="overflow:visible">
<style>.trade-dot:hover .dot-tip { opacity: 1 !important; } .trade-dot { cursor: crosshair; }</style>
<rect width="340" height="190" fill="#121212" />
<line x1="20" y1="139" x2="320" y2="139" stroke="#232323" stroke-width="1" />
<line x1="20" y1="109" x2="320" y2="109" stroke="#232323" stroke-width="1" />
<line x1="20" y1="94" x2="320" y2="94" stroke="#3C3C3C" stroke-width="1" />
<line x1="20" y1="79" x2="320" y2="79" stroke="#232323" stroke-width="1" />
<line x1="20" y1="49" x2="320" y2="49" stroke="#232323" stroke-width="1" />
<line x1="169" y1="20" x2="169" y2="170" stroke="#232323" stroke-width="1" />
<polyline points="20,93 30,84 36,87 46,87 54,85 65,82 80,93 90,90 97,90 104,89 109,89 113,89 118,81 134,91 140,90 145,63 154,58 160,54 165,55 171,58 175,61 182,55 188,55 194,60 201,60 206,76 210,77 216,78 221,60 228,52 235,54 241,53 247,55 253,53 259,49 265,46 271,41 282,34 288,27 294,22 302,20 309,20 315,20" fill="none" stroke="#FFFF00" stroke-width="2" stroke-linejoin="round" />
<g class="trade-dot">
  <circle cx="78" cy="81" r="5" fill="#00FF00" stroke="#FFFFFF" stroke-width="1">
    <title>Briefing: UP @ 59¢</title>
  </circle>
  <g class="dot-tip" id="tip_0" opacity="0" style="pointer-events:none">
    <rect x="82" y="53" width="116" height="14" rx="3" fill="#000000" fill-opacity="0.85" stroke="#00FF00" stroke-width="1"/>
    <text x="86" y="63" font-size="9" fill="#00FF00" font-family="monospace">Briefing: UP @ 59¢</text>
  </g>
</g>
</svg>