<svg width="340" height="190" xmlns="http://www.w3.org/2000/svg">
<rect width="100%" height="100%" fill="#121212" />
<line x1="20" y1="139" x2="320" y2="139" stroke="#232323" stroke-width="1" />
<line x1="20" y1="109" x2="320" y2="109" stroke="#232323" stroke-width="1" />
<line x1="20" y1="94" x2="320" y2="94" stroke="#3C3C3C" stroke-width="1" />
<line x1="20" y1="79" x2="320" y2="79" stroke="#232323" stroke-width="1" />
<line x1="20" y1="49" x2="320" y2="49" stroke="#232323" stroke-width="1" />
<line x1="169" y1="20" x2="169" y2="170" stroke="#232323" stroke-width="1" />
<polyline points="20,113 161,113 165,112 168,110 171,120 174,130 177,132 180,133 183,139 186,138 189,138 192,139 195,149 198,140 201,140 204,139 207,142 210,143 213,139 216,139 219,144 222,148 225,147 228,148 231,139 234,142 237,142 240,145 243,147 246,157 249,142 252,145 255,146 258,145 261,133 264,123 267,106 270,119 273,107 276,116 279,117 282,126 285,122 288,147 291,153 294,153 297,156 300,157 303,163 306,166 309,167 312,167 315,167 318,167" fill="none" stroke="#FFFF00" stroke-width="2" stroke-linejoin="round" />
</svg>