<svg width="340" height="190" xmlns="http://www.w3.org/2000/svg">
<rect width="100%" height="100%" fill="#121212" />
<line x1="20" y1="139" x2="320" y2="139" stroke="#232323" stroke-width="1" />
<line x1="20" y1="109" x2="320" y2="109" stroke="#232323" stroke-width="1" />
<line x1="20" y1="94" x2="320" y2="94" stroke="#3C3C3C" stroke-width="1" />
<line x1="20" y1="79" x2="320" y2="79" stroke="#232323" stroke-width="1" />
<line x1="20" y1="49" x2="320" y2="49" stroke="#232323" stroke-width="1" />
<line x1="169" y1="20" x2="169" y2="170" stroke="#232323" stroke-width="1" />
<polyline points="20,87 20,87 23,93 26,94 29,87 32,89 35,90 38,113 41,113 44,115 47,129 50,132 53,131 56,135 59,136 62,145 65,145 68,142 71,137 74,145 77,151 80,154 83,154 86,150 89,148 92,150 95,145 98,137 101,139 104,146 107,156 110,153 113,151 116,153 119,154 122,153 125,152 128,148 131,153 134,153 137,148 140,155 143,150 146,150 149,154 152,154 155,154 158,163 161,163 164,161 167,160 170,159 173,160 176,159 179,158 182,159 185,160 188,160 191,160 194,165 197,166 200,166 203,166 206,166 209,166 212,166 215,166 218,167 221,167 224,167 227,167 230,167 233,167 236,167 239,167 242,167 245,167 248,167 251,167 254,167 257,167 260,167 263,167 266,167 269,167 272,167 275,167 278,167 281,167 284,167 287,167 290,167 293,167 296,167 299,167 302,167 305,167 308,167 311,167 314,167 317,167" fill="none" stroke="#FFFF00" stroke-width="2" stroke-linejoin="round" />
<circle cx="48" cy="58" r="4" fill="#FF0000" stroke="#FFFFFF" stroke-width="1">
  <title>Nitro DOWN (74¢)</title>
</circle>
<circle cx="99" cy="51" r="4" fill="#FF0000" stroke="#FFFFFF" stroke-width="1">
  <title>VolSnap DOWN (79¢)</title>
</circle>
</svg>