<svg width="340" height="190" xmlns="http://www.w3.org/2000/svg">
<rect width="100%" height="100%" fill="#121212" />
<line x1="20" y1="139" x2="320" y2="139" stroke="#232323" stroke-width="1" />
<line x1="20" y1="109" x2="320" y2="109" stroke="#232323" stroke-width="1" />
<line x1="20" y1="94" x2="320" y2="94" stroke="#3C3C3C" stroke-width="1" />
<line x1="20" y1="79" x2="320" y2="79" stroke="#232323" stroke-width="1" />
<line x1="20" y1="49" x2="320" y2="49" stroke="#232323" stroke-width="1" />
<line x1="169" y1="20" x2="169" y2="170" stroke="#232323" stroke-width="1" />
<polyline points="20,75 20,75 23,75 26,75 29,77 32,84 35,85 38,80 41,81 44,86 47,86 50,84 53,81 56,77 59,74 62,81 65,89 68,89 71,92 74,93 77,106 80,105 83,106 86,116 89,119 92,125 95,132 98,131 101,123 104,121 107,118 110,115 113,118 116,134 119,135 122,125 125,136 128,139 131,145 134,142 137,145 140,147 143,139 146,145 149,147 152,137 155,130 158,125 161,128 164,123 167,127 170,128 173,143 176,133 179,125 182,125 185,125 188,125 191,128 194,128 197,124 200,128 203,131 206,138 209,137 212,131 215,126 218,129 221,132 224,134 227,133 230,131 233,133 236,136 239,137 242,142 245,140 248,145 251,142 254,140 257,139 260,133 263,139 266,132 269,128 272,133 275,139 278,135 281,139 284,153 287,157 290,165 293,166 296,167 299,167 302,167 305,167 308,167 311,167 314,167 317,167" fill="none" stroke="#FFFF00" stroke-width="2" stroke-linejoin="round" />
<circle cx="78" cy="81" r="4" fill="#FF0000" stroke="#FFFFFF" stroke-width="1">
  <title>Nitro DOWN (59¢)</title>
</circle>
<circle cx="84" cy="81" r="4" fill="#FF0000" stroke="#FFFFFF" stroke-width="1">
  <title>VolSnap DOWN (59¢)</title>
</circle>
</svg>