<svg width="340" height="190" xmlns="http://www.w3.org/2000/svg">
<rect width="100%" height="100%" fill="#121212" />
<line x1="20" y1="139" x2="320" y2="139" stroke="#232323" stroke-width="1" />
<line x1="20" y1="109" x2="320" y2="109" stroke="#232323" stroke-width="1" />
<line x1="20" y1="94" x2="320" y2="94" stroke="#3C3C3C" stroke-width="1" />
<line x1="20" y1="79" x2="320" y2="79" stroke="#232323" stroke-width="1" />
<line x1="20" y1="49" x2="320" y2="49" stroke="#232323" stroke-width="1" />
<line x1="169" y1="20" x2="169" y2="170" stroke="#232323" stroke-width="1" />
<polyline points="20,84 21,84 24,91 27,95 30,91 33,78 36,83 39,81 42,80 45,80 48,81 51,78 54,81 57,92 60,96 63,101 66,85 69,84 72,76 75,70 78,70 81,66 84,59 87,69 90,67 93,69 96,72 99,104 102,113 105,119 108,125 111,128 114,131 117,129 120,132 123,133 126,133 129,132 132,126 135,124 138,111 141,121 144,122 147,128 150,129 153,127 156,119 159,118 162,123 165,123 168,136 171,141 174,142 177,138 180,138 183,139 186,143 189,155 192,159 195,153 198,151 201,149 204,156 207,155 210,157 213,157 216,158 219,155 222,151 225,154 228,155 231,157 234,159 237,157 240,152 243,154 246,154 249,146 252,145 255,143 258,145 261,141 264,141 267,132 270,134 273,132 276,142 279,145 282,147 285,137 288,139 291,155 294,151 297,152 300,151 303,144 306,145 309,116 312,76 315,146 318,167" fill="none" stroke="#FFFF00" stroke-width="2" stroke-linejoin="round" />
</svg>