<svg width="340" height="190" xmlns="http://www.w3.org/2000/svg">
<rect width="100%" height="100%" fill="#121212" />
<line x1="20" y1="139" x2="320" y2="139" stroke="#232323" stroke-width="1" />
<line x1="20" y1="109" x2="320" y2="109" stroke="#232323" stroke-width="1" />
<line x1="20" y1="94" x2="320" y2="94" stroke="#3C3C3C" stroke-width="1" />
<line x1="20" y1="79" x2="320" y2="79" stroke="#232323" stroke-width="1" />
<line x1="20" y1="49" x2="320" y2="49" stroke="#232323" stroke-width="1" />
<line x1="169" y1="20" x2="169" y2="170" stroke="#232323" stroke-width="1" />
<polyline points="20,93 21,93 25,103 28,107 31,105 34,91 37,90 40,90 43,92 46,94 49,89 52,84 55,88 58,94 61,95 64,106 67,102 70,93 73,101 76,118 79,137 82,138 85,135 88,126 91,117 94,117 97,117 100,116 103,116 106,113 109,114 112,116 115,120 118,144 121,150 124,151 127,163 130,162 133,164 136,165 139,166 142,164 145,160 148,157 151,160 154,160 157,155 160,160 163,160 166,159 169,160 172,163 175,161 178,165 181,163 184,163 188,163 191,165 194,163 197,165 200,163 203,161 206,165 209,165 212,166 215,163 218,166 221,166 224,166 227,167 230,167 233,167 236,167 239,167 242,167 245,167 248,167 251,167 254,168 257,167 260,168 263,168 266,167 269,168 272,167 275,168 278,167 281,168 284,168 287,168 290,168 293,168 296,168 299,168 302,168 305,168 308,168 311,168 314,168 317,168" fill="none" stroke="#FFFF00" stroke-width="2" stroke-linejoin="round" />
<circle cx="83" cy="55" r="4" fill="#FF0000" stroke="#FFFFFF" stroke-width="1">
  <title>Nitro DOWN (76¢)</title>
</circle>
<circle cx="83" cy="55" r="4" fill="#FF0000" stroke="#FFFFFF" stroke-width="1">
  <title>VolSnap DOWN (76¢)</title>
</circle>
</svg>