<svg width="340" height="190" xmlns="http://www.w3.org/2000/svg">
<rect width="100%" height="100%" fill="#121212" />
<line x1="20" y1="139" x2="320" y2="139" stroke="#232323" stroke-width="1" />
<line x1="20" y1="109" x2="320" y2="109" stroke="#232323" stroke-width="1" />
<line x1="20" y1="94" x2="320" y2="94" stroke="#3C3C3C" stroke-width="1" />
<line x1="20" y1="79" x2="320" y2="79" stroke="#232323" stroke-width="1" />
<line x1="20" y1="49" x2="320" y2="49" stroke="#232323" stroke-width="1" />
<line x1="169" y1="20" x2="169" y2="170" stroke="#232323" stroke-width="1" />
<polyline points="20,98 20,98 23,104 26,96 29,96 32,96 35,96 38,98 41,97 44,99 47,96 50,98 53,97 56,95 59,94 62,88 65,80 68,69 71,64 74,68 77,67 80,71 83,77 86,81 89,80 92,78 95,78 98,86 101,84 104,83 107,81 110,81 113,81 116,88 119,71 122,73 125,69 128,85 131,80 134,80 137,81 140,98 143,96 146,92 149,94 152,93 155,103 158,104 161,104 164,106 167,107 170,109 173,109 176,116 179,117 182,119 185,122 188,128 191,118 194,119 197,128 200,133 203,136 206,136 209,136 212,138 215,128 218,131 221,132 224,137 227,146 230,152 233,154 236,154 239,160 242,157 245,157 248,157 251,157 254,160 257,160 260,165 263,166 266,166 269,166 272,166 275,166 278,166 281,166 284,167 287,167 290,167 293,167 296,167 299,167 302,167 305,167 308,167 311,167 314,167 317,167" fill="none" stroke="#FFFF00" stroke-width="2" stroke-linejoin="round" />
</svg>