<svg width="340" height="190" xmlns="http://www.w3.org/2000/svg">
<rect width="100%" height="100%" fill="#121212" />
<line x1="20" y1="139" x2="320" y2="139" stroke="#232323" stroke-width="1" />
<line x1="20" y1="109" x2="320" y2="109" stroke="#232323" stroke-width="1" />
<line x1="20" y1="94" x2="320" y2="94" stroke="#3C3C3C" stroke-width="1" />
<line x1="20" y1="79" x2="320" y2="79" stroke="#232323" stroke-width="1" />
<line x1="20" y1="49" x2="320" y2="49" stroke="#232323" stroke-width="1" />
<line x1="169" y1="20" x2="169" y2="170" stroke="#232323" stroke-width="1" />
<polyline points="20,87 20,87 23,90 26,85 29,84 32,84 35,80 38,82 41,75 44,72 47,76 50,69 53,65 56,74 59,70 62,69 65,70 68,66 71,65 74,65 77,61 80,58 83,57 86,41 89,43 92,38 95,40 98,38 101,39 104,38 107,38 110,38 113,37 116,35 119,35 122,36 129,49 132,53 135,57 138,55 141,48 144,35 147,31 150,31 153,37 156,40 159,36 162,38 165,37 168,39 171,34 174,40 177,41 180,36 183,33 186,31 189,30 192,28 195,28 198,27 201,27 204,25 207,26 210,25 213,25 216,23 219,23 222,22 225,22 228,22 231,22 234,22 237,23 240,22 243,20 246,20 249,20 252,20 255,20 258,20 261,20 264,20 267,20 270,20 273,20 276,20 279,20 282,20 285,20 288,20 291,20 294,20 297,20 300,20 303,20 306,20 309,20 312,20 315,20 318,20" fill="none" stroke="#FFFF00" stroke-width="2" stroke-linejoin="round" />
<circle cx="81" cy="60" r="4" fill="#00FF00" stroke="#FFFFFF" stroke-width="1">
  <title>VolSnap UP (73¢)</title>
</circle>
<circle cx="84" cy="58" r="4" fill="#00FF00" stroke="#FFFFFF" stroke-width="1">
  <title>Nitro UP (74¢)</title>
</circle>
</svg>