<svg width="340" height="190" xmlns="http://www.w3.org/2000/svg">
<rect width="100%" height="100%" fill="#121212" />
<line x1="20" y1="139" x2="320" y2="139" stroke="#232323" stroke-width="1" />
<line x1="20" y1="109" x2="320" y2="109" stroke="#232323" stroke-width="1" />
<line x1="20" y1="94" x2="320" y2="94" stroke="#3C3C3C" stroke-width="1" />
<line x1="20" y1="79" x2="320" y2="79" stroke="#232323" stroke-width="1" />
<line x1="20" y1="49" x2="320" y2="49" stroke="#232323" stroke-width="1" />
<line x1="169" y1="20" x2="169" y2="170" stroke="#232323" stroke-width="1" />
<polyline points="20,83 20,83 23,88 26,91 29,89 32,90 35,84 38,84 41,75 44,74 47,73 50,64 53,67 56,59 59,66 62,74 65,73 68,62 71,49 74,43 77,30 80,34 83,28 86,28 89,26 92,25 95,27 98,25 101,26 104,29 107,27 110,27 113,25 116,25 119,25 122,26 125,30 128,29 131,31 134,28 137,28 140,25 143,25 146,24 149,26 152,26 155,28 158,31 161,29 164,30 167,31 170,28 173,29 176,28 179,30 182,27 185,26 188,26 191,26 194,28 197,28 200,28 203,29 206,25 209,25 212,25 215,26 218,26 221,26 224,24 227,23 230,23 233,23 236,23 239,23 242,23 245,23 248,23 251,23 254,22 257,22 260,22 263,20 266,20 269,20 272,20 275,20 278,20 281,20 284,20 287,20 290,20 293,20 296,20 299,20 302,20 305,20 308,20 311,20 314,20 317,20" fill="none" stroke="#FFFF00" stroke-width="2" stroke-linejoin="round" />
</svg>