<svg width="340" height="190" xmlns="http://www.w3.org/2000/svg">
<rect width="100%" height="100%" fill="#121212" />
<line x1="20" y1="139" x2="320" y2="139" stroke="#232323" stroke-width="1" />
<line x1="20" y1="109" x2="320" y2="109" stroke="#232323" stroke-width="1" />
<line x1="20" y1="94" x2="320" y2="94" stroke="#3C3C3C" stroke-width="1" />
<line x1="20" y1="79" x2="320" y2="79" stroke="#232323" stroke-width="1" />
<line x1="20" y1="49" x2="320" y2="49" stroke="#232323" stroke-width="1" />
<line x1="169" y1="20" x2="169" y2="170" stroke="#232323" stroke-width="1" />
<polyline points="20,82 21,82 24,78 27,72 30,73 33,70 36,73 39,76 42,78 45,86 48,84 51,81 54,82 57,82 60,83 63,86 66,87 69,78 72,75 75,72 78,81 81,75 84,72 87,76 90,72 93,78 96,87 99,91 102,93 105,87 108,89 111,94 114,87 117,83 120,83 123,78 126,69 129,57 132,46 135,46 138,34 141,31 144,28 147,25 150,25 153,23 156,23 159,26 162,25 165,23 168,26 171,28 174,28 177,25 180,25 183,25 186,25 189,23 192,26 195,26 198,26 201,27 204,25 207,25 210,24 213,23 216,23 219,24 222,24 225,23 228,22 232,22 237,20 243,20 252,20 259,20 265,20 271,20 277,20 283,20 289,20 295,20 301,20 309,20" fill="none" stroke="#FFFF00" stroke-width="2" stroke-linejoin="round" />
<circle cx="82" cy="76" r="4" fill="#00FF00" stroke="#FFFFFF" stroke-width="1">
  <title>VolSnap UP (62¢)</title>
</circle>
</svg>