<svg width="340" height="190" xmlns="http://www.w3.org/2000/svg" style="overflow:visible">
<style>.trade-dot:hover .dot-tip { opacity: 1 !important; } .trade-dot { cursor: crosshair; }</style>
<rect width="340" height="190" fill="#121212" />
<line x1="20" y1="139" x2="320" y2="139" stroke="#232323" stroke-width="1" />
<line x1="20" y1="109" x2="320" y2="109" stroke="#232323" stroke-width="1" />
<line x1="20" y1="94" x2="320" y2="94" stroke="#3C3C3C" stroke-width="1" />
<line x1="20" y1="79" x2="320" y2="79" stroke="#232323" stroke-width="1" />
<line x1="20" y1="49" x2="320" y2="49" stroke="#232323" stroke-width="1" />
<line x1="169" y1="20" x2="169" y2="170" stroke="#232323" stroke-width="1" />
<polyline points="20,98 24,98 31,105 38,105 46,107 52,107 59,113 65,120 71,110 77,119 84,114 91,117 96,113 105,104 113,105 119,98 128,95 134,117 142,146 147,149 152,145 160,151 166,152 173,154 180,157 186,163 192,163 201,156 210,165 216,165 227,168 239,168 246,168 251,168 257,168 265,168 272,168 278,168 287,168 295,168 303,168 311,168 317,168" fill="none" stroke="#FFFF00" stroke-width="2" stroke-linejoin="round" />
<line x1="20" y1="20" x2="20" y2="170" stroke="#FF00FF" stroke-width="1" stroke-dasharray="3,3" opacity="0.8">
  <title>Next window tilt: ▼DOWN 52¢</title>
</line>
<rect x="21" y="20" width="58" height="11" rx="2" fill="#000000" fill-opacity="0.8" stroke="#FF00FF" stroke-width="1"/>
<text x="23" y="29" font-size="8" fill="#FF00FF" font-family="monospace" font-weight="bold">▼DOWN 52¢</text>
<g class="trade-dot">
  <circle cx="37" cy="84" r="5" fill="#FF0000" stroke="#FFFFFF" stroke-width="1">
    <title>WCP: DOWN @ 56¢</title>
  </circle>
  <g class="dot-tip" id="tip_0" opacity="0" style="pointer-events:none">
    <rect x="41" y="56" width="98" height="14" rx="3" fill="#000000" fill-opacity="0.85" stroke="#FF0000" stroke-width="1"/>
    <text x="45" y="66" font-size="9" fill="#FF0000" font-family="monospace">WCP: DOWN @ 56¢</text>
  </g>
</g>
<g class="trade-dot">
  <circle cx="95" cy="72" r="5" fill="#FF0000" stroke="#FFFFFF" stroke-width="1">
    <title>Nitro: DOWN @ 65¢</title>
  </circle>
  <g class="dot-tip" id="tip_1" opacity="0" style="pointer-events:none">
    <rect x="99" y="44" width="110" height="14" rx="3" fill="#000000" fill-opacity="0.85" stroke="#FF0000" stroke-width="1"/>
    <text x="103" y="54" font-size="9" fill="#FF0000" font-family="monospace">Nitro: DOWN @ 65¢</text>
  </g>
</g>
<g class="trade-dot">
  <circle cx="133" cy="94" r="5" fill="#00FF00" stroke="#FFFFFF" stroke-width="1">
    <title>VolSnap: UP @ 50¢</title>
  </circle>
  <g class="dot-tip" id="tip_2" opacity="0" style="pointer-events:none">
    <rect x="137" y="66" width="110" height="14" rx="3" fill="#000000" fill-opacity="0.85" stroke="#00FF00" stroke-width="1"/>
    <text x="141" y="76" font-size="9" fill="#00FF00" font-family="monospace">VolSnap: UP @ 50¢</text>
  </g>
</g>
<g class="trade-dot">
  <circle cx="191" cy="25" r="5" fill="#FF0000" stroke="#FFFFFF" stroke-width="1">
    <title>HDO: DOWN @ 96¢</title>
  </circle>
  <g class="dot-tip" id="tip_3" opacity="0" style="pointer-events:none">
    <rect x="195" y="10" width="98" height="14" rx="3" fill="#000000" fill-opacity="0.85" stroke="#FF0000" stroke-width="1"/>
    <text x="199" y="20" font-size="9" fill="#FF0000" font-family="monospace">HDO: DOWN @ 96¢</text>
  </g>
</g>
</svg>