<svg width="340" height="190" xmlns="http://www.w3.org/2000/svg" style="overflow:visible">
<style>.trade-dot:hover .dot-tip { opacity: 1 !important; } .trade-dot { cursor: crosshair; }</style>
<rect width="340" height="190" fill="#121212" />
<line x1="20" y1="139" x2="320" y2="139" stroke="#232323" stroke-width="1" />
<line x1="20" y1="109" x2="320" y2="109" stroke="#232323" stroke-width="1" />
<line x1="20" y1="94" x2="320" y2="94" stroke="#3C3C3C" stroke-width="1" />
<line x1="20" y1="79" x2="320" y2="79" stroke="#232323" stroke-width="1" />
<line x1="20" y1="49" x2="320" y2="49" stroke="#232323" stroke-width="1" />
<line x1="169" y1="20" x2="169" y2="170" stroke="#232323" stroke-width="1" />
<polyline points="20,86 28,86 36,98 44,83 50,75 58,77 69,78 79,76 85,75 96,67 105,43 113,47 120,46 127,43 135,43 143,52 152,49 158,55 165,57 172,60 179,54 185,44 193,42 203,44 213,37 220,42 227,38 233,39 240,42 247,31 255,30 263,31 271,25 279,25 288,23 296,20 303,20 318,20" fill="none" stroke="#FFFF00" stroke-width="2" stroke-linejoin="round" />
<line x1="20" y1="20" x2="20" y2="170" stroke="#00FFFF" stroke-width="1" stroke-dasharray="3,3" opacity="0.8">
  <title>Next window tilt: ▲UP 55¢</title>
</line>
<rect x="21" y="20" width="46" height="11" rx="2" fill="#000000" fill-opacity="0.8" stroke="#00FFFF" stroke-width="1"/>
<text x="23" y="29" font-size="8" fill="#00FFFF" font-family="monospace" font-weight="bold">▲UP 55¢</text>
<g class="trade-dot">
  <circle cx="68" cy="78" r="5" fill="#00FF00" stroke="#FFFFFF" stroke-width="1">
    <title>Nitro: UP @ 61¢</title>
  </circle>
  <g class="dot-tip" id="tip_0" opacity="0" style="pointer-events:none">
    <rect x="72" y="50" width="98" height="14" rx="3" fill="#000000" fill-opacity="0.85" stroke="#00FF00" stroke-width="1"/>
    <text x="76" y="60" font-size="9" fill="#00FF00" font-family="monospace">Nitro: UP @ 61¢</text>
  </g>
</g>
<g class="trade-dot">
  <circle cx="94" cy="76" r="5" fill="#00FF00" stroke="#FFFFFF" stroke-width="1">
    <title>VolSnap: UP @ 62¢</title>
  </circle>
  <g class="dot-tip" id="tip_1" opacity="0" style="pointer-events:none">
    <rect x="98" y="48" width="110" height="14" rx="3" fill="#000000" fill-opacity="0.85" stroke="#00FF00" stroke-width="1"/>
    <text x="102" y="58" font-size="9" fill="#00FF00" font-family="monospace">VolSnap: UP @ 62¢</text>
  </g>
</g>
</svg>