<svg width="340" height="190" xmlns="http://www.w3.org/2000/svg" style="overflow:visible">
<style>.trade-dot:hover .dot-tip { opacity: 1 !important; } .trade-dot { cursor: crosshair; }</style>
<rect width="340" height="190" fill="#121212" />
<line x1="20" y1="139" x2="320" y2="139" stroke="#232323" stroke-width="1" />
<line x1="20" y1="109" x2="320" y2="109" stroke="#232323" stroke-width="1" />
<line x1="20" y1="94" x2="320" y2="94" stroke="#3C3C3C" stroke-width="1" />
<line x1="20" y1="79" x2="320" y2="79" stroke="#232323" stroke-width="1" />
<line x1="20" y1="49" x2="320" y2="49" stroke="#232323" stroke-width="1" />
<line x1="169" y1="20" x2="169" y2="170" stroke="#232323" stroke-width="1" />
<polyline points="20,89 27,89 38,80 44,78 48,86 58,90 65,94 72,98 80,98 86,88 93,89 99,90 104,94 110,98 114,96 119,98 123,102 128,110 133,110 139,113 145,109 151,108 155,110 160,114 165,109 171,110 177,101 184,95 191,85 198,90 204,106 209,104 214,103 218,99 223,101 229,98 233,112 238,107 245,106 251,99 257,123 263,96 270,100 276,108 281,110 290,117 296,118 303,129 309,143 316,166" fill="none" stroke="#FFFF00" stroke-width="2" stroke-linejoin="round" />
<line x1="20" y1="20" x2="20" y2="170" stroke="#00FFFF" stroke-width="1" stroke-dasharray="3,3" opacity="0.8">
  <title>Next window tilt: ▲UP 55¢</title>
</line>
<rect x="21" y="20" width="46" height="11" rx="2" fill="#000000" fill-opacity="0.8" stroke="#00FFFF" stroke-width="1"/>
<text x="23" y="29" font-size="8" fill="#00FFFF" font-family="monospace" font-weight="bold">▲UP 55¢</text>
<g class="trade-dot">
  <circle cx="71" cy="97" r="5" fill="#FF0000" stroke="#FFFFFF" stroke-width="1">
    <title>WCP: DOWN @ 48¢</title>
  </circle>
  <g class="dot-tip" id="tip_0" opacity="0" style="pointer-events:none">
    <rect x="75" y="69" width="98" height="14" rx="3" fill="#000000" fill-opacity="0.85" stroke="#FF0000" stroke-width="1"/>
    <text x="79" y="79" font-size="9" fill="#FF0000" font-family="monospace">WCP: DOWN @ 48¢</text>
  </g>
</g>
<g class="trade-dot">
  <circle cx="92" cy="91" r="5" fill="#00FF00" stroke="#FFFFFF" stroke-width="1">
    <title>Nitro: UP @ 52¢</title>
  </circle>
  <g class="dot-tip" id="tip_1" opacity="0" style="pointer-events:none">
    <rect x="96" y="63" width="98" height="14" rx="3" fill="#000000" fill-opacity="0.85" stroke="#00FF00" stroke-width="1"/>
    <text x="100" y="73" font-size="9" fill="#00FF00" font-family="monospace">Nitro: UP @ 52¢</text>
  </g>
</g>
<g class="trade-dot">
  <circle cx="92" cy="91" r="5" fill="#00FF00" stroke="#FFFFFF" stroke-width="1">
    <title>VolSnap: UP @ 52¢</title>
  </circle>
  <g class="dot-tip" id="tip_2" opacity="0" style="pointer-events:none">
    <rect x="96" y="63" width="110" height="14" rx="3" fill="#000000" fill-opacity="0.85" stroke="#00FF00" stroke-width="1"/>
    <text x="100" y="73" font-size="9" fill="#00FF00" font-family="monospace">VolSnap: UP @ 52¢</text>
  </g>
</g>
<g class="trade-dot">
  <circle cx="262" cy="67" r="5" fill="#FF0000" stroke="#FFFFFF" stroke-width="1">
    <title>HDO: DOWN @ 68¢</title>
  </circle>
  <g class="dot-tip" id="tip_3" opacity="0" style="pointer-events:none">
    <rect x="238" y="39" width="98" height="14" rx="3" fill="#000000" fill-opacity="0.85" stroke="#FF0000" stroke-width="1"/>
    <text x="242" y="49" font-size="9" fill="#FF0000" font-family="monospace">HDO: DOWN @ 68¢</text>
  </g>
</g>
</svg>