<svg width="340" height="190" xmlns="http://www.w3.org/2000/svg" style="overflow:visible">
<style>.trade-dot:hover .dot-tip { opacity: 1 !important; } .trade-dot { cursor: crosshair; }</style>
<rect width="340" height="190" fill="#121212" />
<line x1="20" y1="139" x2="320" y2="139" stroke="#232323" stroke-width="1" />
<line x1="20" y1="109" x2="320" y2="109" stroke="#232323" stroke-width="1" />
<line x1="20" y1="94" x2="320" y2="94" stroke="#3C3C3C" stroke-width="1" />
<line x1="20" y1="79" x2="320" y2="79" stroke="#232323" stroke-width="1" />
<line x1="20" y1="49" x2="320" y2="49" stroke="#232323" stroke-width="1" />
<line x1="169" y1="20" x2="169" y2="170" stroke="#232323" stroke-width="1" />
<polyline points="20,89 45,89 60,90 68,94 75,104 81,111 89,114 95,114 100,107 104,82 109,84 114,67 121,66 129,57 138,69 147,93 154,64 165,55 173,63 184,45 190,36 194,35 199,34 206,36 212,30 219,30 227,28 237,25 245,25 253,25 260,23 267,22 275,20 281,20 288,20 295,20 301,20 307,20 313,20" fill="none" stroke="#FFFF00" stroke-width="2" stroke-linejoin="round" />
</svg>