<svg width="340" height="190" xmlns="http://www.w3.org/2000/svg">
<rect width="100%" height="100%" fill="#121212" />
<line x1="20" y1="139" x2="320" y2="139" stroke="#232323" stroke-width="1" />
<line x1="20" y1="109" x2="320" y2="109" stroke="#232323" stroke-width="1" />
<line x1="20" y1="94" x2="320" y2="94" stroke="#3C3C3C" stroke-width="1" />
<line x1="20" y1="79" x2="320" y2="79" stroke="#232323" stroke-width="1" />
<line x1="20" y1="49" x2="320" y2="49" stroke="#232323" stroke-width="1" />
<line x1="169" y1="20" x2="169" y2="170" stroke="#232323" stroke-width="1" />
<polyline points="20,101 21,101 31,104 36,104 44,98 50,102 56,98 62,93 65,104 69,101 74,111 78,116 86,108 90,98 94,104 100,110 103,111 107,123 112,122 115,122 120,136 123,125 128,129 131,122 136,120 139,130 148,121 155,122 163,123 169,128 172,128 177,110 183,108 187,110 192,117 198,116 203,119 206,119 211,114 217,135 223,132 226,133 231,133 235,137 244,135 247,136 253,142 257,139 260,140 266,142 269,142 275,138 278,128 282,138 285,137 290,145 294,156 299,158 306,166 311,165 314,163 318,167" fill="none" stroke="#FFFF00" stroke-width="2" stroke-linejoin="round" />
</svg>