<svg width="340" height="190" xmlns="http://www.w3.org/2000/svg">
<rect width="100%" height="100%" fill="#121212" />
<line x1="20" y1="139" x2="320" y2="139" stroke="#232323" stroke-width="1" />
<line x1="20" y1="109" x2="320" y2="109" stroke="#232323" stroke-width="1" />
<line x1="20" y1="94" x2="320" y2="94" stroke="#3C3C3C" stroke-width="1" />
<line x1="20" y1="79" x2="320" y2="79" stroke="#232323" stroke-width="1" />
<line x1="20" y1="49" x2="320" y2="49" stroke="#232323" stroke-width="1" />
<line x1="169" y1="20" x2="169" y2="170" stroke="#232323" stroke-width="1" />
<polyline points="20,93 22,93 27,92 30,90 34,90 38,97 45,77 49,74 55,86 58,86 62,86 66,75 71,77 74,78 78,89 81,93 86,102 89,104 94,108 97,117 101,122 104,117 108,119 112,120 116,133 119,141 123,144 126,148 130,132 134,125 138,107 141,113 145,114 149,105 153,110 157,108 161,111 164,113 168,113 173,120 177,122 181,136 184,142 188,141 191,145 196,145 199,146 203,148 207,148 211,151 214,153 219,153 222,153 226,156 229,155 233,156 236,162 240,162 243,163 248,163 251,163 256,163 259,162 263,160 266,157 270,157 273,154 278,157 282,159 286,159 289,163 294,160 297,166 301,167 304,167 309,167 313,167 317,167" fill="none" stroke="#FFFF00" stroke-width="2" stroke-linejoin="round" />
</svg>