<svg width="340" height="190" xmlns="http://www.w3.org/2000/svg">
<rect width="100%" height="100%" fill="#121212" />
<line x1="20" y1="139" x2="320" y2="139" stroke="#232323" stroke-width="1" />
<line x1="20" y1="109" x2="320" y2="109" stroke="#232323" stroke-width="1" />
<line x1="20" y1="94" x2="320" y2="94" stroke="#3C3C3C" stroke-width="1" />
<line x1="20" y1="79" x2="320" y2="79" stroke="#232323" stroke-width="1" />
<line x1="20" y1="49" x2="320" y2="49" stroke="#232323" stroke-width="1" />
<line x1="169" y1="20" x2="169" y2="170" stroke="#232323" stroke-width="1" />
<polyline points="20,97 21,97 26,95 29,93 33,93 36,89 41,87 44,87 49,96 53,98 58,93 63,95 66,93 70,93 73,90 77,90 80,95 86,78 89,77 95,77 98,80 102,81 105,81 110,87 113,76 118,75 122,75 127,78 130,96 134,89 137,98 141,90 146,89 149,90 153,88 156,83 161,76 166,66 169,66 173,66 176,63 181,62 186,62 190,68 195,65 199,63 203,41 206,49 210,49 213,50 218,49 221,44 225,55 230,53 233,52 237,49 242,46 246,57 251,65 255,65 260,71 266,74 271,71 274,75 278,65 281,43 285,44 288,38 293,56 297,65 302,70 307,80 310,90 315,99 318,151" fill="none" stroke="#FFFF00" stroke-width="2" stroke-linejoin="round" />
</svg>