<svg width="340" height="190" xmlns="http://www.w3.org/2000/svg">
<rect width="100%" height="100%" fill="#121212" />
<line x1="20" y1="139" x2="320" y2="139" stroke="#232323" stroke-width="1" />
<line x1="20" y1="109" x2="320" y2="109" stroke="#232323" stroke-width="1" />
<line x1="20" y1="94" x2="320" y2="94" stroke="#3C3C3C" stroke-width="1" />
<line x1="20" y1="79" x2="320" y2="79" stroke="#232323" stroke-width="1" />
<line x1="20" y1="49" x2="320" y2="49" stroke="#232323" stroke-width="1" />
<line x1="169" y1="20" x2="169" y2="170" stroke="#232323" stroke-width="1" />
<polyline points="20,105 33,105 43,108 61,94 83,94 117,124 130,122 147,147 155,142 163,146 172,148 180,148 193,151 205,156 215,157 225,163 236,152 243,136 252,131 257,127 267,72 280,109 292,111 302,104 309,86 315,59" fill="none" stroke="#FFFF00" stroke-width="2" stroke-linejoin="round" />
</svg>