<svg width="340" height="190" xmlns="http://www.w3.org/2000/svg" style="overflow:visible">
<style>.trade-dot:hover .dot-tip { opacity: 1 !important; } .trade-dot { cursor: crosshair; }</style>
<rect width="340" height="190" fill="#121212" />
<line x1="20" y1="139" x2="320" y2="139" stroke="#232323" stroke-width="1" />
<line x1="20" y1="109" x2="320" y2="109" stroke="#232323" stroke-width="1" />
<line x1="20" y1="94" x2="320" y2="94" stroke="#3C3C3C" stroke-width="1" />
<line x1="20" y1="79" x2="320" y2="79" stroke="#232323" stroke-width="1" />
<line x1="20" y1="49" x2="320" y2="49" stroke="#232323" stroke-width="1" />
<line x1="169" y1="20" x2="169" y2="170" stroke="#232323" stroke-width="1" />
<polyline points="20,93 26,93 33,92 40,79 53,84 58,85 68,82 75,58 85,80 93,87 100,90 105,91 112,55 117,60 129,75 142,85 148,90 153,96 159,93 166,83 172,65 180,59 188,54 196,37 208,37 213,40 217,37 223,41 230,51 235,50 244,57 250,62 275,65 282,72 290,87 315,145" fill="none" stroke="#FFFF00" stroke-width="2" stroke-linejoin="round" />
</svg>