<svg width="340" height="190" xmlns="http://www.w3.org/2000/svg">
<rect width="100%" height="100%" fill="#121212" />
<line x1="20" y1="139" x2="320" y2="139" stroke="#232323" stroke-width="1" />
<line x1="20" y1="109" x2="320" y2="109" stroke="#232323" stroke-width="1" />
<line x1="20" y1="94" x2="320" y2="94" stroke="#3C3C3C" stroke-width="1" />
<line x1="20" y1="79" x2="320" y2="79" stroke="#232323" stroke-width="1" />
<line x1="20" y1="49" x2="320" y2="49" stroke="#232323" stroke-width="1" />
<line x1="169" y1="20" x2="169" y2="170" stroke="#232323" stroke-width="1" />
<polyline points="20,93 20,93 26,92 33,101 41,123 48,122 57,120 63,120 69,122 74,120 80,128 85,131 93,135 98,133 104,136 108,137 113,145 116,148 126,150 132,152 135,153 140,151 146,150 149,149 154,148 157,147 163,139 169,135 172,137 176,129 179,125 183,123 189,117 194,122 197,123 204,113 209,114 213,116 218,96 223,84 227,84 233,96 238,98 241,98 246,104 253,108 259,113 265,102 271,117 274,107 278,108 284,111 290,99 296,100 304,98 310,90 317,25" fill="none" stroke="#FFFF00" stroke-width="2" stroke-linejoin="round" />
<circle cx="46" cy="66" r="4" fill="#FF0000" stroke="#FFFFFF" stroke-width="1">
  <title>Briefing DOWN (69¢)</title>
</circle>
<circle cx="56" cy="67" r="4" fill="#FF0000" stroke="#FFFFFF" stroke-width="1">
  <title>Nitro DOWN (68¢)</title>
</circle>
<circle cx="84" cy="61" r="4" fill="#FF0000" stroke="#FFFFFF" stroke-width="1">
  <title>VolSnap DOWN (72¢)</title>
</circle>
</svg>