<svg width="340" height="190" xmlns="http://www.w3.org/2000/svg">
<rect width="100%" height="100%" fill="#121212" />
<line x1="20" y1="139" x2="320" y2="139" stroke="#232323" stroke-width="1" />
<line x1="20" y1="109" x2="320" y2="109" stroke="#232323" stroke-width="1" />
<line x1="20" y1="94" x2="320" y2="94" stroke="#3C3C3C" stroke-width="1" />
<line x1="20" y1="79" x2="320" y2="79" stroke="#232323" stroke-width="1" />
<line x1="20" y1="49" x2="320" y2="49" stroke="#232323" stroke-width="1" />
<line x1="169" y1="20" x2="169" y2="170" stroke="#232323" stroke-width="1" />
<polyline points="20,63 56,63 68,66 74,61 80,64 87,69 94,86 101,104 108,95 113,79 118,83 125,80 130,93 136,99 142,92 147,90 152,70 159,65 163,75 169,69 174,83 180,80 187,75 193,60 198,45 204,45 211,43 218,74 225,49 231,49 236,52 242,53 248,49 255,44 260,54 264,54 270,52 276,69 282,104 288,92 292,112 298,156 303,166 309,167 315,167" fill="none" stroke="#FFFF00" stroke-width="2" stroke-linejoin="round" />
</svg>