<svg width="340" height="190" xmlns="http://www.w3.org/2000/svg" style="overflow:visible">
<style>.trade-dot:hover .dot-tip { opacity: 1 !important; } .trade-dot { cursor: crosshair; }</style>
<rect width="340" height="190" fill="#121212" />
<line x1="20" y1="139" x2="320" y2="139" stroke="#232323" stroke-width="1" />
<line x1="20" y1="109" x2="320" y2="109" stroke="#232323" stroke-width="1" />
<line x1="20" y1="94" x2="320" y2="94" stroke="#3C3C3C" stroke-width="1" />
<line x1="20" y1="79" x2="320" y2="79" stroke="#232323" stroke-width="1" />
<line x1="20" y1="49" x2="320" y2="49" stroke="#232323" stroke-width="1" />
<line x1="169" y1="20" x2="169" y2="170" stroke="#232323" stroke-width="1" />
<polyline points="20,87 25,93 31,78 41,84 48,71 55,66 60,72 68,75 72,84 94,101 99,110 106,107 111,97 115,96 122,92 127,81 131,92 136,102 140,109 144,84 148,64 153,66 161,73 167,79 173,80 177,92 185,95 188,97 193,97 198,98 202,108 207,101 210,115 215,122 218,131 222,140 226,135 231,132 237,142 240,147 245,153 250,158 254,161 259,165 263,166 268,165 273,165 278,165 282,166 286,166 290,166 295,167 305,166 310,167 316,167" fill="none" stroke="#FFFF00" stroke-width="2" stroke-linejoin="round" />
<line x1="20" y1="20" x2="20" y2="170" stroke="#00FFFF" stroke-width="1" stroke-dasharray="3,3" opacity="0.8">
  <title>Next window tilt: ▲UP 53¢</title>
</line>
<rect x="21" y="20" width="46" height="11" rx="2" fill="#000000" fill-opacity="0.8" stroke="#00FFFF" stroke-width="1"/>
<text x="23" y="29" font-size="8" fill="#00FFFF" font-family="monospace" font-weight="bold">▲UP 53¢</text>
<g class="trade-dot">
  <circle cx="105" cy="78" r="5" fill="#FF0000" stroke="#FFFFFF" stroke-width="1">
    <title>WCP: DOWN @ 61¢</title>
  </circle>
  <g class="dot-tip" id="tip_0" opacity="0" style="pointer-events:none">
    <rect x="109" y="50" width="98" height="14" rx="3" fill="#000000" fill-opacity="0.85" stroke="#FF0000" stroke-width="1"/>
    <text x="113" y="60" font-size="9" fill="#FF0000" font-family="monospace">WCP: DOWN @ 61¢</text>
  </g>
</g>
<g class="trade-dot">
  <circle cx="151" cy="69" r="5" fill="#00FF00" stroke="#FFFFFF" stroke-width="1">
    <title>VolSnap: UP @ 67¢</title>
  </circle>
  <g class="dot-tip" id="tip_1" opacity="0" style="pointer-events:none">
    <rect x="155" y="41" width="110" height="14" rx="3" fill="#000000" fill-opacity="0.85" stroke="#00FF00" stroke-width="1"/>
    <text x="159" y="51" font-size="9" fill="#00FF00" font-family="monospace">VolSnap: UP @ 67¢</text>
  </g>
</g>
<g class="trade-dot">
  <circle cx="175" cy="79" r="5" fill="#00FF00" stroke="#FFFFFF" stroke-width="1">
    <title>GrindSnap: UP @ 60¢</title>
  </circle>
  <g class="dot-tip" id="tip_2" opacity="0" style="pointer-events:none">
    <rect x="179" y="51" width="122" height="14" rx="3" fill="#000000" fill-opacity="0.85" stroke="#00FF00" stroke-width="1"/>
    <text x="183" y="61" font-size="9" fill="#00FF00" font-family="monospace">GrindSnap: UP @ 60¢</text>
  </g>
</g>
</svg>