<svg width="340" height="190" xmlns="http://www.w3.org/2000/svg" style="overflow:visible">
<style>.trade-dot:hover .dot-tip { opacity: 1 !important; } .trade-dot { cursor: crosshair; }</style>
<rect width="340" height="190" fill="#4c1d95" />
<line x1="20" y1="139" x2="320" y2="139" stroke="#232323" stroke-width="1" />
<line x1="20" y1="109" x2="320" y2="109" stroke="#232323" stroke-width="1" />
<line x1="20" y1="94" x2="320" y2="94" stroke="#3C3C3C" stroke-width="1" />
<line x1="20" y1="79" x2="320" y2="79" stroke="#232323" stroke-width="1" />
<line x1="20" y1="49" x2="320" y2="49" stroke="#232323" stroke-width="1" />
<line x1="169" y1="20" x2="169" y2="170" stroke="#232323" stroke-width="1" />
<polyline points="20,78 73,78 88,71 95,57 105,61 112,71 119,73 126,86 134,87 142,87 149,97 156,107 163,116 169,122 176,120 182,110 189,87 196,81 203,74 210,65 218,62 225,73 237,79 245,61 253,28 260,25 267,23 274,21 281,20 288,20 295,20 302,20 310,20 318,20" fill="none" stroke="#FFFF00" stroke-width="2" stroke-linejoin="round" />
</svg>