<svg width="340" height="190" xmlns="http://www.w3.org/2000/svg">
<rect width="100%" height="100%" fill="#121212" />
<line x1="20" y1="139" x2="320" y2="139" stroke="#232323" stroke-width="1" />
<line x1="20" y1="109" x2="320" y2="109" stroke="#232323" stroke-width="1" />
<line x1="20" y1="94" x2="320" y2="94" stroke="#3C3C3C" stroke-width="1" />
<line x1="20" y1="79" x2="320" y2="79" stroke="#232323" stroke-width="1" />
<line x1="20" y1="49" x2="320" y2="49" stroke="#232323" stroke-width="1" />
<line x1="169" y1="20" x2="169" y2="170" stroke="#232323" stroke-width="1" />
<polyline points="20,93 22,93 25,98 28,110 31,114 34,120 37,131 40,125 43,129 46,125 49,120 52,117 55,129 58,126 61,126 64,130 67,132 70,139 73,131 76,128 79,129 82,122 85,120 88,128 91,128 94,128 97,131 100,128 103,126 106,125 109,125 112,128 115,133 118,137 121,141 124,148 127,150 130,151 133,148 136,148 139,148 142,145 145,150 148,149 151,147 154,150 157,150 160,153 163,154 166,155 169,157 172,159 175,160 178,160 181,161 184,162 187,161 190,162 193,159 196,159 199,162 202,157 205,158 208,159 211,163 214,162 217,163 220,165 223,165 226,165 229,166 232,166 235,167 238,167 241,167 244,167 247,167 250,167 253,167 256,167 259,167 262,167 265,167 268,167 271,167 274,167 277,167 280,167 283,167 286,167 289,167 292,167 295,167 298,167 301,167 304,167 307,167 310,167 313,167 316,168" fill="none" stroke="#FFFF00" stroke-width="2" stroke-linejoin="round" />
</svg>