<svg width="340" height="190" xmlns="http://www.w3.org/2000/svg">
<rect width="100%" height="100%" fill="#121212" />
<line x1="20" y1="139" x2="320" y2="139" stroke="#232323" stroke-width="1" />
<line x1="20" y1="109" x2="320" y2="109" stroke="#232323" stroke-width="1" />
<line x1="20" y1="94" x2="320" y2="94" stroke="#3C3C3C" stroke-width="1" />
<line x1="20" y1="79" x2="320" y2="79" stroke="#232323" stroke-width="1" />
<line x1="20" y1="49" x2="320" y2="49" stroke="#232323" stroke-width="1" />
<line x1="169" y1="20" x2="169" y2="170" stroke="#232323" stroke-width="1" />
<polyline points="20,90 21,90 24,89 27,90 30,90 33,87 36,87 39,91 42,99 45,99 48,107 51,111 54,115 57,113 60,113 63,102 66,104 69,104 72,104 75,104 78,101 81,104 84,110 87,110 90,110 93,101 96,97 99,95 102,93 105,93 108,88 111,81 114,81 117,89 120,86 123,87 126,80 129,80 132,81 135,89 138,90 141,93 144,93 147,95 150,98 153,98 156,95 159,92 162,93 165,82 168,77 171,74 174,69 177,67 180,55 183,49 186,46 189,37 192,32 195,33 198,35 201,37 204,37 207,34 210,35 213,32 216,32 219,28 222,25 225,26 228,23 231,25 234,28 237,28 240,25 243,23 246,23 249,23 252,22 255,22 258,20 261,20 264,20 267,20 270,20 273,20 276,20 279,20 282,20 285,20 288,20 291,20 294,20 297,20 300,20 303,20 306,20 309,20 312,20 315,20 318,20" fill="none" stroke="#FFFF00" stroke-width="2" stroke-linejoin="round" />
<circle cx="52" cy="79" r="4" fill="#FF0000" stroke="#FFFFFF" stroke-width="1">
  <title>MM2 DOWN (60¢)</title>
</circle>
<circle cx="127" cy="81" r="4" fill="#00FF00" stroke="#FFFFFF" stroke-width="1">
  <title>VPOC UP (59¢)</title>
</circle>
</svg>