<svg width="340" height="190" xmlns="http://www.w3.org/2000/svg">
<rect width="100%" height="100%" fill="#121212" />
<line x1="20" y1="139" x2="320" y2="139" stroke="#232323" stroke-width="1" />
<line x1="20" y1="109" x2="320" y2="109" stroke="#232323" stroke-width="1" />
<line x1="20" y1="94" x2="320" y2="94" stroke="#3C3C3C" stroke-width="1" />
<line x1="20" y1="79" x2="320" y2="79" stroke="#232323" stroke-width="1" />
<line x1="20" y1="49" x2="320" y2="49" stroke="#232323" stroke-width="1" />
<line x1="169" y1="20" x2="169" y2="170" stroke="#232323" stroke-width="1" />
<polyline points="20,90 22,93 25,96 28,99 31,98 34,100 37,105 40,102 43,101 46,99 49,102 52,99 55,99 58,96 61,100 64,107 67,107 70,118 73,110 76,102 79,105 82,98 85,95 88,114 91,113 94,113 97,112 100,111 103,110 106,113 109,119 112,124 115,120 118,120 121,131 124,117 127,114 130,93 133,83 136,71 139,66 142,65 145,66 148,77 151,74 154,74 157,87 160,78 163,63 166,69 169,69 172,82 175,98 178,100 181,116 184,127 187,128 190,140 193,145 196,142 199,134 202,129 205,136 208,150 211,148 214,146 217,151 220,151 223,149 226,150 229,152 232,154 235,151 238,151 241,156 244,157 247,157 250,159 253,160 256,162 259,164 262,165 265,163 268,162 271,163 274,163 277,163 280,165 283,165 286,166 289,166 292,167 295,167 298,167 301,167 304,167 307,167 310,167 313,167 316,167" fill="none" stroke="#FFFF00" stroke-width="2" stroke-linejoin="round" />
</svg>