<svg width="340" height="190" xmlns="http://www.w3.org/2000/svg">
<rect width="100%" height="100%" fill="#121212" />
<line x1="20" y1="139" x2="320" y2="139" stroke="#232323" stroke-width="1" />
<line x1="20" y1="109" x2="320" y2="109" stroke="#232323" stroke-width="1" />
<line x1="20" y1="94" x2="320" y2="94" stroke="#3C3C3C" stroke-width="1" />
<line x1="20" y1="79" x2="320" y2="79" stroke="#232323" stroke-width="1" />
<line x1="20" y1="49" x2="320" y2="49" stroke="#232323" stroke-width="1" />
<line x1="169" y1="20" x2="169" y2="170" stroke="#232323" stroke-width="1" />
<polyline points="20,98 22,98 25,104 28,108 31,108 34,112 37,114 40,115 43,116 46,114 49,110 52,112 55,113 58,106 61,101 64,101 67,107 70,110 73,106 76,103 79,107 82,103 85,103 88,107 91,108 94,110 97,113 100,120 103,114 106,116 109,122 112,123 115,131 118,139 121,144 124,148 127,150 130,151 133,148 136,149 139,150 142,151 145,157 148,154 151,154 154,155 157,160 160,159 163,160 166,158 169,159 172,160 175,160 178,163 181,163 184,165 187,165 190,163 193,163 196,165 199,165 202,166 205,166 208,167 211,167 214,167 217,166 220,166 223,166 226,166 229,166 232,165 235,165 238,166 241,166 244,167 247,167 250,167 253,167 256,167 259,167 262,168 265,168 268,168 271,168 274,166 277,167 280,168 283,168 286,168 289,168 292,168 295,168 298,168 301,168 304,168 307,168 310,168 313,168 316,168" fill="none" stroke="#FFFF00" stroke-width="2" stroke-linejoin="round" />
<circle cx="32" cy="81" r="4" fill="#FF0000" stroke="#FFFFFF" stroke-width="1">
  <title>MM2 DOWN (59¢)</title>
</circle>
<circle cx="92" cy="81" r="4" fill="#FF0000" stroke="#FFFFFF" stroke-width="1">
  <title>VolSnap DOWN (59¢)</title>
</circle>
<circle cx="119" cy="52" r="4" fill="#FF0000" stroke="#FFFFFF" stroke-width="1">
  <title>Nitro DOWN (78¢)</title>
</circle>
</svg>