<svg width="340" height="190" xmlns="http://www.w3.org/2000/svg">
<rect width="100%" height="100%" fill="#121212" />
<line x1="20" y1="139" x2="320" y2="139" stroke="#232323" stroke-width="1" />
<line x1="20" y1="109" x2="320" y2="109" stroke="#232323" stroke-width="1" />
<line x1="20" y1="94" x2="320" y2="94" stroke="#3C3C3C" stroke-width="1" />
<line x1="20" y1="79" x2="320" y2="79" stroke="#232323" stroke-width="1" />
<line x1="20" y1="49" x2="320" y2="49" stroke="#232323" stroke-width="1" />
<line x1="169" y1="20" x2="169" y2="170" stroke="#232323" stroke-width="1" />
<polyline points="20,100 21,100 24,99 27,89 30,101 33,101 36,100 39,90 42,92 45,92 48,88 51,87 54,87 57,93 60,92 63,90 66,88 69,90 73,96 76,90 79,87 82,87 85,97 88,98 91,102 95,107 98,100 101,98 104,93 107,84 110,81 113,90 116,89 119,91 122,97 125,95 128,96 131,96 134,91 137,78 140,79 143,69 146,69 149,61 152,61 155,71 158,73 161,75 164,60 167,60 170,58 173,51 176,52 179,56 182,55 185,50 188,38 191,38 194,37 197,36 200,29 203,28 206,32 209,31 212,31 215,30 218,28 221,27 224,23 227,23 230,23 233,22 236,22 239,23 242,23 245,23 248,23 251,34 254,31 257,34 260,34 263,26 266,26 269,29 272,29 275,32 278,37 281,48 284,46 287,40 290,38 293,33 296,31 299,30 302,22 305,23 308,24 311,22 314,22 317,20" fill="none" stroke="#FFFF00" stroke-width="2" stroke-linejoin="round" />
<circle cx="111" cy="81" r="4" fill="#00FF00" stroke="#FFFFFF" stroke-width="1">
  <title>VPOC UP (59¢)</title>
</circle>
<circle cx="111" cy="81" r="4" fill="#00FF00" stroke="#FFFFFF" stroke-width="1">
  <title>VolSnap UP (59¢)</title>
</circle>
</svg>