<svg width="340" height="190" xmlns="http://www.w3.org/2000/svg">
<rect width="100%" height="100%" fill="#121212" />
<line x1="20" y1="139" x2="320" y2="139" stroke="#232323" stroke-width="1" />
<line x1="20" y1="109" x2="320" y2="109" stroke="#232323" stroke-width="1" />
<line x1="20" y1="94" x2="320" y2="94" stroke="#3C3C3C" stroke-width="1" />
<line x1="20" y1="79" x2="320" y2="79" stroke="#232323" stroke-width="1" />
<line x1="20" y1="49" x2="320" y2="49" stroke="#232323" stroke-width="1" />
<line x1="169" y1="20" x2="169" y2="170" stroke="#232323" stroke-width="1" />
<polyline points="20,89 21,89 24,93 27,88 30,86 33,84 36,84 39,83 42,92 45,92 48,87 51,88 54,86 57,85 60,87 63,86 66,88 69,93 72,93 75,93 78,93 81,94 84,85 87,86 90,84 93,86 96,65 99,65 102,63 105,62 108,68 111,63 114,62 117,53 120,48 123,50 126,52 129,52 132,47 135,49 138,48 141,52 144,49 147,49 150,46 153,44 156,44 159,44 162,40 165,38 168,38 171,35 174,34 177,33 180,31 183,31 186,43 189,41 192,40 195,43 198,43 201,35 204,34 207,32 210,38 213,35 216,36 219,35 222,34 225,31 228,32 231,36 234,34 237,33 240,34 243,29 246,23 250,23 253,23 256,23 259,23 262,22 265,23 268,23 271,22 274,22 277,22 280,20 283,20 286,20 289,20 292,20 295,20 298,20 301,20 304,20 307,20 310,20 313,20 316,20" fill="none" stroke="#FFFF00" stroke-width="2" stroke-linejoin="round" />
<circle cx="31" cy="87" r="4" fill="#00FF00" stroke="#FFFFFF" stroke-width="1">
  <title>MM2 UP (55¢)</title>
</circle>
</svg>