<svg width="340" height="190" xmlns="http://www.w3.org/2000/svg">
<rect width="100%" height="100%" fill="#121212" />
<line x1="20" y1="139" x2="320" y2="139" stroke="#232323" stroke-width="1" />
<line x1="20" y1="109" x2="320" y2="109" stroke="#232323" stroke-width="1" />
<line x1="20" y1="94" x2="320" y2="94" stroke="#3C3C3C" stroke-width="1" />
<line x1="20" y1="79" x2="320" y2="79" stroke="#232323" stroke-width="1" />
<line x1="20" y1="49" x2="320" y2="49" stroke="#232323" stroke-width="1" />
<line x1="169" y1="20" x2="169" y2="170" stroke="#232323" stroke-width="1" />
<polyline points="20,90 22,88 25,90 28,88 31,88 34,80 37,81 40,81 43,77 46,72 49,67 52,66 55,54 58,52 61,50 64,55 67,55 70,60 73,63 76,55 79,55 82,56 85,49 88,49 91,44 94,45 97,43 100,43 103,42 106,43 109,42 112,41 115,35 118,33 121,34 124,37 127,38 130,41 133,40 136,41 139,40 142,47 145,52 148,47 151,47 154,42 157,41 160,40 163,40 166,41 169,43 172,37 175,38 178,31 181,29 184,29 187,30 190,28 193,34 196,34 199,28 202,30 206,34 209,34 212,31 215,30 218,31 221,36 224,35 227,34 230,32 233,34 236,34 239,37 242,37 245,37 248,41 251,37 254,36 257,33 260,29 263,29 266,31 269,31 272,26 275,26 278,28 281,29 284,25 287,25 290,23 293,22 296,22 299,21 302,20 305,20 308,22 311,20 314,20 317,20" fill="none" stroke="#FFFF00" stroke-width="2" stroke-linejoin="round" />
<circle cx="56" cy="55" r="4" fill="#00FF00" stroke="#FFFFFF" stroke-width="1">
  <title>Nitro UP (76¢)</title>
</circle>
<circle cx="83" cy="57" r="4" fill="#00FF00" stroke="#FFFFFF" stroke-width="1">
  <title>VolSnap UP (75¢)</title>
</circle>
</svg>