<svg width="340" height="190" xmlns="http://www.w3.org/2000/svg">
<rect width="100%" height="100%" fill="#121212" />
<line x1="20" y1="139" x2="320" y2="139" stroke="#232323" stroke-width="1" />
<line x1="20" y1="109" x2="320" y2="109" stroke="#232323" stroke-width="1" />
<line x1="20" y1="94" x2="320" y2="94" stroke="#3C3C3C" stroke-width="1" />
<line x1="20" y1="79" x2="320" y2="79" stroke="#232323" stroke-width="1" />
<line x1="20" y1="49" x2="320" y2="49" stroke="#232323" stroke-width="1" />
<line x1="169" y1="20" x2="169" y2="170" stroke="#232323" stroke-width="1" />
<polyline points="20,96 20,96 23,114 26,120 29,114 32,111 35,106 38,104 41,96 44,95 47,95 50,95 53,87 56,89 59,88 62,88 65,89 68,89 71,87 74,89 77,95 80,109 83,124 86,125 89,117 92,125 95,122 98,121 101,120 104,119 107,119 110,132 113,139 116,142 119,140 122,141 125,142 128,144 131,143 134,140 137,143 140,150 143,151 146,151 149,152 152,151 155,148 158,148 161,148 164,150 167,152 170,154 173,156 176,155 179,155 182,157 185,154 188,154 191,154 194,151 197,151 200,151 203,151 206,154 209,155 212,153 215,156 218,156 221,154 224,156 227,153 230,153 233,154 236,154 239,156 242,154 245,154 248,154 251,156 254,156 257,156 260,159 263,159 266,160 269,160 272,161 275,163 278,162 281,159 284,159 287,163 290,162 293,163 296,163 299,154 302,157 305,127 308,94 311,87 314,128 317,163" fill="none" stroke="#FFFF00" stroke-width="2" stroke-linejoin="round" />
</svg>