<svg width="340" height="190" xmlns="http://www.w3.org/2000/svg">
<rect width="100%" height="100%" fill="#121212" />
<line x1="20" y1="139" x2="320" y2="139" stroke="#232323" stroke-width="1" />
<line x1="20" y1="109" x2="320" y2="109" stroke="#232323" stroke-width="1" />
<line x1="20" y1="94" x2="320" y2="94" stroke="#3C3C3C" stroke-width="1" />
<line x1="20" y1="79" x2="320" y2="79" stroke="#232323" stroke-width="1" />
<line x1="20" y1="49" x2="320" y2="49" stroke="#232323" stroke-width="1" />
<line x1="169" y1="20" x2="169" y2="170" stroke="#232323" stroke-width="1" />
<polyline points="20,94 21,94 24,95 27,83 30,95 33,95 36,83 39,85 42,91 45,81 48,89 51,90 54,89 57,83 60,79 63,66 66,67 69,67 72,65 75,53 78,61 81,62 84,51 87,45 90,42 93,42 96,43 99,46 102,48 105,47 108,46 111,49 114,56 117,53 120,54 123,50 126,55 129,55 132,61 135,46 138,44 141,43 144,41 147,40 150,35 153,33 156,37 159,40 162,37 165,43 168,41 171,39 174,39 177,40 180,46 183,37 186,41 189,41 192,39 195,45 198,47 201,48 204,52 207,50 210,56 213,55 216,39 219,39 222,34 225,34 228,34 231,34 234,32 237,34 240,35 243,34 246,29 249,28 252,27 255,23 258,24 261,25 264,23 267,23 270,24 273,23 276,23 279,22 282,22 285,20 288,20 291,20 294,20 297,20 300,20 303,20 306,20 309,20 312,20 315,20 318,20" fill="none" stroke="#FFFF00" stroke-width="2" stroke-linejoin="round" />
<circle cx="82" cy="64" r="4" fill="#00FF00" stroke="#FFFFFF" stroke-width="1">
  <title>Nitro UP (70¢)</title>
</circle>
<circle cx="82" cy="64" r="4" fill="#00FF00" stroke="#FFFFFF" stroke-width="1">
  <title>VolSnap UP (70¢)</title>
</circle>
</svg>