<svg width="340" height="190" xmlns="http://www.w3.org/2000/svg">
<rect width="100%" height="100%" fill="#121212" />
<line x1="20" y1="139" x2="320" y2="139" stroke="#232323" stroke-width="1" />
<line x1="20" y1="109" x2="320" y2="109" stroke="#232323" stroke-width="1" />
<line x1="20" y1="94" x2="320" y2="94" stroke="#3C3C3C" stroke-width="1" />
<line x1="20" y1="79" x2="320" y2="79" stroke="#232323" stroke-width="1" />
<line x1="20" y1="49" x2="320" y2="49" stroke="#232323" stroke-width="1" />
<line x1="169" y1="20" x2="169" y2="170" stroke="#232323" stroke-width="1" />
<polyline points="20,99 20,99 23,99 26,96 29,92 32,96 35,98 38,96 41,101 44,101 47,101 50,101 53,101 56,105 59,104 62,105 65,106 68,105 71,107 74,106 77,105 80,101 83,98 86,98 89,102 92,101 95,108 98,113 101,119 104,122 107,131 110,133 113,128 116,128 119,126 122,125 125,128 128,133 131,137 134,141 137,142 140,145 143,141 146,135 149,133 152,136 155,138 158,135 161,138 164,133 167,126 170,128 173,132 176,134 179,133 182,134 186,123 189,131 192,140 195,145 198,144 201,151 204,153 207,156 210,158 213,160 216,160 219,160 222,162 225,160 228,161 231,162 234,162 237,163 240,163 243,165 246,163 249,165 252,165 255,166 258,166 261,167 264,167 267,167 270,167 273,167 276,167 279,167 282,167 285,167 288,167 291,167 294,167 297,167 300,167 303,167 306,167 309,167 312,167 315,167 318,167" fill="none" stroke="#FFFF00" stroke-width="2" stroke-linejoin="round" />
<circle cx="99" cy="76" r="4" fill="#FF0000" stroke="#FFFFFF" stroke-width="1">
  <title>MM2 DOWN (62¢)</title>
</circle>
<circle cx="99" cy="76" r="4" fill="#FF0000" stroke="#FFFFFF" stroke-width="1">
  <title>VPOC DOWN (62¢)</title>
</circle>
<circle cx="108" cy="60" r="4" fill="#FF0000" stroke="#FFFFFF" stroke-width="1">
  <title>Nitro DOWN (73¢)</title>
</circle>
</svg>