<svg width="340" height="190" xmlns="http://www.w3.org/2000/svg">
<rect width="100%" height="100%" fill="#121212" />
<line x1="20" y1="139" x2="320" y2="139" stroke="#232323" stroke-width="1" />
<line x1="20" y1="109" x2="320" y2="109" stroke="#232323" stroke-width="1" />
<line x1="20" y1="94" x2="320" y2="94" stroke="#3C3C3C" stroke-width="1" />
<line x1="20" y1="79" x2="320" y2="79" stroke="#232323" stroke-width="1" />
<line x1="20" y1="49" x2="320" y2="49" stroke="#232323" stroke-width="1" />
<line x1="169" y1="20" x2="169" y2="170" stroke="#232323" stroke-width="1" />
<polyline points="20,88 22,86 25,94 28,96 31,101 34,103 37,109 40,111 43,113 46,131 49,135 52,138 55,137 58,133 61,138 64,135 67,134 70,141 73,142 76,138 79,135 82,135 85,136 88,151 91,153 94,154 97,154 100,157 103,160 106,163 109,163 112,163 115,162 118,165 121,165 124,165 127,165 130,163 133,162 136,162 139,163 142,164 145,165 148,165 151,165 154,165 157,165 160,165 163,165 166,166 169,166 172,165 175,165 178,165 181,165 184,165 187,166 191,166 194,166 197,166 200,166 203,166 206,166 209,167 212,167 215,167 218,168 221,168 224,168 227,168 230,168 233,168 236,168 239,168 242,168 245,168 248,168 251,168 254,168 257,168 260,168 263,168 266,168 269,168 272,168 275,168 278,168 281,168 284,168 287,168 290,168 293,168 296,168 299,168 302,168 305,168 308,168 311,168 314,168 317,168" fill="none" stroke="#FFFF00" stroke-width="2" stroke-linejoin="round" />
<circle cx="38" cy="79" r="4" fill="#FF0000" stroke="#FFFFFF" stroke-width="1">
  <title>VPOC DOWN (60¢)</title>
</circle>
<circle cx="56" cy="51" r="4" fill="#FF0000" stroke="#FFFFFF" stroke-width="1">
  <title>Nitro DOWN (79¢)</title>
</circle>
<circle cx="83" cy="54" r="4" fill="#FF0000" stroke="#FFFFFF" stroke-width="1">
  <title>VolSnap DOWN (77¢)</title>
</circle>
</svg>