<svg width="340" height="190" xmlns="http://www.w3.org/2000/svg">
<rect width="100%" height="100%" fill="#121212" />
<line x1="20" y1="139" x2="320" y2="139" stroke="#232323" stroke-width="1" />
<line x1="20" y1="109" x2="320" y2="109" stroke="#232323" stroke-width="1" />
<line x1="20" y1="94" x2="320" y2="94" stroke="#3C3C3C" stroke-width="1" />
<line x1="20" y1="79" x2="320" y2="79" stroke="#232323" stroke-width="1" />
<line x1="20" y1="49" x2="320" y2="49" stroke="#232323" stroke-width="1" />
<line x1="169" y1="20" x2="169" y2="170" stroke="#232323" stroke-width="1" />
<polyline points="20,87 20,87 23,88 26,88 29,86 32,86 35,86 38,87 41,87 44,86 47,93 50,86 54,74 57,80 60,80 63,78 66,75 69,77 72,87 75,91 78,99 81,104 84,99 87,99 90,99 93,105 96,106 99,107 102,99 105,108 108,98 111,83 114,83 117,90 120,88 123,89 126,103 129,105 132,104 135,104 138,110 141,117 144,113 147,116 150,125 153,132 156,128 159,122 162,122 165,127 168,123 171,123 174,125 177,142 180,148 183,151 186,162 189,162 192,161 195,162 198,163 201,163 204,163 207,164 210,162 213,163 216,163 219,163 222,162 225,163 228,164 231,165 234,165 237,163 240,163 243,163 246,157 249,157 252,160 255,157 258,160 261,163 264,163 267,164 270,165 273,165 276,165 279,166 282,167 285,167 288,167 291,167 294,167 297,167 300,167 303,167 306,167 309,167 312,167 315,167 318,167" fill="none" stroke="#FFFF00" stroke-width="2" stroke-linejoin="round" />
<circle cx="106" cy="81" r="4" fill="#FF0000" stroke="#FFFFFF" stroke-width="1">
  <title>MM2 DOWN (59¢)</title>
</circle>
</svg>