<svg width="340" height="190" xmlns="http://www.w3.org/2000/svg">
<rect width="100%" height="100%" fill="#121212" />
<line x1="20" y1="139" x2="320" y2="139" stroke="#232323" stroke-width="1" />
<line x1="20" y1="109" x2="320" y2="109" stroke="#232323" stroke-width="1" />
<line x1="20" y1="94" x2="320" y2="94" stroke="#3C3C3C" stroke-width="1" />
<line x1="20" y1="79" x2="320" y2="79" stroke="#232323" stroke-width="1" />
<line x1="20" y1="49" x2="320" y2="49" stroke="#232323" stroke-width="1" />
<line x1="169" y1="20" x2="169" y2="170" stroke="#232323" stroke-width="1" />
<polyline points="20,94 22,95 25,94 28,105 31,91 34,97 37,99 40,96 43,92 46,90 49,87 52,85 55,104 58,110 61,110 64,118 67,120 70,110 73,103 76,102 79,110 82,106 85,101 88,101 91,101 94,103 97,118 100,116 103,117 106,120 109,121 112,120 115,132 118,133 121,135 124,134 127,126 130,122 133,119 136,112 139,117 142,119 145,99 148,98 151,99 154,116 157,124 160,125 163,125 166,136 169,129 172,130 175,131 178,123 181,122 184,126 187,126 190,125 193,128 196,142 199,142 202,152 205,156 208,154 211,156 214,157 217,159 220,159 223,159 226,160 229,160 232,160 235,160 238,157 241,160 244,155 247,156 250,157 253,154 256,156 259,158 262,162 265,163 268,163 271,166 274,165 277,166 280,167 283,167 286,167 289,167 292,167 295,167 298,167 301,167 304,167 307,167 310,167 313,167 316,167" fill="none" stroke="#FFFF00" stroke-width="2" stroke-linejoin="round" />
<circle cx="59" cy="79" r="4" fill="#FF0000" stroke="#FFFFFF" stroke-width="1">
  <title>MM2 DOWN (60¢)</title>
</circle>
</svg>