<svg width="340" height="190" xmlns="http://www.w3.org/2000/svg">
<rect width="100%" height="100%" fill="#121212" />
<line x1="20" y1="139" x2="320" y2="139" stroke="#232323" stroke-width="1" />
<line x1="20" y1="109" x2="320" y2="109" stroke="#232323" stroke-width="1" />
<line x1="20" y1="94" x2="320" y2="94" stroke="#3C3C3C" stroke-width="1" />
<line x1="20" y1="79" x2="320" y2="79" stroke="#232323" stroke-width="1" />
<line x1="20" y1="49" x2="320" y2="49" stroke="#232323" stroke-width="1" />
<line x1="169" y1="20" x2="169" y2="170" stroke="#232323" stroke-width="1" />
<polyline points="20,97 22,94 25,92 28,79 31,93 34,91 37,90 40,80 43,82 46,81 49,75 52,75 55,81 58,77 61,70 64,66 67,69 70,59 73,62 76,57 79,57 82,63 85,67 88,75 91,75 94,72 97,61 100,59 103,53 106,49 109,45 112,39 115,34 118,33 121,30 124,29 127,27 130,27 133,26 136,26 139,25 142,27 145,26 148,25 151,29 154,27 157,29 160,29 163,26 166,28 169,30 172,25 175,29 178,29 181,29 184,29 187,34 190,38 193,43 196,41 199,49 202,48 205,43 208,44 211,43 214,57 217,68 220,42 223,43 226,46 229,36 232,43 235,36 238,43 241,26 244,22 247,23 250,25 253,23 256,27 259,23 262,22 265,22 268,21 271,20 274,21 277,21 280,20 283,20 286,20 289,20 292,20 295,20 298,20 301,20 304,20 307,20 310,20 313,20 316,20" fill="none" stroke="#FFFF00" stroke-width="2" stroke-linejoin="round" />
<circle cx="50" cy="76" r="4" fill="#00FF00" stroke="#FFFFFF" stroke-width="1">
  <title>MM2 UP (62¢)</title>
</circle>
<circle cx="83" cy="63" r="4" fill="#00FF00" stroke="#FFFFFF" stroke-width="1">
  <title>Nitro UP (71¢)</title>
</circle>
<circle cx="83" cy="63" r="4" fill="#00FF00" stroke="#FFFFFF" stroke-width="1">
  <title>VolSnap UP (71¢)</title>
</circle>
</svg>