<svg width="340" height="190" xmlns="http://www.w3.org/2000/svg">
<rect width="100%" height="100%" fill="#121212" />
<line x1="20" y1="139" x2="320" y2="139" stroke="#232323" stroke-width="1" />
<line x1="20" y1="109" x2="320" y2="109" stroke="#232323" stroke-width="1" />
<line x1="20" y1="94" x2="320" y2="94" stroke="#3C3C3C" stroke-width="1" />
<line x1="20" y1="79" x2="320" y2="79" stroke="#232323" stroke-width="1" />
<line x1="20" y1="49" x2="320" y2="49" stroke="#232323" stroke-width="1" />
<line x1="169" y1="20" x2="169" y2="170" stroke="#232323" stroke-width="1" />
<polyline points="20,92 22,93 25,93 28,93 31,90 34,92 37,95 40,97 43,93 46,93 49,93 52,98 55,98 58,104 61,104 64,113 67,110 70,107 73,108 76,108 79,101 82,102 85,93 88,95 91,101 94,104 97,104 100,108 103,107 106,108 109,107 112,104 115,105 118,105 121,101 124,101 127,102 130,130 133,121 136,121 139,124 142,118 145,107 148,106 151,105 154,105 157,105 160,104 163,110 166,112 169,111 172,113 175,119 178,119 181,113 184,113 187,113 190,104 193,110 196,110 199,113 202,101 205,97 208,96 211,91 214,89 217,86 220,77 223,69 226,86 229,84 232,82 235,79 238,80 241,78 244,58 247,46 250,43 253,43 256,40 259,44 262,46 265,43 268,31 271,33 274,33 277,28 280,26 283,26 286,25 289,32 292,43 295,55 298,57 301,54 304,54 307,39 310,34 313,29 316,20" fill="none" stroke="#FFFF00" stroke-width="2" stroke-linejoin="round" />
</svg>