<svg width="340" height="190" xmlns="http://www.w3.org/2000/svg">
<rect width="100%" height="100%" fill="#121212" />
<line x1="20" y1="139" x2="320" y2="139" stroke="#232323" stroke-width="1" />
<line x1="20" y1="109" x2="320" y2="109" stroke="#232323" stroke-width="1" />
<line x1="20" y1="94" x2="320" y2="94" stroke="#3C3C3C" stroke-width="1" />
<line x1="20" y1="79" x2="320" y2="79" stroke="#232323" stroke-width="1" />
<line x1="20" y1="49" x2="320" y2="49" stroke="#232323" stroke-width="1" />
<line x1="169" y1="20" x2="169" y2="170" stroke="#232323" stroke-width="1" />
<polyline points="20,99 22,99 25,100 28,99 31,99 34,101 37,101 40,102 43,102 46,99 49,103 52,101 55,103 58,105 61,105 64,104 67,105 70,104 73,103 76,102 79,102 82,102 85,101 88,104 91,103 94,104 97,104 100,103 103,102 106,102 109,105 112,101 115,101 118,101 121,101 124,101 127,102 130,101 133,102 136,101 139,101 142,103 145,104 148,103 151,103 154,104 157,104 160,101 163,101 166,101 169,100 172,99 175,99 178,98 181,98 184,98 187,96 190,101 193,98 196,100 199,101 202,101 205,101 208,101 211,101 214,101 217,101 220,100 223,103 226,104 229,104 232,104 235,104 238,104 241,104 244,104 247,104 250,104 253,104 256,105 259,104 262,104 265,110 268,116 271,120 274,122 277,113 280,107 283,116 286,118 289,122 292,124 295,132 298,132 301,132 304,132 307,130 310,132 313,133 316,127" fill="none" stroke="#FFFF00" stroke-width="2" stroke-linejoin="round" />
</svg>