<svg width="340" height="190" xmlns="http://www.w3.org/2000/svg">
<rect width="100%" height="100%" fill="#121212" />
<line x1="20" y1="139" x2="320" y2="139" stroke="#232323" stroke-width="1" />
<line x1="20" y1="109" x2="320" y2="109" stroke="#232323" stroke-width="1" />
<line x1="20" y1="94" x2="320" y2="94" stroke="#3C3C3C" stroke-width="1" />
<line x1="20" y1="79" x2="320" y2="79" stroke="#232323" stroke-width="1" />
<line x1="20" y1="49" x2="320" y2="49" stroke="#232323" stroke-width="1" />
<line x1="169" y1="20" x2="169" y2="170" stroke="#232323" stroke-width="1" />
<polyline points="20,86 21,86 24,88 27,86 30,86 33,87 36,87 39,84 42,83 45,96 48,103 51,96 54,98 57,102 60,101 63,98 66,93 69,81 72,78 75,78 78,89 81,93 84,85 87,83 90,86 93,87 96,80 99,82 102,82 105,87 108,93 111,91 114,90 117,81 120,87 123,84 126,82 129,92 132,105 135,104 138,108 141,97 144,104 147,114 150,116 153,125 156,122 159,122 162,122 165,127 168,129 171,133 174,127 177,122 180,126 183,120 186,128 189,127 192,114 195,112 198,119 201,128 204,132 207,131 210,131 213,114 216,104 219,113 222,106 225,110 228,114 231,110 234,114 237,117 240,120 243,114 246,107 249,107 252,115 255,84 258,78 261,76 264,75 267,81 270,69 273,60 276,43 279,30 282,27 285,23 288,23 291,22 294,21 297,20 300,20 303,20 306,20 309,20 312,20 315,20 318,20" fill="none" stroke="#FFFF00" stroke-width="2" stroke-linejoin="round" />
<circle cx="139" cy="81" r="4" fill="#FF0000" stroke="#FFFFFF" stroke-width="1">
  <title>MM2 DOWN (59¢)</title>
</circle>
</svg>