<svg width="340" height="190" xmlns="http://www.w3.org/2000/svg">
<rect width="100%" height="100%" fill="#121212" />
<line x1="20" y1="139" x2="320" y2="139" stroke="#232323" stroke-width="1" />
<line x1="20" y1="109" x2="320" y2="109" stroke="#232323" stroke-width="1" />
<line x1="20" y1="94" x2="320" y2="94" stroke="#3C3C3C" stroke-width="1" />
<line x1="20" y1="79" x2="320" y2="79" stroke="#232323" stroke-width="1" />
<line x1="20" y1="49" x2="320" y2="49" stroke="#232323" stroke-width="1" />
<line x1="169" y1="20" x2="169" y2="170" stroke="#232323" stroke-width="1" />
<polyline points="20,95 20,95 23,95 26,97 29,98 32,105 35,113 38,114 41,116 44,116 47,117 50,113 53,110 56,107 59,108 62,107 65,99 68,102 71,101 74,87 77,85 80,81 83,88 86,86 89,83 92,86 95,86 98,84 101,81 104,78 107,73 110,70 113,60 116,59 119,54 122,51 125,53 128,60 131,65 134,60 137,61 140,62 143,63 146,66 149,82 152,75 155,74 158,74 161,75 164,82 167,93 170,96 173,84 176,80 179,85 182,100 185,98 188,95 191,96 194,95 197,93 200,78 203,69 206,66 209,45 212,39 215,40 218,38 221,34 224,31 227,31 230,29 233,27 236,29 239,28 242,29 245,31 248,26 251,28 254,26 257,25 260,24 263,23 266,23 269,23 272,22 275,20 278,21 281,20 284,20 287,22 290,21 293,20 296,20 299,20 302,20 305,20 308,20 311,20 314,20 317,20" fill="none" stroke="#FFFF00" stroke-width="2" stroke-linejoin="round" />
<circle cx="36" cy="76" r="4" fill="#FF0000" stroke="#FFFFFF" stroke-width="1">
  <title>MM2 DOWN (62¢)</title>
</circle>
<circle cx="36" cy="76" r="4" fill="#FF0000" stroke="#FFFFFF" stroke-width="1">
  <title>Briefing DOWN (62¢)</title>
</circle>
</svg>