<svg width="340" height="190" xmlns="http://www.w3.org/2000/svg">
<rect width="100%" height="100%" fill="#121212" />
<line x1="20" y1="139" x2="320" y2="139" stroke="#232323" stroke-width="1" />
<line x1="20" y1="109" x2="320" y2="109" stroke="#232323" stroke-width="1" />
<line x1="20" y1="94" x2="320" y2="94" stroke="#3C3C3C" stroke-width="1" />
<line x1="20" y1="79" x2="320" y2="79" stroke="#232323" stroke-width="1" />
<line x1="20" y1="49" x2="320" y2="49" stroke="#232323" stroke-width="1" />
<line x1="169" y1="20" x2="169" y2="170" stroke="#232323" stroke-width="1" />
<polyline points="20,92 22,93 25,86 28,74 31,66 34,73 37,69 40,71 43,78 46,79 49,70 52,66 55,69 58,72 61,69 64,66 67,67 70,69 73,69 76,66 79,64 82,62 85,63 88,62 91,64 94,62 97,62 100,62 103,64 106,69 109,78 112,85 115,87 118,101 121,95 124,92 127,93 130,92 133,93 136,94 139,96 142,89 145,86 148,93 151,87 154,74 157,60 160,60 163,60 166,50 169,48 172,53 175,49 178,47 181,43 184,37 187,34 190,33 193,31 196,30 199,29 202,34 205,34 208,36 211,37 214,37 217,31 220,29 223,28 226,26 229,25 232,25 235,25 238,23 241,23 244,23 247,22 250,20 253,20 256,20 259,20 262,20 265,20 268,20 271,20 274,20 277,22 280,22 283,20 286,22 289,22 292,20 295,20 298,22 301,22 304,21 307,20 310,20 313,20 316,20" fill="none" stroke="#FFFF00" stroke-width="2" stroke-linejoin="round" />
<circle cx="32" cy="67" r="4" fill="#00FF00" stroke="#FFFFFF" stroke-width="1">
  <title>VPOC UP (68¢)</title>
</circle>
<circle cx="50" cy="72" r="4" fill="#00FF00" stroke="#FFFFFF" stroke-width="1">
  <title>Nitro UP (65¢)</title>
</circle>
<circle cx="83" cy="64" r="4" fill="#00FF00" stroke="#FFFFFF" stroke-width="1">
  <title>VolSnap UP (70¢)</title>
</circle>
</svg>