<svg width="340" height="190" xmlns="http://www.w3.org/2000/svg">
<rect width="100%" height="100%" fill="#121212" />
<line x1="20" y1="139" x2="320" y2="139" stroke="#232323" stroke-width="1" />
<line x1="20" y1="109" x2="320" y2="109" stroke="#232323" stroke-width="1" />
<line x1="20" y1="94" x2="320" y2="94" stroke="#3C3C3C" stroke-width="1" />
<line x1="20" y1="79" x2="320" y2="79" stroke="#232323" stroke-width="1" />
<line x1="20" y1="49" x2="320" y2="49" stroke="#232323" stroke-width="1" />
<line x1="169" y1="20" x2="169" y2="170" stroke="#232323" stroke-width="1" />
<polyline points="20,96 20,96 23,99 26,91 29,93 32,92 35,99 38,100 41,96 44,105 47,107 50,113 53,113 56,103 59,104 63,93 66,90 69,92 72,90 75,95 78,103 81,110 84,110 87,109 90,107 93,111 96,110 99,96 102,87 105,93 108,85 111,86 114,101 117,107 120,115 123,112 126,116 129,112 132,103 135,103 138,103 141,99 144,101 147,104 150,102 153,115 156,115 159,114 162,106 165,99 168,99 171,111 174,119 177,120 180,120 183,116 186,121 189,113 192,111 195,113 198,110 201,100 204,113 207,116 210,125 213,121 216,123 219,128 222,133 225,132 228,131 231,133 234,138 237,135 240,135 243,133 246,129 249,130 252,132 255,131 258,131 261,131 264,143 267,149 270,151 273,157 276,159 279,158 282,160 285,163 288,165 291,165 294,166 297,167 300,167 303,167 306,167 309,167 312,167 315,167 318,167" fill="none" stroke="#FFFF00" stroke-width="2" stroke-linejoin="round" />
<circle cx="48" cy="81" r="4" fill="#FF0000" stroke="#FFFFFF" stroke-width="1">
  <title>MM2 DOWN (59¢)</title>
</circle>
</svg>