<svg width="340" height="190" xmlns="http://www.w3.org/2000/svg">
<rect width="100%" height="100%" fill="#121212" />
<line x1="20" y1="139" x2="320" y2="139" stroke="#232323" stroke-width="1" />
<line x1="20" y1="109" x2="320" y2="109" stroke="#232323" stroke-width="1" />
<line x1="20" y1="94" x2="320" y2="94" stroke="#3C3C3C" stroke-width="1" />
<line x1="20" y1="79" x2="320" y2="79" stroke="#232323" stroke-width="1" />
<line x1="20" y1="49" x2="320" y2="49" stroke="#232323" stroke-width="1" />
<line x1="169" y1="20" x2="169" y2="170" stroke="#232323" stroke-width="1" />
<polyline points="20,95 22,93 25,91 28,90 31,90 34,86 37,97 40,91 43,93 46,95 49,96 52,98 55,96 58,104 61,119 64,123 67,129 70,131 73,128 76,127 79,128 82,124 85,116 88,109 91,110 94,110 97,110 100,113 103,110 106,116 109,117 112,116 115,114 118,115 121,114 124,128 127,129 130,121 133,122 136,116 139,113 142,116 145,126 148,128 151,116 154,126 157,126 160,123 163,123 166,121 169,120 172,120 175,112 178,117 181,110 184,110 187,111 190,108 193,95 196,91 199,84 202,84 205,81 208,68 211,84 214,99 217,98 220,96 223,96 226,101 229,102 232,101 235,104 238,105 241,111 244,117 247,114 250,118 253,118 256,119 259,120 262,111 265,114 268,114 271,114 274,116 277,116 280,113 283,108 286,110 289,136 292,138 295,138 298,140 301,142 304,148 307,151 310,154 313,166 316,167" fill="none" stroke="#FFFF00" stroke-width="2" stroke-linejoin="round" />
</svg>