<svg width="340" height="190" xmlns="http://www.w3.org/2000/svg">
<rect width="100%" height="100%" fill="#121212" />
<line x1="20" y1="139" x2="320" y2="139" stroke="#232323" stroke-width="1" />
<line x1="20" y1="109" x2="320" y2="109" stroke="#232323" stroke-width="1" />
<line x1="20" y1="94" x2="320" y2="94" stroke="#3C3C3C" stroke-width="1" />
<line x1="20" y1="79" x2="320" y2="79" stroke="#232323" stroke-width="1" />
<line x1="20" y1="49" x2="320" y2="49" stroke="#232323" stroke-width="1" />
<line x1="169" y1="20" x2="169" y2="170" stroke="#232323" stroke-width="1" />
<polyline points="20,96 20,96 23,103 26,115 29,117 32,119 35,120 38,121 41,125 44,122 47,119 50,119 53,114 56,119 59,120 62,121 65,125 68,125 71,129 74,131 77,132 80,133 83,131 86,136 89,139 92,139 95,142 98,143 101,142 104,141 107,141 110,144 113,147 116,146 119,148 122,148 125,149 128,148 131,156 134,151 137,149 140,153 143,150 146,151 149,151 152,147 155,142 158,145 161,145 164,150 167,149 170,153 173,148 176,140 179,138 182,149 185,149 188,156 191,156 194,157 197,159 200,158 203,153 206,154 209,153 212,155 215,153 218,149 221,149 224,150 227,151 230,156 233,156 236,157 239,157 242,159 245,159 248,159 251,159 254,163 257,162 260,165 263,165 266,166 269,167 272,167 275,167 278,167 281,167 284,167 287,167 290,167 293,167 296,167 299,167 302,167 305,167 308,167 311,167 314,167 317,167" fill="none" stroke="#FFFF00" stroke-width="2" stroke-linejoin="round" />
<circle cx="30" cy="72" r="4" fill="#FF0000" stroke="#FFFFFF" stroke-width="1">
  <title>MM2 DOWN (65¢)</title>
</circle>
<circle cx="30" cy="72" r="4" fill="#FF0000" stroke="#FFFFFF" stroke-width="1">
  <title>VPOC DOWN (65¢)</title>
</circle>
</svg>