<svg width="340" height="190" xmlns="http://www.w3.org/2000/svg">
<rect width="100%" height="100%" fill="#121212" />
<line x1="20" y1="139" x2="320" y2="139" stroke="#232323" stroke-width="1" />
<line x1="20" y1="109" x2="320" y2="109" stroke="#232323" stroke-width="1" />
<line x1="20" y1="94" x2="320" y2="94" stroke="#3C3C3C" stroke-width="1" />
<line x1="20" y1="79" x2="320" y2="79" stroke="#232323" stroke-width="1" />
<line x1="20" y1="49" x2="320" y2="49" stroke="#232323" stroke-width="1" />
<line x1="169" y1="20" x2="169" y2="170" stroke="#232323" stroke-width="1" />
<polyline points="20,93 21,93 24,101 27,99 30,101 33,101 36,101 39,107 42,109 45,116 48,119 51,119 54,122 57,123 60,126 63,132 66,131 69,122 72,119 75,125 78,120 81,121 84,116 87,116 90,121 93,113 96,104 99,95 102,85 105,77 108,70 111,81 114,82 117,88 120,93 123,104 126,110 129,106 132,101 135,84 138,87 141,87 144,74 147,65 150,59 153,62 156,58 159,63 162,57 165,51 168,45 171,52 174,53 177,48 180,49 183,49 186,37 189,28 192,25 195,25 198,25 201,27 204,23 207,23 210,23 213,23 216,26 219,26 222,24 225,23 228,22 231,22 234,22 237,22 240,22 243,20 246,20 249,20 252,20 255,20 258,20 261,20 264,20 267,20 270,20 273,20 276,20 279,20 282,20 285,20 288,20 291,20 294,20 297,20 300,20 303,20 306,20 309,20 312,20 315,20 318,20" fill="none" stroke="#FFFF00" stroke-width="2" stroke-linejoin="round" />
<circle cx="43" cy="81" r="4" fill="#FF0000" stroke="#FFFFFF" stroke-width="1">
  <title>MM2 DOWN (59¢)</title>
</circle>
<circle cx="82" cy="67" r="4" fill="#FF0000" stroke="#FFFFFF" stroke-width="1">
  <title>VolSnap DOWN (68¢)</title>
</circle>
</svg>