<svg width="340" height="190" xmlns="http://www.w3.org/2000/svg">
<rect width="100%" height="100%" fill="#121212" />
<line x1="20" y1="139" x2="320" y2="139" stroke="#232323" stroke-width="1" />
<line x1="20" y1="109" x2="320" y2="109" stroke="#232323" stroke-width="1" />
<line x1="20" y1="94" x2="320" y2="94" stroke="#3C3C3C" stroke-width="1" />
<line x1="20" y1="79" x2="320" y2="79" stroke="#232323" stroke-width="1" />
<line x1="20" y1="49" x2="320" y2="49" stroke="#232323" stroke-width="1" />
<line x1="169" y1="20" x2="169" y2="170" stroke="#232323" stroke-width="1" />
<polyline points="20,98 22,100 25,95 28,87 31,92 34,90 37,99 40,105 43,95 46,98 49,91 52,96 55,88 58,88 61,87 64,88 67,84 70,75 73,70 76,70 79,69 82,65 85,58 88,52 91,57 94,49 97,56 100,52 103,49 106,40 109,38 112,38 115,33 118,34 121,35 124,35 127,34 130,35 133,32 136,30 139,28 142,26 145,25 148,23 151,25 154,25 157,25 160,23 163,23 166,25 169,23 172,23 175,23 178,25 181,24 184,23 187,24 190,22 193,22 196,22 199,22 202,22 205,22 208,28 211,30 214,25 217,24 220,25 223,25 226,24 229,23 232,23 235,23 238,22 241,22 244,22 247,20 250,20 253,20 256,20 259,20 262,21 265,21 268,20 271,20 274,20 277,20 280,20 283,20 286,20 289,20 292,20 295,20 298,20 301,20 304,20 307,20 310,20 313,20 316,20" fill="none" stroke="#FFFF00" stroke-width="2" stroke-linejoin="round" />
<circle cx="71" cy="76" r="4" fill="#00FF00" stroke="#FFFFFF" stroke-width="1">
  <title>VPOC UP (62¢)</title>
</circle>
<circle cx="83" cy="66" r="4" fill="#00FF00" stroke="#FFFFFF" stroke-width="1">
  <title>VolSnap UP (69¢)</title>
</circle>
</svg>