<svg width="340" height="190" xmlns="http://www.w3.org/2000/svg">
<rect width="100%" height="100%" fill="#121212" />
<line x1="20" y1="139" x2="320" y2="139" stroke="#232323" stroke-width="1" />
<line x1="20" y1="109" x2="320" y2="109" stroke="#232323" stroke-width="1" />
<line x1="20" y1="94" x2="320" y2="94" stroke="#3C3C3C" stroke-width="1" />
<line x1="20" y1="79" x2="320" y2="79" stroke="#232323" stroke-width="1" />
<line x1="20" y1="49" x2="320" y2="49" stroke="#232323" stroke-width="1" />
<line x1="169" y1="20" x2="169" y2="170" stroke="#232323" stroke-width="1" />
<polyline points="20,93 21,93 24,93 27,93 30,93 33,93 36,93 39,93 42,93 45,93 48,93 51,93 54,93 57,93 60,93 63,93 66,93 69,93 72,93 75,93 78,93 81,93 84,93 87,93 90,93 93,93 96,93 99,93 102,93 105,93 108,93 111,93 114,93 117,93 120,93 123,93 126,93 129,93 132,93 135,93 138,93 141,93 144,93 147,93 150,93 153,93 156,93 159,93 162,93 165,93 168,93 171,93 174,93 177,93 180,93 183,93 186,93 189,93 192,93 195,93 198,93 201,93 204,93 207,93 210,93 213,93 216,93 219,93 222,93 225,93 228,93 231,93 234,93 237,93 240,93 243,93 246,93 249,93 252,93 255,93 258,93 261,93 264,93 267,93 270,93 273,93 276,93 279,93 282,93 285,93 288,93 291,93 294,93 297,93 300,93 303,93 306,93 309,93 312,93 315,93 318,93" fill="none" stroke="#FFFF00" stroke-width="2" stroke-linejoin="round" />
</svg>