<svg width="340" height="190" xmlns="http://www.w3.org/2000/svg">
<rect width="100%" height="100%" fill="#121212" />
<line x1="20" y1="139" x2="320" y2="139" stroke="#232323" stroke-width="1" />
<line x1="20" y1="109" x2="320" y2="109" stroke="#232323" stroke-width="1" />
<line x1="20" y1="94" x2="320" y2="94" stroke="#3C3C3C" stroke-width="1" />
<line x1="20" y1="79" x2="320" y2="79" stroke="#232323" stroke-width="1" />
<line x1="20" y1="49" x2="320" y2="49" stroke="#232323" stroke-width="1" />
<line x1="169" y1="20" x2="169" y2="170" stroke="#232323" stroke-width="1" />
<polyline points="20,101 22,105 25,101 28,104 31,105 34,110 37,110 40,122 43,123 46,126 49,122 52,125 55,125 58,129 61,128 64,124 67,125 70,132 73,135 76,140 79,146 82,146 85,145 88,151 91,153 94,155 97,159 100,157 103,154 106,155 109,157 112,160 115,157 118,157 121,160 124,160 127,160 130,162 133,163 136,165 139,164 142,166 145,166 148,166 151,166 154,166 157,165 160,165 163,165 166,165 169,166 172,165 175,166 178,165 181,166 184,166 187,167 190,167 193,167 196,167 199,167 202,167 205,167 208,167 211,167 214,167 217,167 220,167 223,167 226,167 229,167 232,167 235,167 238,167 241,167 244,167 247,167 250,167 253,167 256,167 259,167 262,167 265,167 268,168 271,167 274,167 277,168 280,168 283,168 286,168 289,168 292,168 295,168 298,168 301,168 304,168 307,168 310,168 313,168 316,168" fill="none" stroke="#FFFF00" stroke-width="2" stroke-linejoin="round" />
<circle cx="35" cy="79" r="4" fill="#FF0000" stroke="#FFFFFF" stroke-width="1">
  <title>VPOC DOWN (60¢)</title>
</circle>
</svg>