<svg width="340" height="190" xmlns="http://www.w3.org/2000/svg">
<rect width="100%" height="100%" fill="#121212" />
<line x1="20" y1="139" x2="320" y2="139" stroke="#232323" stroke-width="1" />
<line x1="20" y1="109" x2="320" y2="109" stroke="#232323" stroke-width="1" />
<line x1="20" y1="94" x2="320" y2="94" stroke="#3C3C3C" stroke-width="1" />
<line x1="20" y1="79" x2="320" y2="79" stroke="#232323" stroke-width="1" />
<line x1="20" y1="49" x2="320" y2="49" stroke="#232323" stroke-width="1" />
<line x1="169" y1="20" x2="169" y2="170" stroke="#232323" stroke-width="1" />
<polyline points="20,96 20,96 23,86 26,90 29,89 32,84 35,91 38,99 41,108 44,113 47,110 50,114 53,122 56,119 59,114 62,112 65,113 68,113 71,123 74,130 77,132 80,135 83,132 86,133 89,138 92,143 95,148 98,142 101,139 104,139 107,136 110,137 113,138 116,126 119,119 122,113 125,113 128,111 131,106 134,110 137,112 140,113 143,117 146,113 149,108 152,111 155,114 158,120 161,120 164,120 167,122 170,122 173,132 176,130 179,136 182,126 185,135 188,136 191,138 194,141 197,145 200,144 203,142 206,141 209,141 212,145 215,147 218,146 221,147 224,147 227,140 230,150 233,157 236,160 239,160 242,163 245,163 248,162 251,165 254,162 257,163 260,162 263,158 266,160 269,159 272,156 275,157 278,158 281,159 284,160 287,162 290,165 293,165 296,166 299,166 302,167 305,167 308,167 311,167 314,167 317,167" fill="none" stroke="#FFFF00" stroke-width="2" stroke-linejoin="round" />
<circle cx="42" cy="81" r="4" fill="#FF0000" stroke="#FFFFFF" stroke-width="1">
  <title>MM2 DOWN (59¢)</title>
</circle>
<circle cx="72" cy="66" r="4" fill="#FF0000" stroke="#FFFFFF" stroke-width="1">
  <title>Nitro DOWN (69¢)</title>
</circle>
<circle cx="81" cy="54" r="4" fill="#FF0000" stroke="#FFFFFF" stroke-width="1">
  <title>VolSnap DOWN (77¢)</title>
</circle>
</svg>