<svg width="340" height="190" xmlns="http://www.w3.org/2000/svg">
<rect width="100%" height="100%" fill="#121212" />
<line x1="20" y1="139" x2="320" y2="139" stroke="#232323" stroke-width="1" />
<line x1="20" y1="109" x2="320" y2="109" stroke="#232323" stroke-width="1" />
<line x1="20" y1="94" x2="320" y2="94" stroke="#3C3C3C" stroke-width="1" />
<line x1="20" y1="79" x2="320" y2="79" stroke="#232323" stroke-width="1" />
<line x1="20" y1="49" x2="320" y2="49" stroke="#232323" stroke-width="1" />
<line x1="169" y1="20" x2="169" y2="170" stroke="#232323" stroke-width="1" />
<polyline points="20,95 20,95 23,95 26,96 29,92 32,99 35,93 38,93 41,89 44,93 47,95 50,95 53,95 56,94 59,91 62,93 65,95 68,98 71,98 74,89 77,93 80,93 83,81 86,80 89,81 92,81 95,78 98,79 101,81 104,81 107,81 110,79 113,77 116,78 119,80 122,83 125,84 128,84 131,82 134,82 137,83 140,77 143,62 146,63 149,60 152,62 155,63 158,62 161,60 164,60 167,52 170,47 173,47 176,46 179,48 182,47 185,47 188,49 191,47 194,47 197,46 200,49 203,49 206,52 209,50 212,52 215,53 218,56 221,55 224,56 227,54 230,53 233,52 236,50 239,49 242,49 245,48 248,46 251,47 254,64 257,91 260,104 263,123 266,131 269,149 272,153 275,149 278,150 281,150 284,155 287,160 290,163 293,163 296,161 299,160 302,160 305,165 308,166 311,167 314,167 317,167" fill="none" stroke="#FFFF00" stroke-width="2" stroke-linejoin="round" />
</svg>