<svg width="340" height="190" xmlns="http://www.w3.org/2000/svg">
<rect width="100%" height="100%" fill="#121212" />
<line x1="20" y1="139" x2="320" y2="139" stroke="#232323" stroke-width="1" />
<line x1="20" y1="109" x2="320" y2="109" stroke="#232323" stroke-width="1" />
<line x1="20" y1="94" x2="320" y2="94" stroke="#3C3C3C" stroke-width="1" />
<line x1="20" y1="79" x2="320" y2="79" stroke="#232323" stroke-width="1" />
<line x1="20" y1="49" x2="320" y2="49" stroke="#232323" stroke-width="1" />
<line x1="169" y1="20" x2="169" y2="170" stroke="#232323" stroke-width="1" />
<polyline points="20,96 22,97 25,102 28,101 31,97 34,98 37,94 40,106 43,103 46,104 49,95 52,96 55,99 58,99 61,102 64,101 67,107 70,102 73,102 76,112 79,124 82,126 85,126 88,123 91,119 94,116 97,116 100,116 103,108 106,110 109,110 112,99 115,99 118,98 121,98 124,98 127,90 130,87 133,82 136,66 139,65 142,60 145,69 148,66 151,65 154,56 157,55 160,49 163,46 166,42 169,41 172,40 175,32 178,31 181,31 184,34 187,29 190,29 193,32 196,28 199,26 202,29 205,26 208,25 211,25 214,23 217,23 220,23 223,23 226,23 229,22 232,20 235,22 238,21 241,22 244,23 247,23 250,23 253,22 256,22 259,23 262,23 265,22 268,22 271,22 274,22 277,22 280,22 283,20 286,20 289,20 292,20 295,20 298,20 301,20 304,20 307,20 310,20 313,20 316,20" fill="none" stroke="#FFFF00" stroke-width="2" stroke-linejoin="round" />
<circle cx="68" cy="81" r="4" fill="#FF0000" stroke="#FFFFFF" stroke-width="1">
  <title>MM2 DOWN (59¢)</title>
</circle>
<circle cx="83" cy="64" r="4" fill="#FF0000" stroke="#FFFFFF" stroke-width="1">
  <title>VolSnap DOWN (70¢)</title>
</circle>
</svg>