<svg width="340" height="190" xmlns="http://www.w3.org/2000/svg">
<rect width="100%" height="100%" fill="#121212" />
<line x1="20" y1="139" x2="320" y2="139" stroke="#232323" stroke-width="1" />
<line x1="20" y1="109" x2="320" y2="109" stroke="#232323" stroke-width="1" />
<line x1="20" y1="94" x2="320" y2="94" stroke="#3C3C3C" stroke-width="1" />
<line x1="20" y1="79" x2="320" y2="79" stroke="#232323" stroke-width="1" />
<line x1="20" y1="49" x2="320" y2="49" stroke="#232323" stroke-width="1" />
<line x1="169" y1="20" x2="169" y2="170" stroke="#232323" stroke-width="1" />
<polyline points="20,93 22,87 25,89 28,89 31,83 34,78 37,80 40,71 43,65 46,62 49,60 52,61 55,55 58,59 61,58 64,59 67,59 70,60 73,60 76,55 79,52 82,54 85,52 88,49 91,46 94,47 97,46 100,46 103,46 106,42 109,40 112,41 115,42 118,40 121,40 124,42 127,40 130,39 133,37 136,37 139,40 142,43 145,43 148,44 151,41 154,41 157,41 160,49 163,50 166,55 169,53 172,64 175,66 178,69 181,73 184,80 187,78 190,85 193,78 196,77 199,70 202,62 205,54 208,53 211,53 214,45 217,46 220,52 223,50 226,49 229,47 232,43 235,34 238,28 241,25 244,25 247,25 250,23 253,23 256,23 259,23 262,22 265,22 268,20 271,20 274,20 277,20 280,20 283,20 286,20 289,20 292,20 295,20 298,20 301,20 304,20 307,20 310,20 313,20 316,20" fill="none" stroke="#FFFF00" stroke-width="2" stroke-linejoin="round" />
<circle cx="35" cy="79" r="4" fill="#00FF00" stroke="#FFFFFF" stroke-width="1">
  <title>MM2 UP (60¢)</title>
</circle>
<circle cx="53" cy="63" r="4" fill="#00FF00" stroke="#FFFFFF" stroke-width="1">
  <title>Nitro UP (71¢)</title>
</circle>
<circle cx="83" cy="54" r="4" fill="#00FF00" stroke="#FFFFFF" stroke-width="1">
  <title>VolSnap UP (77¢)</title>
</circle>
</svg>