<svg width="340" height="190" xmlns="http://www.w3.org/2000/svg">
<rect width="100%" height="100%" fill="#121212" />
<line x1="20" y1="139" x2="320" y2="139" stroke="#232323" stroke-width="1" />
<line x1="20" y1="109" x2="320" y2="109" stroke="#232323" stroke-width="1" />
<line x1="20" y1="94" x2="320" y2="94" stroke="#3C3C3C" stroke-width="1" />
<line x1="20" y1="79" x2="320" y2="79" stroke="#232323" stroke-width="1" />
<line x1="20" y1="49" x2="320" y2="49" stroke="#232323" stroke-width="1" />
<line x1="169" y1="20" x2="169" y2="170" stroke="#232323" stroke-width="1" />
<polyline points="20,94 21,94 24,84 27,81 30,69 33,61 36,62 39,62 42,63 45,73 48,68 51,85 54,90 57,93 60,92 63,93 66,91 69,93 72,93 75,96 78,111 81,101 84,114 87,119 90,122 93,135 96,136 99,133 102,133 105,133 108,133 111,133 114,135 117,135 120,131 123,128 126,138 129,138 132,142 135,151 138,151 141,148 144,147 147,146 150,142 153,141 156,143 159,148 162,150 165,151 168,153 171,151 174,153 177,156 180,154 183,154 186,156 189,154 192,154 195,157 198,157 201,158 204,159 207,158 210,159 213,159 216,160 219,163 222,163 225,165 228,165 231,166 234,166 237,166 240,166 243,167 246,167 249,167 252,166 255,166 258,167 261,167 264,167 267,167 270,167 273,167 276,167 279,167 282,167 285,167 288,167 291,167 294,167 297,167 300,167 303,167 306,167 309,167 312,167 315,167 318,167" fill="none" stroke="#FFFF00" stroke-width="2" stroke-linejoin="round" />
</svg>