<svg width="340" height="190" xmlns="http://www.w3.org/2000/svg">
<rect width="100%" height="100%" fill="#121212" />
<line x1="20" y1="139" x2="320" y2="139" stroke="#232323" stroke-width="1" />
<line x1="20" y1="109" x2="320" y2="109" stroke="#232323" stroke-width="1" />
<line x1="20" y1="94" x2="320" y2="94" stroke="#3C3C3C" stroke-width="1" />
<line x1="20" y1="79" x2="320" y2="79" stroke="#232323" stroke-width="1" />
<line x1="20" y1="49" x2="320" y2="49" stroke="#232323" stroke-width="1" />
<line x1="169" y1="20" x2="169" y2="170" stroke="#232323" stroke-width="1" />
<polyline points="20,90 22,89 25,82 28,69 31,66 34,76 37,83 40,84 43,87 46,84 49,84 52,84 55,80 58,79 61,72 64,65 67,61 70,63 73,60 76,59 79,58 82,57 85,57 88,55 91,52 94,52 97,52 100,44 103,41 106,41 109,41 112,38 115,41 118,41 121,41 124,40 127,38 130,40 133,37 136,37 139,36 142,35 145,34 148,34 151,34 154,31 157,31 160,28 163,28 166,26 169,25 172,25 175,25 178,23 181,23 184,23 187,23 190,23 193,23 196,23 199,23 202,23 205,23 208,25 211,25 214,23 217,22 220,23 223,23 226,22 229,22 232,22 235,22 238,20 241,20 244,20 247,20 250,20 253,20 256,20 259,20 262,20 265,20 268,20 271,20 274,20 277,20 280,20 283,20 286,20 289,20 292,20 295,20 298,20 301,20 304,20 307,20 310,20 313,20 316,20" fill="none" stroke="#FFFF00" stroke-width="2" stroke-linejoin="round" />
<circle cx="32" cy="67" r="4" fill="#00FF00" stroke="#FFFFFF" stroke-width="1">
  <title>MM2 UP (68¢)</title>
</circle>
<circle cx="83" cy="58" r="4" fill="#00FF00" stroke="#FFFFFF" stroke-width="1">
  <title>Nitro UP (74¢)</title>
</circle>
<circle cx="83" cy="58" r="4" fill="#00FF00" stroke="#FFFFFF" stroke-width="1">
  <title>VolSnap UP (74¢)</title>
</circle>
</svg>