<svg width="340" height="190" xmlns="http://www.w3.org/2000/svg">
<rect width="100%" height="100%" fill="#121212" />
<line x1="20" y1="139" x2="320" y2="139" stroke="#232323" stroke-width="1" />
<line x1="20" y1="109" x2="320" y2="109" stroke="#232323" stroke-width="1" />
<line x1="20" y1="94" x2="320" y2="94" stroke="#3C3C3C" stroke-width="1" />
<line x1="20" y1="79" x2="320" y2="79" stroke="#232323" stroke-width="1" />
<line x1="20" y1="49" x2="320" y2="49" stroke="#232323" stroke-width="1" />
<line x1="169" y1="20" x2="169" y2="170" stroke="#232323" stroke-width="1" />
<polyline points="20,96 22,90 25,74 28,83 31,81 34,76 37,80 40,82 43,76 46,72 49,68 52,66 55,74 58,72 61,70 64,69 67,71 70,83 73,81 76,91 79,100 82,98 85,105 88,109 91,110 94,115 97,116 100,114 103,110 106,111 109,116 112,114 115,114 118,109 121,104 124,119 127,117 130,120 133,113 136,116 139,115 142,113 145,117 148,119 151,119 154,122 157,138 160,133 163,135 166,135 169,133 172,131 175,132 178,136 181,128 184,128 187,133 190,133 193,126 196,122 199,122 202,125 205,127 208,131 211,134 214,128 217,126 220,128 223,131 226,134 229,129 232,131 235,119 238,100 241,96 244,105 247,113 250,139 253,144 256,143 259,140 262,118 265,101 268,88 271,77 274,80 277,127 280,122 283,123 286,125 289,124 292,124 295,140 298,151 301,155 304,163 307,157 310,166 313,167 316,167" fill="none" stroke="#FFFF00" stroke-width="2" stroke-linejoin="round" />
<circle cx="92" cy="79" r="4" fill="#FF0000" stroke="#FFFFFF" stroke-width="1">
  <title>VPOC DOWN (60¢)</title>
</circle>
<circle cx="92" cy="79" r="4" fill="#FF0000" stroke="#FFFFFF" stroke-width="1">
  <title>MM2 DOWN (60¢)</title>
</circle>
</svg>