<svg width="340" height="190" xmlns="http://www.w3.org/2000/svg">
<rect width="100%" height="100%" fill="#121212" />
<line x1="20" y1="139" x2="320" y2="139" stroke="#232323" stroke-width="1" />
<line x1="20" y1="109" x2="320" y2="109" stroke="#232323" stroke-width="1" />
<line x1="20" y1="94" x2="320" y2="94" stroke="#3C3C3C" stroke-width="1" />
<line x1="20" y1="79" x2="320" y2="79" stroke="#232323" stroke-width="1" />
<line x1="20" y1="49" x2="320" y2="49" stroke="#232323" stroke-width="1" />
<line x1="169" y1="20" x2="169" y2="170" stroke="#232323" stroke-width="1" />
<polyline points="20,96 22,88 25,87 28,88 31,86 34,75 37,80 40,78 43,78 46,78 49,69 52,77 55,84 58,84 61,92 64,101 67,113 70,113 73,107 76,95 79,99 82,93 85,89 88,83 91,84 94,86 97,78 100,72 103,71 106,77 109,74 112,72 115,72 118,77 121,78 124,80 127,89 130,90 133,105 136,112 139,102 142,87 145,86 148,90 151,84 154,86 157,89 160,86 163,73 166,83 169,77 172,81 175,74 178,69 181,77 184,77 187,83 190,82 193,78 196,72 199,69 202,84 205,82 208,80 211,84 214,87 217,87 220,89 223,86 226,81 229,80 232,86 235,122 238,131 241,129 244,129 247,130 250,130 253,136 256,147 259,147 262,147 265,148 268,146 271,160 274,148 277,148 280,139 283,113 286,110 289,97 292,78 295,105 298,111 301,110 304,140 307,147 310,165 313,166 316,157" fill="none" stroke="#FFFF00" stroke-width="2" stroke-linejoin="round" />
<circle cx="68" cy="72" r="4" fill="#FF0000" stroke="#FFFFFF" stroke-width="1">
  <title>VPOC DOWN (65¢)</title>
</circle>
<circle cx="68" cy="72" r="4" fill="#FF0000" stroke="#FFFFFF" stroke-width="1">
  <title>MM2 DOWN (65¢)</title>
</circle>
<circle cx="98" cy="79" r="4" fill="#00FF00" stroke="#FFFFFF" stroke-width="1">
  <title>VolSnap UP (60¢)</title>
</circle>
</svg>