<svg width="340" height="190" xmlns="http://www.w3.org/2000/svg">
<rect width="100%" height="100%" fill="#121212" />
<line x1="20" y1="139" x2="320" y2="139" stroke="#232323" stroke-width="1" />
<line x1="20" y1="109" x2="320" y2="109" stroke="#232323" stroke-width="1" />
<line x1="20" y1="94" x2="320" y2="94" stroke="#3C3C3C" stroke-width="1" />
<line x1="20" y1="79" x2="320" y2="79" stroke="#232323" stroke-width="1" />
<line x1="20" y1="49" x2="320" y2="49" stroke="#232323" stroke-width="1" />
<line x1="169" y1="20" x2="169" y2="170" stroke="#232323" stroke-width="1" />
<polyline points="20,34 211,34 215,32 218,34 221,31 224,31 227,31 230,29 233,37 236,35 239,34 242,32 245,32 248,31 251,28 254,26 257,25 260,25 263,25 266,29 269,38 272,47 275,43 278,47 281,53 284,69 287,69 290,80 293,110 296,142 299,146 302,146 305,157 308,164 311,166 314,166 317,167" fill="none" stroke="#FFFF00" stroke-width="2" stroke-linejoin="round" />
</svg>