<svg width="340" height="190" xmlns="http://www.w3.org/2000/svg">
<rect width="100%" height="100%" fill="#121212" />
<line x1="20" y1="139" x2="320" y2="139" stroke="#232323" stroke-width="1" />
<line x1="20" y1="109" x2="320" y2="109" stroke="#232323" stroke-width="1" />
<line x1="20" y1="94" x2="320" y2="94" stroke="#3C3C3C" stroke-width="1" />
<line x1="20" y1="79" x2="320" y2="79" stroke="#232323" stroke-width="1" />
<line x1="20" y1="49" x2="320" y2="49" stroke="#232323" stroke-width="1" />
<line x1="169" y1="20" x2="169" y2="170" stroke="#232323" stroke-width="1" />
<polyline points="20,97 22,100 25,107 28,109 31,111 34,116 37,117 40,117 43,118 46,110 49,111 52,114 55,108 58,112 61,101 64,101 67,101 70,104 73,110 76,112 79,113 82,106 85,113 88,113 91,120 94,120 97,121 100,120 103,123 106,116 109,113 112,116 115,119 118,119 121,114 124,125 127,130 130,132 133,137 136,133 139,135 142,133 145,132 148,135 151,140 154,145 157,145 160,142 163,139 166,141 169,145 172,145 175,145 178,140 181,133 184,128 187,128 190,131 193,120 196,139 199,134 202,139 205,140 208,144 211,142 214,141 217,143 220,137 223,146 226,151 229,153 232,150 235,147 238,153 241,154 244,154 247,157 250,142 253,148 256,153 259,151 262,153 265,154 268,154 271,155 274,158 277,160 280,160 283,162 286,161 289,165 292,166 295,166 298,167 301,167 304,167 307,167 310,167 313,167 316,167" fill="none" stroke="#FFFF00" stroke-width="2" stroke-linejoin="round" />
<circle cx="38" cy="72" r="4" fill="#FF0000" stroke="#FFFFFF" stroke-width="1">
  <title>Nitro DOWN (65¢)</title>
</circle>
<circle cx="86" cy="76" r="4" fill="#FF0000" stroke="#FFFFFF" stroke-width="1">
  <title>VolSnap DOWN (62¢)</title>
</circle>
</svg>