<svg width="340" height="190" xmlns="http://www.w3.org/2000/svg">
<rect width="100%" height="100%" fill="#121212" />
<line x1="20" y1="139" x2="320" y2="139" stroke="#232323" stroke-width="1" />
<line x1="20" y1="109" x2="320" y2="109" stroke="#232323" stroke-width="1" />
<line x1="20" y1="94" x2="320" y2="94" stroke="#3C3C3C" stroke-width="1" />
<line x1="20" y1="79" x2="320" y2="79" stroke="#232323" stroke-width="1" />
<line x1="20" y1="49" x2="320" y2="49" stroke="#232323" stroke-width="1" />
<line x1="169" y1="20" x2="169" y2="170" stroke="#232323" stroke-width="1" />
<polyline points="20,98 20,98 23,99 26,99 29,99 32,100 35,102 38,92 41,90 44,87 47,83 50,72 53,72 56,64 59,60 62,59 65,60 68,59 71,60 74,56 77,55 80,61 83,63 86,60 89,60 92,60 95,60 98,60 101,60 104,60 107,61 110,60 113,60 116,65 119,65 122,63 126,55 129,55 132,55 135,43 138,46 141,51 144,47 147,48 150,41 153,37 156,34 159,32 162,31 165,32 168,33 171,33 174,32 177,26 180,28 183,26 186,25 189,26 192,25 195,25 198,25 201,23 204,23 207,23 210,23 213,23 216,23 219,22 222,22 225,22 228,22 231,20 234,20 237,20 240,20 243,20 246,20 249,20 252,20 255,20 258,20 261,20 264,20 267,20 270,20 273,20 276,20 279,20 282,20 285,20 288,20 291,20 294,20 297,20 300,20 303,20 306,20 309,20 312,20 315,20 318,20" fill="none" stroke="#FFFF00" stroke-width="2" stroke-linejoin="round" />
</svg>