<svg width="340" height="190" xmlns="http://www.w3.org/2000/svg">
<rect width="100%" height="100%" fill="#121212" />
<line x1="20" y1="139" x2="320" y2="139" stroke="#232323" stroke-width="1" />
<line x1="20" y1="109" x2="320" y2="109" stroke="#232323" stroke-width="1" />
<line x1="20" y1="94" x2="320" y2="94" stroke="#3C3C3C" stroke-width="1" />
<line x1="20" y1="79" x2="320" y2="79" stroke="#232323" stroke-width="1" />
<line x1="20" y1="49" x2="320" y2="49" stroke="#232323" stroke-width="1" />
<line x1="169" y1="20" x2="169" y2="170" stroke="#232323" stroke-width="1" />
<polyline points="20,93 21,93 24,86 27,77 30,66 33,50 36,54 39,52 42,63 45,72 48,69 51,69 54,68 57,62 60,59 63,63 66,63 69,60 72,60 75,66 78,75 81,74 84,74 87,77 90,75 93,75 96,87 99,89 102,74 105,75 108,75 111,77 114,78 117,78 120,80 123,80 126,79 129,78 132,78 135,78 138,78 141,72 144,93 147,104 150,105 153,107 156,131 159,127 162,140 165,147 168,148 171,145 174,145 177,145 180,136 183,139 186,144 189,148 192,148 195,150 198,149 201,151 204,153 207,151 210,152 213,153 216,154 219,154 222,157 225,157 228,158 231,158 234,159 237,147 240,139 243,145 246,145 249,145 252,150 255,155 258,159 261,160 264,162 267,161 270,162 273,165 276,165 279,166 282,166 285,166 288,166 291,166 294,165 297,166 300,166 303,167 306,167 309,167 312,167 315,167 318,167" fill="none" stroke="#FFFF00" stroke-width="2" stroke-linejoin="round" />
</svg>