<svg width="340" height="190" xmlns="http://www.w3.org/2000/svg">
<rect width="100%" height="100%" fill="#121212" />
<line x1="20" y1="139" x2="320" y2="139" stroke="#232323" stroke-width="1" />
<line x1="20" y1="109" x2="320" y2="109" stroke="#232323" stroke-width="1" />
<line x1="20" y1="94" x2="320" y2="94" stroke="#3C3C3C" stroke-width="1" />
<line x1="20" y1="79" x2="320" y2="79" stroke="#232323" stroke-width="1" />
<line x1="20" y1="49" x2="320" y2="49" stroke="#232323" stroke-width="1" />
<line x1="169" y1="20" x2="169" y2="170" stroke="#232323" stroke-width="1" />
<polyline points="20,97 22,106 25,105 28,106 31,113 34,113 37,118 40,117 43,116 46,108 49,105 52,98 55,100 58,113 61,111 64,102 67,104 70,96 73,98 76,93 79,95 82,98 85,98 88,108 91,106 94,98 97,93 100,90 103,93 106,95 109,92 112,99 115,93 118,87 121,89 124,90 127,88 130,83 133,77 136,75 139,77 142,75 145,81 148,75 151,79 154,93 157,96 160,96 163,98 166,95 169,91 172,90 175,90 178,93 181,95 184,92 187,90 190,67 193,66 196,72 199,61 202,55 205,56 208,46 211,41 214,43 217,41 220,46 223,44 226,36 229,34 232,32 235,29 238,26 241,27 244,30 247,30 250,33 253,34 256,31 259,31 262,29 265,29 268,26 271,26 274,29 277,39 280,33 283,40 286,28 289,26 292,23 295,22 298,22 301,22 304,20 307,20 310,20 313,20 316,20" fill="none" stroke="#FFFF00" stroke-width="2" stroke-linejoin="round" />
<circle cx="89" cy="81" r="4" fill="#FF0000" stroke="#FFFFFF" stroke-width="1">
  <title>VolSnap DOWN (59¢)</title>
</circle>
<circle cx="134" cy="78" r="4" fill="#00FF00" stroke="#FFFFFF" stroke-width="1">
  <title>VPOC UP (61¢)</title>
</circle>
<circle cx="134" cy="78" r="4" fill="#00FF00" stroke="#FFFFFF" stroke-width="1">
  <title>MM2 UP (61¢)</title>
</circle>
</svg>