<svg width="340" height="190" xmlns="http://www.w3.org/2000/svg">
<rect width="100%" height="100%" fill="#121212" />
<line x1="20" y1="139" x2="320" y2="139" stroke="#232323" stroke-width="1" />
<line x1="20" y1="109" x2="320" y2="109" stroke="#232323" stroke-width="1" />
<line x1="20" y1="94" x2="320" y2="94" stroke="#3C3C3C" stroke-width="1" />
<line x1="20" y1="79" x2="320" y2="79" stroke="#232323" stroke-width="1" />
<line x1="20" y1="49" x2="320" y2="49" stroke="#232323" stroke-width="1" />
<line x1="169" y1="20" x2="169" y2="170" stroke="#232323" stroke-width="1" />
<polyline points="20,93 20,93 23,96 26,101 29,105 32,108 35,107 38,105 41,105 44,98 47,95 50,99 53,99 56,99 59,93 62,98 65,94 68,89 71,90 74,92 77,78 80,81 83,87 86,80 89,81 92,77 95,67 98,65 101,66 104,68 107,66 110,66 113,67 116,66 119,66 122,66 125,65 128,65 131,65 134,65 137,57 140,56 143,56 146,50 149,51 152,50 155,50 158,40 161,44 164,48 167,47 170,48 173,41 176,46 179,47 182,45 185,44 188,44 191,46 194,45 197,44 200,43 203,46 206,44 209,44 212,45 215,46 218,43 221,40 224,35 227,35 230,36 233,34 236,32 239,30 242,28 245,26 248,26 251,26 254,25 257,25 260,23 263,23 266,23 269,23 272,22 275,21 278,20 281,20 284,20 287,20 290,20 293,20 296,20 299,20 302,20 305,20 308,20 311,20 314,20 317,20" fill="none" stroke="#FFFF00" stroke-width="2" stroke-linejoin="round" />
</svg>