<svg width="340" height="190" xmlns="http://www.w3.org/2000/svg">
<rect width="100%" height="100%" fill="#121212" />
<line x1="20" y1="139" x2="320" y2="139" stroke="#232323" stroke-width="1" />
<line x1="20" y1="109" x2="320" y2="109" stroke="#232323" stroke-width="1" />
<line x1="20" y1="94" x2="320" y2="94" stroke="#3C3C3C" stroke-width="1" />
<line x1="20" y1="79" x2="320" y2="79" stroke="#232323" stroke-width="1" />
<line x1="20" y1="49" x2="320" y2="49" stroke="#232323" stroke-width="1" />
<line x1="169" y1="20" x2="169" y2="170" stroke="#232323" stroke-width="1" />
<polyline points="20,98 20,98 23,98 26,105 29,101 32,101 35,101 38,101 41,90 44,86 47,85 50,85 53,84 56,84 59,86 62,86 65,86 68,87 71,86 74,86 77,89 80,89 83,89 86,78 89,83 92,83 95,83 98,82 101,62 104,62 107,62 110,66 113,76 116,81 119,85 122,83 125,83 128,64 131,60 134,60 137,63 140,57 143,57 146,59 149,62 152,73 155,77 158,69 161,66 164,68 167,54 170,40 173,34 176,33 179,31 182,31 185,30 188,30 191,33 194,31 197,32 200,28 203,28 206,28 209,28 212,28 215,26 218,26 221,26 224,25 227,25 230,23 233,23 236,23 239,23 242,23 245,23 248,23 251,23 254,22 257,22 260,22 263,22 266,22 269,23 272,25 275,23 278,23 281,23 284,20 287,22 290,20 293,20 296,20 299,20 302,20 305,20 308,20 311,20 314,20 317,20" fill="none" stroke="#FFFF00" stroke-width="2" stroke-linejoin="round" />
</svg>