<svg width="340" height="190" xmlns="http://www.w3.org/2000/svg">
<rect width="100%" height="100%" fill="#121212" />
<line x1="20" y1="139" x2="320" y2="139" stroke="#232323" stroke-width="1" />
<line x1="20" y1="109" x2="320" y2="109" stroke="#232323" stroke-width="1" />
<line x1="20" y1="94" x2="320" y2="94" stroke="#3C3C3C" stroke-width="1" />
<line x1="20" y1="79" x2="320" y2="79" stroke="#232323" stroke-width="1" />
<line x1="20" y1="49" x2="320" y2="49" stroke="#232323" stroke-width="1" />
<line x1="169" y1="20" x2="169" y2="170" stroke="#232323" stroke-width="1" />
<polyline points="20,91 22,96 25,115 28,118 31,123 34,123 37,128 40,117 43,125 46,127 49,126 52,124 55,119 58,120 61,126 64,125 67,123 70,124 73,125 76,126 79,124 82,123 85,124 88,125 91,120 94,116 97,125 100,125 103,131 106,131 109,122 112,122 115,117 118,120 121,121 124,125 127,123 130,123 133,131 136,128 139,127 142,125 145,126 148,118 151,123 154,125 157,125 160,126 163,127 166,125 169,127 172,128 175,129 178,113 181,116 184,116 187,111 190,106 193,111 196,114 199,114 202,113 205,115 208,119 211,117 214,97 217,90 220,95 223,96 226,95 229,95 232,78 235,70 238,69 241,64 244,52 247,56 250,68 253,71 256,84 259,82 262,93 265,83 268,93 271,94 274,91 277,90 280,84 283,67 286,105 289,107 292,83 295,87 298,112 301,57 304,63 307,53 310,50 313,42 316,27" fill="none" stroke="#FFFF00" stroke-width="2" stroke-linejoin="round" />
<circle cx="32" cy="66" r="4" fill="#FF0000" stroke="#FFFFFF" stroke-width="1">
  <title>Nitro DOWN (69¢)</title>
</circle>
<circle cx="32" cy="66" r="4" fill="#FF0000" stroke="#FFFFFF" stroke-width="1">
  <title>VPOC DOWN (69¢)</title>
</circle>
</svg>