<svg width="340" height="190" xmlns="http://www.w3.org/2000/svg">
<rect width="100%" height="100%" fill="#121212" />
<line x1="20" y1="139" x2="320" y2="139" stroke="#232323" stroke-width="1" />
<line x1="20" y1="109" x2="320" y2="109" stroke="#232323" stroke-width="1" />
<line x1="20" y1="94" x2="320" y2="94" stroke="#3C3C3C" stroke-width="1" />
<line x1="20" y1="79" x2="320" y2="79" stroke="#232323" stroke-width="1" />
<line x1="20" y1="49" x2="320" y2="49" stroke="#232323" stroke-width="1" />
<line x1="169" y1="20" x2="169" y2="170" stroke="#232323" stroke-width="1" />
<polyline points="20,101 21,101 24,102 27,101 30,119 33,117 36,117 39,110 42,108 45,110 48,110 51,110 54,111 57,111 60,113 63,114 66,116 69,113 72,123 75,116 78,120 81,122 84,122 87,131 90,131 93,132 96,127 99,123 102,127 105,131 108,131 111,133 114,142 117,145 120,145 123,147 126,148 129,151 132,151 135,148 138,148 141,148 144,149 147,148 150,151 153,150 156,151 159,153 162,139 165,143 168,144 171,145 174,148 177,148 180,148 183,153 186,154 189,154 192,154 195,153 198,154 201,156 204,152 207,154 210,153 213,153 216,154 219,153 222,148 225,151 228,150 231,153 234,153 237,153 240,153 243,155 246,156 249,156 252,157 255,157 258,157 261,159 264,160 267,162 270,163 273,166 276,166 279,166 282,165 285,166 288,166 291,167 294,167 297,167 300,167 303,167 306,167 309,167 312,167 315,167 318,167" fill="none" stroke="#FFFF00" stroke-width="2" stroke-linejoin="round" />
</svg>