<svg width="340" height="190" xmlns="http://www.w3.org/2000/svg">
<rect width="100%" height="100%" fill="#121212" />
<line x1="20" y1="139" x2="320" y2="139" stroke="#232323" stroke-width="1" />
<line x1="20" y1="109" x2="320" y2="109" stroke="#232323" stroke-width="1" />
<line x1="20" y1="94" x2="320" y2="94" stroke="#3C3C3C" stroke-width="1" />
<line x1="20" y1="79" x2="320" y2="79" stroke="#232323" stroke-width="1" />
<line x1="20" y1="49" x2="320" y2="49" stroke="#232323" stroke-width="1" />
<line x1="169" y1="20" x2="169" y2="170" stroke="#232323" stroke-width="1" />
<polyline points="20,104 21,104 24,107 27,107 30,105 33,99 36,95 39,98 42,104 45,110 48,122 51,122 54,123 58,124 61,119 64,129 67,126 70,125 73,125 76,120 79,117 82,119 85,114 88,113 91,103 94,105 97,105 100,118 103,123 106,125 109,125 112,126 115,126 118,126 121,129 124,129 128,129 131,128 134,129 137,131 140,131 143,131 146,132 149,124 152,123 155,116 158,116 161,98 164,93 167,84 170,81 173,89 176,87 179,87 182,85 185,84 188,92 191,102 194,101 197,101 200,101 203,85 206,86 209,83 212,80 215,81 218,71 221,72 224,72 227,57 230,60 233,57 236,42 239,34 242,29 245,28 248,28 251,25 254,25 257,25 260,24 263,23 266,22 269,22 272,22 275,20 278,20 281,25 284,24 287,35 290,31 293,31 296,23 299,22 302,20 305,22 308,22 311,20 314,20 317,20" fill="none" stroke="#FFFF00" stroke-width="2" stroke-linejoin="round" />
<circle cx="74" cy="64" r="4" fill="#FF0000" stroke="#FFFFFF" stroke-width="1">
  <title>Nitro DOWN (70¢)</title>
</circle>
<circle cx="83" cy="70" r="4" fill="#FF0000" stroke="#FFFFFF" stroke-width="1">
  <title>VolSnap DOWN (66¢)</title>
</circle>
<circle cx="171" cy="81" r="4" fill="#00FF00" stroke="#FFFFFF" stroke-width="1">
  <title>VPOC UP (59¢)</title>
</circle>
<circle cx="171" cy="81" r="4" fill="#00FF00" stroke="#FFFFFF" stroke-width="1">
  <title>MM2 UP (59¢)</title>
</circle>
</svg>