<svg width="340" height="190" xmlns="http://www.w3.org/2000/svg">
<rect width="100%" height="100%" fill="#121212" />
<line x1="20" y1="139" x2="320" y2="139" stroke="#232323" stroke-width="1" />
<line x1="20" y1="109" x2="320" y2="109" stroke="#232323" stroke-width="1" />
<line x1="20" y1="94" x2="320" y2="94" stroke="#3C3C3C" stroke-width="1" />
<line x1="20" y1="79" x2="320" y2="79" stroke="#232323" stroke-width="1" />
<line x1="20" y1="49" x2="320" y2="49" stroke="#232323" stroke-width="1" />
<line x1="169" y1="20" x2="169" y2="170" stroke="#232323" stroke-width="1" />
<polyline points="20,93 22,93 25,93 28,93 31,93 34,93 37,93 40,93 43,93 46,93 49,93 52,93 55,93 58,93 61,93 64,93 67,93 70,93 73,93 76,93 79,93 82,93 85,93 88,93 91,93 94,93 97,93 100,93 103,93 106,93 109,93 112,93 115,93 118,93 121,93 124,93 127,93 130,93 133,93 136,93 139,93 142,93 145,93 148,93 151,93 154,93 157,93 160,93 163,93 166,93 169,93 172,93 175,93 178,93 181,93 184,93 187,93 190,93 193,93 196,93 199,93 202,93 205,93 208,93 211,93 214,93 217,93 220,93 223,93 226,93 229,93 232,93 235,93 238,93 241,93 244,93 247,93 250,93 253,93 256,93 259,93 262,93 265,93 268,93 271,93 274,93 277,93 280,93 283,93 286,93 289,93 292,93 295,93 298,93 301,93 304,93 307,93 310,93 313,93 316,93" fill="none" stroke="#FFFF00" stroke-width="2" stroke-linejoin="round" />
</svg>