<svg width="340" height="190" xmlns="http://www.w3.org/2000/svg">
<rect width="100%" height="100%" fill="#121212" />
<line x1="20" y1="139" x2="320" y2="139" stroke="#232323" stroke-width="1" />
<line x1="20" y1="109" x2="320" y2="109" stroke="#232323" stroke-width="1" />
<line x1="20" y1="94" x2="320" y2="94" stroke="#3C3C3C" stroke-width="1" />
<line x1="20" y1="79" x2="320" y2="79" stroke="#232323" stroke-width="1" />
<line x1="20" y1="49" x2="320" y2="49" stroke="#232323" stroke-width="1" />
<line x1="169" y1="20" x2="169" y2="170" stroke="#232323" stroke-width="1" />
<polyline points="20,95 20,95 23,92 26,88 29,90 32,96 35,95 38,92 41,93 44,93 47,101 50,114 53,116 56,117 59,116 62,116 65,114 68,114 71,117 74,122 77,114 80,114 83,113 86,113 89,113 92,113 95,114 98,113 101,113 104,113 107,113 110,114 113,108 116,111 119,120 122,120 125,120 128,116 131,117 134,117 137,117 140,110 143,113 146,114 149,114 152,116 155,116 158,113 161,101 164,95 167,92 170,114 173,116 176,117 179,119 182,119 185,117 188,117 191,120 194,120 197,120 200,123 203,126 206,128 209,107 212,110 215,110 218,110 221,110 224,104 227,99 230,99 233,93 236,90 239,91 242,89 245,79 248,56 251,47 254,50 257,49 260,48 263,29 266,28 269,28 272,29 275,26 278,23 281,22 284,22 287,22 290,22 293,22 296,20 299,20 302,20 305,20 308,20 311,20 314,20 317,20" fill="none" stroke="#FFFF00" stroke-width="2" stroke-linejoin="round" />
<circle cx="81" cy="75" r="4" fill="#FF0000" stroke="#FFFFFF" stroke-width="1">
  <title>VolSnap DOWN (63¢)</title>
</circle>
<circle cx="246" cy="81" r="4" fill="#00FF00" stroke="#FFFFFF" stroke-width="1">
  <title>MM2 UP (59¢)</title>
</circle>
<circle cx="246" cy="81" r="4" fill="#00FF00" stroke="#FFFFFF" stroke-width="1">
  <title>WCP UP (59¢)</title>
</circle>
<circle cx="246" cy="81" r="4" fill="#00FF00" stroke="#FFFFFF" stroke-width="1">
  <title>VPOC UP (59¢)</title>
</circle>
</svg>