<svg width="340" height="190" xmlns="http://www.w3.org/2000/svg">
<rect width="100%" height="100%" fill="#121212" />
<line x1="20" y1="139" x2="320" y2="139" stroke="#232323" stroke-width="1" />
<line x1="20" y1="109" x2="320" y2="109" stroke="#232323" stroke-width="1" />
<line x1="20" y1="94" x2="320" y2="94" stroke="#3C3C3C" stroke-width="1" />
<line x1="20" y1="79" x2="320" y2="79" stroke="#232323" stroke-width="1" />
<line x1="20" y1="49" x2="320" y2="49" stroke="#232323" stroke-width="1" />
<line x1="169" y1="20" x2="169" y2="170" stroke="#232323" stroke-width="1" />
<polyline points="20,104 21,104 24,99 27,102 30,97 33,93 36,88 39,86 42,88 45,84 48,87 51,87 54,87 57,86 60,87 63,84 66,91 69,108 72,100 75,98 78,95 81,95 84,95 87,98 90,87 93,86 96,95 99,94 102,93 105,94 108,90 111,89 114,89 117,89 120,93 123,98 126,98 129,99 132,100 135,96 138,98 141,108 144,136 147,143 150,147 153,151 156,154 159,154 162,149 165,153 168,153 171,152 174,154 177,157 180,159 183,160 186,158 189,159 192,157 195,159 198,159 201,157 204,154 207,154 210,151 213,149 216,161 219,159 222,160 225,162 228,163 231,163 234,163 237,163 240,163 243,163 246,163 249,157 252,161 255,162 258,160 261,160 264,159 267,159 270,160 273,160 276,164 279,165 282,166 285,166 288,167 291,167 294,167 297,167 300,167 303,167 306,167 309,167 312,167 315,167 318,167" fill="none" stroke="#FFFF00" stroke-width="2" stroke-linejoin="round" />
<circle cx="142" cy="79" r="4" fill="#FF0000" stroke="#FFFFFF" stroke-width="1">
  <title>VolSnap DOWN (60¢)</title>
</circle>
</svg>