<svg width="340" height="190" xmlns="http://www.w3.org/2000/svg">
<rect width="100%" height="100%" fill="#121212" />
<line x1="20" y1="139" x2="320" y2="139" stroke="#232323" stroke-width="1" />
<line x1="20" y1="109" x2="320" y2="109" stroke="#232323" stroke-width="1" />
<line x1="20" y1="94" x2="320" y2="94" stroke="#3C3C3C" stroke-width="1" />
<line x1="20" y1="79" x2="320" y2="79" stroke="#232323" stroke-width="1" />
<line x1="20" y1="49" x2="320" y2="49" stroke="#232323" stroke-width="1" />
<line x1="169" y1="20" x2="169" y2="170" stroke="#232323" stroke-width="1" />
<polyline points="20,88 21,88 24,78 27,68 30,60 33,62 36,60 39,61 42,67 45,62 48,71 51,75 54,72 57,60 60,59 63,59 66,58 69,57 72,48 75,45 78,49 81,59 84,60 87,61 90,60 93,59 96,63 99,65 102,60 105,69 108,101 111,98 114,91 117,83 120,69 123,69 126,83 129,91 132,102 135,102 138,90 141,83 144,83 147,77 150,72 153,72 156,74 159,74 162,74 165,72 168,72 171,72 174,63 177,62 180,60 183,77 186,91 189,76 192,80 195,87 198,81 201,80 204,90 207,92 210,90 213,95 216,102 219,102 222,114 225,125 228,125 231,132 234,139 237,136 240,137 243,128 246,133 249,149 252,147 255,151 258,151 261,156 264,146 267,145 270,147 273,151 276,157 279,163 282,163 285,162 288,163 291,162 294,165 297,166 300,166 303,166 306,166 309,167 312,167 315,167 318,167" fill="none" stroke="#FFFF00" stroke-width="2" stroke-linejoin="round" />
<circle cx="31" cy="61" r="4" fill="#00FF00" stroke="#FFFFFF" stroke-width="1">
  <title>MM2 UP (72¢)</title>
</circle>
<circle cx="31" cy="61" r="4" fill="#00FF00" stroke="#FFFFFF" stroke-width="1">
  <title>VPOC UP (72¢)</title>
</circle>
<circle cx="70" cy="58" r="4" fill="#00FF00" stroke="#FFFFFF" stroke-width="1">
  <title>Nitro UP (74¢)</title>
</circle>
</svg>