<svg width="340" height="190" xmlns="http://www.w3.org/2000/svg">
<rect width="100%" height="100%" fill="#121212" />
<line x1="20" y1="139" x2="320" y2="139" stroke="#232323" stroke-width="1" />
<line x1="20" y1="109" x2="320" y2="109" stroke="#232323" stroke-width="1" />
<line x1="20" y1="94" x2="320" y2="94" stroke="#3C3C3C" stroke-width="1" />
<line x1="20" y1="79" x2="320" y2="79" stroke="#232323" stroke-width="1" />
<line x1="20" y1="49" x2="320" y2="49" stroke="#232323" stroke-width="1" />
<line x1="169" y1="20" x2="169" y2="170" stroke="#232323" stroke-width="1" />
<polyline points="20,93 20,93 23,93 26,93 29,90 32,83 35,78 38,78 41,72 44,72 47,80 50,84 53,87 56,82 59,85 62,81 65,78 68,72 71,63 74,59 77,57 80,60 83,57 86,56 89,60 92,57 95,62 98,56 101,52 104,42 107,46 110,54 113,59 116,60 119,57 122,56 125,53 128,52 131,52 134,46 137,43 140,41 143,42 146,35 149,31 152,28 155,29 158,28 161,28 164,28 167,28 170,25 173,25 176,25 179,25 182,23 185,23 188,23 191,23 194,23 197,22 200,21 203,20 206,20 209,20 212,20 215,20 218,20 221,20 224,20 227,20 230,20 233,20 236,20 239,20 242,20 245,20 248,20 251,20 254,20 257,20 260,20 263,20 266,20 269,20 272,20 275,20 278,20 281,20 284,20 287,20 290,20 293,20 296,20 299,20 302,20 305,20 308,20 311,20 314,20 317,20" fill="none" stroke="#FFFF00" stroke-width="2" stroke-linejoin="round" />
<circle cx="36" cy="79" r="4" fill="#00FF00" stroke="#FFFFFF" stroke-width="1">
  <title>Briefing UP (60¢)</title>
</circle>
<circle cx="81" cy="61" r="4" fill="#00FF00" stroke="#FFFFFF" stroke-width="1">
  <title>Nitro UP (72¢)</title>
</circle>
<circle cx="81" cy="61" r="4" fill="#00FF00" stroke="#FFFFFF" stroke-width="1">
  <title>VolSnap UP (72¢)</title>
</circle>
</svg>