<svg width="340" height="190" xmlns="http://www.w3.org/2000/svg">
<rect width="100%" height="100%" fill="#121212" />
<line x1="20" y1="139" x2="320" y2="139" stroke="#232323" stroke-width="1" />
<line x1="20" y1="109" x2="320" y2="109" stroke="#232323" stroke-width="1" />
<line x1="20" y1="94" x2="320" y2="94" stroke="#3C3C3C" stroke-width="1" />
<line x1="20" y1="79" x2="320" y2="79" stroke="#232323" stroke-width="1" />
<line x1="20" y1="49" x2="320" y2="49" stroke="#232323" stroke-width="1" />
<line x1="169" y1="20" x2="169" y2="170" stroke="#232323" stroke-width="1" />
<polyline points="20,101 21,101 24,97 27,91 30,101 33,98 36,99 39,95 42,95 45,101 48,99 51,99 54,99 57,99 60,98 63,99 66,99 69,99 72,94 75,93 78,93 81,95 84,95 87,95 90,95 93,95 96,80 99,76 102,81 105,93 108,95 111,80 114,83 117,83 120,78 123,78 126,75 129,77 132,77 135,74 138,72 141,72 144,72 147,71 150,66 153,66 156,68 159,81 162,74 165,65 168,72 171,70 174,66 177,66 180,66 183,65 186,63 189,63 192,63 195,60 198,57 201,60 204,59 207,55 210,57 213,56 216,60 219,60 222,69 225,95 228,107 231,115 234,100 237,93 240,87 243,87 246,83 249,64 252,57 255,57 258,59 261,56 264,56 267,55 270,51 273,49 276,49 279,47 282,45 285,43 288,42 291,52 294,59 297,72 300,68 303,51 306,25 309,23 312,22 315,21 318,20" fill="none" stroke="#FFFF00" stroke-width="2" stroke-linejoin="round" />
</svg>