<svg width="340" height="190" xmlns="http://www.w3.org/2000/svg">
<rect width="100%" height="100%" fill="#121212" />
<line x1="20" y1="139" x2="320" y2="139" stroke="#232323" stroke-width="1" />
<line x1="20" y1="109" x2="320" y2="109" stroke="#232323" stroke-width="1" />
<line x1="20" y1="94" x2="320" y2="94" stroke="#3C3C3C" stroke-width="1" />
<line x1="20" y1="79" x2="320" y2="79" stroke="#232323" stroke-width="1" />
<line x1="20" y1="49" x2="320" y2="49" stroke="#232323" stroke-width="1" />
<line x1="169" y1="20" x2="169" y2="170" stroke="#232323" stroke-width="1" />
<polyline points="20,101 22,96 25,78 28,72 31,59 34,51 37,45 40,44 43,40 46,37 49,40 52,40 55,39 58,40 61,40 64,43 67,40 70,41 73,42 76,42 79,42 82,45 85,47 88,46 91,48 94,43 97,40 100,41 103,40 106,40 109,40 112,40 115,40 118,40 121,37 124,36 127,36 130,37 133,37 136,37 139,37 142,43 145,43 148,48 151,47 154,49 157,44 160,46 163,45 166,49 169,51 173,43 176,41 179,41 182,44 185,43 188,43 191,41 194,44 197,50 200,48 203,63 206,57 209,52 212,52 215,52 218,49 221,50 224,50 227,42 230,42 233,37 236,30 239,31 242,31 245,31 248,29 251,29 254,26 257,25 260,24 263,23 266,23 269,22 272,22 275,22 278,20 281,20 284,20 287,20 290,20 293,20 296,20 299,20 302,20 305,20 308,20 311,20 314,20 317,20" fill="none" stroke="#FFFF00" stroke-width="2" stroke-linejoin="round" />
</svg>