<svg width="340" height="190" xmlns="http://www.w3.org/2000/svg">
<rect width="100%" height="100%" fill="#121212" />
<line x1="20" y1="139" x2="320" y2="139" stroke="#232323" stroke-width="1" />
<line x1="20" y1="109" x2="320" y2="109" stroke="#232323" stroke-width="1" />
<line x1="20" y1="94" x2="320" y2="94" stroke="#3C3C3C" stroke-width="1" />
<line x1="20" y1="79" x2="320" y2="79" stroke="#232323" stroke-width="1" />
<line x1="20" y1="49" x2="320" y2="49" stroke="#232323" stroke-width="1" />
<line x1="169" y1="20" x2="169" y2="170" stroke="#232323" stroke-width="1" />
<polyline points="20,98 20,98 23,97 26,86 29,86 32,86 35,89 38,89 41,87 44,86 47,111 50,114 53,114 56,116 59,117 62,113 65,102 68,102 71,105 74,105 77,105 80,105 83,114 86,114 89,115 92,119 95,122 98,123 101,125 104,123 107,123 110,130 113,131 116,122 119,115 122,117 125,118 128,120 131,120 134,134 137,136 140,136 143,139 146,147 149,142 152,144 155,145 158,144 161,145 164,147 167,145 170,141 173,141 176,141 179,142 182,142 185,142 188,141 191,142 194,144 197,143 200,145 203,145 206,146 209,147 212,154 215,155 218,156 221,158 224,157 227,159 230,160 233,162 236,161 239,162 242,162 245,163 248,163 251,163 254,163 257,165 260,165 263,166 266,166 269,166 272,166 275,166 278,166 281,166 284,167 287,167 290,167 293,167 296,167 299,167 302,167 305,167 308,167 311,167 314,167 317,167" fill="none" stroke="#FFFF00" stroke-width="2" stroke-linejoin="round" />
</svg>