<svg width="340" height="190" xmlns="http://www.w3.org/2000/svg">
<rect width="100%" height="100%" fill="#121212" />
<line x1="20" y1="139" x2="320" y2="139" stroke="#232323" stroke-width="1" />
<line x1="20" y1="109" x2="320" y2="109" stroke="#232323" stroke-width="1" />
<line x1="20" y1="94" x2="320" y2="94" stroke="#3C3C3C" stroke-width="1" />
<line x1="20" y1="79" x2="320" y2="79" stroke="#232323" stroke-width="1" />
<line x1="20" y1="49" x2="320" y2="49" stroke="#232323" stroke-width="1" />
<line x1="169" y1="20" x2="169" y2="170" stroke="#232323" stroke-width="1" />
<polyline points="20,95 22,95 25,75 28,67 31,66 34,68 37,67 40,66 43,66 46,66 49,66 52,66 55,66 58,66 61,75 64,78 67,83 70,86 73,84 76,84 79,83 82,92 85,92 88,94 91,104 94,110 97,114 100,117 103,117 106,122 109,124 112,126 115,125 118,125 121,126 124,125 127,119 130,105 133,107 136,102 139,99 142,99 145,99 148,101 151,101 154,101 157,100 160,99 163,100 166,99 169,101 172,99 175,100 178,98 181,96 184,99 187,99 190,98 193,87 196,92 199,102 202,103 205,105 208,120 211,119 214,117 217,119 220,133 223,131 226,133 229,133 232,133 235,141 238,148 241,150 244,153 247,154 250,154 253,163 256,166 259,166 262,166 265,167 268,167 271,167 274,167 277,167 280,167 283,167 286,167 289,167 292,167 295,167 298,167 301,167 304,167 307,167 310,167 313,167 316,167" fill="none" stroke="#FFFF00" stroke-width="2" stroke-linejoin="round" />
</svg>