<svg width="340" height="190" xmlns="http://www.w3.org/2000/svg">
<rect width="100%" height="100%" fill="#121212" />
<line x1="20" y1="139" x2="320" y2="139" stroke="#232323" stroke-width="1" />
<line x1="20" y1="109" x2="320" y2="109" stroke="#232323" stroke-width="1" />
<line x1="20" y1="94" x2="320" y2="94" stroke="#3C3C3C" stroke-width="1" />
<line x1="20" y1="79" x2="320" y2="79" stroke="#232323" stroke-width="1" />
<line x1="20" y1="49" x2="320" y2="49" stroke="#232323" stroke-width="1" />
<line x1="169" y1="20" x2="169" y2="170" stroke="#232323" stroke-width="1" />
<polyline points="20,95 22,97 25,98 28,98 31,99 34,100 37,94 40,93 43,95 46,98 49,99 52,104 55,104 58,105 61,104 64,104 67,104 70,104 73,105 76,107 79,105 82,107 85,112 88,111 91,113 94,113 97,113 100,114 103,124 106,126 109,128 112,128 115,123 118,122 121,122 124,123 127,128 130,131 133,131 136,138 139,128 142,129 145,131 148,117 151,115 154,107 157,99 160,110 163,109 166,108 169,101 172,100 175,105 178,104 181,102 184,106 187,105 190,105 193,105 196,107 199,113 202,116 205,116 208,116 211,116 214,107 217,98 220,87 223,66 226,66 229,63 232,55 235,48 238,44 241,46 244,46 247,43 250,47 253,38 256,36 259,33 262,36 265,31 268,31 271,31 274,29 277,28 280,28 283,23 286,22 289,24 292,24 295,22 298,22 301,21 304,20 307,20 310,20 313,20 316,20" fill="none" stroke="#FFFF00" stroke-width="2" stroke-linejoin="round" />
</svg>