<svg width="340" height="190" xmlns="http://www.w3.org/2000/svg">
<rect width="100%" height="100%" fill="#121212" />
<line x1="20" y1="139" x2="320" y2="139" stroke="#232323" stroke-width="1" />
<line x1="20" y1="109" x2="320" y2="109" stroke="#232323" stroke-width="1" />
<line x1="20" y1="94" x2="320" y2="94" stroke="#3C3C3C" stroke-width="1" />
<line x1="20" y1="79" x2="320" y2="79" stroke="#232323" stroke-width="1" />
<line x1="20" y1="49" x2="320" y2="49" stroke="#232323" stroke-width="1" />
<line x1="169" y1="20" x2="169" y2="170" stroke="#232323" stroke-width="1" />
<polyline points="20,104 22,104 25,105 28,110 31,115 34,116 37,119 40,118 43,124 46,127 49,126 52,129 55,129 58,129 61,135 64,130 67,124 70,122 73,118 76,110 79,111 82,114 85,116 88,112 91,111 94,113 97,105 100,112 103,105 106,114 109,107 112,105 115,113 118,121 121,128 124,136 127,122 130,118 133,111 136,110 139,102 142,99 145,98 148,97 151,98 154,101 157,101 160,114 163,97 166,89 169,95 172,90 175,88 178,89 181,92 184,94 187,90 190,96 193,87 196,93 199,90 202,92 205,84 208,73 211,72 214,72 217,69 220,64 223,60 226,53 229,53 232,46 235,44 238,43 241,34 244,33 247,34 250,31 253,30 256,26 259,29 262,35 265,43 268,41 271,27 274,28 277,35 280,24 283,34 286,34 289,51 292,39 295,55 298,57 301,69 304,75 307,56 310,56 313,52 316,49" fill="none" stroke="#FFFF00" stroke-width="2" stroke-linejoin="round" />
<circle cx="32" cy="75" r="4" fill="#FF0000" stroke="#FFFFFF" stroke-width="1">
  <title>VPOC DOWN (63¢)</title>
</circle>
<circle cx="44" cy="66" r="4" fill="#FF0000" stroke="#FFFFFF" stroke-width="1">
  <title>Nitro DOWN (69¢)</title>
</circle>
</svg>