<svg width="340" height="190" xmlns="http://www.w3.org/2000/svg">
<rect width="100%" height="100%" fill="#121212" />
<line x1="20" y1="139" x2="320" y2="139" stroke="#232323" stroke-width="1" />
<line x1="20" y1="109" x2="320" y2="109" stroke="#232323" stroke-width="1" />
<line x1="20" y1="94" x2="320" y2="94" stroke="#3C3C3C" stroke-width="1" />
<line x1="20" y1="79" x2="320" y2="79" stroke="#232323" stroke-width="1" />
<line x1="20" y1="49" x2="320" y2="49" stroke="#232323" stroke-width="1" />
<line x1="169" y1="20" x2="169" y2="170" stroke="#232323" stroke-width="1" />
<polyline points="20,93 22,93 25,93 28,96 31,102 34,99 37,101 40,98 43,99 46,98 49,98 52,97 55,96 58,96 61,96 64,96 67,93 70,87 73,84 76,84 79,81 82,77 85,79 88,78 91,78 94,75 97,72 100,78 103,75 106,78 109,80 112,78 115,78 118,83 121,87 124,93 127,92 130,92 133,99 136,97 139,91 142,84 145,84 148,89 151,90 154,95 157,98 160,96 163,95 166,95 169,89 172,89 175,90 178,92 181,98 184,90 187,92 190,90 193,89 196,90 199,93 202,93 205,93 208,92 211,93 214,93 217,90 220,91 223,93 226,95 229,95 232,95 235,94 238,97 241,98 244,101 247,98 250,96 253,94 256,94 259,93 262,90 265,90 268,100 271,102 274,92 277,95 280,92 283,86 286,86 289,86 292,84 295,79 298,75 301,78 304,80 307,71 310,71 313,68 316,75" fill="none" stroke="#FFFF00" stroke-width="2" stroke-linejoin="round" />
<circle cx="83" cy="78" r="4" fill="#00FF00" stroke="#FFFFFF" stroke-width="1">
  <title>MM2 UP (61¢)</title>
</circle>
<circle cx="83" cy="78" r="4" fill="#00FF00" stroke="#FFFFFF" stroke-width="1">
  <title>VolSnap UP (61¢)</title>
</circle>
</svg>