<svg width="340" height="190" xmlns="http://www.w3.org/2000/svg">
<rect width="100%" height="100%" fill="#121212" />
<line x1="20" y1="139" x2="320" y2="139" stroke="#232323" stroke-width="1" />
<line x1="20" y1="109" x2="320" y2="109" stroke="#232323" stroke-width="1" />
<line x1="20" y1="94" x2="320" y2="94" stroke="#3C3C3C" stroke-width="1" />
<line x1="20" y1="79" x2="320" y2="79" stroke="#232323" stroke-width="1" />
<line x1="20" y1="49" x2="320" y2="49" stroke="#232323" stroke-width="1" />
<line x1="169" y1="20" x2="169" y2="170" stroke="#232323" stroke-width="1" />
<polyline points="20,99 22,101 25,111 28,122 31,122 34,125 37,123 40,111 43,126 46,135 49,122 52,126 55,142 58,149 61,148 64,150 67,154 70,154 73,154 76,154 79,154 82,150 85,148 88,146 91,140 94,142 97,139 100,139 103,148 106,148 109,145 112,144 115,145 118,150 121,156 124,157 127,154 130,153 133,154 136,154 139,154 142,156 145,154 148,153 151,153 154,153 157,154 160,154 163,156 166,157 169,157 172,157 175,154 178,155 181,145 184,137 187,148 190,153 193,156 196,156 199,157 202,161 205,161 208,160 211,157 214,157 217,154 220,154 223,157 226,157 229,157 232,157 235,159 238,157 241,160 244,158 247,160 250,161 253,162 256,165 259,165 262,165 265,166 268,166 271,167 274,167 277,167 280,167 283,167 286,167 289,167 292,167 295,167 298,167 301,167 304,167 307,167 310,167 313,167 316,167" fill="none" stroke="#FFFF00" stroke-width="2" stroke-linejoin="round" />
</svg>