<svg width="340" height="190" xmlns="http://www.w3.org/2000/svg">
<rect width="100%" height="100%" fill="#121212" />
<line x1="20" y1="139" x2="320" y2="139" stroke="#232323" stroke-width="1" />
<line x1="20" y1="109" x2="320" y2="109" stroke="#232323" stroke-width="1" />
<line x1="20" y1="94" x2="320" y2="94" stroke="#3C3C3C" stroke-width="1" />
<line x1="20" y1="79" x2="320" y2="79" stroke="#232323" stroke-width="1" />
<line x1="20" y1="49" x2="320" y2="49" stroke="#232323" stroke-width="1" />
<line x1="169" y1="20" x2="169" y2="170" stroke="#232323" stroke-width="1" />
<polyline points="20,93 22,92 25,79 28,63 31,63 34,67 37,68 40,76 43,74 46,75 49,80 52,79 55,81 58,84 61,84 64,71 67,66 70,66 73,66 76,72 79,72 82,67 85,74 88,76 91,78 94,83 97,87 100,86 103,83 106,90 109,95 112,98 115,98 118,86 121,87 124,89 127,88 130,89 133,72 136,69 139,68 142,69 145,62 148,68 151,69 154,61 157,53 160,55 163,68 166,66 169,67 172,78 175,77 178,69 181,57 184,57 187,64 190,68 193,65 196,62 199,53 202,55 205,56 208,55 211,54 214,50 217,50 220,50 223,50 226,49 229,57 232,53 235,49 238,36 241,31 244,31 247,28 250,28 253,31 256,30 259,28 262,27 265,29 268,28 271,26 274,25 277,24 280,23 283,22 286,20 289,20 292,20 295,20 298,20 301,20 304,20 307,20 310,20 313,20 316,20" fill="none" stroke="#FFFF00" stroke-width="2" stroke-linejoin="round" />
</svg>