<svg width="340" height="190" xmlns="http://www.w3.org/2000/svg">
<rect width="100%" height="100%" fill="#121212" />
<line x1="20" y1="139" x2="320" y2="139" stroke="#232323" stroke-width="1" />
<line x1="20" y1="109" x2="320" y2="109" stroke="#232323" stroke-width="1" />
<line x1="20" y1="94" x2="320" y2="94" stroke="#3C3C3C" stroke-width="1" />
<line x1="20" y1="79" x2="320" y2="79" stroke="#232323" stroke-width="1" />
<line x1="20" y1="49" x2="320" y2="49" stroke="#232323" stroke-width="1" />
<line x1="169" y1="20" x2="169" y2="170" stroke="#232323" stroke-width="1" />
<polyline points="20,98 22,101 25,101 28,108 31,112 34,114 37,113 40,121 43,122 46,122 49,128 52,131 55,132 58,133 61,133 64,131 67,133 70,131 73,135 76,138 79,136 82,129 85,122 88,114 91,107 94,104 97,96 100,91 103,101 106,106 109,110 112,110 115,113 118,107 121,101 124,100 127,101 130,100 133,96 136,99 139,101 142,113 145,114 148,110 151,108 154,101 157,102 160,107 163,106 166,107 169,95 172,87 175,79 178,73 181,75 184,75 187,79 190,81 193,95 196,104 199,105 202,118 205,113 208,121 211,120 214,114 217,119 220,120 223,125 226,123 229,123 232,124 235,107 238,104 241,80 244,66 247,52 250,57 253,52 256,37 259,28 262,39 265,39 268,43 271,44 274,43 277,43 280,34 283,28 286,28 289,30 292,28 295,25 298,23 301,22 304,22 307,22 310,21 313,20 316,20" fill="none" stroke="#FFFF00" stroke-width="2" stroke-linejoin="round" />
<circle cx="32" cy="78" r="4" fill="#FF0000" stroke="#FFFFFF" stroke-width="1">
  <title>MM2 DOWN (61¢)</title>
</circle>
<circle cx="32" cy="78" r="4" fill="#FF0000" stroke="#FFFFFF" stroke-width="1">
  <title>VPOC DOWN (61¢)</title>
</circle>
<circle cx="59" cy="57" r="4" fill="#FF0000" stroke="#FFFFFF" stroke-width="1">
  <title>Nitro DOWN (75¢)</title>
</circle>
</svg>