<svg width="340" height="190" xmlns="http://www.w3.org/2000/svg">
<rect width="100%" height="100%" fill="#121212" />
<line x1="20" y1="139" x2="320" y2="139" stroke="#232323" stroke-width="1" />
<line x1="20" y1="109" x2="320" y2="109" stroke="#232323" stroke-width="1" />
<line x1="20" y1="94" x2="320" y2="94" stroke="#3C3C3C" stroke-width="1" />
<line x1="20" y1="79" x2="320" y2="79" stroke="#232323" stroke-width="1" />
<line x1="20" y1="49" x2="320" y2="49" stroke="#232323" stroke-width="1" />
<line x1="169" y1="20" x2="169" y2="170" stroke="#232323" stroke-width="1" />
<polyline points="20,96 22,96 25,96 28,96 31,97 34,97 37,96 40,96 43,96 46,96 49,96 52,95 55,88 58,84 61,93 64,92 67,93 70,94 73,91 76,94 79,84 82,83 85,84 88,82 91,82 94,75 97,75 100,75 103,75 106,69 109,67 112,78 115,78 118,79 121,79 124,79 127,76 130,75 133,78 136,78 139,78 142,78 145,84 148,84 151,85 154,87 157,87 160,89 163,86 166,90 169,84 172,92 175,93 178,87 181,87 184,90 187,98 190,99 193,100 196,100 199,100 202,101 205,98 208,102 211,101 214,101 217,100 220,97 223,95 226,93 229,93 232,95 235,90 238,89 241,100 244,89 247,79 250,79 253,79 256,85 259,85 262,85 265,85 268,85 271,77 274,77 277,75 280,75 283,69 286,67 289,67 292,82 295,60 298,55 301,48 304,51 307,46 310,46 313,33 316,28" fill="none" stroke="#FFFF00" stroke-width="2" stroke-linejoin="round" />
</svg>