<svg width="340" height="190" xmlns="http://www.w3.org/2000/svg">
<rect width="100%" height="100%" fill="#121212" />
<line x1="20" y1="139" x2="320" y2="139" stroke="#232323" stroke-width="1" />
<line x1="20" y1="109" x2="320" y2="109" stroke="#232323" stroke-width="1" />
<line x1="20" y1="94" x2="320" y2="94" stroke="#3C3C3C" stroke-width="1" />
<line x1="20" y1="79" x2="320" y2="79" stroke="#232323" stroke-width="1" />
<line x1="20" y1="49" x2="320" y2="49" stroke="#232323" stroke-width="1" />
<line x1="169" y1="20" x2="169" y2="170" stroke="#232323" stroke-width="1" />
<polyline points="20,90 22,91 25,90 28,84 31,84 34,81 37,81 40,83 43,83 46,83 49,84 52,84 55,83 58,83 61,87 64,92 67,89 70,89 73,88 76,87 79,87 82,100 85,101 88,103 91,103 94,102 97,97 100,98 103,98 106,89 109,92 112,91 115,80 118,75 121,75 124,82 127,81 130,87 133,81 136,105 139,105 142,98 145,96 148,98 151,103 154,103 157,100 160,103 163,104 166,84 169,83 172,84 175,84 178,86 181,84 184,84 187,83 190,77 193,79 196,80 199,81 202,63 205,56 208,53 211,60 214,62 217,57 220,55 223,57 226,42 229,40 232,31 235,26 238,25 241,23 244,27 247,28 250,28 253,30 256,26 259,25 262,25 265,26 268,23 271,23 274,27 277,25 280,25 283,26 286,25 289,25 292,23 295,23 298,23 301,22 304,22 307,20 310,20 313,20 316,20" fill="none" stroke="#FFFF00" stroke-width="2" stroke-linejoin="round" />
<circle cx="116" cy="81" r="4" fill="#00FF00" stroke="#FFFFFF" stroke-width="1">
  <title>VolSnap UP (59¢)</title>
</circle>
</svg>