<svg width="340" height="190" xmlns="http://www.w3.org/2000/svg">
<rect width="100%" height="100%" fill="#121212" />
<line x1="20" y1="139" x2="320" y2="139" stroke="#232323" stroke-width="1" />
<line x1="20" y1="109" x2="320" y2="109" stroke="#232323" stroke-width="1" />
<line x1="20" y1="94" x2="320" y2="94" stroke="#3C3C3C" stroke-width="1" />
<line x1="20" y1="79" x2="320" y2="79" stroke="#232323" stroke-width="1" />
<line x1="20" y1="49" x2="320" y2="49" stroke="#232323" stroke-width="1" />
<line x1="169" y1="20" x2="169" y2="170" stroke="#232323" stroke-width="1" />
<polyline points="20,95 22,92 25,92 28,93 31,90 34,89 37,87 40,87 43,83 46,74 49,73 52,71 55,63 58,60 61,62 64,62 67,61 70,60 73,62 76,62 79,69 82,69 85,66 88,59 91,59 94,59 97,54 100,53 103,52 106,52 109,50 112,49 115,49 118,49 121,49 124,49 127,49 130,49 133,49 136,49 139,60 142,66 145,75 148,81 151,87 154,87 157,89 160,95 163,89 166,88 169,87 172,86 175,86 178,86 181,86 184,86 187,86 190,97 193,105 196,107 199,78 202,75 205,67 208,78 211,81 214,90 217,91 220,92 223,92 226,92 229,92 232,90 235,88 238,79 241,75 244,66 247,58 250,57 253,56 256,55 259,49 262,41 265,40 268,40 271,38 274,54 277,62 280,58 283,55 286,76 289,78 292,80 295,84 298,85 301,87 304,86 307,84 310,85 313,96 316,93" fill="none" stroke="#FFFF00" stroke-width="2" stroke-linejoin="round" />
<circle cx="47" cy="75" r="4" fill="#00FF00" stroke="#FFFFFF" stroke-width="1">
  <title>MM2 UP (63¢)</title>
</circle>
<circle cx="47" cy="75" r="4" fill="#00FF00" stroke="#FFFFFF" stroke-width="1">
  <title>Briefing UP (63¢)</title>
</circle>
<circle cx="83" cy="70" r="4" fill="#00FF00" stroke="#FFFFFF" stroke-width="1">
  <title>VolSnap UP (66¢)</title>
</circle>
<circle cx="131" cy="49" r="4" fill="#00FF00" stroke="#FFFFFF" stroke-width="1">
  <title>Nitro UP (80¢)</title>
</circle>
</svg>