<svg width="340" height="190" xmlns="http://www.w3.org/2000/svg">
<rect width="100%" height="100%" fill="#121212" />
<line x1="20" y1="139" x2="320" y2="139" stroke="#232323" stroke-width="1" />
<line x1="20" y1="109" x2="320" y2="109" stroke="#232323" stroke-width="1" />
<line x1="20" y1="94" x2="320" y2="94" stroke="#3C3C3C" stroke-width="1" />
<line x1="20" y1="79" x2="320" y2="79" stroke="#232323" stroke-width="1" />
<line x1="20" y1="49" x2="320" y2="49" stroke="#232323" stroke-width="1" />
<line x1="169" y1="20" x2="169" y2="170" stroke="#232323" stroke-width="1" />
<polyline points="20,96 21,96 24,95 27,93 30,92 33,92 36,92 39,91 42,92 45,92 48,79 51,77 54,75 57,75 60,74 64,75 67,75 70,75 73,79 76,78 79,78 82,78 85,78 88,78 91,78 94,78 97,93 100,93 103,93 106,101 109,104 112,102 115,102 118,109 121,113 124,117 127,117 130,117 133,117 136,113 139,113 142,103 145,101 148,96 151,96 154,111 157,116 160,116 163,111 166,110 169,108 172,96 175,95 178,95 181,95 184,95 187,96 190,103 193,114 196,114 199,122 202,128 205,145 208,149 211,153 214,156 217,159 220,157 223,154 226,154 229,154 232,148 235,148 238,148 241,148 244,150 247,151 250,153 253,153 256,155 259,157 262,157 265,157 268,160 271,162 274,163 277,163 280,165 283,165 286,165 289,165 292,166 295,166 298,166 301,166 304,167 307,167 310,167 313,167 316,167" fill="none" stroke="#FFFF00" stroke-width="2" stroke-linejoin="round" />
</svg>