<svg width="340" height="190" xmlns="http://www.w3.org/2000/svg">
<rect width="100%" height="100%" fill="#121212" />
<line x1="20" y1="139" x2="320" y2="139" stroke="#232323" stroke-width="1" />
<line x1="20" y1="109" x2="320" y2="109" stroke="#232323" stroke-width="1" />
<line x1="20" y1="94" x2="320" y2="94" stroke="#3C3C3C" stroke-width="1" />
<line x1="20" y1="79" x2="320" y2="79" stroke="#232323" stroke-width="1" />
<line x1="20" y1="49" x2="320" y2="49" stroke="#232323" stroke-width="1" />
<line x1="169" y1="20" x2="169" y2="170" stroke="#232323" stroke-width="1" />
<polyline points="20,95 20,95 23,97 26,96 29,96 32,100 35,98 38,93 41,96 44,95 47,86 50,90 54,105 57,111 60,108 63,105 66,107 69,108 72,108 75,108 78,108 81,108 84,108 87,108 90,101 93,101 96,102 99,102 102,95 105,96 108,93 111,92 114,80 117,80 120,80 123,81 126,80 129,78 132,77 135,75 138,72 141,64 144,55 147,57 150,57 153,63 156,69 159,69 162,72 165,72 168,71 171,68 174,68 177,66 180,66 183,49 186,52 189,55 192,65 195,66 198,53 201,48 204,47 207,47 210,34 213,34 216,31 219,26 222,26 225,25 228,25 231,23 234,23 237,24 240,23 243,23 246,23 249,23 252,23 255,23 258,20 261,20 264,20 267,20 270,20 273,20 276,20 279,20 282,20 285,20 288,20 291,20 294,20 297,20 300,20 303,20 306,20 309,20 312,20 315,20 318,20" fill="none" stroke="#FFFF00" stroke-width="2" stroke-linejoin="round" />
</svg>