<svg width="340" height="190" xmlns="http://www.w3.org/2000/svg">
<rect width="100%" height="100%" fill="#121212" />
<line x1="20" y1="139" x2="320" y2="139" stroke="#232323" stroke-width="1" />
<line x1="20" y1="109" x2="320" y2="109" stroke="#232323" stroke-width="1" />
<line x1="20" y1="94" x2="320" y2="94" stroke="#3C3C3C" stroke-width="1" />
<line x1="20" y1="79" x2="320" y2="79" stroke="#232323" stroke-width="1" />
<line x1="20" y1="49" x2="320" y2="49" stroke="#232323" stroke-width="1" />
<line x1="169" y1="20" x2="169" y2="170" stroke="#232323" stroke-width="1" />
<polyline points="20,95 22,98 25,96 28,95 31,95 34,93 37,93 40,93 43,93 46,93 49,92 52,92 55,93 58,96 61,104 64,105 67,105 70,104 73,104 76,105 79,106 82,107 85,105 88,105 91,107 94,113 97,113 100,102 103,111 106,111 109,110 112,113 115,112 118,125 121,127 124,128 127,131 130,132 133,132 136,131 139,131 142,131 145,132 148,133 151,135 154,128 157,129 160,122 163,123 166,126 169,126 172,130 175,113 178,116 181,118 184,119 187,129 190,125 193,110 196,115 199,119 202,119 205,119 209,122 212,122 215,123 218,123 221,123 224,125 227,125 230,125 233,126 236,126 239,98 242,95 245,83 248,73 251,72 254,71 257,69 260,95 263,99 266,102 269,105 272,105 275,110 278,119 281,120 284,122 287,122 290,118 293,53 296,55 299,49 302,37 305,31 308,31 311,22 314,20 317,20" fill="none" stroke="#FFFF00" stroke-width="2" stroke-linejoin="round" />
</svg>