<svg width="340" height="190" xmlns="http://www.w3.org/2000/svg">
<rect width="100%" height="100%" fill="#121212" />
<line x1="20" y1="139" x2="320" y2="139" stroke="#232323" stroke-width="1" />
<line x1="20" y1="109" x2="320" y2="109" stroke="#232323" stroke-width="1" />
<line x1="20" y1="94" x2="320" y2="94" stroke="#3C3C3C" stroke-width="1" />
<line x1="20" y1="79" x2="320" y2="79" stroke="#232323" stroke-width="1" />
<line x1="20" y1="49" x2="320" y2="49" stroke="#232323" stroke-width="1" />
<line x1="169" y1="20" x2="169" y2="170" stroke="#232323" stroke-width="1" />
<polyline points="20,101 22,102 25,102 28,104 31,103 34,104 37,104 40,110 43,113 46,110 49,113 52,110 55,115 58,120 61,113 64,117 67,119 70,107 73,107 76,113 79,107 82,107 85,104 88,112 91,121 94,131 97,133 100,129 103,132 106,126 109,119 112,131 115,130 118,123 121,129 124,128 127,127 130,128 133,126 136,131 139,135 142,117 145,109 148,102 151,94 154,93 157,109 160,110 163,104 166,92 169,103 172,101 175,88 178,100 181,101 184,86 187,84 190,87 193,75 196,78 199,87 202,72 205,70 208,66 211,64 214,63 217,58 220,45 223,37 226,29 229,29 232,26 235,35 238,40 241,35 244,33 247,23 250,23 253,22 256,22 259,22 262,20 265,20 268,21 271,20 274,23 277,22 280,20 283,20 286,20 289,20 292,20 295,20 298,20 301,20 304,20 307,20 310,20 313,20 316,20" fill="none" stroke="#FFFF00" stroke-width="2" stroke-linejoin="round" />
<circle cx="89" cy="76" r="4" fill="#FF0000" stroke="#FFFFFF" stroke-width="1">
  <title>VolSnap DOWN (62¢)</title>
</circle>
<circle cx="194" cy="78" r="4" fill="#00FF00" stroke="#FFFFFF" stroke-width="1">
  <title>MM2 UP (61¢)</title>
</circle>
<circle cx="194" cy="78" r="4" fill="#00FF00" stroke="#FFFFFF" stroke-width="1">
  <title>VPOC UP (61¢)</title>
</circle>
</svg>