<svg width="340" height="190" xmlns="http://www.w3.org/2000/svg">
<rect width="100%" height="100%" fill="#121212" />
<line x1="20" y1="139" x2="320" y2="139" stroke="#232323" stroke-width="1" />
<line x1="20" y1="109" x2="320" y2="109" stroke="#232323" stroke-width="1" />
<line x1="20" y1="94" x2="320" y2="94" stroke="#3C3C3C" stroke-width="1" />
<line x1="20" y1="79" x2="320" y2="79" stroke="#232323" stroke-width="1" />
<line x1="20" y1="49" x2="320" y2="49" stroke="#232323" stroke-width="1" />
<line x1="169" y1="20" x2="169" y2="170" stroke="#232323" stroke-width="1" />
<polyline points="20,101 21,101 24,100 27,99 30,100 33,112 36,122 39,127 42,124 45,131 48,128 51,129 54,139 57,139 60,134 63,135 66,128 69,131 72,129 75,129 78,131 81,122 84,123 87,123 90,123 93,121 96,122 99,122 102,122 105,122 108,119 111,120 114,119 117,119 120,119 123,120 126,119 129,120 132,120 135,120 138,112 141,113 144,113 147,113 150,108 153,96 156,96 159,96 162,96 165,96 168,93 171,80 174,78 177,72 180,73 183,104 186,108 189,110 192,125 195,131 198,131 201,136 204,144 207,151 210,152 213,154 216,158 219,160 222,162 225,163 228,160 231,163 234,165 237,163 240,164 243,165 246,165 249,165 252,165 255,165 258,163 261,165 264,154 267,154 270,155 273,155 276,164 279,158 282,159 285,159 288,161 291,130 294,153 297,153 300,154 303,157 306,160 309,160 312,163 315,165 318,167" fill="none" stroke="#FFFF00" stroke-width="2" stroke-linejoin="round" />
</svg>