<svg width="340" height="190" xmlns="http://www.w3.org/2000/svg">
<rect width="100%" height="100%" fill="#121212" />
<line x1="20" y1="139" x2="320" y2="139" stroke="#232323" stroke-width="1" />
<line x1="20" y1="109" x2="320" y2="109" stroke="#232323" stroke-width="1" />
<line x1="20" y1="94" x2="320" y2="94" stroke="#3C3C3C" stroke-width="1" />
<line x1="20" y1="79" x2="320" y2="79" stroke="#232323" stroke-width="1" />
<line x1="20" y1="49" x2="320" y2="49" stroke="#232323" stroke-width="1" />
<line x1="169" y1="20" x2="169" y2="170" stroke="#232323" stroke-width="1" />
<polyline points="20,92 22,95 25,90 28,90 31,82 34,81 37,65 40,56 43,59 46,65 49,69 52,74 55,75 58,74 61,68 64,69 67,75 70,78 73,84 76,89 79,84 82,83 85,83 88,81 91,81 94,84 97,86 100,86 103,62 106,63 109,56 112,56 115,56 118,55 121,54 124,52 127,52 130,52 133,50 136,52 139,52 142,59 145,57 148,70 151,71 154,77 157,78 160,78 163,78 166,79 169,86 172,93 175,95 178,98 181,99 184,98 187,98 190,101 193,101 196,99 199,99 202,98 205,98 208,93 211,94 214,96 217,81 220,78 223,78 226,84 229,81 232,80 235,90 238,89 241,121 244,134 247,123 250,119 253,122 256,136 259,135 262,128 265,125 268,121 271,122 274,128 277,127 280,118 283,110 286,98 289,81 292,79 295,78 298,74 301,90 304,85 307,88 310,85 313,90 316,83" fill="none" stroke="#FFFF00" stroke-width="2" stroke-linejoin="round" />
</svg>