<svg width="340" height="190" xmlns="http://www.w3.org/2000/svg">
<rect width="100%" height="100%" fill="#121212" />
<line x1="20" y1="139" x2="320" y2="139" stroke="#232323" stroke-width="1" />
<line x1="20" y1="109" x2="320" y2="109" stroke="#232323" stroke-width="1" />
<line x1="20" y1="94" x2="320" y2="94" stroke="#3C3C3C" stroke-width="1" />
<line x1="20" y1="79" x2="320" y2="79" stroke="#232323" stroke-width="1" />
<line x1="20" y1="49" x2="320" y2="49" stroke="#232323" stroke-width="1" />
<line x1="169" y1="20" x2="169" y2="170" stroke="#232323" stroke-width="1" />
<polyline points="20,95 22,99 25,111 28,121 31,122 34,119 37,117 40,115 43,101 46,95 49,93 52,84 55,84 58,89 61,90 64,101 67,102 70,108 73,110 76,113 79,113 82,113 85,114 88,115 91,131 94,131 97,132 100,122 103,114 106,104 109,96 112,114 115,105 118,91 121,93 124,89 127,66 130,64 133,78 136,81 139,83 142,84 145,86 148,86 151,84 154,83 157,93 160,93 163,93 166,95 169,96 172,99 175,108 178,95 181,83 184,82 187,84 190,84 193,104 196,112 199,111 202,112 205,113 208,116 211,117 214,118 217,116 220,117 223,116 226,119 229,132 232,128 235,109 238,104 241,91 244,128 248,142 251,142 254,143 257,128 260,122 263,105 266,123 269,131 272,131 275,109 278,100 281,102 284,95 287,96 290,105 293,126 296,130 299,131 302,163 305,163 308,165 311,160 314,165 317,167" fill="none" stroke="#FFFF00" stroke-width="2" stroke-linejoin="round" />
</svg>