<svg width="340" height="190" xmlns="http://www.w3.org/2000/svg">
<rect width="100%" height="100%" fill="#121212" />
<line x1="20" y1="139" x2="320" y2="139" stroke="#232323" stroke-width="1" />
<line x1="20" y1="109" x2="320" y2="109" stroke="#232323" stroke-width="1" />
<line x1="20" y1="94" x2="320" y2="94" stroke="#3C3C3C" stroke-width="1" />
<line x1="20" y1="79" x2="320" y2="79" stroke="#232323" stroke-width="1" />
<line x1="20" y1="49" x2="320" y2="49" stroke="#232323" stroke-width="1" />
<line x1="169" y1="20" x2="169" y2="170" stroke="#232323" stroke-width="1" />
<polyline points="20,95 20,95 23,102 26,110 29,109 32,111 35,113 38,111 41,112 44,111 47,110 50,109 53,101 56,101 59,104 62,104 65,106 68,102 71,101 74,107 77,107 80,98 83,89 86,87 89,87 92,78 95,78 98,77 101,72 104,78 107,75 110,75 113,84 116,84 119,86 122,86 125,87 128,86 131,89 134,103 137,102 140,102 143,107 146,119 149,119 152,120 155,120 158,123 161,123 164,125 167,131 170,132 173,133 176,135 179,135 182,142 185,142 188,141 191,144 194,144 197,145 200,145 203,145 206,144 209,144 212,140 215,133 218,124 221,123 224,125 227,125 230,125 233,125 236,136 239,131 242,132 245,135 248,133 251,139 254,99 257,78 260,62 263,46 266,51 269,51 272,52 275,50 278,72 281,69 284,66 287,56 290,91 293,87 296,86 299,86 302,84 305,76 308,93 311,95 314,132 317,151" fill="none" stroke="#FFFF00" stroke-width="2" stroke-linejoin="round" />
</svg>