<svg width="340" height="190" xmlns="http://www.w3.org/2000/svg">
<rect width="100%" height="100%" fill="#121212" />
<line x1="20" y1="139" x2="320" y2="139" stroke="#232323" stroke-width="1" />
<line x1="20" y1="109" x2="320" y2="109" stroke="#232323" stroke-width="1" />
<line x1="20" y1="94" x2="320" y2="94" stroke="#3C3C3C" stroke-width="1" />
<line x1="20" y1="79" x2="320" y2="79" stroke="#232323" stroke-width="1" />
<line x1="20" y1="49" x2="320" y2="49" stroke="#232323" stroke-width="1" />
<line x1="169" y1="20" x2="169" y2="170" stroke="#232323" stroke-width="1" />
<polyline points="20,100 22,107 25,104 28,98 31,97 34,96 37,95 40,95 43,95 46,95 49,98 52,86 55,92 58,111 61,112 64,117 67,109 70,101 73,104 76,110 79,110 82,108 85,102 88,101 91,110 94,111 97,125 100,131 103,124 106,117 109,119 112,114 115,116 118,118 121,119 124,107 127,108 130,110 133,116 136,128 139,131 142,131 145,129 148,128 151,128 154,130 157,130 160,133 163,133 166,135 169,125 172,127 175,128 178,123 181,125 184,125 187,122 190,118 193,119 196,136 199,138 202,149 205,144 208,153 211,155 214,157 217,157 220,160 223,160 226,165 229,166 232,166 235,166 238,167 241,167 244,167 247,167 250,167 253,167 256,167 259,167 262,167 265,167 268,167 271,167 274,167 277,167 280,167 283,167 286,167 289,167 292,167 295,167 298,167 301,167 304,167 307,167 310,167 313,167 316,167" fill="none" stroke="#FFFF00" stroke-width="2" stroke-linejoin="round" />
</svg>