<svg width="340" height="190" xmlns="http://www.w3.org/2000/svg">
<rect width="100%" height="100%" fill="#121212" />
<line x1="20" y1="139" x2="320" y2="139" stroke="#232323" stroke-width="1" />
<line x1="20" y1="109" x2="320" y2="109" stroke="#232323" stroke-width="1" />
<line x1="20" y1="94" x2="320" y2="94" stroke="#3C3C3C" stroke-width="1" />
<line x1="20" y1="79" x2="320" y2="79" stroke="#232323" stroke-width="1" />
<line x1="20" y1="49" x2="320" y2="49" stroke="#232323" stroke-width="1" />
<line x1="169" y1="20" x2="169" y2="170" stroke="#232323" stroke-width="1" />
<polyline points="20,101 22,104 25,112 28,114 31,120 34,120 37,116 40,113 43,118 46,114 49,116 52,127 55,128 58,128 61,112 64,113 67,100 70,97 73,101 76,101 79,100 82,113 85,114 88,104 91,102 94,102 97,99 100,107 103,116 106,115 109,114 112,119 115,122 118,124 121,131 124,128 127,123 130,123 133,125 136,129 139,131 142,126 145,133 148,137 151,144 154,139 157,138 160,136 163,137 166,133 169,133 172,132 175,128 178,133 181,131 184,135 187,131 190,120 193,116 196,116 199,119 202,117 205,129 208,139 211,147 214,150 217,148 220,124 223,128 226,119 229,117 232,139 235,145 238,136 241,116 244,110 247,119 250,128 253,111 256,115 259,125 262,113 265,116 268,93 271,104 274,110 277,102 280,121 283,117 286,84 289,69 292,76 295,76 298,63 301,56 304,43 307,55 310,51 313,57 316,138" fill="none" stroke="#FFFF00" stroke-width="2" stroke-linejoin="round" />
<circle cx="83" cy="76" r="4" fill="#FF0000" stroke="#FFFFFF" stroke-width="1">
  <title>VolSnap DOWN (62¢)</title>
</circle>
<circle cx="290" cy="70" r="4" fill="#00FF00" stroke="#FFFFFF" stroke-width="1">
  <title>VPOC UP (66¢)</title>
</circle>
</svg>