<svg width="340" height="190" xmlns="http://www.w3.org/2000/svg">
<rect width="100%" height="100%" fill="#121212" />
<line x1="20" y1="139" x2="320" y2="139" stroke="#232323" stroke-width="1" />
<line x1="20" y1="109" x2="320" y2="109" stroke="#232323" stroke-width="1" />
<line x1="20" y1="94" x2="320" y2="94" stroke="#3C3C3C" stroke-width="1" />
<line x1="20" y1="79" x2="320" y2="79" stroke="#232323" stroke-width="1" />
<line x1="20" y1="49" x2="320" y2="49" stroke="#232323" stroke-width="1" />
<line x1="169" y1="20" x2="169" y2="170" stroke="#232323" stroke-width="1" />
<polyline points="20,95 20,95 23,98 26,102 29,102 32,107 35,107 38,107 41,109 44,108 47,110 50,110 53,108 56,110 59,111 62,111 65,112 68,117 71,124 74,128 77,119 80,114 83,116 86,116 89,115 92,116 95,116 98,119 101,116 104,113 107,113 110,113 113,116 116,117 119,118 122,119 125,114 128,114 131,114 134,114 137,122 140,123 143,125 146,125 149,131 152,133 155,136 158,134 161,114 164,110 167,111 170,107 173,107 176,106 179,104 182,107 185,107 188,106 191,106 194,108 197,107 200,107 203,119 206,122 209,122 212,121 215,121 218,123 221,125 224,125 227,126 230,128 233,142 236,148 239,151 242,154 245,160 248,159 251,136 254,136 257,152 260,159 263,161 266,163 269,163 272,163 275,165 278,165 281,165 284,165 287,166 290,165 293,166 296,166 299,166 302,167 305,167 308,167 311,167 314,167 317,167" fill="none" stroke="#FFFF00" stroke-width="2" stroke-linejoin="round" />
</svg>