<svg width="340" height="190" xmlns="http://www.w3.org/2000/svg">
<rect width="100%" height="100%" fill="#121212" />
<line x1="20" y1="139" x2="320" y2="139" stroke="#232323" stroke-width="1" />
<line x1="20" y1="109" x2="320" y2="109" stroke="#232323" stroke-width="1" />
<line x1="20" y1="94" x2="320" y2="94" stroke="#3C3C3C" stroke-width="1" />
<line x1="20" y1="79" x2="320" y2="79" stroke="#232323" stroke-width="1" />
<line x1="20" y1="49" x2="320" y2="49" stroke="#232323" stroke-width="1" />
<line x1="169" y1="20" x2="169" y2="170" stroke="#232323" stroke-width="1" />
<polyline points="20,90 22,87 25,86 28,86 31,83 34,84 37,78 40,86 43,86 46,84 49,84 52,83 55,77 58,74 61,70 64,63 67,56 70,48 73,54 76,65 79,65 82,65 85,68 88,62 91,75 94,82 97,80 100,65 103,63 106,60 109,60 112,52 115,67 118,68 121,69 124,69 127,58 130,70 133,69 136,66 139,56 142,57 145,56 148,57 151,68 154,69 157,69 160,69 163,55 166,71 169,68 172,74 175,80 178,72 181,71 184,71 187,70 190,69 193,60 196,62 199,57 202,68 205,71 208,71 211,73 214,74 217,75 220,75 223,75 226,75 229,71 232,69 235,68 238,69 241,68 244,96 247,94 250,98 253,95 256,95 259,85 262,80 265,53 268,47 271,35 274,34 277,31 280,28 283,25 286,26 289,23 292,23 295,22 298,22 301,22 304,20 307,20 310,20 313,20 316,20" fill="none" stroke="#FFFF00" stroke-width="2" stroke-linejoin="round" />
</svg>