<svg width="340" height="190" xmlns="http://www.w3.org/2000/svg">
<rect width="100%" height="100%" fill="#121212" />
<line x1="20" y1="139" x2="320" y2="139" stroke="#232323" stroke-width="1" />
<line x1="20" y1="109" x2="320" y2="109" stroke="#232323" stroke-width="1" />
<line x1="20" y1="94" x2="320" y2="94" stroke="#3C3C3C" stroke-width="1" />
<line x1="20" y1="79" x2="320" y2="79" stroke="#232323" stroke-width="1" />
<line x1="20" y1="49" x2="320" y2="49" stroke="#232323" stroke-width="1" />
<line x1="169" y1="20" x2="169" y2="170" stroke="#232323" stroke-width="1" />
<polyline points="20,95 22,95 25,95 28,95 31,95 34,95 37,95 40,95 43,95 46,95 49,95 52,95 55,95 58,95 61,95 64,95 67,95 70,95 73,95 76,95 79,95 82,95 85,95 88,95 91,95 94,95 97,95 100,95 103,95 106,95 109,95 112,95 115,95 118,95 121,95 124,95 127,95 130,95 133,95 136,95 139,95 142,95 145,95 148,95 151,95 154,95 157,95 160,95 163,95 166,95 169,94 174,95 177,95 180,95 183,95 186,95 189,95 192,95 195,95 198,95 201,95 204,95 207,95 210,95 213,95 216,95 219,95 222,95 225,95 228,95 231,95 234,95 237,95 240,95 243,95 246,95 249,95 252,95 255,95 258,95 261,95 264,95 267,95 270,95 273,95 276,95 279,95 282,95 285,95 288,95 291,95 294,95 297,95 300,95 303,95 306,95 309,95 312,95 315,95 318,95" fill="none" stroke="#FFFF00" stroke-width="2" stroke-linejoin="round" />
</svg>