<svg width="340" height="190" xmlns="http://www.w3.org/2000/svg">
<rect width="100%" height="100%" fill="#121212" />
<line x1="20" y1="139" x2="320" y2="139" stroke="#232323" stroke-width="1" />
<line x1="20" y1="109" x2="320" y2="109" stroke="#232323" stroke-width="1" />
<line x1="20" y1="94" x2="320" y2="94" stroke="#3C3C3C" stroke-width="1" />
<line x1="20" y1="79" x2="320" y2="79" stroke="#232323" stroke-width="1" />
<line x1="20" y1="49" x2="320" y2="49" stroke="#232323" stroke-width="1" />
<line x1="169" y1="20" x2="169" y2="170" stroke="#232323" stroke-width="1" />
<polyline points="20,98 20,98 23,105 26,107 29,106 32,105 35,107 38,108 41,108 44,107 47,104 50,97 53,93 56,92 59,94 62,104 65,107 68,95 71,96 74,99 77,96 80,98 83,88 86,95 89,96 92,98 95,98 98,102 101,103 104,105 107,103 110,101 113,108 116,112 119,119 122,120 125,125 128,122 131,123 134,123 137,107 140,93 143,92 146,98 149,97 152,101 155,101 158,92 161,75 164,79 167,93 170,92 173,96 176,98 179,98 182,106 185,95 188,89 191,87 194,76 197,80 200,86 203,84 206,86 209,92 212,90 215,86 218,84 221,85 224,98 227,80 230,88 233,93 236,104 239,107 242,107 245,108 248,116 251,110 254,110 257,113 260,115 263,103 266,109 269,117 272,116 275,118 278,121 281,125 284,129 287,142 290,137 293,144 296,142 299,141 302,151 305,119 308,123 311,116 314,121 317,124" fill="none" stroke="#FFFF00" stroke-width="2" stroke-linejoin="round" />
<circle cx="39" cy="81" r="4" fill="#FF0000" stroke="#FFFFFF" stroke-width="1">
  <title>MM2 DOWN (59¢)</title>
</circle>
<circle cx="162" cy="76" r="4" fill="#00FF00" stroke="#FFFFFF" stroke-width="1">
  <title>VPOC UP (62¢)</title>
</circle>
<circle cx="162" cy="76" r="4" fill="#00FF00" stroke="#FFFFFF" stroke-width="1">
  <title>VolSnap UP (62¢)</title>
</circle>
</svg>