<svg width="340" height="190" xmlns="http://www.w3.org/2000/svg">
<rect width="100%" height="100%" fill="#121212" />
<line x1="20" y1="139" x2="320" y2="139" stroke="#232323" stroke-width="1" />
<line x1="20" y1="109" x2="320" y2="109" stroke="#232323" stroke-width="1" />
<line x1="20" y1="94" x2="320" y2="94" stroke="#3C3C3C" stroke-width="1" />
<line x1="20" y1="79" x2="320" y2="79" stroke="#232323" stroke-width="1" />
<line x1="20" y1="49" x2="320" y2="49" stroke="#232323" stroke-width="1" />
<line x1="169" y1="20" x2="169" y2="170" stroke="#232323" stroke-width="1" />
<polyline points="20,96 20,96 23,96 26,95 29,92 32,87 35,89 38,99 41,100 44,104 47,105 50,107 53,106 56,116 59,118 62,123 65,125 68,131 71,138 74,142 77,142 80,141 83,145 86,142 89,144 92,144 95,143 98,151 101,152 104,152 107,147 110,140 113,135 116,140 119,144 122,149 125,148 128,150 131,153 134,151 137,153 140,152 143,152 146,151 149,145 152,150 155,150 158,153 161,153 164,153 167,153 170,153 173,153 176,154 179,156 182,157 185,159 188,160 191,162 194,163 197,163 200,163 203,165 206,165 209,165 212,165 215,165 218,163 221,163 224,163 227,165 230,164 233,163 236,165 239,162 242,165 245,165 248,160 251,157 254,156 257,161 260,163 263,162 266,163 269,163 272,162 275,163 278,166 281,166 284,166 287,166 290,166 293,168 296,167 299,167 302,166 305,167 308,168 311,168 314,168 317,168" fill="none" stroke="#FFFF00" stroke-width="2" stroke-linejoin="round" />
<circle cx="57" cy="73" r="4" fill="#FF0000" stroke="#FFFFFF" stroke-width="1">
  <title>VPOC DOWN (64¢)</title>
</circle>
<circle cx="57" cy="73" r="4" fill="#FF0000" stroke="#FFFFFF" stroke-width="1">
  <title>MM2 DOWN (64¢)</title>
</circle>
<circle cx="69" cy="55" r="4" fill="#FF0000" stroke="#FFFFFF" stroke-width="1">
  <title>Nitro DOWN (76¢)</title>
</circle>
</svg>