<svg width="340" height="190" xmlns="http://www.w3.org/2000/svg">
<rect width="100%" height="100%" fill="#121212" />
<line x1="20" y1="139" x2="320" y2="139" stroke="#232323" stroke-width="1" />
<line x1="20" y1="109" x2="320" y2="109" stroke="#232323" stroke-width="1" />
<line x1="20" y1="94" x2="320" y2="94" stroke="#3C3C3C" stroke-width="1" />
<line x1="20" y1="79" x2="320" y2="79" stroke="#232323" stroke-width="1" />
<line x1="20" y1="49" x2="320" y2="49" stroke="#232323" stroke-width="1" />
<line x1="169" y1="20" x2="169" y2="170" stroke="#232323" stroke-width="1" />
<polyline points="20,92 22,87 25,72 28,60 31,55 34,55 37,55 40,53 43,51 46,55 49,57 52,53 55,53 58,52 61,53 64,54 67,60 70,55 73,53 76,45 79,38 82,45 85,46 88,45 91,44 94,47 97,52 100,46 103,46 106,46 109,53 112,52 115,54 118,56 121,56 124,55 127,55 130,53 133,46 136,42 139,41 142,43 145,62 148,61 151,65 154,65 157,54 160,53 163,63 166,63 169,62 172,62 175,62 178,68 181,69 184,69 187,71 190,70 193,59 196,55 199,54 202,50 205,50 208,49 211,48 214,46 217,41 220,41 223,41 226,40 229,38 232,37 235,36 238,44 241,44 244,47 247,46 250,45 253,34 256,34 259,31 262,29 265,28 268,28 271,25 274,22 277,20 280,20 283,20 286,20 289,20 292,20 295,20 298,20 301,20 304,20 307,20 310,20 313,20 316,20" fill="none" stroke="#FFFF00" stroke-width="2" stroke-linejoin="round" />
<circle cx="32" cy="57" r="4" fill="#00FF00" stroke="#FFFFFF" stroke-width="1">
  <title>MM2 UP (75¢)</title>
</circle>
<circle cx="35" cy="55" r="4" fill="#00FF00" stroke="#FFFFFF" stroke-width="1">
  <title>Nitro UP (76¢)</title>
</circle>
<circle cx="98" cy="54" r="4" fill="#00FF00" stroke="#FFFFFF" stroke-width="1">
  <title>VolSnap UP (77¢)</title>
</circle>
</svg>