<svg width="340" height="190" xmlns="http://www.w3.org/2000/svg">
<rect width="100%" height="100%" fill="#121212" />
<line x1="20" y1="139" x2="320" y2="139" stroke="#232323" stroke-width="1" />
<line x1="20" y1="109" x2="320" y2="109" stroke="#232323" stroke-width="1" />
<line x1="20" y1="94" x2="320" y2="94" stroke="#3C3C3C" stroke-width="1" />
<line x1="20" y1="79" x2="320" y2="79" stroke="#232323" stroke-width="1" />
<line x1="20" y1="49" x2="320" y2="49" stroke="#232323" stroke-width="1" />
<line x1="169" y1="20" x2="169" y2="170" stroke="#232323" stroke-width="1" />
<polyline points="20,95 22,95 25,91 28,90 31,89 34,89 37,79 40,72 43,71 46,76 49,87 52,80 55,75 58,67 61,64 64,62 67,62 70,57 73,55 76,56 79,52 82,55 85,55 88,55 91,56 94,55 97,54 100,53 103,55 106,55 109,57 112,68 115,61 118,63 121,63 124,55 127,46 130,46 133,47 136,46 139,46 142,57 145,63 148,62 151,57 154,57 157,50 160,53 163,55 166,62 169,60 172,69 175,80 178,79 181,73 184,84 187,86 190,93 193,105 196,93 199,99 202,96 205,92 208,99 211,99 214,109 217,113 220,125 223,133 226,139 229,139 232,142 235,142 238,144 241,149 244,154 247,149 250,148 253,145 256,146 259,136 262,151 265,152 268,154 271,157 274,160 277,157 280,153 283,162 286,163 289,165 292,165 295,167 298,165 301,167 304,167 307,167 310,167 313,167 316,167" fill="none" stroke="#FFFF00" stroke-width="2" stroke-linejoin="round" />
<circle cx="41" cy="73" r="4" fill="#00FF00" stroke="#FFFFFF" stroke-width="1">
  <title>Briefing UP (64¢)</title>
</circle>
<circle cx="41" cy="73" r="4" fill="#00FF00" stroke="#FFFFFF" stroke-width="1">
  <title>VPOC UP (64¢)</title>
</circle>
</svg>