<svg width="340" height="190" xmlns="http://www.w3.org/2000/svg">
<rect width="100%" height="100%" fill="#121212" />
<line x1="20" y1="139" x2="320" y2="139" stroke="#232323" stroke-width="1" />
<line x1="20" y1="109" x2="320" y2="109" stroke="#232323" stroke-width="1" />
<line x1="20" y1="94" x2="320" y2="94" stroke="#3C3C3C" stroke-width="1" />
<line x1="20" y1="79" x2="320" y2="79" stroke="#232323" stroke-width="1" />
<line x1="20" y1="49" x2="320" y2="49" stroke="#232323" stroke-width="1" />
<line x1="169" y1="20" x2="169" y2="170" stroke="#232323" stroke-width="1" />
<polyline points="20,95 22,95 25,93 28,95 31,98 34,96 37,105 40,111 43,107 46,107 49,110 52,116 55,122 58,128 61,135 64,139 67,142 70,146 73,150 76,146 79,145 82,146 85,142 88,138 91,138 94,139 97,141 100,139 103,136 106,135 109,134 112,135 115,143 118,141 121,135 124,133 127,133 130,139 133,145 136,148 139,148 142,145 145,141 148,132 151,137 154,135 157,134 160,131 163,132 166,132 169,132 172,132 175,132 178,127 181,128 184,128 187,113 190,113 193,99 196,99 199,90 202,82 205,81 208,84 211,84 214,87 217,83 220,84 223,75 226,66 229,82 232,66 235,65 238,69 241,76 244,76 247,66 250,55 253,57 256,67 259,67 262,59 265,49 268,45 271,39 274,40 277,31 280,24 283,22 286,23 289,22 292,22 295,20 298,20 301,20 304,20 307,20 310,20 313,20 316,20" fill="none" stroke="#FFFF00" stroke-width="2" stroke-linejoin="round" />
<circle cx="86" cy="49" r="4" fill="#FF0000" stroke="#FFFFFF" stroke-width="1">
  <title>Nitro DOWN (80¢)</title>
</circle>
<circle cx="86" cy="49" r="4" fill="#FF0000" stroke="#FFFFFF" stroke-width="1">
  <title>VolSnap DOWN (80¢)</title>
</circle>
</svg>