<svg width="340" height="190" xmlns="http://www.w3.org/2000/svg">
<rect width="100%" height="100%" fill="#121212" />
<line x1="20" y1="139" x2="320" y2="139" stroke="#232323" stroke-width="1" />
<line x1="20" y1="109" x2="320" y2="109" stroke="#232323" stroke-width="1" />
<line x1="20" y1="94" x2="320" y2="94" stroke="#3C3C3C" stroke-width="1" />
<line x1="20" y1="79" x2="320" y2="79" stroke="#232323" stroke-width="1" />
<line x1="20" y1="49" x2="320" y2="49" stroke="#232323" stroke-width="1" />
<line x1="169" y1="20" x2="169" y2="170" stroke="#232323" stroke-width="1" />
<polyline points="20,93 22,100 25,100 28,98 31,98 34,96 37,94 40,112 43,113 46,113 49,114 52,113 55,116 58,111 61,117 64,128 67,131 70,136 73,136 76,136 79,134 82,144 85,149 88,154 91,146 94,144 97,141 100,141 103,142 106,142 109,141 112,142 115,143 118,145 121,145 124,145 127,144 130,143 133,139 136,139 139,139 142,150 145,142 148,139 151,125 154,125 157,115 160,115 163,113 166,116 169,132 172,132 175,109 178,126 181,125 184,133 187,120 190,134 193,149 196,156 199,162 202,160 205,161 208,163 211,165 214,166 217,167 220,167 223,167 226,167 229,167 232,167 235,167 238,167 241,167 244,167 247,167 250,167 253,167 256,167 259,167 262,167 265,167 268,167 271,167 274,167 277,167 280,167 283,167 286,167 289,167 292,167 295,167 298,167 301,167 304,167 307,167 310,167 313,167 316,167" fill="none" stroke="#FFFF00" stroke-width="2" stroke-linejoin="round" />
</svg>