<svg width="340" height="190" xmlns="http://www.w3.org/2000/svg">
<rect width="100%" height="100%" fill="#121212" />
<line x1="20" y1="139" x2="320" y2="139" stroke="#232323" stroke-width="1" />
<line x1="20" y1="109" x2="320" y2="109" stroke="#232323" stroke-width="1" />
<line x1="20" y1="94" x2="320" y2="94" stroke="#3C3C3C" stroke-width="1" />
<line x1="20" y1="79" x2="320" y2="79" stroke="#232323" stroke-width="1" />
<line x1="20" y1="49" x2="320" y2="49" stroke="#232323" stroke-width="1" />
<line x1="169" y1="20" x2="169" y2="170" stroke="#232323" stroke-width="1" />
<polyline points="20,90 21,90 24,89 27,90 30,96 33,89 36,90 39,96 42,103 45,107 48,104 51,101 54,94 57,104 60,107 63,105 66,108 69,106 72,113 75,110 78,119 81,127 84,129 87,128 90,127 93,131 96,133 99,135 102,134 105,140 108,145 111,146 114,139 117,125 120,129 123,132 126,133 129,131 132,129 135,128 138,131 141,129 144,126 147,129 150,122 153,122 156,123 159,121 162,113 165,111 168,122 171,121 174,126 177,126 180,138 183,142 186,145 189,152 192,148 195,146 198,145 201,146 204,142 207,138 210,141 213,131 216,129 219,140 222,147 225,147 228,148 231,150 234,154 237,157 240,162 243,163 246,163 249,165 252,165 255,165 258,166 261,167 264,167 267,167 270,167 273,166 276,167 279,167 282,167 285,167 288,167 291,167 294,167 297,167 300,167 303,167 306,167 309,167 312,167 315,167 318,167" fill="none" stroke="#FFFF00" stroke-width="2" stroke-linejoin="round" />
<circle cx="61" cy="81" r="4" fill="#FF0000" stroke="#FFFFFF" stroke-width="1">
  <title>MM2 DOWN (59¢)</title>
</circle>
<circle cx="82" cy="70" r="4" fill="#FF0000" stroke="#FFFFFF" stroke-width="1">
  <title>Nitro DOWN (66¢)</title>
</circle>
<circle cx="82" cy="70" r="4" fill="#FF0000" stroke="#FFFFFF" stroke-width="1">
  <title>VolSnap DOWN (66¢)</title>
</circle>
</svg>