<svg width="340" height="190" xmlns="http://www.w3.org/2000/svg">
<rect width="100%" height="100%" fill="#121212" />
<line x1="20" y1="139" x2="320" y2="139" stroke="#232323" stroke-width="1" />
<line x1="20" y1="109" x2="320" y2="109" stroke="#232323" stroke-width="1" />
<line x1="20" y1="94" x2="320" y2="94" stroke="#3C3C3C" stroke-width="1" />
<line x1="20" y1="79" x2="320" y2="79" stroke="#232323" stroke-width="1" />
<line x1="20" y1="49" x2="320" y2="49" stroke="#232323" stroke-width="1" />
<line x1="169" y1="20" x2="169" y2="170" stroke="#232323" stroke-width="1" />
<polyline points="20,98 22,96 25,98 28,88 31,88 34,91 37,93 40,90 43,89 46,89 49,90 52,90 55,90 58,90 61,93 64,86 67,84 70,86 73,86 76,86 79,86 82,86 85,87 88,93 91,90 94,89 97,88 100,88 103,86 106,85 109,84 112,81 115,81 118,70 121,86 124,86 127,86 130,86 133,86 136,85 139,86 142,86 145,86 148,86 151,81 154,75 157,75 160,72 163,73 166,73 169,73 172,73 175,73 178,73 181,73 184,73 187,73 190,73 193,73 196,73 199,73 202,73 205,73 208,73 211,73 214,73 217,73 220,73 223,73 226,73 229,73 232,73 235,73 238,73 241,73 244,73 247,73 250,73 253,73 256,73 259,73 262,73 265,73 268,73 271,73 274,73 277,73 280,73 283,73 286,73 289,73 292,73 295,73 298,73 301,73 304,73 307,73 310,73 313,73 316,73" fill="none" stroke="#FFFF00" stroke-width="2" stroke-linejoin="round" />
</svg>