<svg width="340" height="190" xmlns="http://www.w3.org/2000/svg">
<rect width="100%" height="100%" fill="#121212" />
<line x1="20" y1="139" x2="320" y2="139" stroke="#232323" stroke-width="1" />
<line x1="20" y1="109" x2="320" y2="109" stroke="#232323" stroke-width="1" />
<line x1="20" y1="94" x2="320" y2="94" stroke="#3C3C3C" stroke-width="1" />
<line x1="20" y1="79" x2="320" y2="79" stroke="#232323" stroke-width="1" />
<line x1="20" y1="49" x2="320" y2="49" stroke="#232323" stroke-width="1" />
<line x1="169" y1="20" x2="169" y2="170" stroke="#232323" stroke-width="1" />
<polyline points="20,101 20,101 23,102 26,101 29,99 32,98 35,97 38,99 41,98 44,95 47,98 50,93 53,87 56,99 59,102 62,102 65,104 68,107 71,107 74,108 77,108 80,104 83,98 86,75 89,76 92,88 95,103 98,111 101,110 104,104 107,105 110,104 113,102 116,103 119,104 122,105 125,105 128,112 131,116 134,116 137,108 140,116 143,132 146,136 149,139 152,139 155,139 158,139 161,144 164,145 167,145 170,145 173,149 176,148 179,153 182,151 185,153 188,154 191,150 194,145 197,145 200,147 203,145 206,139 209,131 212,136 215,137 218,139 221,139 224,139 227,139 230,142 233,143 236,145 239,147 242,147 245,151 248,153 251,153 254,153 257,130 260,138 263,145 266,145 269,151 272,156 275,159 278,160 281,164 284,165 287,166 290,167 293,167 296,167 299,167 302,167 305,167 308,167 311,167 314,167 317,167" fill="none" stroke="#FFFF00" stroke-width="2" stroke-linejoin="round" />
<circle cx="87" cy="78" r="4" fill="#00FF00" stroke="#FFFFFF" stroke-width="1">
  <title>MM2 UP (61¢)</title>
</circle>
<circle cx="87" cy="78" r="4" fill="#00FF00" stroke="#FFFFFF" stroke-width="1">
  <title>VolSnap UP (61¢)</title>
</circle>
</svg>