<svg width="340" height="190" xmlns="http://www.w3.org/2000/svg">
<rect width="100%" height="100%" fill="#121212" />
<line x1="20" y1="139" x2="320" y2="139" stroke="#232323" stroke-width="1" />
<line x1="20" y1="109" x2="320" y2="109" stroke="#232323" stroke-width="1" />
<line x1="20" y1="94" x2="320" y2="94" stroke="#3C3C3C" stroke-width="1" />
<line x1="20" y1="79" x2="320" y2="79" stroke="#232323" stroke-width="1" />
<line x1="20" y1="49" x2="320" y2="49" stroke="#232323" stroke-width="1" />
<line x1="169" y1="20" x2="169" y2="170" stroke="#232323" stroke-width="1" />
<polyline points="20,92 22,102 25,107 28,113 31,108 34,113 37,107 40,102 43,103 46,99 49,101 52,99 55,98 58,86 61,83 64,83 67,83 70,81 73,80 76,80 79,80 82,77 85,73 88,68 91,69 94,72 97,67 100,60 103,58 106,56 109,63 112,59 115,57 118,45 121,40 124,30 127,28 130,28 133,34 136,31 139,32 142,32 145,38 148,41 151,43 154,43 157,38 160,37 163,35 166,31 169,32 172,29 175,37 178,35 181,29 184,31 187,28 190,26 193,27 196,28 199,25 202,25 205,25 208,23 211,23 214,28 217,28 220,28 223,29 226,30 229,26 232,25 235,24 238,23 241,23 244,22 247,22 250,20 253,20 256,20 259,20 262,20 265,20 268,20 271,20 274,20 277,20 280,20 283,20 286,20 289,20 292,20 295,20 298,20 301,20 304,20 307,20 310,20 313,20 316,20" fill="none" stroke="#FFFF00" stroke-width="2" stroke-linejoin="round" />
<circle cx="32" cy="81" r="4" fill="#FF0000" stroke="#FFFFFF" stroke-width="1">
  <title>MM2 DOWN (59¢)</title>
</circle>
<circle cx="74" cy="81" r="4" fill="#00FF00" stroke="#FFFFFF" stroke-width="1">
  <title>VPOC UP (59¢)</title>
</circle>
<circle cx="107" cy="57" r="4" fill="#00FF00" stroke="#FFFFFF" stroke-width="1">
  <title>Nitro UP (75¢)</title>
</circle>
</svg>