<svg width="340" height="190" xmlns="http://www.w3.org/2000/svg">
<rect width="100%" height="100%" fill="#121212" />
<line x1="20" y1="139" x2="320" y2="139" stroke="#232323" stroke-width="1" />
<line x1="20" y1="109" x2="320" y2="109" stroke="#232323" stroke-width="1" />
<line x1="20" y1="94" x2="320" y2="94" stroke="#3C3C3C" stroke-width="1" />
<line x1="20" y1="79" x2="320" y2="79" stroke="#232323" stroke-width="1" />
<line x1="20" y1="49" x2="320" y2="49" stroke="#232323" stroke-width="1" />
<line x1="169" y1="20" x2="169" y2="170" stroke="#232323" stroke-width="1" />
<polyline points="20,95 22,93 25,90 28,89 31,98 34,108 37,113 40,113 43,113 46,114 49,117 52,117 55,117 58,117 61,119 64,119 67,116 70,116 73,116 76,119 79,109 82,105 85,109 88,116 91,116 94,116 97,128 100,128 103,131 106,135 109,133 112,136 115,139 118,134 121,136 124,139 127,139 130,139 133,141 136,139 139,139 142,139 145,139 148,140 151,137 154,127 157,132 160,132 163,122 166,111 169,120 172,119 175,120 178,123 181,119 184,122 187,121 190,113 193,110 196,102 199,92 202,95 205,98 208,107 211,111 214,115 217,119 220,125 223,126 226,125 229,126 232,130 235,131 238,131 241,132 244,132 247,122 250,106 253,107 256,105 259,120 262,123 265,119 268,98 271,80 274,62 277,72 280,72 283,77 286,78 289,63 292,63 295,98 298,98 301,110 304,126 307,137 310,157 313,157 316,157" fill="none" stroke="#FFFF00" stroke-width="2" stroke-linejoin="round" />
<circle cx="35" cy="81" r="4" fill="#FF0000" stroke="#FFFFFF" stroke-width="1">
  <title>VPOC DOWN (59¢)</title>
</circle>
<circle cx="86" cy="79" r="4" fill="#FF0000" stroke="#FFFFFF" stroke-width="1">
  <title>VolSnap DOWN (60¢)</title>
</circle>
<circle cx="110" cy="55" r="4" fill="#FF0000" stroke="#FFFFFF" stroke-width="1">
  <title>Nitro DOWN (76¢)</title>
</circle>
</svg>