<svg width="340" height="190" xmlns="http://www.w3.org/2000/svg">
<rect width="100%" height="100%" fill="#121212" />
<line x1="20" y1="139" x2="320" y2="139" stroke="#232323" stroke-width="1" />
<line x1="20" y1="109" x2="320" y2="109" stroke="#232323" stroke-width="1" />
<line x1="20" y1="94" x2="320" y2="94" stroke="#3C3C3C" stroke-width="1" />
<line x1="20" y1="79" x2="320" y2="79" stroke="#232323" stroke-width="1" />
<line x1="20" y1="49" x2="320" y2="49" stroke="#232323" stroke-width="1" />
<line x1="169" y1="20" x2="169" y2="170" stroke="#232323" stroke-width="1" />
<polyline points="20,96 20,96 23,84 26,80 29,71 32,69 35,69 38,65 41,64 44,62 47,60 50,60 53,60 56,66 59,66 62,63 65,55 68,53 71,60 74,60 77,61 80,61 83,60 86,66 89,69 92,66 95,68 98,67 101,68 104,59 107,57 110,56 113,52 116,53 119,52 122,52 125,52 128,47 131,51 134,41 137,40 140,44 143,48 146,49 149,49 152,47 155,50 158,55 161,55 164,59 167,56 170,55 173,53 176,55 179,53 182,53 185,65 188,78 191,82 194,91 197,93 200,98 203,98 206,102 209,102 212,111 215,111 218,100 221,90 224,83 227,87 230,84 233,83 236,83 239,78 242,72 245,72 248,72 251,66 254,66 257,51 260,41 263,37 266,29 269,25 272,23 275,23 278,22 281,22 284,22 287,22 290,20 293,20 296,20 299,20 302,20 305,20 308,20 311,20 314,20 317,20" fill="none" stroke="#FFFF00" stroke-width="2" stroke-linejoin="round" />
<circle cx="39" cy="66" r="4" fill="#00FF00" stroke="#FFFFFF" stroke-width="1">
  <title>Nitro UP (69¢)</title>
</circle>
<circle cx="81" cy="63" r="4" fill="#00FF00" stroke="#FFFFFF" stroke-width="1">
  <title>VolSnap UP (71¢)</title>
</circle>
</svg>