<svg width="340" height="190" xmlns="http://www.w3.org/2000/svg">
<rect width="100%" height="100%" fill="#121212" />
<line x1="20" y1="139" x2="320" y2="139" stroke="#232323" stroke-width="1" />
<line x1="20" y1="109" x2="320" y2="109" stroke="#232323" stroke-width="1" />
<line x1="20" y1="94" x2="320" y2="94" stroke="#3C3C3C" stroke-width="1" />
<line x1="20" y1="79" x2="320" y2="79" stroke="#232323" stroke-width="1" />
<line x1="20" y1="49" x2="320" y2="49" stroke="#232323" stroke-width="1" />
<line x1="169" y1="20" x2="169" y2="170" stroke="#232323" stroke-width="1" />
<polyline points="20,103 22,101 25,96 28,93 31,93 34,95 37,90 40,89 43,84 46,80 49,69 52,62 55,60 58,51 61,42 64,38 67,36 70,30 73,28 76,26 79,25 82,23 85,23 88,25 91,26 94,25 97,23 100,23 103,24 106,25 109,24 112,25 115,23 118,25 121,23 124,25 127,22 130,22 133,22 136,22 139,21 142,20 145,20 148,20 151,20 154,20 157,20 160,20 163,20 166,20 169,20 172,20 175,20 178,20 181,20 184,20 187,20 190,20 193,20 196,20 199,20 202,20 205,21 208,22 211,22 214,22 217,22 220,22 223,22 226,22 229,23 232,22 235,22 238,23 241,22 244,22 247,22 250,23 253,22 256,20 259,20 262,20 265,20 268,20 271,20 274,20 277,20 280,20 283,20 286,20 289,20 292,20 295,20 298,20 301,20 304,20 307,20 310,20 313,20 316,20" fill="none" stroke="#FFFF00" stroke-width="2" stroke-linejoin="round" />
<circle cx="50" cy="75" r="4" fill="#00FF00" stroke="#FFFFFF" stroke-width="1">
  <title>MM2 UP (63¢)</title>
</circle>
<circle cx="50" cy="75" r="4" fill="#00FF00" stroke="#FFFFFF" stroke-width="1">
  <title>VPOC UP (63¢)</title>
</circle>
</svg>