<svg width="340" height="190" xmlns="http://www.w3.org/2000/svg">
<rect width="100%" height="100%" fill="#121212" />
<line x1="20" y1="139" x2="320" y2="139" stroke="#232323" stroke-width="1" />
<line x1="20" y1="109" x2="320" y2="109" stroke="#232323" stroke-width="1" />
<line x1="20" y1="94" x2="320" y2="94" stroke="#3C3C3C" stroke-width="1" />
<line x1="20" y1="79" x2="320" y2="79" stroke="#232323" stroke-width="1" />
<line x1="20" y1="49" x2="320" y2="49" stroke="#232323" stroke-width="1" />
<line x1="169" y1="20" x2="169" y2="170" stroke="#232323" stroke-width="1" />
<polyline points="20,93 22,106 25,99 28,98 31,94 34,93 37,93 40,90 43,90 46,93 49,94 52,93 55,89 58,88 61,93 64,93 67,101 70,105 73,112 76,113 79,113 82,111 85,113 88,107 91,107 94,100 97,98 100,96 103,95 106,90 109,90 112,98 115,101 118,102 121,101 124,101 127,116 130,122 133,111 136,113 139,111 142,102 145,102 148,101 151,101 154,111 157,111 160,114 163,117 166,118 169,113 172,114 175,114 178,113 181,104 184,104 187,104 190,89 193,86 196,87 199,86 202,85 205,87 208,90 211,90 214,87 217,92 220,92 223,94 226,95 229,92 232,90 235,108 238,117 241,117 244,123 247,131 250,131 253,131 256,148 259,150 262,140 265,142 268,135 271,109 274,96 277,97 280,87 283,76 286,70 289,71 292,69 295,71 298,57 301,48 304,28 307,28 310,25 313,24 316,20" fill="none" stroke="#FFFF00" stroke-width="2" stroke-linejoin="round" />
<circle cx="74" cy="78" r="4" fill="#FF0000" stroke="#FFFFFF" stroke-width="1">
  <title>MM2 DOWN (61¢)</title>
</circle>
<circle cx="284" cy="81" r="4" fill="#00FF00" stroke="#FFFFFF" stroke-width="1">
  <title>VPOC UP (59¢)</title>
</circle>
</svg>