<svg width="340" height="190" xmlns="http://www.w3.org/2000/svg">
<rect width="100%" height="100%" fill="#121212" />
<line x1="20" y1="139" x2="320" y2="139" stroke="#232323" stroke-width="1" />
<line x1="20" y1="109" x2="320" y2="109" stroke="#232323" stroke-width="1" />
<line x1="20" y1="94" x2="320" y2="94" stroke="#3C3C3C" stroke-width="1" />
<line x1="20" y1="79" x2="320" y2="79" stroke="#232323" stroke-width="1" />
<line x1="20" y1="49" x2="320" y2="49" stroke="#232323" stroke-width="1" />
<line x1="169" y1="20" x2="169" y2="170" stroke="#232323" stroke-width="1" />
<polyline points="20,87 20,87 23,86 26,79 29,80 32,78 35,76 38,75 41,79 44,76 47,71 50,67 53,69 56,70 59,74 62,72 65,76 68,74 71,75 74,75 77,75 80,75 83,75 86,75 89,84 92,88 95,89 98,89 101,98 104,99 107,100 110,100 113,105 116,105 119,107 122,108 125,95 128,89 131,87 134,86 137,79 140,72 143,66 146,50 149,53 152,59 155,62 158,59 161,61 164,62 167,64 170,62 173,62 176,58 179,62 182,62 185,62 188,61 191,55 194,62 197,63 200,78 203,80 206,84 209,88 212,93 215,92 218,96 221,102 224,86 227,90 230,107 233,108 236,95 239,82 242,75 245,68 248,55 251,58 254,49 257,51 260,47 263,47 266,49 269,49 272,45 275,46 278,46 281,36 284,35 287,33 290,30 293,30 296,25 299,25 302,23 305,26 308,23 311,22 314,20 317,20" fill="none" stroke="#FFFF00" stroke-width="2" stroke-linejoin="round" />
<circle cx="36" cy="76" r="4" fill="#00FF00" stroke="#FFFFFF" stroke-width="1">
  <title>Nitro UP (62¢)</title>
</circle>
<circle cx="81" cy="76" r="4" fill="#00FF00" stroke="#FFFFFF" stroke-width="1">
  <title>VolSnap UP (62¢)</title>
</circle>
</svg>