<svg width="340" height="190" xmlns="http://www.w3.org/2000/svg">
<rect width="100%" height="100%" fill="#121212" />
<line x1="20" y1="139" x2="320" y2="139" stroke="#232323" stroke-width="1" />
<line x1="20" y1="109" x2="320" y2="109" stroke="#232323" stroke-width="1" />
<line x1="20" y1="94" x2="320" y2="94" stroke="#3C3C3C" stroke-width="1" />
<line x1="20" y1="79" x2="320" y2="79" stroke="#232323" stroke-width="1" />
<line x1="20" y1="49" x2="320" y2="49" stroke="#232323" stroke-width="1" />
<line x1="169" y1="20" x2="169" y2="170" stroke="#232323" stroke-width="1" />
<polyline points="20,98 21,98 24,96 27,95 30,95 33,95 36,95 39,91 42,90 45,83 48,79 51,81 54,83 57,81 60,80 63,80 66,88 69,95 72,90 75,89 78,90 81,87 84,86 87,79 90,78 93,75 96,72 99,74 102,67 105,57 108,54 111,48 114,49 117,54 120,62 123,68 126,74 129,69 132,69 135,68 138,63 141,80 144,84 147,86 150,89 153,94 156,101 159,109 162,110 165,106 168,97 171,92 174,81 177,75 180,71 183,71 187,71 190,72 193,79 196,71 199,69 202,71 205,72 208,75 211,76 214,81 217,81 220,72 223,72 226,110 229,111 232,112 235,116 238,104 241,85 244,83 247,75 250,74 253,66 256,71 259,78 262,70 265,63 268,59 271,60 274,60 277,41 280,41 283,53 286,34 289,31 292,31 295,26 298,28 301,26 304,25 307,35 310,26 313,22 316,20" fill="none" stroke="#FFFF00" stroke-width="2" stroke-linejoin="round" />
<circle cx="109" cy="57" r="4" fill="#00FF00" stroke="#FFFFFF" stroke-width="1">
  <title>Nitro UP (75¢)</title>
</circle>
<circle cx="160" cy="79" r="4" fill="#FF0000" stroke="#FFFFFF" stroke-width="1">
  <title>MM2 DOWN (60¢)</title>
</circle>
<circle cx="160" cy="79" r="4" fill="#FF0000" stroke="#FFFFFF" stroke-width="1">
  <title>VPOC DOWN (60¢)</title>
</circle>
</svg>