<svg width="340" height="190" xmlns="http://www.w3.org/2000/svg">
<rect width="100%" height="100%" fill="#121212" />
<line x1="20" y1="139" x2="320" y2="139" stroke="#232323" stroke-width="1" />
<line x1="20" y1="109" x2="320" y2="109" stroke="#232323" stroke-width="1" />
<line x1="20" y1="94" x2="320" y2="94" stroke="#3C3C3C" stroke-width="1" />
<line x1="20" y1="79" x2="320" y2="79" stroke="#232323" stroke-width="1" />
<line x1="20" y1="49" x2="320" y2="49" stroke="#232323" stroke-width="1" />
<line x1="169" y1="20" x2="169" y2="170" stroke="#232323" stroke-width="1" />
<polyline points="20,87 20,87 23,90 26,81 29,81 32,81 35,81 38,81 41,75 44,76 47,75 50,74 53,75 57,75 60,69 63,68 66,77 69,78 72,77 75,75 78,75 81,77 84,77 87,77 90,72 93,69 96,71 99,81 102,83 105,83 108,81 111,81 114,80 117,80 120,78 123,78 126,77 129,77 132,76 135,78 138,78 141,78 144,84 147,103 150,102 153,101 156,101 159,101 162,101 165,101 168,101 171,101 174,101 177,106 180,113 183,114 186,116 190,116 193,117 196,118 199,119 202,120 205,120 208,120 211,119 214,125 217,118 220,104 223,101 226,99 229,99 232,101 235,101 238,101 241,102 244,101 247,101 250,99 253,102 256,101 259,102 262,101 265,101 268,101 271,101 274,101 277,102 280,101 283,101 286,103 289,104 292,107 295,108 298,107 301,107 304,110 307,97 310,83 313,126 316,166" fill="none" stroke="#FFFF00" stroke-width="2" stroke-linejoin="round" />
</svg>