<svg width="340" height="190" xmlns="http://www.w3.org/2000/svg">
<rect width="100%" height="100%" fill="#121212" />
<line x1="20" y1="139" x2="320" y2="139" stroke="#232323" stroke-width="1" />
<line x1="20" y1="109" x2="320" y2="109" stroke="#232323" stroke-width="1" />
<line x1="20" y1="94" x2="320" y2="94" stroke="#3C3C3C" stroke-width="1" />
<line x1="20" y1="79" x2="320" y2="79" stroke="#232323" stroke-width="1" />
<line x1="20" y1="49" x2="320" y2="49" stroke="#232323" stroke-width="1" />
<line x1="169" y1="20" x2="169" y2="170" stroke="#232323" stroke-width="1" />
<polyline points="20,98 22,109 25,110 28,115 31,104 34,103 37,101 40,107 43,106 46,104 49,98 52,98 55,95 58,95 61,93 64,89 67,92 70,102 73,102 76,102 79,104 82,107 85,108 88,108 91,119 94,119 97,107 100,104 103,102 106,103 109,104 112,105 115,88 118,74 121,82 124,95 127,94 130,86 133,92 136,89 139,96 142,95 145,92 148,92 151,90 154,99 157,98 160,93 163,92 166,92 169,90 172,91 175,87 178,101 181,99 184,95 187,86 190,91 193,90 196,89 199,90 202,89 205,89 208,88 211,87 214,87 217,87 220,87 223,89 226,103 229,101 232,101 235,104 238,95 241,81 244,84 247,86 250,84 253,78 256,80 259,78 262,63 265,63 268,66 271,60 274,59 277,57 280,51 283,49 286,46 289,43 292,40 295,37 298,36 301,33 304,28 307,25 310,23 313,34 316,57" fill="none" stroke="#FFFF00" stroke-width="2" stroke-linejoin="round" />
<circle cx="119" cy="75" r="4" fill="#00FF00" stroke="#FFFFFF" stroke-width="1">
  <title>MM2 UP (63¢)</title>
</circle>
<circle cx="119" cy="75" r="4" fill="#00FF00" stroke="#FFFFFF" stroke-width="1">
  <title>VPOC UP (63¢)</title>
</circle>
</svg>