<svg width="340" height="190" xmlns="http://www.w3.org/2000/svg">
<rect width="100%" height="100%" fill="#121212" />
<line x1="20" y1="139" x2="320" y2="139" stroke="#232323" stroke-width="1" />
<line x1="20" y1="109" x2="320" y2="109" stroke="#232323" stroke-width="1" />
<line x1="20" y1="94" x2="320" y2="94" stroke="#3C3C3C" stroke-width="1" />
<line x1="20" y1="79" x2="320" y2="79" stroke="#232323" stroke-width="1" />
<line x1="20" y1="49" x2="320" y2="49" stroke="#232323" stroke-width="1" />
<line x1="169" y1="20" x2="169" y2="170" stroke="#232323" stroke-width="1" />
<polyline points="20,95 22,98 25,99 28,98 31,99 34,105 37,106 40,107 43,110 46,116 49,120 52,121 55,128 58,129 61,128 64,129 67,128 70,129 73,132 76,133 79,136 82,138 85,136 88,136 91,138 94,137 97,149 100,151 103,150 106,151 109,151 112,150 115,147 118,147 121,147 124,147 127,145 130,148 133,149 136,150 139,149 142,149 145,150 148,148 151,147 154,147 157,147 160,139 163,139 166,139 169,140 172,139 175,139 178,133 181,135 184,136 187,135 190,153 193,152 196,153 199,151 202,154 205,153 208,154 211,154 214,154 217,156 220,157 223,159 226,160 229,162 232,162 235,162 238,162 241,163 244,160 247,160 250,160 253,157 256,156 259,152 262,155 265,157 268,155 271,157 274,157 277,157 280,153 283,152 286,151 289,156 292,157 295,157 298,158 301,157 304,149 307,153 310,157 313,159 316,167" fill="none" stroke="#FFFF00" stroke-width="2" stroke-linejoin="round" />
</svg>