<svg width="340" height="190" xmlns="http://www.w3.org/2000/svg">
<rect width="100%" height="100%" fill="#121212" />
<line x1="20" y1="139" x2="320" y2="139" stroke="#232323" stroke-width="1" />
<line x1="20" y1="109" x2="320" y2="109" stroke="#232323" stroke-width="1" />
<line x1="20" y1="94" x2="320" y2="94" stroke="#3C3C3C" stroke-width="1" />
<line x1="20" y1="79" x2="320" y2="79" stroke="#232323" stroke-width="1" />
<line x1="20" y1="49" x2="320" y2="49" stroke="#232323" stroke-width="1" />
<line x1="169" y1="20" x2="169" y2="170" stroke="#232323" stroke-width="1" />
<polyline points="20,95 20,95 23,99 26,107 29,104 32,107 35,107 38,104 41,105 44,104 47,95 50,80 53,77 56,72 59,90 62,99 65,99 68,99 71,101 74,102 77,101 80,105 83,104 86,92 89,77 92,76 95,75 98,75 101,77 104,75 107,74 110,76 113,77 116,78 119,79 122,87 125,72 128,68 131,69 134,69 137,68 140,76 143,75 146,73 149,71 152,77 155,76 158,83 161,83 164,83 167,69 170,88 173,95 176,101 179,92 182,87 185,99 188,99 191,107 194,110 197,106 200,101 203,87 206,101 209,98 212,90 215,92 218,91 221,96 224,99 227,99 230,101 233,101 236,101 239,101 242,100 245,99 248,99 251,99 254,98 257,98 260,98 263,96 266,95 269,95 272,95 275,95 278,95 281,92 284,90 287,89 290,89 293,87 296,89 299,87 302,86 305,84 308,82 311,81 314,78 317,66" fill="none" stroke="#FFFF00" stroke-width="2" stroke-linejoin="round" />
</svg>