<svg width="340" height="190" xmlns="http://www.w3.org/2000/svg">
<rect width="100%" height="100%" fill="#121212" />
<line x1="20" y1="139" x2="320" y2="139" stroke="#232323" stroke-width="1" />
<line x1="20" y1="109" x2="320" y2="109" stroke="#232323" stroke-width="1" />
<line x1="20" y1="94" x2="320" y2="94" stroke="#3C3C3C" stroke-width="1" />
<line x1="20" y1="79" x2="320" y2="79" stroke="#232323" stroke-width="1" />
<line x1="20" y1="49" x2="320" y2="49" stroke="#232323" stroke-width="1" />
<line x1="169" y1="20" x2="169" y2="170" stroke="#232323" stroke-width="1" />
<polyline points="20,80 20,80 23,79 26,78 29,78 32,78 35,78 38,77 41,77 44,75 47,60 50,61 53,50 56,46 59,44 62,37 65,35 68,33 71,32 74,32 77,34 80,37 83,34 86,37 89,37 92,34 95,46 98,46 101,44 104,44 107,44 110,44 113,44 116,43 119,43 122,43 125,43 128,43 131,43 134,47 137,47 140,46 143,45 146,46 149,49 152,49 155,55 158,56 161,57 164,60 167,59 170,42 173,40 176,40 179,32 182,32 185,34 188,34 191,34 194,33 197,32 200,37 203,40 206,39 209,37 212,31 215,29 218,28 221,25 224,25 227,25 230,24 233,23 236,23 239,25 242,26 245,23 248,24 255,25 258,25 261,22 264,22 267,22 270,23 273,23 276,26 279,28 282,27 285,25 288,25 291,23 294,23 297,38 300,46 303,57 306,71 309,69 312,63 315,55 318,31" fill="none" stroke="#FFFF00" stroke-width="2" stroke-linejoin="round" />
</svg>