<svg width="340" height="190" xmlns="http://www.w3.org/2000/svg">
<rect width="100%" height="100%" fill="#121212" />
<line x1="20" y1="139" x2="320" y2="139" stroke="#232323" stroke-width="1" />
<line x1="20" y1="109" x2="320" y2="109" stroke="#232323" stroke-width="1" />
<line x1="20" y1="94" x2="320" y2="94" stroke="#3C3C3C" stroke-width="1" />
<line x1="20" y1="79" x2="320" y2="79" stroke="#232323" stroke-width="1" />
<line x1="20" y1="49" x2="320" y2="49" stroke="#232323" stroke-width="1" />
<line x1="169" y1="20" x2="169" y2="170" stroke="#232323" stroke-width="1" />
<polyline points="20,99 20,99 23,99 26,90 29,84 32,80 35,81 38,77 41,71 44,66 47,62 50,59 53,60 56,69 59,64 62,62 65,66 68,60 71,58 74,69 77,65 80,66 83,65 86,66 89,66 92,62 95,54 98,53 101,51 104,49 107,49 110,49 113,47 116,57 119,59 122,59 125,59 128,59 131,57 134,66 137,71 140,71 143,80 146,87 149,98 152,95 155,99 158,110 161,109 164,106 167,110 170,108 173,119 176,110 179,110 182,118 185,125 188,124 191,112 194,108 197,116 200,121 203,123 206,124 209,139 212,144 215,146 218,148 221,147 224,148 227,152 230,154 233,157 236,162 239,160 242,160 245,159 248,159 251,162 254,159 257,157 260,160 263,163 266,157 269,150 272,148 275,141 278,138 281,139 284,139 287,143 290,160 293,160 296,163 299,164 302,165 305,166 308,166 311,167 314,167 317,167" fill="none" stroke="#FFFF00" stroke-width="2" stroke-linejoin="round" />
<circle cx="39" cy="78" r="4" fill="#00FF00" stroke="#FFFFFF" stroke-width="1">
  <title>Nitro UP (61¢)</title>
</circle>
<circle cx="39" cy="78" r="4" fill="#00FF00" stroke="#FFFFFF" stroke-width="1">
  <title>VPOC UP (61¢)</title>
</circle>
</svg>