<svg width="340" height="190" xmlns="http://www.w3.org/2000/svg">
<rect width="100%" height="100%" fill="#121212" />
<line x1="20" y1="139" x2="320" y2="139" stroke="#232323" stroke-width="1" />
<line x1="20" y1="109" x2="320" y2="109" stroke="#232323" stroke-width="1" />
<line x1="20" y1="94" x2="320" y2="94" stroke="#3C3C3C" stroke-width="1" />
<line x1="20" y1="79" x2="320" y2="79" stroke="#232323" stroke-width="1" />
<line x1="20" y1="49" x2="320" y2="49" stroke="#232323" stroke-width="1" />
<line x1="169" y1="20" x2="169" y2="170" stroke="#232323" stroke-width="1" />
<polyline points="20,98 22,98 25,99 28,105 31,105 34,101 37,99 40,98 43,93 46,100 49,102 52,104 55,107 58,107 61,103 64,108 67,108 70,98 73,104 76,120 79,114 82,122 85,123 88,124 91,124 94,123 97,123 100,123 103,117 106,117 109,117 112,117 115,118 118,119 121,109 124,114 127,116 130,110 133,110 136,108 139,101 142,118 145,125 148,126 151,123 154,124 157,125 160,126 163,128 166,128 169,128 172,128 175,138 178,134 181,124 184,84 187,76 190,70 193,75 196,84 199,111 202,93 205,101 208,110 211,108 214,105 217,107 220,108 223,99 226,111 229,116 232,130 235,137 238,133 241,129 244,138 247,136 250,138 253,138 256,138 259,131 262,142 265,144 268,148 271,139 274,139 277,137 280,141 283,142 286,116 289,139 292,156 295,150 298,154 301,161 304,166 307,167 310,167 313,167 316,167" fill="none" stroke="#FFFF00" stroke-width="2" stroke-linejoin="round" />
</svg>