<svg width="340" height="190" xmlns="http://www.w3.org/2000/svg">
<rect width="100%" height="100%" fill="#121212" />
<line x1="20" y1="139" x2="320" y2="139" stroke="#232323" stroke-width="1" />
<line x1="20" y1="109" x2="320" y2="109" stroke="#232323" stroke-width="1" />
<line x1="20" y1="94" x2="320" y2="94" stroke="#3C3C3C" stroke-width="1" />
<line x1="20" y1="79" x2="320" y2="79" stroke="#232323" stroke-width="1" />
<line x1="20" y1="49" x2="320" y2="49" stroke="#232323" stroke-width="1" />
<line x1="169" y1="20" x2="169" y2="170" stroke="#232323" stroke-width="1" />
<polyline points="20,96 22,99 25,110 28,113 31,113 34,110 37,108 40,117 43,113 46,111 49,114 52,112 55,103 58,98 61,95 64,107 67,110 70,119 73,114 76,113 79,113 82,117 85,119 88,121 91,122 94,120 97,123 100,133 103,133 106,128 109,123 112,124 115,125 118,128 121,141 124,141 127,138 130,131 133,128 136,134 139,133 142,139 145,139 148,135 151,133 154,132 157,133 160,135 163,136 166,135 169,136 172,138 175,137 178,141 181,150 184,150 187,151 190,157 193,159 196,154 199,154 202,157 205,156 208,156 211,157 214,162 217,156 220,155 223,149 226,148 229,156 232,157 235,158 238,158 241,160 244,160 247,163 250,163 253,163 256,165 259,166 262,167 265,167 268,167 271,167 274,167 277,167 280,167 283,167 286,167 289,167 292,167 295,167 298,167 301,167 304,167 307,167 310,167 313,167 316,167" fill="none" stroke="#FFFF00" stroke-width="2" stroke-linejoin="round" />
<circle cx="32" cy="75" r="4" fill="#FF0000" stroke="#FFFFFF" stroke-width="1">
  <title>MM2 DOWN (63¢)</title>
</circle>
<circle cx="83" cy="72" r="4" fill="#FF0000" stroke="#FFFFFF" stroke-width="1">
  <title>Nitro DOWN (65¢)</title>
</circle>
<circle cx="83" cy="72" r="4" fill="#FF0000" stroke="#FFFFFF" stroke-width="1">
  <title>VolSnap DOWN (65¢)</title>
</circle>
</svg>