<svg width="340" height="190" xmlns="http://www.w3.org/2000/svg">
<rect width="100%" height="100%" fill="#121212" />
<line x1="20" y1="139" x2="320" y2="139" stroke="#232323" stroke-width="1" />
<line x1="20" y1="109" x2="320" y2="109" stroke="#232323" stroke-width="1" />
<line x1="20" y1="94" x2="320" y2="94" stroke="#3C3C3C" stroke-width="1" />
<line x1="20" y1="79" x2="320" y2="79" stroke="#232323" stroke-width="1" />
<line x1="20" y1="49" x2="320" y2="49" stroke="#232323" stroke-width="1" />
<line x1="169" y1="20" x2="169" y2="170" stroke="#232323" stroke-width="1" />
<polyline points="20,87 22,93 25,104 28,107 31,107 34,105 37,103 40,101 43,104 46,103 49,100 52,99 55,96 58,95 61,87 64,80 67,80 70,97 73,113 76,104 79,111 82,113 85,110 88,110 91,107 94,110 97,111 100,113 103,112 106,112 109,108 112,98 115,101 118,102 121,101 124,107 127,111 130,111 133,107 136,108 139,113 142,115 145,113 148,127 151,119 154,120 157,120 160,122 163,122 166,119 169,116 172,115 175,113 178,114 181,111 184,111 187,111 190,111 193,111 196,112 199,111 202,113 205,124 208,122 211,123 214,124 217,125 220,126 223,128 226,124 229,120 232,123 235,121 238,122 241,118 244,119 247,121 250,120 253,122 256,125 259,126 262,116 265,117 268,96 271,92 274,90 277,87 280,86 283,86 286,87 289,87 292,84 295,67 298,54 301,46 304,42 307,37 310,27 313,22 316,20" fill="none" stroke="#FFFF00" stroke-width="2" stroke-linejoin="round" />
</svg>