<svg width="340" height="190" xmlns="http://www.w3.org/2000/svg">
<rect width="100%" height="100%" fill="#121212" />
<line x1="20" y1="139" x2="320" y2="139" stroke="#232323" stroke-width="1" />
<line x1="20" y1="109" x2="320" y2="109" stroke="#232323" stroke-width="1" />
<line x1="20" y1="94" x2="320" y2="94" stroke="#3C3C3C" stroke-width="1" />
<line x1="20" y1="79" x2="320" y2="79" stroke="#232323" stroke-width="1" />
<line x1="20" y1="49" x2="320" y2="49" stroke="#232323" stroke-width="1" />
<line x1="169" y1="20" x2="169" y2="170" stroke="#232323" stroke-width="1" />
<polyline points="20,93 21,93 24,93 27,89 30,89 33,90 36,92 39,76 42,79 45,89 48,89 51,102 54,97 57,100 60,101 63,101 66,81 69,78 72,80 75,80 78,84 81,86 84,79 87,77 90,74 93,79 96,94 99,101 102,102 105,106 108,114 111,120 114,120 117,120 120,129 123,134 126,135 129,132 132,139 135,142 138,145 141,151 144,150 147,149 150,150 153,151 156,149 159,145 162,129 165,131 168,140 171,136 174,137 177,143 180,137 183,135 186,139 189,126 192,122 195,124 198,130 201,132 204,147 207,151 210,148 213,136 216,137 219,136 222,134 225,143 228,147 231,147 234,140 237,131 240,138 243,132 246,131 249,133 252,139 255,141 258,146 261,150 264,149 267,139 270,147 273,152 276,157 279,155 282,144 285,145 288,130 291,93 294,95 297,107 300,135 303,142 306,126 309,135 312,137 315,154 318,167" fill="none" stroke="#FFFF00" stroke-width="2" stroke-linejoin="round" />
<circle cx="109" cy="78" r="4" fill="#FF0000" stroke="#FFFFFF" stroke-width="1">
  <title>MM2 DOWN (61¢)</title>
</circle>
<circle cx="112" cy="72" r="4" fill="#FF0000" stroke="#FFFFFF" stroke-width="1">
  <title>Nitro DOWN (65¢)</title>
</circle>
</svg>