<svg width="340" height="190" xmlns="http://www.w3.org/2000/svg">
<rect width="100%" height="100%" fill="#121212" />
<line x1="20" y1="139" x2="320" y2="139" stroke="#232323" stroke-width="1" />
<line x1="20" y1="109" x2="320" y2="109" stroke="#232323" stroke-width="1" />
<line x1="20" y1="94" x2="320" y2="94" stroke="#3C3C3C" stroke-width="1" />
<line x1="20" y1="79" x2="320" y2="79" stroke="#232323" stroke-width="1" />
<line x1="20" y1="49" x2="320" y2="49" stroke="#232323" stroke-width="1" />
<line x1="169" y1="20" x2="169" y2="170" stroke="#232323" stroke-width="1" />
<polyline points="20,86 20,86 23,87 26,83 29,77 32,74 35,75 38,64 41,66 44,65 47,65 50,75 54,71 57,72 60,72 63,69 66,60 69,57 72,57 75,59 78,58 81,59 84,62 87,62 90,62 93,60 96,66 99,75 102,75 105,74 108,64 111,63 114,72 117,71 120,71 123,74 126,72 129,71 132,66 135,60 138,60 141,60 144,62 147,61 150,53 153,52 156,50 159,49 162,47 165,44 168,43 171,38 174,35 177,34 180,32 183,32 186,32 189,32 192,32 195,29 198,29 201,28 204,26 207,23 210,23 213,23 216,23 219,23 222,22 225,22 228,22 231,22 234,22 237,21 240,20 243,20 246,20 249,20 252,20 255,20 258,20 261,20 264,20 267,20 270,20 273,20 276,20 279,20 282,20 285,20 288,20 291,20 294,20 297,20 300,20 303,20 306,20 309,20 312,20 315,20 318,20" fill="none" stroke="#FFFF00" stroke-width="2" stroke-linejoin="round" />
</svg>