<svg width="340" height="190" xmlns="http://www.w3.org/2000/svg">
<rect width="100%" height="100%" fill="#121212" />
<line x1="20" y1="139" x2="320" y2="139" stroke="#232323" stroke-width="1" />
<line x1="20" y1="109" x2="320" y2="109" stroke="#232323" stroke-width="1" />
<line x1="20" y1="94" x2="320" y2="94" stroke="#3C3C3C" stroke-width="1" />
<line x1="20" y1="79" x2="320" y2="79" stroke="#232323" stroke-width="1" />
<line x1="20" y1="49" x2="320" y2="49" stroke="#232323" stroke-width="1" />
<line x1="169" y1="20" x2="169" y2="170" stroke="#232323" stroke-width="1" />
<polyline points="20,93 21,93 24,95 27,99 30,100 33,93 36,95 39,103 42,104 45,104 48,98 51,101 54,96 57,90 60,89 63,81 66,78 69,78 72,87 75,86 78,87 81,88 84,87 87,80 90,77 93,81 96,80 99,74 102,78 105,77 108,69 111,65 114,63 117,57 120,62 123,61 126,62 129,61 132,59 135,56 138,46 141,45 144,49 147,49 150,51 153,46 156,41 159,32 162,29 165,27 168,25 171,23 174,23 177,23 180,26 183,25 186,25 189,25 192,26 195,26 198,26 201,31 204,31 207,35 210,34 213,37 216,39 219,40 222,47 225,46 228,46 231,46 234,55 237,72 240,73 243,66 246,68 249,61 252,66 255,76 258,86 261,84 264,73 267,66 270,60 273,54 276,52 279,56 282,54 285,52 288,49 291,54 294,47 297,24 300,23 303,22 306,22 309,20 312,20 315,20 318,20" fill="none" stroke="#FFFF00" stroke-width="2" stroke-linejoin="round" />
<circle cx="136" cy="60" r="4" fill="#00FF00" stroke="#FFFFFF" stroke-width="1">
  <title>Nitro UP (73¢)</title>
</circle>
</svg>