<svg width="340" height="190" xmlns="http://www.w3.org/2000/svg">
<rect width="100%" height="100%" fill="#121212" />
<line x1="20" y1="139" x2="320" y2="139" stroke="#232323" stroke-width="1" />
<line x1="20" y1="109" x2="320" y2="109" stroke="#232323" stroke-width="1" />
<line x1="20" y1="94" x2="320" y2="94" stroke="#3C3C3C" stroke-width="1" />
<line x1="20" y1="79" x2="320" y2="79" stroke="#232323" stroke-width="1" />
<line x1="20" y1="49" x2="320" y2="49" stroke="#232323" stroke-width="1" />
<line x1="169" y1="20" x2="169" y2="170" stroke="#232323" stroke-width="1" />
<polyline points="20,125 81,125 91,134 96,130 102,130 107,139 111,144 116,145 124,151 130,151 138,150 145,157 151,158 156,160 161,161 172,161 177,163 181,163 186,165 190,166 195,166 200,167 204,167 209,167 214,167 218,167 223,167 228,167 232,167 237,167 243,167 248,167 254,167 261,167 266,168 271,167 277,168 282,168 286,168 291,168 296,168 300,168 307,167 313,168" fill="none" stroke="#FFFF00" stroke-width="2" stroke-linejoin="round" />
</svg>