<svg width="340" height="190" xmlns="http://www.w3.org/2000/svg">
<rect width="100%" height="100%" fill="#121212" />
<line x1="20" y1="139" x2="320" y2="139" stroke="#232323" stroke-width="1" />
<line x1="20" y1="109" x2="320" y2="109" stroke="#232323" stroke-width="1" />
<line x1="20" y1="94" x2="320" y2="94" stroke="#3C3C3C" stroke-width="1" />
<line x1="20" y1="79" x2="320" y2="79" stroke="#232323" stroke-width="1" />
<line x1="20" y1="49" x2="320" y2="49" stroke="#232323" stroke-width="1" />
<line x1="169" y1="20" x2="169" y2="170" stroke="#232323" stroke-width="1" />
<polyline points="20,93 20,93 23,98 26,96 29,96 32,95 35,90 38,89 41,97 44,96 47,93 50,85 53,87 56,83 60,75 63,72 66,62 69,57 72,55 75,54 78,51 81,49 84,50 87,45 90,45 93,45 96,39 99,38 102,43 105,46 108,44 111,43 114,45 117,43 120,40 123,40 126,38 129,41 132,39 135,40 138,40 141,44 144,47 147,45 150,43 153,46 156,40 159,40 162,34 165,37 168,35 171,32 174,31 177,27 180,26 183,25 186,23 189,23 192,23 195,23 198,23 201,23 204,22 207,22 210,22 213,22 216,22 219,22 222,20 225,20 228,20 231,20 234,20 237,20 240,20 243,20 246,20 249,20 252,20 255,20 258,20 261,20 264,20 267,20 270,20 273,20 276,20 279,20 282,20 285,20 288,20 291,20 294,20 297,20 300,20 303,20 306,20 309,20 312,20 315,20 318,20" fill="none" stroke="#FFFF00" stroke-width="2" stroke-linejoin="round" />
<circle cx="67" cy="66" r="4" fill="#00FF00" stroke="#FFFFFF" stroke-width="1">
  <title>Nitro UP (69¢)</title>
</circle>
<circle cx="82" cy="52" r="4" fill="#00FF00" stroke="#FFFFFF" stroke-width="1">
  <title>VolSnap UP (78¢)</title>
</circle>
</svg>