<svg width="340" height="190" xmlns="http://www.w3.org/2000/svg">
<rect width="100%" height="100%" fill="#121212" />
<line x1="20" y1="139" x2="320" y2="139" stroke="#232323" stroke-width="1" />
<line x1="20" y1="109" x2="320" y2="109" stroke="#232323" stroke-width="1" />
<line x1="20" y1="94" x2="320" y2="94" stroke="#3C3C3C" stroke-width="1" />
<line x1="20" y1="79" x2="320" y2="79" stroke="#232323" stroke-width="1" />
<line x1="20" y1="49" x2="320" y2="49" stroke="#232323" stroke-width="1" />
<line x1="169" y1="20" x2="169" y2="170" stroke="#232323" stroke-width="1" />
<polyline points="20,89 20,89 23,88 26,89 29,81 32,81 35,87 38,88 41,79 44,84 47,87 50,82 53,75 56,72 59,74 62,75 65,84 68,87 71,80 74,77 77,72 80,69 83,63 86,69 89,70 92,72 95,66 98,66 101,69 104,73 107,77 110,75 113,63 116,53 119,52 122,52 125,49 128,47 131,49 134,47 137,46 140,46 143,47 146,49 149,63 152,66 155,57 158,55 161,52 164,47 167,57 170,54 173,51 176,50 179,52 182,44 185,42 188,39 191,34 194,30 197,34 200,33 203,30 206,28 209,29 212,28 215,26 218,26 221,25 224,25 227,23 230,22 233,22 236,22 239,20 242,20 245,20 248,20 251,21 254,22 257,22 260,20 263,20 266,20 269,20 272,20 275,20 278,20 281,20 284,20 287,20 290,20 293,20 296,20 299,20 302,20 305,20 308,20 311,20 314,20 317,20" fill="none" stroke="#FFFF00" stroke-width="2" stroke-linejoin="round" />
<circle cx="81" cy="69" r="4" fill="#00FF00" stroke="#FFFFFF" stroke-width="1">
  <title>VolSnap UP (67¢)</title>
</circle>
</svg>