<svg width="340" height="190" xmlns="http://www.w3.org/2000/svg">
<rect width="100%" height="100%" fill="#121212" />
<line x1="20" y1="139" x2="320" y2="139" stroke="#232323" stroke-width="1" />
<line x1="20" y1="109" x2="320" y2="109" stroke="#232323" stroke-width="1" />
<line x1="20" y1="94" x2="320" y2="94" stroke="#3C3C3C" stroke-width="1" />
<line x1="20" y1="79" x2="320" y2="79" stroke="#232323" stroke-width="1" />
<line x1="20" y1="49" x2="320" y2="49" stroke="#232323" stroke-width="1" />
<line x1="169" y1="20" x2="169" y2="170" stroke="#232323" stroke-width="1" />
<polyline points="20,95 21,95 24,94 27,98 30,100 33,100 36,95 39,93 42,88 45,90 48,99 51,101 54,93 57,89 60,86 63,85 66,82 69,86 72,84 75,81 78,90 81,90 84,90 87,89 90,89 93,87 96,89 99,95 102,95 105,96 108,90 111,88 114,76 117,78 120,78 123,74 126,74 129,63 132,66 135,57 138,43 141,38 144,43 147,46 150,46 153,52 156,63 159,69 162,63 165,62 168,72 171,79 174,75 177,78 180,89 183,108 186,112 189,109 192,111 195,124 198,125 201,136 204,136 207,147 210,148 213,143 216,145 219,145 222,142 225,151 228,154 231,157 234,160 237,163 240,166 243,165 246,166 249,166 252,167 255,167 258,167 261,167 264,167 267,167 270,167 273,167 276,167 279,167 282,167 285,167 288,167 291,167 294,167 297,167 300,167 303,167 306,167 309,167 312,167 315,167 318,167" fill="none" stroke="#FFFF00" stroke-width="2" stroke-linejoin="round" />
<circle cx="154" cy="54" r="4" fill="#00FF00" stroke="#FFFFFF" stroke-width="1">
  <title>Nitro UP (77¢)</title>
</circle>
<circle cx="187" cy="78" r="4" fill="#FF0000" stroke="#FFFFFF" stroke-width="1">
  <title>Briefing DOWN (61¢)</title>
</circle>
<circle cx="187" cy="78" r="4" fill="#FF0000" stroke="#FFFFFF" stroke-width="1">
  <title>MM2 DOWN (61¢)</title>
</circle>
</svg>