<svg width="340" height="190" xmlns="http://www.w3.org/2000/svg">
<rect width="100%" height="100%" fill="#121212" />
<line x1="20" y1="139" x2="320" y2="139" stroke="#232323" stroke-width="1" />
<line x1="20" y1="109" x2="320" y2="109" stroke="#232323" stroke-width="1" />
<line x1="20" y1="94" x2="320" y2="94" stroke="#3C3C3C" stroke-width="1" />
<line x1="20" y1="79" x2="320" y2="79" stroke="#232323" stroke-width="1" />
<line x1="20" y1="49" x2="320" y2="49" stroke="#232323" stroke-width="1" />
<line x1="169" y1="20" x2="169" y2="170" stroke="#232323" stroke-width="1" />
<polyline points="20,97 21,97 24,95 27,95 30,95 33,93 36,84 39,88 42,78 45,78 48,74 51,65 54,63 57,66 60,72 63,66 66,69 69,78 72,76 75,80 78,71 81,78 84,87 87,78 90,85 93,90 96,90 99,95 102,91 105,93 108,95 111,95 114,95 117,94 120,93 123,99 126,96 129,98 133,101 136,104 139,105 142,118 145,116 148,130 151,130 154,127 157,128 160,128 163,138 166,146 169,138 172,131 175,132 178,131 181,132 184,131 187,131 190,132 193,133 196,132 199,122 202,128 205,122 208,110 211,128 214,136 217,145 220,154 223,156 226,157 229,147 232,134 235,127 238,132 241,127 244,120 247,116 250,120 253,119 256,122 259,108 262,98 265,91 268,87 271,117 274,138 277,133 280,131 283,128 286,131 289,131 292,128 295,146 300,122 303,107 306,98 309,135 312,148 315,157 318,167" fill="none" stroke="#FFFF00" stroke-width="2" stroke-linejoin="round" />
<circle cx="82" cy="78" r="4" fill="#00FF00" stroke="#FFFFFF" stroke-width="1">
  <title>VolSnap UP (61¢)</title>
</circle>
<circle cx="143" cy="72" r="4" fill="#FF0000" stroke="#FFFFFF" stroke-width="1">
  <title>MM2 DOWN (65¢)</title>
</circle>
</svg>