<svg width="340" height="190" xmlns="http://www.w3.org/2000/svg">
<rect width="100%" height="100%" fill="#121212" />
<line x1="20" y1="139" x2="320" y2="139" stroke="#232323" stroke-width="1" />
<line x1="20" y1="109" x2="320" y2="109" stroke="#232323" stroke-width="1" />
<line x1="20" y1="94" x2="320" y2="94" stroke="#3C3C3C" stroke-width="1" />
<line x1="20" y1="79" x2="320" y2="79" stroke="#232323" stroke-width="1" />
<line x1="20" y1="49" x2="320" y2="49" stroke="#232323" stroke-width="1" />
<line x1="169" y1="20" x2="169" y2="170" stroke="#232323" stroke-width="1" />
<polyline points="20,84 20,84 23,83 26,83 29,68 32,66 35,63 38,67 41,71 44,69 47,64 50,62 53,54 56,59 59,57 62,59 65,64 68,62 71,69 74,70 77,71 80,78 83,87 86,93 89,97 92,94 95,85 98,87 101,84 104,89 107,97 110,84 113,79 116,75 119,68 122,68 125,74 128,75 131,74 134,66 137,64 140,53 143,53 146,53 149,45 152,44 155,51 158,52 161,51 164,52 167,61 170,60 173,69 176,63 179,62 182,63 185,66 188,65 192,66 195,85 198,95 201,90 204,84 207,83 210,78 213,81 216,75 219,78 222,74 225,83 228,86 231,80 234,77 237,91 240,90 243,95 246,89 249,88 252,84 255,78 258,78 261,75 264,88 267,98 270,90 273,69 276,67 279,67 282,57 285,104 288,90 291,89 294,78 297,81 300,95 303,125 306,137 309,135 312,150 315,161 318,167" fill="none" stroke="#FFFF00" stroke-width="2" stroke-linejoin="round" />
<circle cx="81" cy="78" r="4" fill="#00FF00" stroke="#FFFFFF" stroke-width="1">
  <title>VolSnap UP (61¢)</title>
</circle>
<circle cx="304" cy="58" r="4" fill="#FF0000" stroke="#FFFFFF" stroke-width="1">
  <title>MM2 DOWN (74¢)</title>
</circle>
</svg>