<svg width="340" height="190" xmlns="http://www.w3.org/2000/svg">
<rect width="100%" height="100%" fill="#121212" />
<line x1="20" y1="139" x2="320" y2="139" stroke="#232323" stroke-width="1" />
<line x1="20" y1="109" x2="320" y2="109" stroke="#232323" stroke-width="1" />
<line x1="20" y1="94" x2="320" y2="94" stroke="#3C3C3C" stroke-width="1" />
<line x1="20" y1="79" x2="320" y2="79" stroke="#232323" stroke-width="1" />
<line x1="20" y1="49" x2="320" y2="49" stroke="#232323" stroke-width="1" />
<line x1="169" y1="20" x2="169" y2="170" stroke="#232323" stroke-width="1" />
<polyline points="20,99 20,99 23,104 26,104 29,101 32,99 35,104 38,101 41,96 44,95 47,99 50,96 53,93 56,95 59,92 62,90 65,92 68,92 71,92 74,87 77,86 80,87 83,87 86,88 89,91 92,92 95,92 98,103 101,99 104,107 107,107 110,107 113,103 116,102 119,98 122,92 125,89 128,92 131,90 134,91 137,98 140,90 143,87 146,83 149,82 152,78 155,70 158,69 161,72 164,71 167,69 170,60 173,59 176,60 179,48 182,51 185,46 188,46 191,43 194,39 197,40 200,37 203,34 206,31 209,31 212,30 215,28 218,26 221,25 224,25 227,23 230,24 233,25 236,24 239,24 242,23 245,23 248,23 251,24 254,23 257,23 260,23 263,23 266,23 269,22 272,22 275,22 278,22 281,20 284,20 287,20 290,20 293,20 296,20 299,20 302,20 305,20 308,20 311,20 314,20 317,20" fill="none" stroke="#FFFF00" stroke-width="2" stroke-linejoin="round" />
<circle cx="153" cy="79" r="4" fill="#00FF00" stroke="#FFFFFF" stroke-width="1">
  <title>VolSnap UP (60¢)</title>
</circle>
</svg>