<svg width="340" height="190" xmlns="http://www.w3.org/2000/svg">
<rect width="100%" height="100%" fill="#121212" />
<line x1="20" y1="139" x2="320" y2="139" stroke="#232323" stroke-width="1" />
<line x1="20" y1="109" x2="320" y2="109" stroke="#232323" stroke-width="1" />
<line x1="20" y1="94" x2="320" y2="94" stroke="#3C3C3C" stroke-width="1" />
<line x1="20" y1="79" x2="320" y2="79" stroke="#232323" stroke-width="1" />
<line x1="20" y1="49" x2="320" y2="49" stroke="#232323" stroke-width="1" />
<line x1="169" y1="20" x2="169" y2="170" stroke="#232323" stroke-width="1" />
<polyline points="20,93 22,87 25,75 28,74 31,80 34,92 37,92 40,84 43,75 46,77 49,71 52,69 55,71 58,72 61,87 64,89 67,87 70,88 73,90 76,90 79,88 82,87 85,84 88,75 91,66 94,66 97,61 100,60 103,62 106,52 109,52 112,50 115,50 118,52 121,56 124,58 127,47 130,44 133,52 136,48 139,50 142,53 145,53 148,62 151,65 154,55 157,55 160,52 163,49 166,56 169,56 172,62 175,61 178,77 181,73 184,75 187,69 190,69 193,69 196,66 199,65 202,75 205,73 208,75 211,87 214,84 217,87 220,82 223,81 226,86 229,83 232,81 235,74 238,66 241,57 244,57 247,60 250,68 253,80 256,81 259,78 262,78 265,77 268,77 271,76 274,75 277,77 280,81 283,79 286,77 289,72 292,47 295,46 298,39 301,38 304,34 307,25 310,22 313,20 316,20" fill="none" stroke="#FFFF00" stroke-width="2" stroke-linejoin="round" />
<circle cx="89" cy="78" r="4" fill="#00FF00" stroke="#FFFFFF" stroke-width="1">
  <title>VolSnap UP (61¢)</title>
</circle>
<circle cx="107" cy="55" r="4" fill="#00FF00" stroke="#FFFFFF" stroke-width="1">
  <title>Nitro UP (76¢)</title>
</circle>
</svg>