<svg width="340" height="190" xmlns="http://www.w3.org/2000/svg">
<rect width="100%" height="100%" fill="#121212" />
<line x1="20" y1="139" x2="320" y2="139" stroke="#232323" stroke-width="1" />
<line x1="20" y1="109" x2="320" y2="109" stroke="#232323" stroke-width="1" />
<line x1="20" y1="94" x2="320" y2="94" stroke="#3C3C3C" stroke-width="1" />
<line x1="20" y1="79" x2="320" y2="79" stroke="#232323" stroke-width="1" />
<line x1="20" y1="49" x2="320" y2="49" stroke="#232323" stroke-width="1" />
<line x1="169" y1="20" x2="169" y2="170" stroke="#232323" stroke-width="1" />
<polyline points="20,83 20,83 23,81 26,84 29,92 32,83 35,87 38,89 41,89 44,96 47,96 50,99 53,100 56,104 59,109 62,133 65,139 68,133 71,122 74,129 77,124 80,132 83,134 86,139 89,148 92,152 95,154 98,153 101,156 104,159 107,164 110,162 113,163 116,163 119,163 122,163 125,163 128,164 131,165 134,165 137,164 140,165 143,165 146,163 149,165 152,164 155,165 158,165 161,165 164,166 167,166 170,166 173,166 176,166 179,166 182,167 185,167 188,167 191,167 194,167 197,167 200,167 203,167 206,167 209,167 212,167 215,167 218,167 221,167 224,167 227,167 230,167 233,167 236,167 239,167 242,167 245,167 248,167 251,167 254,167 257,167 260,167 263,167 266,167 269,167 272,167 275,168 278,167 281,168 284,168 287,168 290,168 293,168 296,168 299,168 302,168 305,168 308,168 311,168 314,168 317,168" fill="none" stroke="#FFFF00" stroke-width="2" stroke-linejoin="round" />
<circle cx="60" cy="81" r="4" fill="#FF0000" stroke="#FFFFFF" stroke-width="1">
  <title>MM2 DOWN (59¢)</title>
</circle>
<circle cx="60" cy="81" r="4" fill="#FF0000" stroke="#FFFFFF" stroke-width="1">
  <title>Nitro DOWN (59¢)</title>
</circle>
<circle cx="81" cy="57" r="4" fill="#FF0000" stroke="#FFFFFF" stroke-width="1">
  <title>VolSnap DOWN (75¢)</title>
</circle>
</svg>