<svg width="340" height="190" xmlns="http://www.w3.org/2000/svg">
<rect width="100%" height="100%" fill="#121212" />
<line x1="20" y1="139" x2="320" y2="139" stroke="#232323" stroke-width="1" />
<line x1="20" y1="109" x2="320" y2="109" stroke="#232323" stroke-width="1" />
<line x1="20" y1="94" x2="320" y2="94" stroke="#3C3C3C" stroke-width="1" />
<line x1="20" y1="79" x2="320" y2="79" stroke="#232323" stroke-width="1" />
<line x1="20" y1="49" x2="320" y2="49" stroke="#232323" stroke-width="1" />
<line x1="169" y1="20" x2="169" y2="170" stroke="#232323" stroke-width="1" />
<polyline points="20,98 20,98 23,100 26,98 29,98 32,104 35,105 38,101 41,103 44,105 47,92 50,84 53,87 56,80 59,83 62,83 65,84 68,81 71,78 74,78 77,77 80,87 83,83 86,86 89,93 92,92 95,91 98,87 101,81 104,87 107,89 110,89 113,80 116,70 119,69 122,66 125,67 128,68 131,66 134,72 137,74 140,72 143,71 146,71 149,78 152,108 155,119 158,128 161,110 164,106 167,105 170,106 173,91 176,81 179,89 182,87 185,86 188,84 191,80 194,76 197,74 200,67 203,64 206,61 209,55 212,60 215,61 218,52 221,52 224,50 227,48 230,40 233,35 236,31 239,34 242,26 245,25 248,25 251,25 254,22 257,22 260,23 263,26 266,31 269,29 272,28 275,23 278,23 281,23 284,25 287,28 290,26 293,28 296,28 299,32 302,74 305,84 308,103 311,110 314,159 317,159" fill="none" stroke="#FFFF00" stroke-width="2" stroke-linejoin="round" />
<circle cx="117" cy="70" r="4" fill="#00FF00" stroke="#FFFFFF" stroke-width="1">
  <title>Nitro UP (66¢)</title>
</circle>
<circle cx="117" cy="70" r="4" fill="#00FF00" stroke="#FFFFFF" stroke-width="1">
  <title>VolSnap UP (66¢)</title>
</circle>
<circle cx="156" cy="70" r="4" fill="#FF0000" stroke="#FFFFFF" stroke-width="1">
  <title>MM2 DOWN (66¢)</title>
</circle>
</svg>