<svg width="340" height="190" xmlns="http://www.w3.org/2000/svg">
<rect width="100%" height="100%" fill="#121212" />
<line x1="20" y1="139" x2="320" y2="139" stroke="#232323" stroke-width="1" />
<line x1="20" y1="109" x2="320" y2="109" stroke="#232323" stroke-width="1" />
<line x1="20" y1="94" x2="320" y2="94" stroke="#3C3C3C" stroke-width="1" />
<line x1="20" y1="79" x2="320" y2="79" stroke="#232323" stroke-width="1" />
<line x1="20" y1="49" x2="320" y2="49" stroke="#232323" stroke-width="1" />
<line x1="169" y1="20" x2="169" y2="170" stroke="#232323" stroke-width="1" />
<polyline points="20,86 22,87 25,83 28,84 31,85 34,84 37,84 40,87 43,86 46,110 49,87 52,90 55,93 58,90 61,88 64,85 67,103 70,97 73,94 76,92 79,92 82,98 85,98 88,101 91,101 94,98 97,101 100,94 103,102 106,102 109,107 112,107 115,107 118,101 121,95 124,90 127,84 130,100 133,87 136,83 139,78 142,77 145,76 148,90 151,94 154,89 157,78 160,72 163,65 166,69 169,66 172,69 175,71 178,73 181,72 184,72 187,64 190,67 193,66 196,69 199,63 202,69 205,88 208,95 211,106 214,100 217,76 220,75 223,79 226,79 229,67 232,66 235,63 238,69 241,67 244,69 247,58 250,50 253,43 256,52 259,47 262,39 265,34 268,31 271,27 274,23 277,22 280,23 283,22 286,22 289,30 292,25 295,25 298,60 301,49 304,36 307,29 310,29 313,26 316,20" fill="none" stroke="#FFFF00" stroke-width="2" stroke-linejoin="round" />
<circle cx="110" cy="81" r="4" fill="#FF0000" stroke="#FFFFFF" stroke-width="1">
  <title>MM2 DOWN (59¢)</title>
</circle>
</svg>