<svg width="340" height="190" xmlns="http://www.w3.org/2000/svg">
<rect width="100%" height="100%" fill="#121212" />
<line x1="20" y1="139" x2="320" y2="139" stroke="#232323" stroke-width="1" />
<line x1="20" y1="109" x2="320" y2="109" stroke="#232323" stroke-width="1" />
<line x1="20" y1="94" x2="320" y2="94" stroke="#3C3C3C" stroke-width="1" />
<line x1="20" y1="79" x2="320" y2="79" stroke="#232323" stroke-width="1" />
<line x1="20" y1="49" x2="320" y2="49" stroke="#232323" stroke-width="1" />
<line x1="169" y1="20" x2="169" y2="170" stroke="#232323" stroke-width="1" />
<polyline points="20,87 20,87 23,90 26,93 29,90 32,89 35,84 38,75 41,73 44,69 47,68 50,62 53,63 56,59 59,62 62,61 65,65 68,66 71,72 74,75 77,77 80,78 83,80 86,86 89,84 92,89 95,100 98,106 101,115 104,117 107,121 110,122 113,125 116,117 119,123 122,125 125,116 128,115 131,119 134,119 137,119 140,115 143,110 146,110 149,110 152,113 155,110 158,108 161,104 164,111 167,120 170,129 173,131 176,131 179,126 182,129 185,136 188,141 191,141 194,142 197,144 200,142 203,144 206,145 209,138 212,141 215,138 218,138 221,140 224,143 227,142 230,142 233,145 236,148 239,143 242,142 245,131 248,125 251,119 254,128 257,133 260,131 263,133 266,116 269,125 272,128 275,144 278,148 281,144 284,142 287,136 290,132 293,141 296,156 299,159 302,163 305,165 308,166 311,167 314,167 317,167" fill="none" stroke="#FFFF00" stroke-width="2" stroke-linejoin="round" />
<circle cx="81" cy="76" r="4" fill="#00FF00" stroke="#FFFFFF" stroke-width="1">
  <title>VolSnap UP (62¢)</title>
</circle>
<circle cx="102" cy="73" r="4" fill="#FF0000" stroke="#FFFFFF" stroke-width="1">
  <title>MM2 DOWN (64¢)</title>
</circle>
</svg>