<svg width="340" height="190" xmlns="http://www.w3.org/2000/svg">
<rect width="100%" height="100%" fill="#121212" />
<line x1="20" y1="139" x2="320" y2="139" stroke="#232323" stroke-width="1" />
<line x1="20" y1="109" x2="320" y2="109" stroke="#232323" stroke-width="1" />
<line x1="20" y1="94" x2="320" y2="94" stroke="#3C3C3C" stroke-width="1" />
<line x1="20" y1="79" x2="320" y2="79" stroke="#232323" stroke-width="1" />
<line x1="20" y1="49" x2="320" y2="49" stroke="#232323" stroke-width="1" />
<line x1="169" y1="20" x2="169" y2="170" stroke="#232323" stroke-width="1" />
<polyline points="20,89 20,89 23,77 26,78 29,81 32,85 35,94 38,97 41,93 44,92 47,87 50,90 53,89 56,79 59,83 62,79 65,83 68,90 71,80 74,81 77,74 80,87 83,110 86,119 89,116 92,123 95,120 98,108 101,110 104,95 107,107 110,110 113,113 116,113 119,97 122,100 125,114 128,114 131,104 134,98 137,107 140,110 143,107 146,104 149,115 152,114 155,101 158,102 161,100 164,96 167,93 170,90 173,88 176,75 179,68 182,76 185,71 188,68 191,65 194,77 197,77 200,59 203,47 206,57 209,55 212,53 215,48 218,55 221,53 224,52 227,59 230,75 233,69 236,66 239,67 242,73 245,90 248,84 251,105 254,105 257,101 260,104 263,119 266,116 269,113 272,114 275,102 278,95 281,95 284,90 287,89 290,90 293,75 296,48 299,44 302,38 305,26 308,25 311,22 314,21 317,20" fill="none" stroke="#FFFF00" stroke-width="2" stroke-linejoin="round" />
<circle cx="81" cy="79" r="4" fill="#00FF00" stroke="#FFFFFF" stroke-width="1">
  <title>VolSnap UP (60¢)</title>
</circle>
</svg>