<svg width="340" height="190" xmlns="http://www.w3.org/2000/svg">
<rect width="100%" height="100%" fill="#121212" />
<line x1="20" y1="139" x2="320" y2="139" stroke="#232323" stroke-width="1" />
<line x1="20" y1="109" x2="320" y2="109" stroke="#232323" stroke-width="1" />
<line x1="20" y1="94" x2="320" y2="94" stroke="#3C3C3C" stroke-width="1" />
<line x1="20" y1="79" x2="320" y2="79" stroke="#232323" stroke-width="1" />
<line x1="20" y1="49" x2="320" y2="49" stroke="#232323" stroke-width="1" />
<line x1="169" y1="20" x2="169" y2="170" stroke="#232323" stroke-width="1" />
<polyline points="20,92 20,92 23,89 26,90 29,87 32,89 35,93 38,95 41,96 44,101 47,99 50,96 53,95 56,98 59,101 62,99 65,91 68,89 71,84 74,73 77,73 80,81 83,78 86,81 89,93 92,87 95,93 98,88 101,98 104,98 107,90 110,83 113,93 116,80 119,91 122,90 125,102 128,101 131,95 134,86 137,72 140,73 143,75 146,57 149,52 152,61 155,48 158,43 161,42 164,40 167,37 170,40 173,40 176,38 179,39 182,40 185,35 188,33 191,34 194,35 197,33 200,33 203,38 206,40 209,46 212,50 215,40 218,48 221,58 224,55 227,54 230,49 233,46 236,42 239,38 242,30 245,28 248,28 251,28 254,25 257,25 260,24 263,23 266,23 269,23 272,23 275,22 278,24 281,28 284,26 287,25 290,23 293,22 296,23 299,22 302,20 305,20 308,20 311,20 314,20 317,20" fill="none" stroke="#FFFF00" stroke-width="2" stroke-linejoin="round" />
</svg>