<svg width="340" height="190" xmlns="http://www.w3.org/2000/svg">
<rect width="100%" height="100%" fill="#121212" />
<line x1="20" y1="139" x2="320" y2="139" stroke="#232323" stroke-width="1" />
<line x1="20" y1="109" x2="320" y2="109" stroke="#232323" stroke-width="1" />
<line x1="20" y1="94" x2="320" y2="94" stroke="#3C3C3C" stroke-width="1" />
<line x1="20" y1="79" x2="320" y2="79" stroke="#232323" stroke-width="1" />
<line x1="20" y1="49" x2="320" y2="49" stroke="#232323" stroke-width="1" />
<line x1="169" y1="20" x2="169" y2="170" stroke="#232323" stroke-width="1" />
<polyline points="20,96 21,96 24,99 27,100 30,107 33,116 36,114 39,110 42,107 45,108 48,108 51,110 54,109 57,110 60,98 63,103 66,105 69,104 72,111 75,108 78,108 81,102 84,95 87,90 90,82 93,75 96,78 99,81 102,83 105,83 108,83 111,90 114,88 117,92 120,93 123,92 126,92 129,95 132,88 135,78 138,80 141,84 144,85 147,83 150,84 153,86 156,98 159,102 162,102 165,99 168,99 171,100 174,101 177,101 180,101 183,101 186,91 189,80 192,80 195,84 198,90 201,100 204,103 207,93 210,92 213,87 216,95 219,98 222,92 225,83 228,84 231,84 234,87 237,90 240,95 243,138 246,145 249,146 252,146 255,142 258,139 261,142 264,143 267,147 270,145 273,147 276,139 279,142 282,145 285,147 288,150 291,152 294,155 297,150 300,150 303,159 306,160 309,160 312,164 315,167 318,167" fill="none" stroke="#FFFF00" stroke-width="2" stroke-linejoin="round" />
<circle cx="244" cy="51" r="4" fill="#FF0000" stroke="#FFFFFF" stroke-width="1">
  <title>VolSnap DOWN (79¢)</title>
</circle>
</svg>