<svg width="340" height="190" xmlns="http://www.w3.org/2000/svg">
<rect width="100%" height="100%" fill="#121212" />
<line x1="20" y1="139" x2="320" y2="139" stroke="#232323" stroke-width="1" />
<line x1="20" y1="109" x2="320" y2="109" stroke="#232323" stroke-width="1" />
<line x1="20" y1="94" x2="320" y2="94" stroke="#3C3C3C" stroke-width="1" />
<line x1="20" y1="79" x2="320" y2="79" stroke="#232323" stroke-width="1" />
<line x1="20" y1="49" x2="320" y2="49" stroke="#232323" stroke-width="1" />
<line x1="169" y1="20" x2="169" y2="170" stroke="#232323" stroke-width="1" />
<polyline points="20,95 20,95 23,90 26,72 29,73 32,74 35,75 38,75 41,72 44,75 47,74 50,81 53,74 56,72 59,71 62,66 65,62 68,59 71,50 74,57 77,56 80,56 83,57 86,56 89,56 92,57 95,63 98,60 101,60 104,57 107,59 110,75 113,79 116,74 119,67 122,80 125,78 128,78 131,77 134,98 137,98 140,108 143,102 146,103 149,99 152,105 155,106 158,108 161,110 164,107 167,113 170,115 173,116 176,114 179,99 182,101 185,93 188,109 191,104 194,109 197,113 200,128 203,123 206,116 209,131 212,119 215,136 218,137 221,136 224,133 227,136 230,142 233,137 236,146 239,147 242,149 245,142 248,143 251,144 254,138 257,160 260,163 263,165 266,167 269,167 272,167 275,167 278,167 281,167 284,167 287,167 290,167 293,167 296,167 299,167 302,167 305,166 308,167 311,167 314,167 317,167" fill="none" stroke="#FFFF00" stroke-width="2" stroke-linejoin="round" />
<circle cx="30" cy="75" r="4" fill="#00FF00" stroke="#FFFFFF" stroke-width="1">
  <title>Nitro UP (63¢)</title>
</circle>
<circle cx="81" cy="57" r="4" fill="#00FF00" stroke="#FFFFFF" stroke-width="1">
  <title>VolSnap UP (75¢)</title>
</circle>
</svg>