<svg width="340" height="190" xmlns="http://www.w3.org/2000/svg">
<rect width="100%" height="100%" fill="#121212" />
<line x1="20" y1="139" x2="320" y2="139" stroke="#232323" stroke-width="1" />
<line x1="20" y1="109" x2="320" y2="109" stroke="#232323" stroke-width="1" />
<line x1="20" y1="94" x2="320" y2="94" stroke="#3C3C3C" stroke-width="1" />
<line x1="20" y1="79" x2="320" y2="79" stroke="#232323" stroke-width="1" />
<line x1="20" y1="49" x2="320" y2="49" stroke="#232323" stroke-width="1" />
<line x1="169" y1="20" x2="169" y2="170" stroke="#232323" stroke-width="1" />
<polyline points="20,113 21,113 24,110 27,103 30,98 33,100 36,107 39,100 42,92 45,93 48,83 51,71 54,78 57,84 60,87 63,92 66,98 69,109 72,119 75,120 78,124 81,122 84,105 87,95 90,87 93,90 96,95 99,93 102,101 105,101 108,104 111,110 114,111 117,112 120,103 123,105 126,104 129,102 132,89 135,87 138,93 141,102 144,104 147,105 150,111 153,98 156,90 159,95 162,101 165,108 168,105 171,107 174,98 177,100 180,98 183,93 186,96 189,107 192,101 195,101 198,98 201,84 204,84 207,84 210,87 213,98 216,100 219,96 222,87 225,78 228,70 231,51 234,48 237,47 240,49 243,51 246,49 249,44 252,47 255,55 258,52 261,48 264,69 267,75 270,78 273,74 276,60 279,63 282,61 285,60 288,40 291,46 294,31 297,28 300,34 303,22 306,24 309,22 312,20 315,20 318,20" fill="none" stroke="#FFFF00" stroke-width="2" stroke-linejoin="round" />
<circle cx="226" cy="79" r="4" fill="#00FF00" stroke="#FFFFFF" stroke-width="1">
  <title>VolSnap UP (60¢)</title>
</circle>
</svg>