<svg width="340" height="190" xmlns="http://www.w3.org/2000/svg">
<rect width="100%" height="100%" fill="#121212" />
<line x1="20" y1="139" x2="320" y2="139" stroke="#232323" stroke-width="1" />
<line x1="20" y1="109" x2="320" y2="109" stroke="#232323" stroke-width="1" />
<line x1="20" y1="94" x2="320" y2="94" stroke="#3C3C3C" stroke-width="1" />
<line x1="20" y1="79" x2="320" y2="79" stroke="#232323" stroke-width="1" />
<line x1="20" y1="49" x2="320" y2="49" stroke="#232323" stroke-width="1" />
<line x1="169" y1="20" x2="169" y2="170" stroke="#232323" stroke-width="1" />
<polyline points="20,98 21,98 25,95 28,93 31,99 34,103 37,111 40,100 43,99 46,108 49,90 52,90 55,87 58,80 61,95 64,104 67,105 70,108 73,116 76,118 79,119 82,124 85,124 88,125 91,134 94,133 97,131 100,131 103,135 106,140 109,141 112,127 115,134 118,141 121,142 124,139 127,142 130,145 133,145 136,144 139,145 142,142 145,141 148,140 151,142 154,141 157,136 160,131 163,129 166,139 169,143 172,143 175,142 178,144 181,141 184,141 187,147 190,150 193,150 196,151 199,151 202,148 205,154 208,157 211,155 214,148 217,153 220,157 223,158 226,160 229,160 232,162 235,163 238,166 241,166 244,166 247,166 250,165 253,166 256,165 259,165 262,167 265,167 268,167 271,167 274,167 277,167 280,167 283,167 286,167 289,167 292,167 295,167 298,167 301,167 304,167 307,167 310,167 313,167 316,167" fill="none" stroke="#FFFF00" stroke-width="2" stroke-linejoin="round" />
<circle cx="38" cy="76" r="4" fill="#FF0000" stroke="#FFFFFF" stroke-width="1">
  <title>Briefing DOWN (62¢)</title>
</circle>
<circle cx="92" cy="54" r="4" fill="#FF0000" stroke="#FFFFFF" stroke-width="1">
  <title>Nitro DOWN (77¢)</title>
</circle>
</svg>