<svg width="340" height="190" xmlns="http://www.w3.org/2000/svg">
<rect width="100%" height="100%" fill="#121212" />
<line x1="20" y1="139" x2="320" y2="139" stroke="#232323" stroke-width="1" />
<line x1="20" y1="109" x2="320" y2="109" stroke="#232323" stroke-width="1" />
<line x1="20" y1="94" x2="320" y2="94" stroke="#3C3C3C" stroke-width="1" />
<line x1="20" y1="79" x2="320" y2="79" stroke="#232323" stroke-width="1" />
<line x1="20" y1="49" x2="320" y2="49" stroke="#232323" stroke-width="1" />
<line x1="169" y1="20" x2="169" y2="170" stroke="#232323" stroke-width="1" />
<polyline points="20,92 21,92 26,92 29,101 33,111 36,107 39,100 42,90 45,90 48,91 51,101 54,105 57,105 60,107 63,107 66,107 69,107 72,107 75,109 78,107 81,113 84,114 87,114 90,114 93,128 96,127 99,125 102,126 105,127 108,125 111,127 114,128 117,131 120,131 123,131 126,136 129,134 132,136 135,135 138,129 141,117 144,130 147,125 150,126 153,139 156,137 159,129 162,132 165,136 168,129 171,116 174,131 177,128 180,140 183,139 186,138 189,139 192,139 195,140 198,140 201,135 204,139 207,143 210,148 213,151 216,156 219,160 222,163 225,164 228,162 231,160 234,160 237,164 240,165 243,164 246,162 249,161 252,163 255,163 258,163 261,164 264,166 267,167 270,167 273,167 276,167 279,167 282,167 285,167 288,167 291,167 294,167 297,167 300,167 303,167 306,167 309,167 312,167 315,167 318,167" fill="none" stroke="#FFFF00" stroke-width="2" stroke-linejoin="round" />
</svg>