<svg width="340" height="190" xmlns="http://www.w3.org/2000/svg">
<rect width="100%" height="100%" fill="#121212" />
<line x1="20" y1="139" x2="320" y2="139" stroke="#232323" stroke-width="1" />
<line x1="20" y1="109" x2="320" y2="109" stroke="#232323" stroke-width="1" />
<line x1="20" y1="94" x2="320" y2="94" stroke="#3C3C3C" stroke-width="1" />
<line x1="20" y1="79" x2="320" y2="79" stroke="#232323" stroke-width="1" />
<line x1="20" y1="49" x2="320" y2="49" stroke="#232323" stroke-width="1" />
<line x1="169" y1="20" x2="169" y2="170" stroke="#232323" stroke-width="1" />
<polyline points="20,95 22,93 25,93 28,93 31,101 34,104 37,90 40,76 43,73 46,69 49,72 52,75 55,89 58,88 61,97 64,96 67,86 70,84 73,84 76,72 79,66 82,54 85,55 88,66 91,74 94,93 97,96 100,93 103,93 106,90 109,87 112,78 115,72 118,72 121,76 124,78 128,75 131,75 134,74 137,68 140,51 143,60 146,72 149,72 152,75 155,70 158,69 161,85 164,84 167,69 170,55 173,56 176,56 179,51 182,52 185,49 188,43 191,50 194,55 197,53 200,53 203,59 206,59 209,60 212,60 215,63 218,63 221,62 224,62 227,78 230,80 233,92 236,90 239,90 242,92 245,95 248,119 251,129 254,142 257,145 260,143 263,145 266,137 269,147 272,147 275,153 278,153 281,155 284,160 287,159 290,164 293,165 296,166 299,167 302,167 305,167 308,167 311,167 314,167 317,167" fill="none" stroke="#FFFF00" stroke-width="2" stroke-linejoin="round" />
</svg>