<svg width="340" height="190" xmlns="http://www.w3.org/2000/svg">
<rect width="100%" height="100%" fill="#121212" />
<line x1="20" y1="139" x2="320" y2="139" stroke="#232323" stroke-width="1" />
<line x1="20" y1="109" x2="320" y2="109" stroke="#232323" stroke-width="1" />
<line x1="20" y1="94" x2="320" y2="94" stroke="#3C3C3C" stroke-width="1" />
<line x1="20" y1="79" x2="320" y2="79" stroke="#232323" stroke-width="1" />
<line x1="20" y1="49" x2="320" y2="49" stroke="#232323" stroke-width="1" />
<line x1="169" y1="20" x2="169" y2="170" stroke="#232323" stroke-width="1" />
<polyline points="20,87 20,87 23,87 26,87 29,92 32,91 35,92 38,93 41,95 44,98 47,102 50,104 53,105 56,110 59,113 62,114 65,116 68,116 71,113 74,119 77,118 80,120 83,123 86,125 89,122 92,128 95,129 98,125 101,123 104,122 107,125 110,128 113,127 116,128 119,128 122,128 125,132 128,138 131,137 134,133 137,123 140,113 143,110 146,102 149,96 152,97 155,98 158,104 161,104 164,103 167,107 170,105 173,101 176,104 179,101 182,99 185,98 188,102 191,94 194,94 197,87 200,81 203,75 206,81 209,78 212,78 215,84 218,80 221,66 224,63 227,52 230,39 233,34 236,30 239,26 242,25 245,23 248,23 251,22 254,22 257,22 260,20 263,20 266,20 269,20 272,20 275,20 278,20 281,20 284,20 287,20 290,20 293,20 296,20 299,20 302,20 305,20 308,20 311,20 314,20 317,20" fill="none" stroke="#FFFF00" stroke-width="2" stroke-linejoin="round" />
<circle cx="57" cy="76" r="4" fill="#FF0000" stroke="#FFFFFF" stroke-width="1">
  <title>MM2 DOWN (62¢)</title>
</circle>
<circle cx="81" cy="69" r="4" fill="#FF0000" stroke="#FFFFFF" stroke-width="1">
  <title>Nitro DOWN (67¢)</title>
</circle>
<circle cx="81" cy="69" r="4" fill="#FF0000" stroke="#FFFFFF" stroke-width="1">
  <title>VolSnap DOWN (67¢)</title>
</circle>
</svg>