<svg width="340" height="190" xmlns="http://www.w3.org/2000/svg">
<rect width="100%" height="100%" fill="#121212" />
<line x1="20" y1="139" x2="320" y2="139" stroke="#232323" stroke-width="1" />
<line x1="20" y1="109" x2="320" y2="109" stroke="#232323" stroke-width="1" />
<line x1="20" y1="94" x2="320" y2="94" stroke="#3C3C3C" stroke-width="1" />
<line x1="20" y1="79" x2="320" y2="79" stroke="#232323" stroke-width="1" />
<line x1="20" y1="49" x2="320" y2="49" stroke="#232323" stroke-width="1" />
<line x1="169" y1="20" x2="169" y2="170" stroke="#232323" stroke-width="1" />
<polyline points="20,84 20,84 23,84 26,78 29,74 32,70 35,65 38,59 41,53 44,52 47,47 50,49 53,45 56,47 59,52 62,49 65,48 68,47 71,47 74,49 77,43 80,52 83,49 86,49 89,43 92,47 95,44 98,42 101,37 104,35 107,35 110,31 113,30 116,30 119,29 122,29 125,30 128,32 131,31 134,31 137,32 140,29 143,28 146,28 149,29 152,31 155,31 158,29 161,28 164,28 167,28 170,28 173,28 176,26 179,26 182,25 185,25 188,24 191,23 194,22 197,22 200,22 203,22 206,20 209,22 212,20 215,20 218,20 221,20 224,20 227,20 230,20 233,20 236,20 239,20 242,20 245,20 248,20 251,20 254,20 257,20 260,20 263,20 266,20 269,20 272,20 275,20 278,20 281,20 284,20 287,20 290,20 293,20 296,20 299,20 302,20 305,20 308,20 311,20 314,20 317,20" fill="none" stroke="#FFFF00" stroke-width="2" stroke-linejoin="round" />
<circle cx="30" cy="75" r="4" fill="#00FF00" stroke="#FFFFFF" stroke-width="1">
  <title>WCP UP (63¢)</title>
</circle>
<circle cx="42" cy="54" r="4" fill="#00FF00" stroke="#FFFFFF" stroke-width="1">
  <title>Nitro UP (77¢)</title>
</circle>
<circle cx="81" cy="51" r="4" fill="#00FF00" stroke="#FFFFFF" stroke-width="1">
  <title>VolSnap UP (79¢)</title>
</circle>
</svg>