<svg width="340" height="190" xmlns="http://www.w3.org/2000/svg">
<rect width="100%" height="100%" fill="#121212" />
<line x1="20" y1="139" x2="320" y2="139" stroke="#232323" stroke-width="1" />
<line x1="20" y1="109" x2="320" y2="109" stroke="#232323" stroke-width="1" />
<line x1="20" y1="94" x2="320" y2="94" stroke="#3C3C3C" stroke-width="1" />
<line x1="20" y1="79" x2="320" y2="79" stroke="#232323" stroke-width="1" />
<line x1="20" y1="49" x2="320" y2="49" stroke="#232323" stroke-width="1" />
<line x1="169" y1="20" x2="169" y2="170" stroke="#232323" stroke-width="1" />
<polyline points="20,93 20,93 24,95 27,93 30,93 33,87 36,86 39,93 42,88 45,81 48,81 51,79 54,77 57,77 60,77 63,72 66,63 69,69 72,71 75,68 78,65 81,72 84,65 87,57 90,52 93,51 96,50 99,56 102,63 105,72 108,75 111,72 114,71 117,67 120,69 123,68 126,63 129,64 132,62 135,59 138,53 141,49 144,41 147,40 150,38 153,44 156,49 159,52 162,52 165,51 168,48 171,47 174,50 177,57 180,63 183,67 186,71 189,83 192,86 195,100 198,102 201,107 204,111 207,115 210,115 213,117 216,115 219,125 222,129 225,143 228,137 231,148 234,150 237,149 240,150 243,154 246,156 249,151 252,154 255,154 258,155 261,159 264,157 267,157 270,165 273,163 276,159 279,141 282,136 285,131 288,128 291,133 294,125 297,101 300,113 303,128 306,149 309,156 312,163 315,167 318,167" fill="none" stroke="#FFFF00" stroke-width="2" stroke-linejoin="round" />
<circle cx="82" cy="75" r="4" fill="#00FF00" stroke="#FFFFFF" stroke-width="1">
  <title>VolSnap UP (63¢)</title>
</circle>
<circle cx="88" cy="58" r="4" fill="#00FF00" stroke="#FFFFFF" stroke-width="1">
  <title>Nitro UP (74¢)</title>
</circle>
<circle cx="205" cy="78" r="4" fill="#FF0000" stroke="#FFFFFF" stroke-width="1">
  <title>MM2 DOWN (61¢)</title>
</circle>
</svg>