<svg width="340" height="190" xmlns="http://www.w3.org/2000/svg">
<rect width="100%" height="100%" fill="#121212" />
<line x1="20" y1="139" x2="320" y2="139" stroke="#232323" stroke-width="1" />
<line x1="20" y1="109" x2="320" y2="109" stroke="#232323" stroke-width="1" />
<line x1="20" y1="94" x2="320" y2="94" stroke="#3C3C3C" stroke-width="1" />
<line x1="20" y1="79" x2="320" y2="79" stroke="#232323" stroke-width="1" />
<line x1="20" y1="49" x2="320" y2="49" stroke="#232323" stroke-width="1" />
<line x1="169" y1="20" x2="169" y2="170" stroke="#232323" stroke-width="1" />
<polyline points="20,88 20,88 23,86 26,80 29,78 32,77 35,78 38,87 41,93 44,95 47,100 50,104 53,111 56,107 59,111 62,113 65,111 68,113 71,114 74,115 77,112 80,110 83,103 86,101 89,91 92,84 95,85 98,77 101,84 104,91 107,98 110,99 113,102 116,94 119,104 122,107 125,110 128,117 131,123 134,119 137,119 140,110 143,105 146,114 149,112 152,112 155,108 158,118 161,122 164,116 167,113 170,114 173,116 176,123 179,122 182,121 185,116 188,108 191,108 194,112 197,107 200,116 203,117 206,113 209,114 212,118 215,109 218,108 221,106 224,104 227,105 230,116 233,125 236,116 239,127 242,129 245,132 248,136 251,148 254,150 257,157 260,160 263,165 266,166 269,167 272,167 275,166 278,167 281,167 284,167 287,167 290,167 293,167 296,167 299,167 302,167 305,167 308,167 311,167 314,167 317,167" fill="none" stroke="#FFFF00" stroke-width="2" stroke-linejoin="round" />
<circle cx="54" cy="78" r="4" fill="#FF0000" stroke="#FFFFFF" stroke-width="1">
  <title>MM2 DOWN (61¢)</title>
</circle>
<circle cx="81" cy="79" r="4" fill="#FF0000" stroke="#FFFFFF" stroke-width="1">
  <title>VolSnap DOWN (60¢)</title>
</circle>
</svg>