<svg width="340" height="190" xmlns="http://www.w3.org/2000/svg">
<rect width="100%" height="100%" fill="#121212" />
<line x1="20" y1="139" x2="320" y2="139" stroke="#232323" stroke-width="1" />
<line x1="20" y1="109" x2="320" y2="109" stroke="#232323" stroke-width="1" />
<line x1="20" y1="94" x2="320" y2="94" stroke="#3C3C3C" stroke-width="1" />
<line x1="20" y1="79" x2="320" y2="79" stroke="#232323" stroke-width="1" />
<line x1="20" y1="49" x2="320" y2="49" stroke="#232323" stroke-width="1" />
<line x1="169" y1="20" x2="169" y2="170" stroke="#232323" stroke-width="1" />
<polyline points="20,93 20,93 24,95 27,93 30,90 33,92 36,93 39,101 42,103 45,99 48,87 51,87 54,84 57,75 60,78 63,78 66,80 69,81 72,76 75,75 78,81 81,75 84,74 87,73 90,72 93,75 96,75 99,74 102,74 105,74 108,62 111,51 114,44 117,42 120,37 123,38 126,45 129,44 132,44 135,42 138,46 141,36 144,34 147,35 150,29 153,29 156,28 159,28 162,28 165,28 168,26 171,25 174,24 177,23 180,23 183,22 186,22 189,22 192,22 195,22 198,23 201,23 204,23 207,23 210,25 213,25 216,25 219,25 222,25 225,28 228,28 231,29 234,36 237,31 240,28 243,32 246,32 249,26 252,26 255,26 258,24 261,23 264,24 267,23 270,23 273,23 276,23 279,22 282,22 285,20 288,20 291,20 294,20 297,21 300,22 303,22 306,22 309,22 312,20 315,20 318,20" fill="none" stroke="#FFFF00" stroke-width="2" stroke-linejoin="round" />
</svg>