<svg width="340" height="190" xmlns="http://www.w3.org/2000/svg">
<rect width="100%" height="100%" fill="#121212" />
<line x1="20" y1="139" x2="320" y2="139" stroke="#232323" stroke-width="1" />
<line x1="20" y1="109" x2="320" y2="109" stroke="#232323" stroke-width="1" />
<line x1="20" y1="94" x2="320" y2="94" stroke="#3C3C3C" stroke-width="1" />
<line x1="20" y1="79" x2="320" y2="79" stroke="#232323" stroke-width="1" />
<line x1="20" y1="49" x2="320" y2="49" stroke="#232323" stroke-width="1" />
<line x1="169" y1="20" x2="169" y2="170" stroke="#232323" stroke-width="1" />
<polyline points="20,104 21,104 24,116 27,113 30,104 33,105 36,113 39,116 42,120 45,120 48,119 51,114 54,114 57,116 60,113 63,109 66,110 69,114 72,114 75,108 78,108 81,117 84,131 87,136 90,126 93,132 96,136 99,133 102,134 105,134 108,131 111,131 114,138 117,141 120,143 123,147 126,147 129,147 132,148 135,149 138,149 141,151 144,153 147,149 150,153 153,156 156,155 159,157 162,159 165,163 168,165 171,165 174,165 177,165 180,165 183,163 186,163 189,165 192,165 195,165 198,166 201,166 204,166 207,167 210,167 213,167 216,167 219,167 222,167 225,167 228,167 231,167 234,167 237,167 240,167 243,167 246,167 249,167 252,167 255,167 258,167 261,167 264,167 267,167 270,167 273,167 276,168 279,167 282,168 285,168 288,168 291,168 294,168 297,168 300,168 303,168 306,168 309,168 312,168 315,168 318,168" fill="none" stroke="#FFFF00" stroke-width="2" stroke-linejoin="round" />
<circle cx="37" cy="79" r="4" fill="#FF0000" stroke="#FFFFFF" stroke-width="1">
  <title>MM2 DOWN (60¢)</title>
</circle>
<circle cx="82" cy="72" r="4" fill="#FF0000" stroke="#FFFFFF" stroke-width="1">
  <title>VolSnap DOWN (65¢)</title>
</circle>
</svg>