<svg width="340" height="190" xmlns="http://www.w3.org/2000/svg">
<rect width="100%" height="100%" fill="#121212" />
<line x1="20" y1="139" x2="320" y2="139" stroke="#232323" stroke-width="1" />
<line x1="20" y1="109" x2="320" y2="109" stroke="#232323" stroke-width="1" />
<line x1="20" y1="94" x2="320" y2="94" stroke="#3C3C3C" stroke-width="1" />
<line x1="20" y1="79" x2="320" y2="79" stroke="#232323" stroke-width="1" />
<line x1="20" y1="49" x2="320" y2="49" stroke="#232323" stroke-width="1" />
<line x1="169" y1="20" x2="169" y2="170" stroke="#232323" stroke-width="1" />
<polyline points="20,93 22,98 25,110 28,108 31,112 34,113 37,116 40,112 43,119 46,122 49,114 52,122 55,126 58,127 61,135 64,141 67,139 70,135 73,138 76,133 79,126 82,128 85,133 88,130 91,128 94,135 97,139 100,135 103,136 106,134 109,130 112,112 115,112 118,116 121,125 124,121 127,122 130,135 133,131 136,138 139,145 142,145 145,136 148,139 151,141 154,139 157,133 160,121 163,129 166,134 169,133 172,132 175,131 178,138 181,136 184,132 187,132 190,128 193,133 196,139 199,142 202,145 205,140 208,133 211,132 214,125 217,116 220,105 223,116 226,116 229,114 232,121 235,119 238,123 241,122 244,111 247,122 250,114 253,121 256,129 259,129 262,118 265,109 268,118 271,112 274,101 277,91 280,90 283,78 286,78 289,82 292,91 295,73 298,70 301,58 304,31 307,25 310,20 313,20 316,20" fill="none" stroke="#FFFF00" stroke-width="2" stroke-linejoin="round" />
<circle cx="32" cy="78" r="4" fill="#FF0000" stroke="#FFFFFF" stroke-width="1">
  <title>MM2 DOWN (61¢)</title>
</circle>
<circle cx="83" cy="60" r="4" fill="#FF0000" stroke="#FFFFFF" stroke-width="1">
  <title>VolSnap DOWN (73¢)</title>
</circle>
</svg>