<svg width="340" height="190" xmlns="http://www.w3.org/2000/svg">
<rect width="100%" height="100%" fill="#121212" />
<line x1="20" y1="139" x2="320" y2="139" stroke="#232323" stroke-width="1" />
<line x1="20" y1="109" x2="320" y2="109" stroke="#232323" stroke-width="1" />
<line x1="20" y1="94" x2="320" y2="94" stroke="#3C3C3C" stroke-width="1" />
<line x1="20" y1="79" x2="320" y2="79" stroke="#232323" stroke-width="1" />
<line x1="20" y1="49" x2="320" y2="49" stroke="#232323" stroke-width="1" />
<line x1="169" y1="20" x2="169" y2="170" stroke="#232323" stroke-width="1" />
<polyline points="20,96 22,87 25,84 28,90 31,84 34,81 37,72 40,71 43,75 46,74 49,74 52,75 55,77 58,76 61,73 64,72 67,72 70,71 73,71 76,71 79,73 82,92 85,92 88,98 91,99 94,99 97,99 100,87 103,91 106,99 109,101 112,107 115,118 118,119 121,117 124,114 127,113 130,113 133,114 136,108 139,120 142,120 145,104 148,98 151,97 154,97 157,92 160,90 163,82 166,82 169,80 172,81 175,80 178,80 181,80 184,72 187,75 190,98 193,95 196,89 199,95 202,94 205,94 208,95 211,101 214,104 217,103 220,102 223,102 226,99 229,109 232,108 235,115 238,119 241,126 244,125 247,125 250,128 253,125 256,106 259,95 262,96 265,90 268,90 271,94 274,94 277,90 280,69 283,80 286,87 289,89 292,96 295,93 298,92 301,95 304,104 307,100 310,122 313,135 316,143" fill="none" stroke="#FFFF00" stroke-width="2" stroke-linejoin="round" />
<circle cx="116" cy="73" r="4" fill="#FF0000" stroke="#FFFFFF" stroke-width="1">
  <title>WCP DOWN (64¢)</title>
</circle>
<circle cx="116" cy="73" r="4" fill="#FF0000" stroke="#FFFFFF" stroke-width="1">
  <title>Nitro DOWN (64¢)</title>
</circle>
</svg>