<svg width="340" height="190" xmlns="http://www.w3.org/2000/svg">
<rect width="100%" height="100%" fill="#121212" />
<line x1="20" y1="139" x2="320" y2="139" stroke="#232323" stroke-width="1" />
<line x1="20" y1="109" x2="320" y2="109" stroke="#232323" stroke-width="1" />
<line x1="20" y1="94" x2="320" y2="94" stroke="#3C3C3C" stroke-width="1" />
<line x1="20" y1="79" x2="320" y2="79" stroke="#232323" stroke-width="1" />
<line x1="20" y1="49" x2="320" y2="49" stroke="#232323" stroke-width="1" />
<line x1="169" y1="20" x2="169" y2="170" stroke="#232323" stroke-width="1" />
<polyline points="20,92 20,92 23,90 26,90 29,87 32,78 35,81 38,81 41,81 44,78 47,79 50,81 53,84 56,83 59,81 62,81 65,83 68,84 71,81 74,76 77,74 80,78 83,80 86,80 89,80 92,76 95,74 98,75 101,69 104,66 107,66 110,72 113,73 116,68 119,74 122,74 125,72 128,73 131,74 134,71 137,71 140,83 143,107 146,115 149,111 152,105 155,90 158,109 161,111 164,122 167,124 170,123 173,123 176,121 179,122 182,119 185,120 188,126 191,125 194,125 197,119 200,128 203,128 206,128 209,131 212,123 215,119 218,120 221,129 224,129 227,121 230,110 233,132 236,133 239,134 242,133 245,136 248,133 251,136 254,139 257,142 260,148 263,161 266,166 269,167 272,167 275,167 278,167 281,167 284,167 287,167 290,167 293,167 296,167 299,167 302,167 305,167 308,167 311,167 314,167 317,167" fill="none" stroke="#FFFF00" stroke-width="2" stroke-linejoin="round" />
</svg>