<svg width="340" height="190" xmlns="http://www.w3.org/2000/svg">
<rect width="100%" height="100%" fill="#121212" />
<line x1="20" y1="139" x2="320" y2="139" stroke="#232323" stroke-width="1" />
<line x1="20" y1="109" x2="320" y2="109" stroke="#232323" stroke-width="1" />
<line x1="20" y1="94" x2="320" y2="94" stroke="#3C3C3C" stroke-width="1" />
<line x1="20" y1="79" x2="320" y2="79" stroke="#232323" stroke-width="1" />
<line x1="20" y1="49" x2="320" y2="49" stroke="#232323" stroke-width="1" />
<line x1="169" y1="20" x2="169" y2="170" stroke="#232323" stroke-width="1" />
<polyline points="20,87 21,87 24,82 27,76 30,74 33,74 36,78 39,89 42,90 45,98 48,99 51,99 54,103 57,113 60,119 63,120 66,120 69,128 72,136 75,138 78,138 81,136 84,133 87,125 90,120 93,117 96,117 99,113 102,116 105,101 108,87 111,89 114,89 117,83 120,84 123,86 126,72 129,66 132,62 135,48 138,61 141,63 144,64 147,75 150,67 153,60 156,57 159,54 162,54 165,52 168,53 171,63 174,58 177,52 180,40 183,34 186,34 189,33 192,35 195,36 198,35 201,35 204,39 207,37 210,37 213,40 216,40 219,41 222,46 225,44 228,44 231,49 234,47 237,43 240,47 243,51 246,47 249,60 252,57 255,55 258,58 261,69 264,58 267,52 270,50 273,48 276,44 279,66 282,62 285,63 288,63 291,44 294,28 297,28 300,27 303,64 306,63 309,57 312,50 315,49 318,21" fill="none" stroke="#FFFF00" stroke-width="2" stroke-linejoin="round" />
<circle cx="58" cy="76" r="4" fill="#FF0000" stroke="#FFFFFF" stroke-width="1">
  <title>WCP DOWN (62¢)</title>
</circle>
<circle cx="79" cy="51" r="4" fill="#FF0000" stroke="#FFFFFF" stroke-width="1">
  <title>Nitro DOWN (79¢)</title>
</circle>
<circle cx="82" cy="52" r="4" fill="#FF0000" stroke="#FFFFFF" stroke-width="1">
  <title>VolSnap DOWN (78¢)</title>
</circle>
</svg>