<svg width="340" height="190" xmlns="http://www.w3.org/2000/svg">
<rect width="100%" height="100%" fill="#121212" />
<line x1="20" y1="139" x2="320" y2="139" stroke="#232323" stroke-width="1" />
<line x1="20" y1="109" x2="320" y2="109" stroke="#232323" stroke-width="1" />
<line x1="20" y1="94" x2="320" y2="94" stroke="#3C3C3C" stroke-width="1" />
<line x1="20" y1="79" x2="320" y2="79" stroke="#232323" stroke-width="1" />
<line x1="20" y1="49" x2="320" y2="49" stroke="#232323" stroke-width="1" />
<line x1="169" y1="20" x2="169" y2="170" stroke="#232323" stroke-width="1" />
<polyline points="20,100 22,94 25,96 28,95 31,92 34,95 37,92 40,91 43,90 46,90 49,101 52,99 55,101 58,107 61,108 64,108 67,107 70,109 73,116 76,115 79,113 82,120 85,126 88,136 91,135 94,136 97,138 100,135 103,132 106,138 109,134 112,136 115,139 118,139 121,134 125,133 128,138 131,136 134,132 137,131 140,125 143,120 146,119 149,119 152,116 155,116 158,115 161,109 164,107 167,105 170,113 174,116 177,117 180,116 183,107 186,103 189,100 192,102 195,101 198,96 201,92 204,95 207,90 210,93 213,98 216,98 219,95 222,90 225,97 228,93 231,90 234,92 237,104 240,119 243,117 246,100 249,103 252,108 255,110 258,107 261,104 264,108 267,94 270,95 273,107 276,113 279,108 282,95 285,91 288,105 291,114 294,132 297,119 300,126 303,122 306,125 309,108 312,129 315,142 318,167" fill="none" stroke="#FFFF00" stroke-width="2" stroke-linejoin="round" />
<circle cx="62" cy="81" r="4" fill="#FF0000" stroke="#FFFFFF" stroke-width="1">
  <title>MM2 DOWN (59¢)</title>
</circle>
<circle cx="83" cy="70" r="4" fill="#FF0000" stroke="#FFFFFF" stroke-width="1">
  <title>VolSnap DOWN (66¢)</title>
</circle>
</svg>