<svg width="340" height="190" xmlns="http://www.w3.org/2000/svg">
<rect width="100%" height="100%" fill="#121212" />
<line x1="20" y1="139" x2="320" y2="139" stroke="#232323" stroke-width="1" />
<line x1="20" y1="109" x2="320" y2="109" stroke="#232323" stroke-width="1" />
<line x1="20" y1="94" x2="320" y2="94" stroke="#3C3C3C" stroke-width="1" />
<line x1="20" y1="79" x2="320" y2="79" stroke="#232323" stroke-width="1" />
<line x1="20" y1="49" x2="320" y2="49" stroke="#232323" stroke-width="1" />
<line x1="169" y1="20" x2="169" y2="170" stroke="#232323" stroke-width="1" />
<polyline points="20,96 21,96 24,107 27,111 30,113 33,116 36,110 39,111 42,114 45,110 48,110 51,98 54,104 57,105 60,98 63,98 66,100 69,101 72,95 75,95 78,87 81,98 84,96 87,98 90,98 93,104 96,111 99,117 102,116 105,106 108,108 111,113 114,113 117,113 120,113 124,116 127,117 130,117 133,115 136,136 139,145 142,141 145,135 148,139 151,137 154,132 157,139 160,146 163,140 166,139 169,137 172,132 175,126 178,128 181,123 184,128 187,126 190,128 193,121 196,119 199,117 202,105 205,94 208,86 211,81 214,89 217,64 220,64 223,49 226,41 229,34 232,37 235,34 238,51 241,51 244,50 247,59 250,61 253,52 256,40 259,39 262,41 265,65 268,69 271,68 274,72 277,76 280,75 283,74 286,75 289,75 292,71 295,68 298,64 301,79 304,72 307,78 310,87 313,107 316,112" fill="none" stroke="#FFFF00" stroke-width="2" stroke-linejoin="round" />
</svg>