<svg width="340" height="190" xmlns="http://www.w3.org/2000/svg">
<rect width="100%" height="100%" fill="#121212" />
<line x1="20" y1="139" x2="320" y2="139" stroke="#232323" stroke-width="1" />
<line x1="20" y1="109" x2="320" y2="109" stroke="#232323" stroke-width="1" />
<line x1="20" y1="94" x2="320" y2="94" stroke="#3C3C3C" stroke-width="1" />
<line x1="20" y1="79" x2="320" y2="79" stroke="#232323" stroke-width="1" />
<line x1="20" y1="49" x2="320" y2="49" stroke="#232323" stroke-width="1" />
<line x1="169" y1="20" x2="169" y2="170" stroke="#232323" stroke-width="1" />
<polyline points="20,92 21,92 24,92 27,92 30,102 33,106 36,100 39,94 42,93 45,92 48,98 51,95 54,88 57,85 60,107 63,107 66,112 69,116 72,116 75,125 78,134 81,142 84,145 87,145 90,139 93,147 96,153 99,157 102,160 105,162 108,163 111,160 114,159 117,159 120,159 123,157 126,158 129,157 132,160 135,163 138,162 141,161 144,160 147,163 150,164 153,165 156,165 159,165 162,166 165,166 168,166 171,166 174,166 177,166 180,166 183,166 186,167 189,167 192,167 195,167 198,167 201,167 204,167 207,167 210,167 213,167 216,167 219,167 222,167 225,167 228,167 231,167 234,167 237,167 240,167 243,167 246,167 249,167 252,167 255,167 258,167 261,167 264,167 267,167 270,167 273,167 276,167 279,167 282,167 285,167 288,167 291,167 294,167 297,167 300,167 303,167 306,167 309,167 312,167 315,167 318,167" fill="none" stroke="#FFFF00" stroke-width="2" stroke-linejoin="round" />
<circle cx="67" cy="78" r="4" fill="#FF0000" stroke="#FFFFFF" stroke-width="1">
  <title>MM2 DOWN (61¢)</title>
</circle>
<circle cx="67" cy="78" r="4" fill="#FF0000" stroke="#FFFFFF" stroke-width="1">
  <title>Briefing DOWN (61¢)</title>
</circle>
</svg>