<svg width="340" height="190" xmlns="http://www.w3.org/2000/svg">
<rect width="100%" height="100%" fill="#121212" />
<line x1="20" y1="139" x2="320" y2="139" stroke="#232323" stroke-width="1" />
<line x1="20" y1="109" x2="320" y2="109" stroke="#232323" stroke-width="1" />
<line x1="20" y1="94" x2="320" y2="94" stroke="#3C3C3C" stroke-width="1" />
<line x1="20" y1="79" x2="320" y2="79" stroke="#232323" stroke-width="1" />
<line x1="20" y1="49" x2="320" y2="49" stroke="#232323" stroke-width="1" />
<line x1="169" y1="20" x2="169" y2="170" stroke="#232323" stroke-width="1" />
<polyline points="20,83 20,83 24,76 27,85 30,83 33,84 36,86 39,87 42,69 45,76 48,81 51,64 54,66 57,66 60,60 63,62 66,62 69,62 72,63 75,55 78,55 81,72 84,70 87,73 90,85 93,85 96,86 99,86 102,85 105,66 108,71 111,68 114,63 117,73 120,78 123,76 126,79 129,95 132,96 135,96 138,96 141,90 144,78 147,64 150,63 153,55 156,55 159,49 162,68 165,66 168,80 171,78 174,74 177,77 180,82 183,86 186,84 189,87 192,87 195,89 198,103 201,101 204,99 207,98 210,113 213,113 216,94 219,100 222,93 225,87 228,87 231,91 234,67 237,52 240,58 243,57 246,55 249,92 252,94 255,95 258,96 261,101 264,104 267,105 270,86 273,87 276,88 279,87 282,110 285,139 288,137 291,145 294,151 297,155 300,160 303,163 306,165 309,166 312,167 315,167 318,167" fill="none" stroke="#FFFF00" stroke-width="2" stroke-linejoin="round" />
</svg>