<svg width="340" height="190" xmlns="http://www.w3.org/2000/svg">
<rect width="100%" height="100%" fill="#121212" />
<line x1="20" y1="139" x2="320" y2="139" stroke="#232323" stroke-width="1" />
<line x1="20" y1="109" x2="320" y2="109" stroke="#232323" stroke-width="1" />
<line x1="20" y1="94" x2="320" y2="94" stroke="#3C3C3C" stroke-width="1" />
<line x1="20" y1="79" x2="320" y2="79" stroke="#232323" stroke-width="1" />
<line x1="20" y1="49" x2="320" y2="49" stroke="#232323" stroke-width="1" />
<line x1="169" y1="20" x2="169" y2="170" stroke="#232323" stroke-width="1" />
<polyline points="20,90 21,90 24,82 27,73 30,70 33,64 36,57 39,50 42,40 45,38 48,46 51,50 54,56 57,65 60,65 63,69 66,75 69,74 72,78 75,83 78,83 81,76 84,72 87,69 90,69 93,69 96,57 99,55 102,56 105,61 108,62 111,59 114,53 117,63 120,62 123,66 126,59 129,63 132,55 135,60 138,55 141,61 144,60 147,60 150,54 153,49 156,50 159,49 162,46 165,41 168,40 171,42 174,46 177,43 180,42 183,43 186,43 189,41 192,41 195,49 198,51 201,55 204,53 207,57 210,57 213,56 216,56 219,46 222,43 225,43 228,49 231,63 234,90 237,89 240,83 243,75 246,72 249,66 252,65 255,60 258,60 261,59 264,70 267,59 270,65 273,75 276,75 279,75 282,80 285,95 288,103 291,98 294,125 297,139 300,93 303,99 306,72 309,86 312,98 315,78 318,142" fill="none" stroke="#FFFF00" stroke-width="2" stroke-linejoin="round" />
<circle cx="37" cy="58" r="4" fill="#00FF00" stroke="#FFFFFF" stroke-width="1">
  <title>Nitro UP (74¢)</title>
</circle>
<circle cx="82" cy="78" r="4" fill="#00FF00" stroke="#FFFFFF" stroke-width="1">
  <title>VolSnap UP (61¢)</title>
</circle>
</svg>