<svg width="340" height="190" xmlns="http://www.w3.org/2000/svg">
<rect width="100%" height="100%" fill="#121212" />
<line x1="20" y1="139" x2="320" y2="139" stroke="#232323" stroke-width="1" />
<line x1="20" y1="109" x2="320" y2="109" stroke="#232323" stroke-width="1" />
<line x1="20" y1="94" x2="320" y2="94" stroke="#3C3C3C" stroke-width="1" />
<line x1="20" y1="79" x2="320" y2="79" stroke="#232323" stroke-width="1" />
<line x1="20" y1="49" x2="320" y2="49" stroke="#232323" stroke-width="1" />
<line x1="169" y1="20" x2="169" y2="170" stroke="#232323" stroke-width="1" />
<polyline points="20,92 22,90 25,89 28,89 31,89 34,84 37,84 40,84 43,81 46,81 49,81 52,93 55,101 58,101 61,100 64,101 67,104 70,105 73,104 76,104 79,104 82,101 85,90 88,90 91,89 94,87 97,77 100,78 103,79 106,90 109,76 112,70 115,74 118,72 121,69 124,67 127,64 130,57 133,47 136,52 139,45 142,42 145,38 148,41 151,44 154,44 157,47 160,43 163,36 166,39 169,44 172,47 175,47 178,51 181,55 184,67 187,63 190,69 193,82 196,81 199,81 202,86 205,91 208,92 211,93 214,107 217,108 220,120 223,128 226,133 229,130 232,128 235,120 238,110 241,110 244,112 247,125 250,125 253,116 256,111 259,109 262,90 265,72 268,59 271,52 274,49 277,46 280,50 283,48 286,50 289,45 292,34 295,26 298,25 301,25 304,22 307,20 310,20 313,20 316,20" fill="none" stroke="#FFFF00" stroke-width="2" stroke-linejoin="round" />
<circle cx="218" cy="81" r="4" fill="#FF0000" stroke="#FFFFFF" stroke-width="1">
  <title>VolSnap DOWN (59¢)</title>
</circle>
</svg>