<svg width="340" height="190" xmlns="http://www.w3.org/2000/svg">
<rect width="100%" height="100%" fill="#121212" />
<line x1="20" y1="139" x2="320" y2="139" stroke="#232323" stroke-width="1" />
<line x1="20" y1="109" x2="320" y2="109" stroke="#232323" stroke-width="1" />
<line x1="20" y1="94" x2="320" y2="94" stroke="#3C3C3C" stroke-width="1" />
<line x1="20" y1="79" x2="320" y2="79" stroke="#232323" stroke-width="1" />
<line x1="20" y1="49" x2="320" y2="49" stroke="#232323" stroke-width="1" />
<line x1="169" y1="20" x2="169" y2="170" stroke="#232323" stroke-width="1" />
<polyline points="20,90 22,87 25,81 28,87 31,86 34,89 37,86 40,83 43,85 46,87 49,85 52,81 55,81 58,87 61,86 64,83 67,83 70,81 73,84 76,82 79,76 82,71 85,70 88,71 91,69 94,72 97,69 100,65 103,52 106,52 109,53 112,49 115,51 118,49 121,49 124,49 127,50 130,49 133,44 136,43 139,42 142,43 145,39 148,40 151,40 154,41 157,41 160,42 163,41 166,40 169,34 172,31 175,31 178,29 181,28 184,28 187,29 190,29 193,38 196,46 199,46 202,49 205,47 208,44 211,38 214,43 217,43 220,37 223,35 226,37 229,38 232,46 235,43 238,41 241,43 244,52 247,52 250,31 253,33 256,28 259,37 262,34 265,32 268,31 271,28 274,25 277,49 280,34 283,32 286,43 289,42 292,51 295,45 298,58 301,34 304,31 307,32 310,39 313,32 316,28" fill="none" stroke="#FFFF00" stroke-width="2" stroke-linejoin="round" />
<circle cx="104" cy="52" r="4" fill="#00FF00" stroke="#FFFFFF" stroke-width="1">
  <title>Nitro UP (78¢)</title>
</circle>
</svg>