<svg width="340" height="190" xmlns="http://www.w3.org/2000/svg">
<rect width="100%" height="100%" fill="#121212" />
<line x1="20" y1="139" x2="320" y2="139" stroke="#232323" stroke-width="1" />
<line x1="20" y1="109" x2="320" y2="109" stroke="#232323" stroke-width="1" />
<line x1="20" y1="94" x2="320" y2="94" stroke="#3C3C3C" stroke-width="1" />
<line x1="20" y1="79" x2="320" y2="79" stroke="#232323" stroke-width="1" />
<line x1="20" y1="49" x2="320" y2="49" stroke="#232323" stroke-width="1" />
<line x1="169" y1="20" x2="169" y2="170" stroke="#232323" stroke-width="1" />
<polyline points="20,89 20,89 23,89 26,101 29,102 32,104 35,102 38,107 41,110 44,108 47,109 50,114 53,110 56,101 59,107 62,105 65,107 68,114 71,109 74,102 77,111 80,108 83,109 86,105 89,113 92,116 95,122 98,123 101,129 104,137 107,141 110,143 113,131 116,135 119,136 122,138 125,154 128,152 131,152 134,150 137,154 140,160 143,161 146,161 149,160 152,162 155,160 158,160 161,157 164,162 167,163 170,163 173,164 176,163 179,165 182,165 185,166 188,166 191,166 194,166 197,166 200,167 203,167 206,167 209,167 212,167 215,167 218,167 221,167 224,167 227,167 230,167 233,167 236,167 239,167 242,167 245,167 248,167 251,167 254,167 257,167 260,167 263,167 266,167 269,167 272,167 275,167 278,167 281,167 284,167 287,167 290,167 293,167 296,167 299,167 302,167 305,167 308,167 311,167 314,167 317,167" fill="none" stroke="#FFFF00" stroke-width="2" stroke-linejoin="round" />
<circle cx="42" cy="79" r="4" fill="#FF0000" stroke="#FFFFFF" stroke-width="1">
  <title>MM2 DOWN (60¢)</title>
</circle>
<circle cx="81" cy="81" r="4" fill="#FF0000" stroke="#FFFFFF" stroke-width="1">
  <title>VolSnap DOWN (59¢)</title>
</circle>
<circle cx="114" cy="58" r="4" fill="#FF0000" stroke="#FFFFFF" stroke-width="1">
  <title>Nitro DOWN (74¢)</title>
</circle>
</svg>