<svg width="340" height="190" xmlns="http://www.w3.org/2000/svg">
<rect width="100%" height="100%" fill="#121212" />
<line x1="20" y1="139" x2="320" y2="139" stroke="#232323" stroke-width="1" />
<line x1="20" y1="109" x2="320" y2="109" stroke="#232323" stroke-width="1" />
<line x1="20" y1="94" x2="320" y2="94" stroke="#3C3C3C" stroke-width="1" />
<line x1="20" y1="79" x2="320" y2="79" stroke="#232323" stroke-width="1" />
<line x1="20" y1="49" x2="320" y2="49" stroke="#232323" stroke-width="1" />
<line x1="169" y1="20" x2="169" y2="170" stroke="#232323" stroke-width="1" />
<polyline points="20,85 21,85 24,91 27,92 30,104 33,110 36,111 39,118 42,116 45,131 48,130 51,123 54,136 57,144 60,142 63,150 66,150 69,148 72,147 75,152 78,146 81,146 84,139 87,135 90,140 93,143 96,147 99,149 102,148 105,152 108,152 111,154 114,154 117,156 120,154 123,157 126,158 129,157 132,156 135,160 138,160 141,165 144,163 147,162 150,160 153,163 156,163 159,164 162,160 165,163 168,163 171,163 174,162 177,162 180,161 183,161 186,160 189,163 192,163 195,163 198,161 201,165 204,165 207,165 210,166 213,166 216,166 219,167 222,167 225,167 228,167 231,167 234,167 237,167 240,167 243,167 246,167 249,167 252,167 255,167 258,167 261,167 264,167 267,167 270,167 273,167 276,167 279,167 282,167 285,167 288,167 291,167 294,167 297,167 300,167 303,167 306,167 309,167 312,167 315,167 318,167" fill="none" stroke="#FFFF00" stroke-width="2" stroke-linejoin="round" />
<circle cx="34" cy="81" r="4" fill="#FF0000" stroke="#FFFFFF" stroke-width="1">
  <title>MM2 DOWN (59¢)</title>
</circle>
<circle cx="40" cy="72" r="4" fill="#FF0000" stroke="#FFFFFF" stroke-width="1">
  <title>Nitro DOWN (65¢)</title>
</circle>
<circle cx="85" cy="49" r="4" fill="#FF0000" stroke="#FFFFFF" stroke-width="1">
  <title>VolSnap DOWN (80¢)</title>
</circle>
</svg>