<svg width="340" height="190" xmlns="http://www.w3.org/2000/svg">
<rect width="100%" height="100%" fill="#121212" />
<line x1="20" y1="139" x2="320" y2="139" stroke="#232323" stroke-width="1" />
<line x1="20" y1="109" x2="320" y2="109" stroke="#232323" stroke-width="1" />
<line x1="20" y1="94" x2="320" y2="94" stroke="#3C3C3C" stroke-width="1" />
<line x1="20" y1="79" x2="320" y2="79" stroke="#232323" stroke-width="1" />
<line x1="20" y1="49" x2="320" y2="49" stroke="#232323" stroke-width="1" />
<line x1="169" y1="20" x2="169" y2="170" stroke="#232323" stroke-width="1" />
<polyline points="20,93 22,90 25,101 28,99 31,101 34,98 37,102 40,105 43,114 46,118 49,114 52,113 55,111 58,108 61,106 64,100 67,97 70,101 73,107 76,111 79,107 82,102 85,100 88,94 91,88 94,90 97,90 100,87 103,93 106,92 109,91 112,94 115,81 118,79 121,82 124,84 127,83 130,78 134,74 137,71 140,60 143,57 146,53 149,50 152,49 155,58 158,59 161,63 164,60 167,62 170,62 173,60 176,55 179,57 182,53 185,45 188,39 191,32 194,33 197,31 200,35 203,45 206,60 209,63 212,64 215,69 218,60 221,63 224,62 227,68 230,66 233,77 236,84 239,76 242,87 245,105 248,98 251,107 254,117 257,122 260,111 263,121 266,129 269,136 272,138 275,143 278,153 281,157 284,158 287,157 290,160 293,165 296,166 299,166 302,165 305,167 308,166 311,167 314,167 317,167" fill="none" stroke="#FFFF00" stroke-width="2" stroke-linejoin="round" />
<circle cx="44" cy="78" r="4" fill="#FF0000" stroke="#FFFFFF" stroke-width="1">
  <title>MM2 DOWN (61¢)</title>
</circle>
<circle cx="252" cy="72" r="4" fill="#FF0000" stroke="#FFFFFF" stroke-width="1">
  <title>VolSnap DOWN (65¢)</title>
</circle>
</svg>