<svg width="340" height="190" xmlns="http://www.w3.org/2000/svg">
<rect width="100%" height="100%" fill="#121212" />
<line x1="20" y1="139" x2="320" y2="139" stroke="#232323" stroke-width="1" />
<line x1="20" y1="109" x2="320" y2="109" stroke="#232323" stroke-width="1" />
<line x1="20" y1="94" x2="320" y2="94" stroke="#3C3C3C" stroke-width="1" />
<line x1="20" y1="79" x2="320" y2="79" stroke="#232323" stroke-width="1" />
<line x1="20" y1="49" x2="320" y2="49" stroke="#232323" stroke-width="1" />
<line x1="169" y1="20" x2="169" y2="170" stroke="#232323" stroke-width="1" />
<polyline points="20,93 21,93 24,86 27,81 30,98 33,90 36,95 39,95 42,87 45,86 48,89 51,96 54,95 57,101 60,113 63,110 66,111 69,127 72,122 75,119 78,124 81,130 84,126 87,128 90,126 93,122 96,122 99,119 102,133 105,137 108,137 111,137 114,137 117,142 120,135 123,135 126,133 129,135 132,132 135,135 138,136 141,142 144,151 147,140 150,139 153,140 156,145 159,148 162,148 165,147 168,147 171,147 174,147 177,142 180,144 183,144 186,145 189,144 192,145 195,144 198,144 201,147 204,148 207,150 210,151 213,152 216,151 219,159 222,158 225,159 228,163 231,163 234,163 237,165 240,165 243,166 246,166 249,165 252,166 255,166 258,166 261,167 264,167 267,167 270,167 273,167 276,167 279,167 282,167 285,167 288,167 291,167 294,167 297,167 300,167 303,167 306,167 309,167 312,167 315,167 318,167" fill="none" stroke="#FFFF00" stroke-width="2" stroke-linejoin="round" />
</svg>