<svg width="340" height="190" xmlns="http://www.w3.org/2000/svg">
<rect width="100%" height="100%" fill="#121212" />
<line x1="20" y1="139" x2="320" y2="139" stroke="#232323" stroke-width="1" />
<line x1="20" y1="109" x2="320" y2="109" stroke="#232323" stroke-width="1" />
<line x1="20" y1="94" x2="320" y2="94" stroke="#3C3C3C" stroke-width="1" />
<line x1="20" y1="79" x2="320" y2="79" stroke="#232323" stroke-width="1" />
<line x1="20" y1="49" x2="320" y2="49" stroke="#232323" stroke-width="1" />
<line x1="169" y1="20" x2="169" y2="170" stroke="#232323" stroke-width="1" />
<polyline points="20,83 20,83 23,82 26,60 29,55 32,47 35,60 38,72 41,75 44,78 47,83 50,80 53,80 56,82 59,85 62,75 65,51 68,47 71,43 74,41 77,37 80,40 83,37 86,31 89,31 92,28 95,26 98,27 101,26 104,25 107,25 110,24 113,24 116,26 119,25 122,26 125,23 128,26 131,25 134,24 137,25 140,23 143,24 146,24 149,23 152,24 155,23 158,23 161,25 164,25 167,24 170,23 173,23 176,23 179,23 182,23 185,23 188,25 191,25 194,25 197,23 200,23 203,23 206,23 209,23 212,24 215,26 218,27 221,24 224,23 227,23 230,23 233,23 236,24 239,24 242,23 245,23 248,23 251,23 254,22 257,22 260,20 263,20 266,20 269,20 272,20 275,20 278,20 281,20 284,20 287,20 290,20 293,20 296,20 299,20 302,20 305,20 308,20 311,20 314,20 317,20" fill="none" stroke="#FFFF00" stroke-width="2" stroke-linejoin="round" />
<circle cx="66" cy="57" r="4" fill="#00FF00" stroke="#FFFFFF" stroke-width="1">
  <title>Nitro UP (75¢)</title>
</circle>
</svg>