<svg width="340" height="190" xmlns="http://www.w3.org/2000/svg">
<rect width="100%" height="100%" fill="#121212" />
<line x1="20" y1="139" x2="320" y2="139" stroke="#232323" stroke-width="1" />
<line x1="20" y1="109" x2="320" y2="109" stroke="#232323" stroke-width="1" />
<line x1="20" y1="94" x2="320" y2="94" stroke="#3C3C3C" stroke-width="1" />
<line x1="20" y1="79" x2="320" y2="79" stroke="#232323" stroke-width="1" />
<line x1="20" y1="49" x2="320" y2="49" stroke="#232323" stroke-width="1" />
<line x1="169" y1="20" x2="169" y2="170" stroke="#232323" stroke-width="1" />
<polyline points="20,93 22,100 25,87 28,78 31,78 34,78 37,77 40,79 43,78 46,84 49,84 52,95 55,92 58,94 61,101 64,107 67,108 70,105 73,107 76,106 79,94 82,90 85,81 88,76 91,68 94,70 97,59 100,54 103,49 106,47 109,42 112,37 115,35 118,33 121,29 124,30 127,28 130,28 133,25 136,25 139,23 142,23 145,24 148,23 151,22 154,22 157,22 160,21 163,20 166,20 169,20 172,20 175,20 178,20 181,20 184,20 187,20 190,20 193,20 196,20 199,20 202,20 205,20 208,20 211,20 214,20 217,20 220,20 223,20 226,20 229,20 232,20 235,20 238,20 241,20 244,20 247,20 250,20 253,20 256,20 259,20 262,20 265,20 268,20 271,20 274,20 277,20 280,20 283,20 286,20 289,20 292,20 295,20 298,20 301,20 304,20 307,20 310,20 313,20 316,20" fill="none" stroke="#FFFF00" stroke-width="2" stroke-linejoin="round" />
<circle cx="68" cy="81" r="4" fill="#FF0000" stroke="#FFFFFF" stroke-width="1">
  <title>MM2 DOWN (59¢)</title>
</circle>
<circle cx="104" cy="51" r="4" fill="#00FF00" stroke="#FFFFFF" stroke-width="1">
  <title>Nitro UP (79¢)</title>
</circle>
</svg>