<svg width="340" height="190" xmlns="http://www.w3.org/2000/svg">
<rect width="100%" height="100%" fill="#121212" />
<line x1="20" y1="139" x2="320" y2="139" stroke="#232323" stroke-width="1" />
<line x1="20" y1="109" x2="320" y2="109" stroke="#232323" stroke-width="1" />
<line x1="20" y1="94" x2="320" y2="94" stroke="#3C3C3C" stroke-width="1" />
<line x1="20" y1="79" x2="320" y2="79" stroke="#232323" stroke-width="1" />
<line x1="20" y1="49" x2="320" y2="49" stroke="#232323" stroke-width="1" />
<line x1="169" y1="20" x2="169" y2="170" stroke="#232323" stroke-width="1" />
<polyline points="20,92 20,92 23,80 26,84 29,85 32,84 35,93 38,92 41,92 44,83 47,84 50,93 53,96 56,96 59,108 62,113 65,107 68,104 71,105 74,105 77,106 80,102 83,102 86,107 89,107 92,104 95,105 98,107 101,113 104,101 107,102 110,102 113,103 116,105 119,105 122,110 125,109 128,107 131,110 134,106 137,105 140,107 143,109 146,102 149,105 152,113 155,111 158,112 161,122 164,122 167,125 170,125 173,116 176,118 179,123 182,131 185,130 188,129 191,131 194,131 197,131 200,136 203,136 206,133 209,120 212,118 215,117 218,107 221,107 224,99 227,126 230,119 233,119 236,109 239,125 242,110 245,128 248,128 251,136 254,146 257,144 260,150 263,155 266,150 269,151 272,147 275,142 278,147 281,149 284,135 287,127 290,104 293,90 296,102 299,145 302,141 305,131 308,136 311,148 314,160 317,167" fill="none" stroke="#FFFF00" stroke-width="2" stroke-linejoin="round" />
<circle cx="60" cy="81" r="4" fill="#FF0000" stroke="#FFFFFF" stroke-width="1">
  <title>MM2 DOWN (59¢)</title>
</circle>
<circle cx="102" cy="76" r="4" fill="#FF0000" stroke="#FFFFFF" stroke-width="1">
  <title>VolSnap DOWN (62¢)</title>
</circle>
<circle cx="123" cy="79" r="4" fill="#FF0000" stroke="#FFFFFF" stroke-width="1">
  <title>Nitro DOWN (60¢)</title>
</circle>
</svg>