<svg width="340" height="190" xmlns="http://www.w3.org/2000/svg">
<rect width="100%" height="100%" fill="#121212" />
<line x1="20" y1="139" x2="320" y2="139" stroke="#232323" stroke-width="1" />
<line x1="20" y1="109" x2="320" y2="109" stroke="#232323" stroke-width="1" />
<line x1="20" y1="94" x2="320" y2="94" stroke="#3C3C3C" stroke-width="1" />
<line x1="20" y1="79" x2="320" y2="79" stroke="#232323" stroke-width="1" />
<line x1="20" y1="49" x2="320" y2="49" stroke="#232323" stroke-width="1" />
<line x1="169" y1="20" x2="169" y2="170" stroke="#232323" stroke-width="1" />
<polyline points="20,85 21,85 24,72 27,70 30,73 33,65 36,65 39,68 42,74 45,74 48,72 51,75 54,77 57,85 60,87 63,93 66,101 69,100 72,99 75,100 78,104 81,105 84,105 87,107 90,105 93,110 96,119 99,128 102,123 105,134 108,124 111,128 114,136 117,131 120,127 123,131 126,135 129,133 132,140 135,141 138,145 141,147 144,148 147,148 150,149 153,151 156,156 159,156 162,157 165,157 168,157 171,157 174,152 177,152 180,142 183,135 186,145 189,144 192,145 195,154 198,153 201,150 204,148 207,150 210,158 213,158 216,159 219,160 222,160 225,162 228,162 231,160 234,162 237,163 240,163 243,163 246,163 249,164 252,165 255,165 258,165 261,165 264,166 267,166 270,166 273,166 276,167 279,167 282,167 285,167 288,167 291,167 294,167 297,167 300,167 303,167 306,167 309,167 312,167 315,167 318,167" fill="none" stroke="#FFFF00" stroke-width="2" stroke-linejoin="round" />
<circle cx="34" cy="67" r="4" fill="#00FF00" stroke="#FFFFFF" stroke-width="1">
  <title>Nitro UP (68¢)</title>
</circle>
</svg>