<svg width="340" height="190" xmlns="http://www.w3.org/2000/svg">
<rect width="100%" height="100%" fill="#121212" />
<line x1="20" y1="139" x2="320" y2="139" stroke="#232323" stroke-width="1" />
<line x1="20" y1="109" x2="320" y2="109" stroke="#232323" stroke-width="1" />
<line x1="20" y1="94" x2="320" y2="94" stroke="#3C3C3C" stroke-width="1" />
<line x1="20" y1="79" x2="320" y2="79" stroke="#232323" stroke-width="1" />
<line x1="20" y1="49" x2="320" y2="49" stroke="#232323" stroke-width="1" />
<line x1="169" y1="20" x2="169" y2="170" stroke="#232323" stroke-width="1" />
<polyline points="20,88 22,89 25,93 28,90 31,88 34,76 37,70 40,78 43,84 46,78 49,87 52,93 55,96 58,103 61,103 64,101 67,98 70,98 73,93 76,99 79,94 82,93 85,95 88,98 91,93 94,95 97,92 100,92 103,94 106,95 109,94 112,87 115,93 118,107 121,105 125,110 128,106 131,107 134,113 137,110 140,114 143,129 146,129 149,126 152,121 155,130 158,129 161,128 164,119 167,120 170,135 173,131 176,131 179,128 182,116 185,104 188,105 191,111 194,111 197,104 200,101 203,96 206,89 209,81 212,81 215,69 218,54 221,53 224,54 227,60 230,49 233,47 236,36 239,31 242,28 245,25 248,23 251,23 254,22 257,23 260,22 263,24 266,23 269,25 272,23 275,22 278,20 281,20 284,20 287,20 290,20 293,20 296,20 299,21 302,22 305,59 308,58 311,28 314,24 317,22" fill="none" stroke="#FFFF00" stroke-width="2" stroke-linejoin="round" />
<circle cx="126" cy="78" r="4" fill="#FF0000" stroke="#FFFFFF" stroke-width="1">
  <title>MM2 DOWN (61¢)</title>
</circle>
<circle cx="126" cy="78" r="4" fill="#FF0000" stroke="#FFFFFF" stroke-width="1">
  <title>VolSnap DOWN (61¢)</title>
</circle>
</svg>