<svg width="340" height="190" xmlns="http://www.w3.org/2000/svg">
<rect width="100%" height="100%" fill="#121212" />
<line x1="20" y1="139" x2="320" y2="139" stroke="#232323" stroke-width="1" />
<line x1="20" y1="109" x2="320" y2="109" stroke="#232323" stroke-width="1" />
<line x1="20" y1="94" x2="320" y2="94" stroke="#3C3C3C" stroke-width="1" />
<line x1="20" y1="79" x2="320" y2="79" stroke="#232323" stroke-width="1" />
<line x1="20" y1="49" x2="320" y2="49" stroke="#232323" stroke-width="1" />
<line x1="169" y1="20" x2="169" y2="170" stroke="#232323" stroke-width="1" />
<polyline points="20,95 21,95 24,90 27,90 30,90 33,92 36,95 39,108 42,113 45,109 48,111 51,119 54,122 57,120 60,130 63,132 66,133 69,136 72,136 75,136 78,133 81,131 84,129 87,129 90,129 93,130 96,129 99,125 102,123 105,119 108,107 111,104 114,104 117,102 120,101 123,104 126,101 129,101 132,104 135,108 138,111 141,102 144,98 147,99 150,100 153,100 156,99 159,99 162,101 165,107 168,104 171,102 174,90 177,104 180,110 183,111 186,113 189,111 192,111 195,110 198,111 201,100 204,105 207,105 210,104 213,109 216,116 219,131 222,132 225,145 228,155 231,157 234,154 237,160 240,160 243,160 246,161 249,163 252,165 255,165 258,165 261,162 264,162 267,154 270,157 273,159 276,163 279,150 282,145 285,142 288,143 291,158 294,156 297,163 300,164 303,165 306,165 309,166 312,166 315,167 318,167" fill="none" stroke="#FFFF00" stroke-width="2" stroke-linejoin="round" />
<circle cx="40" cy="79" r="4" fill="#FF0000" stroke="#FFFFFF" stroke-width="1">
  <title>WCP DOWN (60¢)</title>
</circle>
<circle cx="82" cy="57" r="4" fill="#FF0000" stroke="#FFFFFF" stroke-width="1">
  <title>VolSnap DOWN (75¢)</title>
</circle>
<circle cx="286" cy="57" r="4" fill="#FF0000" stroke="#FFFFFF" stroke-width="1">
  <title>WCP DOWN (75¢)</title>
</circle>
</svg>