<svg width="340" height="190" xmlns="http://www.w3.org/2000/svg">
<rect width="100%" height="100%" fill="#121212" />
<line x1="20" y1="139" x2="320" y2="139" stroke="#232323" stroke-width="1" />
<line x1="20" y1="109" x2="320" y2="109" stroke="#232323" stroke-width="1" />
<line x1="20" y1="94" x2="320" y2="94" stroke="#3C3C3C" stroke-width="1" />
<line x1="20" y1="79" x2="320" y2="79" stroke="#232323" stroke-width="1" />
<line x1="20" y1="49" x2="320" y2="49" stroke="#232323" stroke-width="1" />
<line x1="169" y1="20" x2="169" y2="170" stroke="#232323" stroke-width="1" />
<polyline points="20,89 20,89 23,87 26,77 29,76 32,75 35,80 38,80 41,74 44,73 47,75 50,75 53,75 56,69 59,75 62,75 65,77 68,87 71,82 74,86 77,83 80,84 83,90 86,91 89,84 92,86 95,91 98,101 101,105 104,105 107,110 110,118 113,122 116,117 119,116 122,113 125,115 128,108 131,116 134,114 137,113 140,110 143,117 146,116 149,111 152,107 155,109 158,110 161,111 164,113 167,111 170,111 173,111 176,113 179,108 182,108 185,113 188,115 191,127 194,128 197,131 200,129 203,131 206,132 209,139 212,136 215,131 218,135 221,139 224,138 227,142 230,146 233,148 236,156 239,164 242,166 245,166 248,166 251,167 254,167 257,167 260,167 263,167 266,167 269,167 272,167 275,167 278,167 281,167 284,167 287,167 290,167 293,167 296,167 299,167 302,167 305,167 308,167 311,167 314,167 317,167" fill="none" stroke="#FFFF00" stroke-width="2" stroke-linejoin="round" />
<circle cx="108" cy="79" r="4" fill="#FF0000" stroke="#FFFFFF" stroke-width="1">
  <title>MM2 DOWN (60¢)</title>
</circle>
</svg>