<svg width="340" height="190" xmlns="http://www.w3.org/2000/svg">
<rect width="100%" height="100%" fill="#121212" />
<line x1="20" y1="139" x2="320" y2="139" stroke="#232323" stroke-width="1" />
<line x1="20" y1="109" x2="320" y2="109" stroke="#232323" stroke-width="1" />
<line x1="20" y1="94" x2="320" y2="94" stroke="#3C3C3C" stroke-width="1" />
<line x1="20" y1="79" x2="320" y2="79" stroke="#232323" stroke-width="1" />
<line x1="20" y1="49" x2="320" y2="49" stroke="#232323" stroke-width="1" />
<line x1="169" y1="20" x2="169" y2="170" stroke="#232323" stroke-width="1" />
<polyline points="20,93 20,93 23,95 26,95 29,95 32,96 35,95 38,95 41,95 44,96 47,113 50,119 53,129 56,131 59,123 62,122 65,125 68,136 71,143 74,146 77,142 80,139 83,133 86,133 89,138 92,134 95,136 98,133 101,131 104,135 107,133 110,135 113,136 116,139 119,144 122,147 125,151 128,151 131,150 134,142 137,140 140,147 143,153 146,154 149,154 152,155 155,156 158,157 161,159 164,159 167,162 170,162 173,160 176,159 179,162 182,161 185,162 188,160 191,162 194,162 197,160 200,157 203,159 206,162 209,162 212,160 215,160 218,163 221,163 224,163 227,163 230,163 233,163 236,164 239,165 242,165 245,165 248,165 251,165 254,165 257,165 260,166 263,166 266,167 269,167 272,167 275,167 278,167 281,167 284,168 287,167 290,168 293,167 296,168 299,168 302,168 305,168 308,167 311,168 314,168 317,168" fill="none" stroke="#FFFF00" stroke-width="2" stroke-linejoin="round" />
<circle cx="57" cy="63" r="4" fill="#FF0000" stroke="#FFFFFF" stroke-width="1">
  <title>Nitro DOWN (71¢)</title>
</circle>
<circle cx="81" cy="49" r="4" fill="#FF0000" stroke="#FFFFFF" stroke-width="1">
  <title>VolSnap DOWN (80¢)</title>
</circle>
</svg>