<svg width="340" height="190" xmlns="http://www.w3.org/2000/svg">
<rect width="100%" height="100%" fill="#121212" />
<line x1="20" y1="139" x2="320" y2="139" stroke="#232323" stroke-width="1" />
<line x1="20" y1="109" x2="320" y2="109" stroke="#232323" stroke-width="1" />
<line x1="20" y1="94" x2="320" y2="94" stroke="#3C3C3C" stroke-width="1" />
<line x1="20" y1="79" x2="320" y2="79" stroke="#232323" stroke-width="1" />
<line x1="20" y1="49" x2="320" y2="49" stroke="#232323" stroke-width="1" />
<line x1="169" y1="20" x2="169" y2="170" stroke="#232323" stroke-width="1" />
<polyline points="20,96 20,96 23,113 26,119 29,128 32,129 35,130 38,122 41,120 44,129 47,133 50,136 53,136 56,134 59,138 62,138 65,142 68,143 71,138 74,139 77,142 80,141 83,147 86,148 89,147 92,147 95,148 98,149 101,153 104,153 107,155 110,156 113,157 116,157 119,157 122,159 125,159 128,159 131,159 134,159 137,158 140,160 143,159 146,160 149,160 152,159 155,160 158,159 161,160 164,162 167,162 170,162 173,162 176,162 179,162 182,162 185,162 188,162 191,162 194,162 197,162 200,162 203,162 206,162 209,162 212,161 215,162 218,162 221,163 224,163 227,163 230,165 233,165 236,165 239,165 242,166 245,166 248,166 251,166 254,166 257,166 260,167 263,167 266,167 269,167 272,167 275,167 278,167 281,167 284,167 287,167 290,167 293,167 296,167 299,167 302,167 305,167 308,167 311,167 314,167 317,167" fill="none" stroke="#FFFF00" stroke-width="2" stroke-linejoin="round" />
<circle cx="72" cy="51" r="4" fill="#FF0000" stroke="#FFFFFF" stroke-width="1">
  <title>Nitro DOWN (79¢)</title>
</circle>
</svg>