<svg width="340" height="190" xmlns="http://www.w3.org/2000/svg">
<rect width="100%" height="100%" fill="#121212" />
<line x1="20" y1="139" x2="320" y2="139" stroke="#232323" stroke-width="1" />
<line x1="20" y1="109" x2="320" y2="109" stroke="#232323" stroke-width="1" />
<line x1="20" y1="94" x2="320" y2="94" stroke="#3C3C3C" stroke-width="1" />
<line x1="20" y1="79" x2="320" y2="79" stroke="#232323" stroke-width="1" />
<line x1="20" y1="49" x2="320" y2="49" stroke="#232323" stroke-width="1" />
<line x1="169" y1="20" x2="169" y2="170" stroke="#232323" stroke-width="1" />
<polyline points="20,89 21,89 24,89 27,89 30,89 33,101 36,92 39,93 42,95 45,89 48,88 51,85 54,77 57,79 60,93 63,95 66,93 69,96 72,96 75,96 78,104 81,104 84,98 87,99 90,94 93,95 96,78 99,83 102,83 105,87 108,87 111,90 114,78 117,72 120,72 123,72 126,68 129,84 132,99 135,104 138,106 141,104 144,104 147,107 150,107 153,118 156,118 159,92 162,71 165,82 168,98 171,77 174,75 177,74 180,78 183,78 187,81 190,90 193,91 196,81 199,81 202,82 205,79 208,81 211,81 214,77 217,69 220,68 223,63 226,59 229,57 232,67 235,68 238,64 241,47 244,44 247,37 250,39 253,35 256,37 259,28 262,23 265,23 268,22 271,22 274,23 277,26 280,25 283,23 286,23 289,22 292,21 295,20 298,20 301,20 304,20 307,20 310,20 313,20 316,20" fill="none" stroke="#FFFF00" stroke-width="2" stroke-linejoin="round" />
</svg>