<svg width="340" height="190" xmlns="http://www.w3.org/2000/svg">
<rect width="100%" height="100%" fill="#121212" />
<line x1="20" y1="139" x2="320" y2="139" stroke="#232323" stroke-width="1" />
<line x1="20" y1="109" x2="320" y2="109" stroke="#232323" stroke-width="1" />
<line x1="20" y1="94" x2="320" y2="94" stroke="#3C3C3C" stroke-width="1" />
<line x1="20" y1="79" x2="320" y2="79" stroke="#232323" stroke-width="1" />
<line x1="20" y1="49" x2="320" y2="49" stroke="#232323" stroke-width="1" />
<line x1="169" y1="20" x2="169" y2="170" stroke="#232323" stroke-width="1" />
<polyline points="20,99 22,99 25,93 28,90 31,95 34,101 37,102 40,112 43,104 46,107 49,113 52,104 55,107 58,113 61,116 64,118 67,108 70,107 73,113 76,102 79,99 82,103 85,111 88,114 91,111 94,105 97,94 100,89 103,95 106,100 109,102 112,101 115,93 118,86 121,80 124,82 127,74 130,71 133,73 136,57 139,69 142,66 145,70 148,75 151,78 154,86 157,88 160,80 163,78 166,71 169,69 172,56 175,69 178,57 181,62 184,73 187,75 190,71 193,78 196,77 199,69 202,81 205,80 208,66 211,67 214,69 217,75 220,78 223,83 226,82 229,90 232,86 235,75 238,72 241,66 244,59 247,57 250,69 253,84 256,93 259,81 262,87 265,92 268,81 271,86 274,87 277,76 280,61 283,50 286,32 289,27 292,23 295,22 298,20 301,20 304,20 307,20 310,20 313,20 316,20" fill="none" stroke="#FFFF00" stroke-width="2" stroke-linejoin="round" />
<circle cx="35" cy="87" r="4" fill="#FF0000" stroke="#FFFFFF" stroke-width="1">
  <title>MM2 DOWN (55¢)</title>
</circle>
<circle cx="86" cy="79" r="4" fill="#FF0000" stroke="#FFFFFF" stroke-width="1">
  <title>VolSnap DOWN (60¢)</title>
</circle>
</svg>