<svg width="340" height="190" xmlns="http://www.w3.org/2000/svg">
<rect width="100%" height="100%" fill="#121212" />
<line x1="20" y1="139" x2="320" y2="139" stroke="#232323" stroke-width="1" />
<line x1="20" y1="109" x2="320" y2="109" stroke="#232323" stroke-width="1" />
<line x1="20" y1="94" x2="320" y2="94" stroke="#3C3C3C" stroke-width="1" />
<line x1="20" y1="79" x2="320" y2="79" stroke="#232323" stroke-width="1" />
<line x1="20" y1="49" x2="320" y2="49" stroke="#232323" stroke-width="1" />
<line x1="169" y1="20" x2="169" y2="170" stroke="#232323" stroke-width="1" />
<polyline points="20,88 21,88 24,90 27,90 30,80 33,81 36,81 39,82 42,80 45,87 48,92 51,96 54,96 57,98 60,99 63,106 66,123 69,131 72,126 75,117 78,119 81,119 84,116 87,123 90,129 93,126 96,120 99,124 102,122 105,124 108,128 111,124 114,123 117,139 120,136 123,135 126,138 129,129 132,125 135,116 138,107 141,109 144,108 147,109 150,98 153,111 156,110 159,111 162,110 165,111 168,131 171,136 174,128 177,131 180,141 183,136 186,136 189,130 192,122 195,125 198,126 201,131 204,138 207,146 210,147 213,144 216,142 219,146 222,145 225,149 228,152 231,159 234,157 237,160 240,162 243,162 246,163 249,165 252,165 255,154 258,157 261,159 264,160 267,157 270,158 273,159 276,160 279,157 282,160 285,151 288,152 291,140 294,142 297,148 300,163 303,163 306,163 309,165 312,166 315,167 318,167" fill="none" stroke="#FFFF00" stroke-width="2" stroke-linejoin="round" />
<circle cx="70" cy="55" r="4" fill="#FF0000" stroke="#FFFFFF" stroke-width="1">
  <title>Nitro DOWN (76¢)</title>
</circle>
<circle cx="82" cy="70" r="4" fill="#FF0000" stroke="#FFFFFF" stroke-width="1">
  <title>VolSnap DOWN (66¢)</title>
</circle>
</svg>