<svg width="340" height="190" xmlns="http://www.w3.org/2000/svg">
<rect width="100%" height="100%" fill="#121212" />
<line x1="20" y1="139" x2="320" y2="139" stroke="#232323" stroke-width="1" />
<line x1="20" y1="109" x2="320" y2="109" stroke="#232323" stroke-width="1" />
<line x1="20" y1="94" x2="320" y2="94" stroke="#3C3C3C" stroke-width="1" />
<line x1="20" y1="79" x2="320" y2="79" stroke="#232323" stroke-width="1" />
<line x1="20" y1="49" x2="320" y2="49" stroke="#232323" stroke-width="1" />
<line x1="169" y1="20" x2="169" y2="170" stroke="#232323" stroke-width="1" />
<polyline points="20,92 20,92 23,93 26,91 29,95 32,104 35,108 38,108 41,103 44,110 47,114 50,109 53,107 56,95 59,93 62,88 65,86 68,88 71,93 74,94 77,93 80,96 83,105 86,111 89,110 92,107 95,107 98,110 101,113 104,116 107,118 110,119 113,128 116,129 119,131 122,129 125,130 128,133 131,133 134,136 137,137 140,136 143,122 146,131 149,134 152,135 155,132 158,137 161,142 164,148 167,152 170,154 173,157 176,160 179,157 182,163 185,163 188,165 191,165 194,163 197,162 200,166 203,166 206,165 209,166 212,166 215,166 218,166 221,166 224,166 227,167 230,167 233,167 236,167 239,167 242,167 245,167 248,167 251,167 254,167 257,167 260,167 263,167 266,167 269,167 272,167 275,167 278,167 281,167 284,167 287,167 290,167 293,167 296,167 299,167 302,167 305,167 308,167 311,167 314,167 317,167" fill="none" stroke="#FFFF00" stroke-width="2" stroke-linejoin="round" />
<circle cx="36" cy="81" r="4" fill="#FF0000" stroke="#FFFFFF" stroke-width="1">
  <title>MM2 DOWN (59¢)</title>
</circle>
<circle cx="36" cy="81" r="4" fill="#FF0000" stroke="#FFFFFF" stroke-width="1">
  <title>Briefing DOWN (59¢)</title>
</circle>
</svg>