<svg width="340" height="190" xmlns="http://www.w3.org/2000/svg">
<rect width="100%" height="100%" fill="#121212" />
<line x1="20" y1="139" x2="320" y2="139" stroke="#232323" stroke-width="1" />
<line x1="20" y1="109" x2="320" y2="109" stroke="#232323" stroke-width="1" />
<line x1="20" y1="94" x2="320" y2="94" stroke="#3C3C3C" stroke-width="1" />
<line x1="20" y1="79" x2="320" y2="79" stroke="#232323" stroke-width="1" />
<line x1="20" y1="49" x2="320" y2="49" stroke="#232323" stroke-width="1" />
<line x1="169" y1="20" x2="169" y2="170" stroke="#232323" stroke-width="1" />
<polyline points="20,98 21,98 24,100 27,98 30,96 33,97 36,95 39,100 42,101 45,108 48,110 51,113 54,116 57,121 60,120 63,122 66,117 69,119 72,120 75,128 78,125 81,123 84,119 87,122 90,125 93,125 96,123 99,124 102,122 105,116 108,116 111,104 114,98 117,95 120,104 123,107 126,95 129,92 132,103 135,100 138,103 141,114 144,123 147,123 150,128 153,125 156,129 159,131 162,135 165,138 168,140 171,137 174,135 177,133 180,140 183,142 186,139 190,140 193,135 196,138 199,133 202,129 205,131 208,128 211,125 214,119 217,117 220,128 223,137 226,140 229,145 232,148 235,153 238,146 241,150 244,153 247,150 250,152 253,153 256,154 259,143 262,142 265,125 268,107 271,113 274,135 277,143 280,143 283,133 286,133 289,134 292,146 295,125 298,128 301,105 304,136 307,113 310,119 313,54 316,29" fill="none" stroke="#FFFF00" stroke-width="2" stroke-linejoin="round" />
<circle cx="46" cy="81" r="4" fill="#FF0000" stroke="#FFFFFF" stroke-width="1">
  <title>MM2 DOWN (59¢)</title>
</circle>
<circle cx="82" cy="66" r="4" fill="#FF0000" stroke="#FFFFFF" stroke-width="1">
  <title>Nitro DOWN (69¢)</title>
</circle>
<circle cx="82" cy="66" r="4" fill="#FF0000" stroke="#FFFFFF" stroke-width="1">
  <title>VolSnap DOWN (69¢)</title>
</circle>
</svg>