<svg width="340" height="190" xmlns="http://www.w3.org/2000/svg">
<rect width="100%" height="100%" fill="#121212" />
<line x1="20" y1="139" x2="320" y2="139" stroke="#232323" stroke-width="1" />
<line x1="20" y1="109" x2="320" y2="109" stroke="#232323" stroke-width="1" />
<line x1="20" y1="94" x2="320" y2="94" stroke="#3C3C3C" stroke-width="1" />
<line x1="20" y1="79" x2="320" y2="79" stroke="#232323" stroke-width="1" />
<line x1="20" y1="49" x2="320" y2="49" stroke="#232323" stroke-width="1" />
<line x1="169" y1="20" x2="169" y2="170" stroke="#232323" stroke-width="1" />
<polyline points="20,101 22,102 25,99 28,99 31,101 34,106 37,107 40,111 43,113 46,121 49,122 55,120 58,122 61,116 64,112 67,118 70,122 73,122 76,123 79,125 82,122 85,116 88,116 91,111 94,114 97,113 100,119 103,118 106,126 109,128 112,124 115,121 118,125 121,127 124,117 127,119 130,120 133,126 136,119 139,115 142,128 145,119 148,117 151,117 154,119 157,121 160,125 163,117 166,119 169,119 172,130 175,135 178,136 181,144 184,145 187,136 190,140 193,145 196,147 199,146 202,142 205,144 208,152 211,156 214,153 217,153 220,159 223,161 226,163 229,164 232,165 235,166 238,165 241,166 244,166 247,165 250,165 253,165 256,166 259,166 262,166 265,167 268,167 271,167 274,167 277,167 280,167 283,167 286,167 289,167 292,167 295,167 298,167 301,167 304,167 307,167 310,167 313,167 316,167" fill="none" stroke="#FFFF00" stroke-width="2" stroke-linejoin="round" />
<circle cx="35" cy="84" r="4" fill="#FF0000" stroke="#FFFFFF" stroke-width="1">
  <title>MM2 DOWN (56¢)</title>
</circle>
<circle cx="83" cy="64" r="4" fill="#FF0000" stroke="#FFFFFF" stroke-width="1">
  <title>VolSnap DOWN (70¢)</title>
</circle>
</svg>