<svg width="340" height="190" xmlns="http://www.w3.org/2000/svg">
<rect width="100%" height="100%" fill="#121212" />
<line x1="20" y1="139" x2="320" y2="139" stroke="#232323" stroke-width="1" />
<line x1="20" y1="109" x2="320" y2="109" stroke="#232323" stroke-width="1" />
<line x1="20" y1="94" x2="320" y2="94" stroke="#3C3C3C" stroke-width="1" />
<line x1="20" y1="79" x2="320" y2="79" stroke="#232323" stroke-width="1" />
<line x1="20" y1="49" x2="320" y2="49" stroke="#232323" stroke-width="1" />
<line x1="169" y1="20" x2="169" y2="170" stroke="#232323" stroke-width="1" />
<polyline points="20,82 22,87 25,88 28,87 31,86 34,88 37,89 40,100 43,102 46,102 49,102 52,102 55,111 58,113 61,114 64,97 67,104 70,100 73,104 76,107 79,108 82,107 85,117 88,116 91,119 94,119 97,119 100,122 103,122 106,122 109,125 112,123 115,136 118,142 121,149 124,152 127,153 130,157 133,157 136,154 139,154 142,156 145,160 148,159 151,156 154,153 157,151 160,142 163,142 166,139 169,131 172,133 175,131 178,155 181,154 184,157 187,160 190,161 193,162 196,160 199,161 202,163 205,162 208,163 211,165 214,165 217,165 220,165 223,167 226,166 229,167 232,167 235,167 238,167 241,167 244,167 247,167 250,167 253,167 256,167 259,167 262,167 265,167 268,167 271,167 274,167 277,167 280,167 283,167 286,167 289,167 292,167 295,167 298,167 301,167 304,167 307,167 310,167 313,167 316,167" fill="none" stroke="#FFFF00" stroke-width="2" stroke-linejoin="round" />
<circle cx="56" cy="78" r="4" fill="#FF0000" stroke="#FFFFFF" stroke-width="1">
  <title>MM2 DOWN (61¢)</title>
</circle>
<circle cx="86" cy="72" r="4" fill="#FF0000" stroke="#FFFFFF" stroke-width="1">
  <title>VolSnap DOWN (65¢)</title>
</circle>
<circle cx="167" cy="49" r="4" fill="#FF0000" stroke="#FFFFFF" stroke-width="1">
  <title>Nitro DOWN (80¢)</title>
</circle>
</svg>