<svg width="340" height="190" xmlns="http://www.w3.org/2000/svg">
<rect width="100%" height="100%" fill="#121212" />
<line x1="20" y1="139" x2="320" y2="139" stroke="#232323" stroke-width="1" />
<line x1="20" y1="109" x2="320" y2="109" stroke="#232323" stroke-width="1" />
<line x1="20" y1="94" x2="320" y2="94" stroke="#3C3C3C" stroke-width="1" />
<line x1="20" y1="79" x2="320" y2="79" stroke="#232323" stroke-width="1" />
<line x1="20" y1="49" x2="320" y2="49" stroke="#232323" stroke-width="1" />
<line x1="169" y1="20" x2="169" y2="170" stroke="#232323" stroke-width="1" />
<polyline points="20,96 22,89 25,82 28,81 31,82 34,91 37,84 40,73 43,83 46,85 49,86 52,84 55,80 58,84 61,89 64,94 67,98 70,96 73,95 76,95 79,95 82,96 85,84 88,84 91,81 94,75 97,60 100,57 103,65 106,72 109,72 112,65 115,66 118,57 121,50 124,53 127,69 130,63 133,60 136,65 139,64 142,61 145,52 148,47 151,39 154,38 157,35 160,34 163,35 166,36 169,35 172,34 175,32 179,32 182,38 186,34 189,41 192,40 195,40 198,40 201,44 204,46 207,44 210,43 213,43 216,35 219,35 222,43 225,43 228,40 231,31 234,31 237,34 240,31 243,31 246,23 249,25 252,25 255,23 258,23 261,22 264,22 267,22 270,22 273,24 276,24 279,23 282,23 285,23 288,22 291,22 294,36 297,56 300,38 303,35 306,34 309,27 312,24 315,20 318,20" fill="none" stroke="#FFFF00" stroke-width="2" stroke-linejoin="round" />
<circle cx="113" cy="66" r="4" fill="#00FF00" stroke="#FFFFFF" stroke-width="1">
  <title>Nitro UP (69¢)</title>
</circle>
</svg>