<svg width="340" height="190" xmlns="http://www.w3.org/2000/svg">
<rect width="100%" height="100%" fill="#121212" />
<line x1="20" y1="139" x2="320" y2="139" stroke="#232323" stroke-width="1" />
<line x1="20" y1="109" x2="320" y2="109" stroke="#232323" stroke-width="1" />
<line x1="20" y1="94" x2="320" y2="94" stroke="#3C3C3C" stroke-width="1" />
<line x1="20" y1="79" x2="320" y2="79" stroke="#232323" stroke-width="1" />
<line x1="20" y1="49" x2="320" y2="49" stroke="#232323" stroke-width="1" />
<line x1="169" y1="20" x2="169" y2="170" stroke="#232323" stroke-width="1" />
<polyline points="20,96 22,113 25,114 28,111 31,107 34,100 37,102 40,106 43,108 46,115 49,116 52,110 55,116 58,113 61,110 64,107 67,98 70,97 73,108 76,105 79,106 82,102 85,102 88,99 91,100 94,100 97,100 100,102 103,104 106,105 109,103 112,107 115,110 118,110 121,112 124,106 127,104 130,110 133,110 136,108 139,105 142,107 145,104 148,105 151,110 154,115 157,114 160,120 163,117 166,116 169,117 172,119 175,123 178,123 181,121 184,116 187,122 190,124 193,119 196,122 199,128 202,123 205,105 208,89 211,91 214,93 217,84 220,92 223,93 226,112 229,110 232,97 235,94 238,81 241,104 244,106 247,98 250,84 253,100 256,106 259,114 262,113 265,113 268,111 271,75 274,63 277,59 280,49 283,46 286,43 289,43 292,28 295,25 298,24 301,21 304,20 307,20 310,20 313,20 316,20" fill="none" stroke="#FFFF00" stroke-width="2" stroke-linejoin="round" />
<circle cx="116" cy="79" r="4" fill="#FF0000" stroke="#FFFFFF" stroke-width="1">
  <title>VolSnap DOWN (60¢)</title>
</circle>
</svg>