<svg width="340" height="190" xmlns="http://www.w3.org/2000/svg">
<rect width="100%" height="100%" fill="#121212" />
<line x1="20" y1="139" x2="320" y2="139" stroke="#232323" stroke-width="1" />
<line x1="20" y1="109" x2="320" y2="109" stroke="#232323" stroke-width="1" />
<line x1="20" y1="94" x2="320" y2="94" stroke="#3C3C3C" stroke-width="1" />
<line x1="20" y1="79" x2="320" y2="79" stroke="#232323" stroke-width="1" />
<line x1="20" y1="49" x2="320" y2="49" stroke="#232323" stroke-width="1" />
<line x1="169" y1="20" x2="169" y2="170" stroke="#232323" stroke-width="1" />
<polyline points="20,94 22,120 25,120 28,128 31,130 34,135 37,136 40,142 43,139 46,143 49,144 52,143 55,142 58,142 61,141 64,139 67,139 70,133 73,137 76,143 79,139 82,142 85,142 88,142 91,141 94,142 97,147 100,145 103,145 106,148 109,151 112,143 115,145 118,138 121,145 124,148 127,150 130,150 133,148 136,148 139,148 142,151 145,147 148,147 151,146 154,150 157,154 160,157 163,156 166,160 169,162 172,162 175,163 178,162 181,163 184,163 187,164 190,165 193,165 196,165 199,166 202,165 205,164 208,165 211,163 214,165 217,165 220,165 223,166 226,166 229,166 232,166 235,166 238,166 241,166 244,166 247,167 250,167 253,167 256,167 259,167 262,167 265,167 268,167 271,167 274,167 277,167 280,167 283,167 286,167 289,167 292,168 295,168 298,167 301,168 304,168 307,167 310,168 313,168 316,168" fill="none" stroke="#FFFF00" stroke-width="2" stroke-linejoin="round" />
<circle cx="32" cy="60" r="4" fill="#FF0000" stroke="#FFFFFF" stroke-width="1">
  <title>Nitro DOWN (73¢)</title>
</circle>
<circle cx="119" cy="49" r="4" fill="#FF0000" stroke="#FFFFFF" stroke-width="1">
  <title>VolSnap DOWN (80¢)</title>
</circle>
</svg>