<svg width="340" height="190" xmlns="http://www.w3.org/2000/svg">
<rect width="100%" height="100%" fill="#121212" />
<line x1="20" y1="139" x2="320" y2="139" stroke="#232323" stroke-width="1" />
<line x1="20" y1="109" x2="320" y2="109" stroke="#232323" stroke-width="1" />
<line x1="20" y1="94" x2="320" y2="94" stroke="#3C3C3C" stroke-width="1" />
<line x1="20" y1="79" x2="320" y2="79" stroke="#232323" stroke-width="1" />
<line x1="20" y1="49" x2="320" y2="49" stroke="#232323" stroke-width="1" />
<line x1="169" y1="20" x2="169" y2="170" stroke="#232323" stroke-width="1" />
<polyline points="20,95 22,95 25,93 28,93 31,88 34,81 37,74 40,72 43,74 46,75 49,76 52,79 55,81 58,84 61,84 64,80 67,76 70,68 73,59 76,55 79,50 82,49 85,39 88,38 91,38 94,49 97,56 100,50 103,57 106,65 109,62 112,66 115,66 118,64 121,70 124,69 127,74 130,88 133,90 136,91 139,80 142,82 145,90 148,88 151,86 154,78 157,89 160,74 163,64 166,60 169,58 172,74 175,72 178,81 181,79 184,75 187,62 190,63 193,68 196,64 199,58 202,49 205,59 208,69 211,65 214,55 217,57 220,66 223,68 226,68 229,79 232,89 235,96 238,96 241,99 244,96 247,93 250,91 253,96 256,101 259,93 262,110 265,116 268,131 271,136 274,139 277,148 280,146 283,154 286,157 289,157 292,159 295,165 298,163 301,165 304,166 307,167 310,167 313,167 316,167" fill="none" stroke="#FFFF00" stroke-width="2" stroke-linejoin="round" />
<circle cx="38" cy="75" r="4" fill="#00FF00" stroke="#FFFFFF" stroke-width="1">
  <title>Briefing UP (63¢)</title>
</circle>
<circle cx="38" cy="75" r="4" fill="#00FF00" stroke="#FFFFFF" stroke-width="1">
  <title>Nitro UP (63¢)</title>
</circle>
<circle cx="83" cy="51" r="4" fill="#00FF00" stroke="#FFFFFF" stroke-width="1">
  <title>VolSnap UP (79¢)</title>
</circle>
</svg>