<svg width="340" height="190" xmlns="http://www.w3.org/2000/svg">
<rect width="100%" height="100%" fill="#121212" />
<line x1="20" y1="139" x2="320" y2="139" stroke="#232323" stroke-width="1" />
<line x1="20" y1="109" x2="320" y2="109" stroke="#232323" stroke-width="1" />
<line x1="20" y1="94" x2="320" y2="94" stroke="#3C3C3C" stroke-width="1" />
<line x1="20" y1="79" x2="320" y2="79" stroke="#232323" stroke-width="1" />
<line x1="20" y1="49" x2="320" y2="49" stroke="#232323" stroke-width="1" />
<line x1="169" y1="20" x2="169" y2="170" stroke="#232323" stroke-width="1" />
<polyline points="20,90 22,92 25,77 28,84 31,81 34,81 37,84 40,80 43,78 46,78 49,84 52,81 55,87 58,85 61,90 64,87 67,87 70,86 73,84 76,75 79,70 82,66 85,60 88,63 91,66 94,64 97,62 100,61 103,60 106,65 109,70 112,75 115,75 118,85 121,89 124,87 127,99 130,101 133,101 136,104 139,107 142,106 145,104 148,96 151,101 154,107 157,107 160,105 163,104 166,101 169,97 172,104 175,105 178,98 181,98 184,95 187,90 190,84 193,86 196,86 199,84 202,82 205,72 208,81 211,67 214,65 217,58 220,58 223,59 226,56 229,51 232,66 235,59 238,66 241,63 244,68 247,76 250,83 253,77 256,95 259,125 262,125 265,121 268,119 271,123 274,127 277,133 280,142 283,135 286,143 289,136 292,138 295,139 298,144 301,142 304,158 307,162 310,141 313,162 316,167" fill="none" stroke="#FFFF00" stroke-width="2" stroke-linejoin="round" />
<circle cx="83" cy="69" r="4" fill="#00FF00" stroke="#FFFFFF" stroke-width="1">
  <title>VolSnap UP (67¢)</title>
</circle>
<circle cx="260" cy="63" r="4" fill="#FF0000" stroke="#FFFFFF" stroke-width="1">
  <title>MM2 DOWN (71¢)</title>
</circle>
</svg>