<svg width="340" height="190" xmlns="http://www.w3.org/2000/svg">
<rect width="100%" height="100%" fill="#121212" />
<line x1="20" y1="139" x2="320" y2="139" stroke="#232323" stroke-width="1" />
<line x1="20" y1="109" x2="320" y2="109" stroke="#232323" stroke-width="1" />
<line x1="20" y1="94" x2="320" y2="94" stroke="#3C3C3C" stroke-width="1" />
<line x1="20" y1="79" x2="320" y2="79" stroke="#232323" stroke-width="1" />
<line x1="20" y1="49" x2="320" y2="49" stroke="#232323" stroke-width="1" />
<line x1="169" y1="20" x2="169" y2="170" stroke="#232323" stroke-width="1" />
<polyline points="20,62 55,62 59,58 62,59 65,53 68,55 71,61 74,55 77,57 80,54 83,53 86,50 89,47 92,49 95,48 98,46 101,48 104,47 107,55 110,55 113,54 116,47 119,48 122,48 125,43 128,42 131,43 134,45 137,50 140,52 143,49 146,50 149,58 152,55 155,63 158,63 161,65 164,66 167,71 170,81 173,88 176,78 179,71 182,73 185,75 188,66 191,75 194,75 197,74 200,75 203,63 206,66 209,61 212,60 215,56 218,51 221,54 224,52 227,51 230,50 233,53 236,52 239,49 242,47 245,56 248,71 251,84 254,88 257,108 260,119 263,116 266,120 269,133 272,143 275,148 278,156 281,160 284,160 287,160 290,154 293,145 296,148 299,133 302,99 305,37 308,28 311,20 314,20 317,20" fill="none" stroke="#FFFF00" stroke-width="2" stroke-linejoin="round" />
</svg>