<svg width="340" height="190" xmlns="http://www.w3.org/2000/svg">
<rect width="100%" height="100%" fill="#121212" />
<line x1="20" y1="139" x2="320" y2="139" stroke="#232323" stroke-width="1" />
<line x1="20" y1="109" x2="320" y2="109" stroke="#232323" stroke-width="1" />
<line x1="20" y1="94" x2="320" y2="94" stroke="#3C3C3C" stroke-width="1" />
<line x1="20" y1="79" x2="320" y2="79" stroke="#232323" stroke-width="1" />
<line x1="20" y1="49" x2="320" y2="49" stroke="#232323" stroke-width="1" />
<line x1="169" y1="20" x2="169" y2="170" stroke="#232323" stroke-width="1" />
<polyline points="20,90 21,90 24,85 27,78 30,65 33,69 36,65 39,66 42,64 45,69 48,70 51,63 55,68 58,71 61,72 64,86 67,91 70,90 73,87 76,86 79,84 82,83 85,95 88,94 91,89 94,81 97,87 100,88 103,84 106,83 109,74 112,78 115,72 118,72 121,81 124,78 127,78 130,70 133,69 136,66 139,72 142,73 145,78 148,83 151,83 154,73 157,63 160,63 163,63 166,63 169,63 172,57 175,52 178,47 181,46 184,45 187,38 190,32 193,30 196,29 199,27 202,28 205,32 208,32 211,26 214,26 217,26 220,29 223,30 226,37 229,42 232,38 235,40 238,48 241,48 244,50 247,58 250,59 253,59 256,51 259,48 262,35 265,32 268,29 271,23 274,22 277,22 280,22 283,22 286,22 289,22 292,22 295,22 298,22 301,22 304,22 307,20 310,20 313,20 316,20" fill="none" stroke="#FFFF00" stroke-width="2" stroke-linejoin="round" />
<circle cx="110" cy="75" r="4" fill="#00FF00" stroke="#FFFFFF" stroke-width="1">
  <title>VolSnap UP (63¢)</title>
</circle>
<circle cx="239" cy="49" r="4" fill="#00FF00" stroke="#FFFFFF" stroke-width="1">
  <title>VolSnap UP (80¢)</title>
</circle>
</svg>