<svg width="340" height="190" xmlns="http://www.w3.org/2000/svg">
<rect width="100%" height="100%" fill="#121212" />
<line x1="20" y1="139" x2="320" y2="139" stroke="#232323" stroke-width="1" />
<line x1="20" y1="109" x2="320" y2="109" stroke="#232323" stroke-width="1" />
<line x1="20" y1="94" x2="320" y2="94" stroke="#3C3C3C" stroke-width="1" />
<line x1="20" y1="79" x2="320" y2="79" stroke="#232323" stroke-width="1" />
<line x1="20" y1="49" x2="320" y2="49" stroke="#232323" stroke-width="1" />
<line x1="169" y1="20" x2="169" y2="170" stroke="#232323" stroke-width="1" />
<polyline points="20,96 21,96 24,90 27,92 30,91 33,93 36,84 39,89 42,103 45,104 48,107 51,114 54,116 57,110 60,116 63,117 66,126 69,125 72,128 75,126 78,128 81,127 84,125 87,121 90,124 93,128 96,131 99,133 102,135 105,136 108,125 111,128 114,122 117,111 120,111 123,95 126,74 129,82 132,75 135,81 138,85 141,79 144,79 147,88 150,81 153,87 156,100 159,107 162,111 165,116 168,102 171,105 174,113 177,119 180,113 183,101 186,99 189,95 192,104 195,110 198,112 201,118 204,119 207,99 210,105 213,111 216,111 219,116 222,133 225,136 228,151 231,150 234,146 237,133 240,131 243,140 246,148 249,150 252,151 255,151 258,150 261,146 264,157 267,160 270,163 273,163 276,151 279,165 282,165 285,166 288,166 291,166 294,166 297,167 300,167 303,167 306,167 309,167 312,167 315,167 318,167" fill="none" stroke="#FFFF00" stroke-width="2" stroke-linejoin="round" />
<circle cx="70" cy="63" r="4" fill="#FF0000" stroke="#FFFFFF" stroke-width="1">
  <title>Nitro DOWN (71¢)</title>
</circle>
<circle cx="82" cy="63" r="4" fill="#FF0000" stroke="#FFFFFF" stroke-width="1">
  <title>VolSnap DOWN (71¢)</title>
</circle>
</svg>