<svg width="340" height="190" xmlns="http://www.w3.org/2000/svg">
<rect width="100%" height="100%" fill="#121212" />
<line x1="20" y1="139" x2="320" y2="139" stroke="#232323" stroke-width="1" />
<line x1="20" y1="109" x2="320" y2="109" stroke="#232323" stroke-width="1" />
<line x1="20" y1="94" x2="320" y2="94" stroke="#3C3C3C" stroke-width="1" />
<line x1="20" y1="79" x2="320" y2="79" stroke="#232323" stroke-width="1" />
<line x1="20" y1="49" x2="320" y2="49" stroke="#232323" stroke-width="1" />
<line x1="169" y1="20" x2="169" y2="170" stroke="#232323" stroke-width="1" />
<polyline points="20,104 21,104 24,110 27,109 30,109 33,110 36,110 39,109 42,110 45,99 48,101 51,84 54,82 57,74 60,76 63,72 66,71 69,63 72,53 75,47 78,51 81,49 84,46 87,46 90,46 93,52 96,46 99,50 102,57 105,62 108,54 111,49 114,48 117,53 120,50 123,52 126,52 129,60 132,58 135,58 138,58 141,66 144,69 147,69 150,65 153,66 156,68 159,66 162,66 165,66 168,66 171,63 174,77 177,71 180,71 183,66 186,62 189,50 192,55 195,50 198,49 201,43 204,53 207,52 210,41 213,40 216,31 219,28 222,28 225,23 228,23 231,22 234,23 237,24 240,23 243,23 246,22 249,23 252,22 255,23 258,22 261,22 264,22 267,22 270,22 273,20 276,20 279,20 282,20 285,20 288,20 291,20 294,20 297,20 300,20 303,20 306,20 309,20 312,20 315,20 318,20" fill="none" stroke="#FFFF00" stroke-width="2" stroke-linejoin="round" />
<circle cx="79" cy="51" r="4" fill="#00FF00" stroke="#FFFFFF" stroke-width="1">
  <title>Nitro UP (79¢)</title>
</circle>
</svg>