<svg width="340" height="190" xmlns="http://www.w3.org/2000/svg">
<rect width="100%" height="100%" fill="#121212" />
<line x1="20" y1="139" x2="320" y2="139" stroke="#232323" stroke-width="1" />
<line x1="20" y1="109" x2="320" y2="109" stroke="#232323" stroke-width="1" />
<line x1="20" y1="94" x2="320" y2="94" stroke="#3C3C3C" stroke-width="1" />
<line x1="20" y1="79" x2="320" y2="79" stroke="#232323" stroke-width="1" />
<line x1="20" y1="49" x2="320" y2="49" stroke="#232323" stroke-width="1" />
<line x1="169" y1="20" x2="169" y2="170" stroke="#232323" stroke-width="1" />
<polyline points="20,84 22,83 25,72 28,70 31,72 34,71 37,73 40,69 43,72 46,69 49,72 52,75 55,78 58,81 61,84 64,89 67,92 70,98 73,98 76,95 79,98 82,93 85,94 88,93 91,93 94,89 97,81 100,69 103,70 106,71 109,77 112,80 115,78 118,80 121,81 124,83 127,75 130,84 133,83 136,104 139,117 142,113 145,109 148,116 151,104 154,107 157,113 160,113 163,113 166,114 169,115 172,112 175,115 178,115 181,118 184,122 187,125 190,136 193,131 196,133 199,133 202,133 205,138 208,138 211,138 214,138 217,141 220,136 223,131 226,127 229,135 232,132 235,133 238,135 241,139 244,142 247,149 250,148 253,150 256,154 259,158 262,163 265,165 268,166 271,167 274,167 277,167 280,167 283,167 286,167 289,167 292,167 295,167 298,167 301,167 304,167 307,167 310,167 313,167 316,167" fill="none" stroke="#FFFF00" stroke-width="2" stroke-linejoin="round" />
<circle cx="101" cy="67" r="4" fill="#00FF00" stroke="#FFFFFF" stroke-width="1">
  <title>VolSnap UP (68¢)</title>
</circle>
<circle cx="140" cy="78" r="4" fill="#FF0000" stroke="#FFFFFF" stroke-width="1">
  <title>MM2 DOWN (61¢)</title>
</circle>
<circle cx="140" cy="78" r="4" fill="#FF0000" stroke="#FFFFFF" stroke-width="1">
  <title>WCP DOWN (61¢)</title>
</circle>
</svg>