<svg width="340" height="190" xmlns="http://www.w3.org/2000/svg">
<rect width="100%" height="100%" fill="#121212" />
<line x1="20" y1="139" x2="320" y2="139" stroke="#232323" stroke-width="1" />
<line x1="20" y1="109" x2="320" y2="109" stroke="#232323" stroke-width="1" />
<line x1="20" y1="94" x2="320" y2="94" stroke="#3C3C3C" stroke-width="1" />
<line x1="20" y1="79" x2="320" y2="79" stroke="#232323" stroke-width="1" />
<line x1="20" y1="49" x2="320" y2="49" stroke="#232323" stroke-width="1" />
<line x1="169" y1="20" x2="169" y2="170" stroke="#232323" stroke-width="1" />
<polyline points="20,99 22,101 25,99 28,102 31,104 34,107 37,108 40,110 43,111 46,116 49,119 52,122 55,117 58,121 61,123 64,123 67,122 70,128 73,133 76,132 79,131 82,131 85,129 88,122 91,123 94,123 97,119 100,119 103,122 106,127 109,123 112,125 115,126 118,126 121,119 124,116 127,106 130,108 133,116 136,110 139,113 142,121 146,110 149,110 152,107 155,102 158,99 161,99 164,97 167,94 170,87 173,84 176,81 179,74 182,69 185,70 188,75 191,74 194,70 197,66 200,71 203,66 206,66 209,68 212,66 215,59 218,59 221,56 224,56 227,55 230,45 233,50 236,49 239,35 242,40 245,39 248,34 251,35 254,32 257,26 260,25 263,27 266,28 269,28 272,29 275,31 278,29 281,28 284,46 287,43 290,45 293,43 296,46 299,52 302,46 305,40 308,40 311,29 314,34 317,48" fill="none" stroke="#FFFF00" stroke-width="2" stroke-linejoin="round" />
<circle cx="38" cy="81" r="4" fill="#FF0000" stroke="#FFFFFF" stroke-width="1">
  <title>MM2 DOWN (59¢)</title>
</circle>
<circle cx="83" cy="58" r="4" fill="#FF0000" stroke="#FFFFFF" stroke-width="1">
  <title>Nitro DOWN (74¢)</title>
</circle>
<circle cx="83" cy="58" r="4" fill="#FF0000" stroke="#FFFFFF" stroke-width="1">
  <title>VolSnap DOWN (74¢)</title>
</circle>
</svg>