<svg width="340" height="190" xmlns="http://www.w3.org/2000/svg">
<rect width="100%" height="100%" fill="#121212" />
<line x1="20" y1="139" x2="320" y2="139" stroke="#232323" stroke-width="1" />
<line x1="20" y1="109" x2="320" y2="109" stroke="#232323" stroke-width="1" />
<line x1="20" y1="94" x2="320" y2="94" stroke="#3C3C3C" stroke-width="1" />
<line x1="20" y1="79" x2="320" y2="79" stroke="#232323" stroke-width="1" />
<line x1="20" y1="49" x2="320" y2="49" stroke="#232323" stroke-width="1" />
<line x1="169" y1="20" x2="169" y2="170" stroke="#232323" stroke-width="1" />
<polyline points="20,95 22,95 25,95 28,95 31,95 34,95 37,87 40,81 43,77 46,77 49,79 52,75 55,69 58,71 61,68 64,88 67,102 70,107 73,120 76,122 79,119 82,126 85,122 88,128 91,133 94,126 97,123 100,125 103,130 106,137 109,142 112,150 115,148 118,143 121,150 125,144 128,146 131,147 134,147 137,149 140,149 143,149 146,147 149,142 152,143 155,151 158,150 161,151 164,150 167,149 170,148 173,153 176,153 179,148 182,143 185,147 188,148 191,153 194,145 197,148 200,148 203,153 206,149 209,151 212,154 215,154 218,153 221,154 224,158 227,157 230,160 233,162 236,163 239,163 242,164 245,165 248,165 251,163 254,164 257,165 260,165 263,150 266,142 269,144 272,150 275,157 278,165 281,160 284,157 287,158 290,154 293,156 296,160 299,165 302,166 305,163 308,162 311,148 314,159 317,167" fill="none" stroke="#FFFF00" stroke-width="2" stroke-linejoin="round" />
</svg>