<svg width="340" height="190" xmlns="http://www.w3.org/2000/svg">
<rect width="100%" height="100%" fill="#121212" />
<line x1="20" y1="139" x2="320" y2="139" stroke="#232323" stroke-width="1" />
<line x1="20" y1="109" x2="320" y2="109" stroke="#232323" stroke-width="1" />
<line x1="20" y1="94" x2="320" y2="94" stroke="#3C3C3C" stroke-width="1" />
<line x1="20" y1="79" x2="320" y2="79" stroke="#232323" stroke-width="1" />
<line x1="20" y1="49" x2="320" y2="49" stroke="#232323" stroke-width="1" />
<line x1="169" y1="20" x2="169" y2="170" stroke="#232323" stroke-width="1" />
<polyline points="20,90 20,90 23,95 26,104 29,99 32,92 35,88 38,87 41,84 44,74 47,74 50,82 53,91 56,93 59,97 62,90 65,87 68,87 71,95 74,94 77,82 80,84 83,87 86,84 89,84 92,83 95,85 98,78 101,75 104,72 107,68 110,75 113,74 116,75 119,68 122,62 125,60 128,54 131,49 134,37 137,40 140,46 143,59 146,60 149,61 152,52 155,49 158,46 161,47 164,49 167,41 170,40 173,41 176,49 179,38 182,37 185,35 188,35 191,33 194,33 197,31 200,28 203,26 206,23 209,23 212,22 215,22 218,22 221,22 224,20 227,20 230,20 233,20 236,20 239,20 242,20 245,20 248,20 251,20 254,20 257,20 260,20 263,20 266,20 269,20 272,20 275,20 278,20 281,20 284,20 287,20 290,20 293,20 296,20 299,20 302,20 305,20 308,20 311,20 314,20 317,20" fill="none" stroke="#FFFF00" stroke-width="2" stroke-linejoin="round" />
<circle cx="144" cy="60" r="4" fill="#00FF00" stroke="#FFFFFF" stroke-width="1">
  <title>Nitro UP (73¢)</title>
</circle>
</svg>