<svg width="340" height="190" xmlns="http://www.w3.org/2000/svg">
<rect width="100%" height="100%" fill="#121212" />
<line x1="20" y1="139" x2="320" y2="139" stroke="#232323" stroke-width="1" />
<line x1="20" y1="109" x2="320" y2="109" stroke="#232323" stroke-width="1" />
<line x1="20" y1="94" x2="320" y2="94" stroke="#3C3C3C" stroke-width="1" />
<line x1="20" y1="79" x2="320" y2="79" stroke="#232323" stroke-width="1" />
<line x1="20" y1="49" x2="320" y2="49" stroke="#232323" stroke-width="1" />
<line x1="169" y1="20" x2="169" y2="170" stroke="#232323" stroke-width="1" />
<polyline points="20,89 21,89 24,89 27,93 30,93 33,94 36,91 39,93 42,93 45,96 48,107 51,100 54,107 57,107 60,109 63,105 66,101 69,95 72,98 75,98 78,97 81,96 84,93 87,95 90,98 93,107 96,92 99,99 102,94 105,80 108,77 111,70 114,70 117,76 120,76 123,66 126,81 129,84 132,87 135,87 138,87 141,89 144,95 147,102 150,104 153,119 156,122 159,122 162,123 165,118 168,126 171,131 174,128 177,123 180,119 183,119 186,122 189,123 192,122 195,122 198,123 201,128 204,136 207,135 210,137 213,139 216,131 219,133 222,141 225,144 228,144 231,148 234,154 237,154 240,156 243,157 246,145 249,148 252,141 255,143 258,142 261,147 264,148 267,160 270,163 273,160 276,165 279,165 282,163 285,165 288,166 291,166 294,166 297,167 300,167 303,167 306,167 309,167 312,167 315,167 318,167" fill="none" stroke="#FFFF00" stroke-width="2" stroke-linejoin="round" />
<circle cx="61" cy="79" r="4" fill="#FF0000" stroke="#FFFFFF" stroke-width="1">
  <title>MM2 DOWN (60¢)</title>
</circle>
<circle cx="154" cy="72" r="4" fill="#FF0000" stroke="#FFFFFF" stroke-width="1">
  <title>VolSnap DOWN (65¢)</title>
</circle>
</svg>