<svg width="340" height="190" xmlns="http://www.w3.org/2000/svg">
<rect width="100%" height="100%" fill="#121212" />
<line x1="20" y1="139" x2="320" y2="139" stroke="#232323" stroke-width="1" />
<line x1="20" y1="109" x2="320" y2="109" stroke="#232323" stroke-width="1" />
<line x1="20" y1="94" x2="320" y2="94" stroke="#3C3C3C" stroke-width="1" />
<line x1="20" y1="79" x2="320" y2="79" stroke="#232323" stroke-width="1" />
<line x1="20" y1="49" x2="320" y2="49" stroke="#232323" stroke-width="1" />
<line x1="169" y1="20" x2="169" y2="170" stroke="#232323" stroke-width="1" />
<polyline points="20,93 20,93 23,102 26,106 29,111 32,114 35,116 38,119 41,117 44,114 47,113 50,103 53,98 56,98 59,103 62,100 65,98 68,102 71,95 74,86 77,82 80,77 83,84 86,90 89,92 92,98 95,108 98,110 101,110 104,99 107,101 110,103 113,105 116,105 119,90 122,89 125,98 128,98 131,102 134,98 137,96 140,96 143,104 146,109 149,118 152,116 155,122 158,126 161,131 164,140 167,132 170,142 173,142 176,142 179,148 182,146 185,148 188,150 191,154 194,155 197,158 200,159 203,160 206,161 209,162 212,162 215,162 218,161 221,163 224,163 227,165 230,165 233,165 236,165 239,165 242,165 245,166 248,166 251,165 254,166 257,166 260,166 263,163 266,166 269,167 272,167 275,167 278,167 281,167 284,167 287,167 290,167 293,167 296,167 299,167 302,167 305,167 308,167 311,167 314,168 317,168" fill="none" stroke="#FFFF00" stroke-width="2" stroke-linejoin="round" />
<circle cx="30" cy="78" r="4" fill="#FF0000" stroke="#FFFFFF" stroke-width="1">
  <title>MM2 DOWN (61¢)</title>
</circle>
<circle cx="30" cy="78" r="4" fill="#FF0000" stroke="#FFFFFF" stroke-width="1">
  <title>WCP DOWN (61¢)</title>
</circle>
</svg>