<svg width="340" height="190" xmlns="http://www.w3.org/2000/svg">
<rect width="100%" height="100%" fill="#121212" />
<line x1="20" y1="139" x2="320" y2="139" stroke="#232323" stroke-width="1" />
<line x1="20" y1="109" x2="320" y2="109" stroke="#232323" stroke-width="1" />
<line x1="20" y1="94" x2="320" y2="94" stroke="#3C3C3C" stroke-width="1" />
<line x1="20" y1="79" x2="320" y2="79" stroke="#232323" stroke-width="1" />
<line x1="20" y1="49" x2="320" y2="49" stroke="#232323" stroke-width="1" />
<line x1="169" y1="20" x2="169" y2="170" stroke="#232323" stroke-width="1" />
<polyline points="20,85 20,85 23,85 26,86 29,86 32,90 35,90 38,87 41,87 44,89 47,90 50,93 54,83 58,90 61,87 64,77 67,78 70,78 73,86 76,84 79,84 82,96 85,96 88,89 91,87 94,93 97,93 100,92 103,88 106,87 109,89 112,84 115,91 118,96 121,95 124,95 127,104 130,103 133,104 136,107 139,105 142,111 145,111 148,109 151,110 154,111 157,126 160,125 163,126 166,128 169,129 172,131 175,126 178,123 181,118 184,117 187,117 190,152 193,157 196,155 199,152 202,157 205,157 208,156 211,156 214,157 217,157 220,159 223,160 226,160 229,160 232,164 235,165 238,165 241,166 244,165 247,166 250,166 253,166 256,166 259,166 262,167 265,167 268,164 271,164 274,163 277,163 280,163 283,165 286,165 289,165 292,166 295,167 298,166 301,167 304,167 307,167 310,167 313,167 316,167" fill="none" stroke="#FFFF00" stroke-width="2" stroke-linejoin="round" />
</svg>