<svg width="340" height="190" xmlns="http://www.w3.org/2000/svg">
<rect width="100%" height="100%" fill="#121212" />
<line x1="20" y1="139" x2="320" y2="139" stroke="#232323" stroke-width="1" />
<line x1="20" y1="109" x2="320" y2="109" stroke="#232323" stroke-width="1" />
<line x1="20" y1="94" x2="320" y2="94" stroke="#3C3C3C" stroke-width="1" />
<line x1="20" y1="79" x2="320" y2="79" stroke="#232323" stroke-width="1" />
<line x1="20" y1="49" x2="320" y2="49" stroke="#232323" stroke-width="1" />
<line x1="169" y1="20" x2="169" y2="170" stroke="#232323" stroke-width="1" />
<polyline points="20,89 21,89 24,83 27,86 30,72 33,70 36,80 39,81 42,81 45,86 48,89 51,89 54,94 57,94 60,91 63,89 66,87 69,87 72,72 75,62 78,60 81,53 84,49 87,45 90,37 93,38 96,38 99,37 102,43 105,37 108,34 111,36 114,41 117,43 120,44 123,43 126,39 129,37 132,40 135,40 138,40 141,34 144,31 147,31 150,31 153,30 156,47 159,34 162,28 165,28 168,29 171,37 174,34 177,32 180,29 183,31 186,31 189,29 192,31 195,32 198,30 201,27 204,26 207,28 210,31 213,26 216,26 219,26 222,25 225,25 228,24 231,23 234,22 237,22 240,22 243,22 246,20 249,20 252,20 255,20 258,20 261,20 264,20 267,20 270,20 273,20 276,20 279,20 282,20 285,20 288,20 291,20 294,20 297,20 300,20 303,20 306,20 309,20 312,20 315,20 318,20" fill="none" stroke="#FFFF00" stroke-width="2" stroke-linejoin="round" />
<circle cx="82" cy="54" r="4" fill="#00FF00" stroke="#FFFFFF" stroke-width="1">
  <title>VolSnap UP (77¢)</title>
</circle>
<circle cx="85" cy="51" r="4" fill="#00FF00" stroke="#FFFFFF" stroke-width="1">
  <title>Nitro UP (79¢)</title>
</circle>
</svg>