<svg width="340" height="190" xmlns="http://www.w3.org/2000/svg">
<rect width="100%" height="100%" fill="#121212" />
<line x1="20" y1="139" x2="320" y2="139" stroke="#232323" stroke-width="1" />
<line x1="20" y1="109" x2="320" y2="109" stroke="#232323" stroke-width="1" />
<line x1="20" y1="94" x2="320" y2="94" stroke="#3C3C3C" stroke-width="1" />
<line x1="20" y1="79" x2="320" y2="79" stroke="#232323" stroke-width="1" />
<line x1="20" y1="49" x2="320" y2="49" stroke="#232323" stroke-width="1" />
<line x1="169" y1="20" x2="169" y2="170" stroke="#232323" stroke-width="1" />
<polyline points="20,97 22,107 25,116 28,108 31,99 34,98 37,99 40,99 43,103 46,112 49,117 52,122 55,128 58,128 61,133 64,130 67,130 70,122 73,116 76,104 79,101 82,93 85,89 88,86 91,90 94,93 97,97 100,107 103,111 106,116 109,108 112,115 115,121 118,117 121,122 124,105 127,103 130,90 133,82 136,84 139,76 142,66 145,67 148,84 151,98 154,113 157,108 160,95 163,103 166,112 169,117 172,125 175,122 178,135 181,123 184,121 187,121 190,122 193,121 196,122 199,130 202,113 205,96 208,92 211,80 214,73 217,81 220,101 223,89 226,78 229,80 232,72 235,52 238,42 241,56 244,49 247,46 250,37 253,31 256,27 259,26 262,46 265,54 268,60 271,43 274,44 277,31 280,27 283,27 286,23 289,25 292,31 295,43 298,71 301,46 304,43 307,37 310,22 313,20 316,20" fill="none" stroke="#FFFF00" stroke-width="2" stroke-linejoin="round" />
<circle cx="47" cy="79" r="4" fill="#FF0000" stroke="#FFFFFF" stroke-width="1">
  <title>MM2 DOWN (60¢)</title>
</circle>
<circle cx="47" cy="79" r="4" fill="#FF0000" stroke="#FFFFFF" stroke-width="1">
  <title>Nitro DOWN (60¢)</title>
</circle>
<circle cx="101" cy="81" r="4" fill="#FF0000" stroke="#FFFFFF" stroke-width="1">
  <title>VolSnap DOWN (59¢)</title>
</circle>
<circle cx="176" cy="69" r="4" fill="#FF0000" stroke="#FFFFFF" stroke-width="1">
  <title>GrindSnap DOWN (67¢)</title>
</circle>
</svg>