<svg width="340" height="190" xmlns="http://www.w3.org/2000/svg">
<rect width="100%" height="100%" fill="#121212" />
<line x1="20" y1="139" x2="320" y2="139" stroke="#232323" stroke-width="1" />
<line x1="20" y1="109" x2="320" y2="109" stroke="#232323" stroke-width="1" />
<line x1="20" y1="94" x2="320" y2="94" stroke="#3C3C3C" stroke-width="1" />
<line x1="20" y1="79" x2="320" y2="79" stroke="#232323" stroke-width="1" />
<line x1="20" y1="49" x2="320" y2="49" stroke="#232323" stroke-width="1" />
<line x1="169" y1="20" x2="169" y2="170" stroke="#232323" stroke-width="1" />
<polyline points="20,92 20,92 23,93 26,92 29,85 32,85 35,92 38,90 41,90 44,84 47,87 50,93 53,93 56,93 59,91 62,89 65,93 68,108 71,109 74,107 77,107 80,109 83,105 86,98 89,95 92,99 95,102 98,104 101,103 104,102 107,104 110,116 113,117 116,117 119,122 122,122 125,113 128,104 131,105 134,110 137,108 140,110 143,111 146,109 149,117 152,115 155,110 158,117 161,122 164,122 167,119 170,111 173,119 176,119 179,120 182,120 185,120 188,117 191,120 194,120 197,114 200,116 203,124 206,126 209,126 212,126 215,128 218,143 221,150 224,153 227,146 230,153 233,156 236,154 239,153 242,157 245,154 248,152 251,151 254,146 257,148 260,149 263,144 266,134 269,139 272,137 275,125 278,132 281,142 284,145 287,150 290,151 293,136 296,150 299,139 302,141 305,99 308,99 311,130 314,152 317,166" fill="none" stroke="#FFFF00" stroke-width="2" stroke-linejoin="round" />
<circle cx="111" cy="73" r="4" fill="#FF0000" stroke="#FFFFFF" stroke-width="1">
  <title>VolSnap DOWN (64¢)</title>
</circle>
<circle cx="117" cy="69" r="4" fill="#FF0000" stroke="#FFFFFF" stroke-width="1">
  <title>Nitro DOWN (67¢)</title>
</circle>
</svg>