<svg width="340" height="190" xmlns="http://www.w3.org/2000/svg">
<rect width="100%" height="100%" fill="#121212" />
<line x1="20" y1="139" x2="320" y2="139" stroke="#232323" stroke-width="1" />
<line x1="20" y1="109" x2="320" y2="109" stroke="#232323" stroke-width="1" />
<line x1="20" y1="94" x2="320" y2="94" stroke="#3C3C3C" stroke-width="1" />
<line x1="20" y1="79" x2="320" y2="79" stroke="#232323" stroke-width="1" />
<line x1="20" y1="49" x2="320" y2="49" stroke="#232323" stroke-width="1" />
<line x1="169" y1="20" x2="169" y2="170" stroke="#232323" stroke-width="1" />
<polyline points="20,88 22,89 25,98 28,107 31,107 34,86 37,93 40,98 43,95 46,95 49,105 52,110 55,119 58,119 61,114 64,102 67,101 70,101 73,102 76,97 79,91 82,81 85,87 88,91 91,100 94,112 97,116 100,115 103,107 106,107 109,113 112,108 115,101 118,116 121,119 124,119 127,123 130,126 133,126 136,117 139,118 142,124 145,122 148,126 151,110 154,110 157,113 160,104 163,95 166,93 169,84 172,81 175,74 178,75 181,70 184,75 187,75 190,91 193,95 196,100 199,94 202,94 205,107 208,88 211,86 214,75 217,72 220,75 223,102 226,83 229,94 232,101 235,99 238,109 241,84 244,91 247,90 250,93 253,96 256,101 259,131 262,139 265,124 268,140 271,140 274,124 277,133 280,131 283,129 286,133 289,138 292,147 295,143 298,154 301,158 304,159 307,166 310,166 313,167 316,167" fill="none" stroke="#FFFF00" stroke-width="2" stroke-linejoin="round" />
<circle cx="53" cy="79" r="4" fill="#FF0000" stroke="#FFFFFF" stroke-width="1">
  <title>MM2 DOWN (60¢)</title>
</circle>
<circle cx="95" cy="78" r="4" fill="#FF0000" stroke="#FFFFFF" stroke-width="1">
  <title>VolSnap DOWN (61¢)</title>
</circle>
</svg>