<svg width="340" height="190" xmlns="http://www.w3.org/2000/svg">
<rect width="100%" height="100%" fill="#121212" />
<line x1="20" y1="139" x2="320" y2="139" stroke="#232323" stroke-width="1" />
<line x1="20" y1="109" x2="320" y2="109" stroke="#232323" stroke-width="1" />
<line x1="20" y1="94" x2="320" y2="94" stroke="#3C3C3C" stroke-width="1" />
<line x1="20" y1="79" x2="320" y2="79" stroke="#232323" stroke-width="1" />
<line x1="20" y1="49" x2="320" y2="49" stroke="#232323" stroke-width="1" />
<line x1="169" y1="20" x2="169" y2="170" stroke="#232323" stroke-width="1" />
<polyline points="20,97 21,97 24,95 27,96 30,88 33,98 36,101 39,107 42,113 45,110 48,104 51,108 54,119 57,119 60,110 63,101 66,107 69,113 72,120 75,120 78,116 81,122 84,124 87,122 90,112 93,99 96,105 99,113 102,113 105,109 108,108 111,119 114,114 117,113 120,124 123,125 126,120 129,120 132,125 135,125 138,120 141,118 144,117 147,117 150,127 153,127 156,128 159,129 162,133 165,136 168,138 171,133 174,141 177,139 180,141 183,142 186,145 189,148 192,145 195,142 198,146 201,148 204,135 207,142 210,140 213,142 216,146 219,147 222,147 225,146 228,147 231,147 234,145 237,148 240,148 243,148 246,147 249,142 252,145 255,142 258,146 261,148 264,148 267,122 270,123 273,123 276,139 279,133 282,135 285,126 288,149 291,153 294,156 297,151 300,147 303,117 306,141 309,142 312,142 315,153 318,167" fill="none" stroke="#FFFF00" stroke-width="2" stroke-linejoin="round" />
<circle cx="43" cy="76" r="4" fill="#FF0000" stroke="#FFFFFF" stroke-width="1">
  <title>MM2 DOWN (62¢)</title>
</circle>
<circle cx="82" cy="67" r="4" fill="#FF0000" stroke="#FFFFFF" stroke-width="1">
  <title>VolSnap DOWN (68¢)</title>
</circle>
<circle cx="91" cy="78" r="4" fill="#FF0000" stroke="#FFFFFF" stroke-width="1">
  <title>Nitro DOWN (61¢)</title>
</circle>
</svg>