<svg width="340" height="190" xmlns="http://www.w3.org/2000/svg">
<rect width="100%" height="100%" fill="#121212" />
<line x1="20" y1="139" x2="320" y2="139" stroke="#232323" stroke-width="1" />
<line x1="20" y1="109" x2="320" y2="109" stroke="#232323" stroke-width="1" />
<line x1="20" y1="94" x2="320" y2="94" stroke="#3C3C3C" stroke-width="1" />
<line x1="20" y1="79" x2="320" y2="79" stroke="#232323" stroke-width="1" />
<line x1="20" y1="49" x2="320" y2="49" stroke="#232323" stroke-width="1" />
<line x1="169" y1="20" x2="169" y2="170" stroke="#232323" stroke-width="1" />
<polyline points="20,92 22,95 25,96 28,96 31,93 34,96 37,96 40,96 43,96 46,96 49,94 52,94 55,92 58,92 61,96 64,101 67,103 70,102 73,99 76,99 79,99 82,99 85,100 88,101 91,101 94,100 97,98 100,93 103,84 106,84 109,86 112,86 115,83 118,83 121,83 124,83 127,98 130,92 133,106 136,110 139,111 142,120 145,123 148,131 151,131 154,132 157,148 160,148 163,153 166,153 169,154 172,146 175,142 178,144 181,150 184,148 188,147 191,147 194,143 197,149 200,154 203,148 206,147 209,149 212,149 215,148 218,150 221,153 224,154 227,154 230,156 233,157 236,159 239,160 242,160 245,161 248,162 251,163 254,162 257,163 260,163 263,163 266,163 269,163 272,162 275,162 278,162 281,162 284,162 287,163 290,165 293,165 296,165 299,166 302,166 305,167 308,167 311,167 314,167 317,167" fill="none" stroke="#FFFF00" stroke-width="2" stroke-linejoin="round" />
<circle cx="137" cy="79" r="4" fill="#FF0000" stroke="#FFFFFF" stroke-width="1">
  <title>VolSnap DOWN (60¢)</title>
</circle>
</svg>