<svg width="340" height="190" xmlns="http://www.w3.org/2000/svg">
<rect width="100%" height="100%" fill="#121212" />
<line x1="20" y1="139" x2="320" y2="139" stroke="#232323" stroke-width="1" />
<line x1="20" y1="109" x2="320" y2="109" stroke="#232323" stroke-width="1" />
<line x1="20" y1="94" x2="320" y2="94" stroke="#3C3C3C" stroke-width="1" />
<line x1="20" y1="79" x2="320" y2="79" stroke="#232323" stroke-width="1" />
<line x1="20" y1="49" x2="320" y2="49" stroke="#232323" stroke-width="1" />
<line x1="169" y1="20" x2="169" y2="170" stroke="#232323" stroke-width="1" />
<polyline points="20,93 21,93 24,93 27,93 30,98 33,105 36,105 39,107 42,108 45,110 48,105 51,111 54,110 58,112 61,110 64,107 67,109 70,110 73,105 76,107 79,105 82,102 85,101 88,107 91,105 94,105 97,101 100,94 103,94 106,107 109,104 112,107 115,105 118,109 121,110 124,111 127,111 130,111 133,114 136,116 139,119 142,114 145,117 148,119 151,116 154,116 157,117 160,117 163,114 166,113 169,107 172,111 175,104 178,94 181,102 184,96 187,95 190,98 193,98 196,92 199,85 202,80 205,74 208,75 211,81 214,83 217,80 220,77 223,74 226,66 229,67 232,62 235,62 238,62 241,82 244,92 247,95 250,89 253,91 256,84 259,78 262,81 265,84 268,81 271,81 274,72 277,62 280,69 283,66 286,63 289,66 292,69 295,65 298,57 301,56 304,41 307,29 310,29 313,33 316,21" fill="none" stroke="#FFFF00" stroke-width="2" stroke-linejoin="round" />
<circle cx="43" cy="81" r="4" fill="#FF0000" stroke="#FFFFFF" stroke-width="1">
  <title>MM2 DOWN (59¢)</title>
</circle>
<circle cx="43" cy="81" r="4" fill="#FF0000" stroke="#FFFFFF" stroke-width="1">
  <title>Briefing DOWN (59¢)</title>
</circle>
</svg>