<svg width="340" height="190" xmlns="http://www.w3.org/2000/svg">
<rect width="100%" height="100%" fill="#121212" />
<line x1="20" y1="139" x2="320" y2="139" stroke="#232323" stroke-width="1" />
<line x1="20" y1="109" x2="320" y2="109" stroke="#232323" stroke-width="1" />
<line x1="20" y1="94" x2="320" y2="94" stroke="#3C3C3C" stroke-width="1" />
<line x1="20" y1="79" x2="320" y2="79" stroke="#232323" stroke-width="1" />
<line x1="20" y1="49" x2="320" y2="49" stroke="#232323" stroke-width="1" />
<line x1="169" y1="20" x2="169" y2="170" stroke="#232323" stroke-width="1" />
<polyline points="20,87 21,87 24,78 27,77 30,72 33,72 36,72 39,72 42,71 45,71 48,70 51,69 54,74 57,75 60,84 63,84 66,87 69,91 72,95 75,99 78,107 81,107 84,103 87,105 90,111 93,112 96,107 99,98 102,109 105,109 108,104 111,106 114,98 117,96 120,90 123,101 126,107 129,104 132,110 135,113 138,128 141,135 144,141 147,138 150,130 153,122 156,117 159,120 162,124 165,126 168,122 171,125 174,125 177,128 180,126 183,124 186,119 189,116 193,132 196,135 199,129 202,127 205,133 208,143 211,148 214,151 217,151 220,154 223,157 226,155 229,154 232,158 235,159 238,160 241,163 244,164 247,161 250,155 253,154 256,147 259,151 262,145 265,133 268,128 271,126 274,119 277,124 280,123 283,125 286,157 289,163 292,166 295,166 298,167 301,167 304,167 307,167 310,167 313,167 316,167" fill="none" stroke="#FFFF00" stroke-width="2" stroke-linejoin="round" />
<circle cx="91" cy="81" r="4" fill="#FF0000" stroke="#FFFFFF" stroke-width="1">
  <title>MM2 DOWN (59¢)</title>
</circle>
<circle cx="266" cy="55" r="4" fill="#FF0000" stroke="#FFFFFF" stroke-width="1">
  <title>MM2 DOWN (76¢)</title>
</circle>
</svg>