<svg width="340" height="190" xmlns="http://www.w3.org/2000/svg">
<rect width="100%" height="100%" fill="#121212" />
<line x1="20" y1="139" x2="320" y2="139" stroke="#232323" stroke-width="1" />
<line x1="20" y1="109" x2="320" y2="109" stroke="#232323" stroke-width="1" />
<line x1="20" y1="94" x2="320" y2="94" stroke="#3C3C3C" stroke-width="1" />
<line x1="20" y1="79" x2="320" y2="79" stroke="#232323" stroke-width="1" />
<line x1="20" y1="49" x2="320" y2="49" stroke="#232323" stroke-width="1" />
<line x1="169" y1="20" x2="169" y2="170" stroke="#232323" stroke-width="1" />
<polyline points="20,87 20,87 23,91 26,90 29,90 32,90 35,89 38,80 41,80 44,71 47,65 50,66 53,61 56,60 59,60 62,59 65,64 68,67 71,69 74,72 77,66 80,68 83,63 86,52 89,57 92,53 95,49 98,47 101,47 104,53 107,50 110,54 113,53 116,53 119,50 122,45 126,45 129,44 132,43 135,43 138,46 141,43 144,41 147,37 150,34 153,34 156,33 159,33 162,29 165,29 168,28 171,28 174,28 177,28 180,28 183,28 186,28 189,28 192,28 195,32 198,28 201,31 204,31 207,31 210,30 213,28 216,29 219,26 222,25 225,23 228,23 231,23 234,22 237,22 240,22 243,22 246,22 249,20 252,20 255,20 258,20 261,20 264,20 267,20 270,20 273,20 276,20 279,20 282,20 285,20 288,20 291,20 294,20 297,20 300,20 303,20 306,20 309,20 312,20 315,20 318,20" fill="none" stroke="#FFFF00" stroke-width="2" stroke-linejoin="round" />
<circle cx="81" cy="67" r="4" fill="#00FF00" stroke="#FFFFFF" stroke-width="1">
  <title>VolSnap UP (68¢)</title>
</circle>
<circle cx="99" cy="49" r="4" fill="#00FF00" stroke="#FFFFFF" stroke-width="1">
  <title>Nitro UP (80¢)</title>
</circle>
</svg>