<svg width="340" height="190" xmlns="http://www.w3.org/2000/svg">
<rect width="100%" height="100%" fill="#121212" />
<line x1="20" y1="139" x2="320" y2="139" stroke="#232323" stroke-width="1" />
<line x1="20" y1="109" x2="320" y2="109" stroke="#232323" stroke-width="1" />
<line x1="20" y1="94" x2="320" y2="94" stroke="#3C3C3C" stroke-width="1" />
<line x1="20" y1="79" x2="320" y2="79" stroke="#232323" stroke-width="1" />
<line x1="20" y1="49" x2="320" y2="49" stroke="#232323" stroke-width="1" />
<line x1="169" y1="20" x2="169" y2="170" stroke="#232323" stroke-width="1" />
<polyline points="20,92 22,97 25,98 28,98 31,90 34,84 37,80 40,89 43,97 46,85 49,87 52,97 55,99 58,99 61,98 64,95 67,95 70,95 73,83 76,89 79,90 82,95 85,98 88,101 91,95 94,96 97,93 100,89 103,89 106,92 109,89 112,104 115,100 118,101 121,97 124,91 127,87 130,89 133,101 136,82 139,73 142,75 145,72 148,72 151,71 154,78 157,77 160,104 163,97 166,93 169,96 172,95 175,92 178,92 181,92 184,101 187,128 190,132 193,139 196,134 199,132 202,128 205,122 208,120 211,120 214,104 217,103 220,104 223,83 226,83 229,83 232,81 235,83 238,79 241,89 244,90 247,87 250,86 253,83 256,88 259,91 262,96 265,95 268,90 271,90 274,87 277,82 280,78 283,78 286,72 289,71 292,69 295,78 298,96 301,101 304,99 307,104 310,110 313,94 316,89" fill="none" stroke="#FFFF00" stroke-width="2" stroke-linejoin="round" />
</svg>