<svg width="340" height="190" xmlns="http://www.w3.org/2000/svg">
<rect width="100%" height="100%" fill="#121212" />
<line x1="20" y1="139" x2="320" y2="139" stroke="#232323" stroke-width="1" />
<line x1="20" y1="109" x2="320" y2="109" stroke="#232323" stroke-width="1" />
<line x1="20" y1="94" x2="320" y2="94" stroke="#3C3C3C" stroke-width="1" />
<line x1="20" y1="79" x2="320" y2="79" stroke="#232323" stroke-width="1" />
<line x1="20" y1="49" x2="320" y2="49" stroke="#232323" stroke-width="1" />
<line x1="169" y1="20" x2="169" y2="170" stroke="#232323" stroke-width="1" />
<polyline points="20,92 22,87 25,84 28,78 31,71 34,69 37,68 40,72 43,67 46,71 49,61 52,67 55,68 58,75 61,75 64,86 67,87 70,78 73,78 76,74 79,77 82,78 85,79 88,77 91,75 94,64 97,65 100,58 103,60 106,54 109,55 112,46 115,49 118,50 121,52 124,49 127,46 130,43 133,38 136,31 139,28 142,25 145,25 148,26 151,23 154,23 157,23 160,23 163,23 166,22 169,22 172,23 175,23 178,23 181,23 184,22 187,22 190,22 193,23 196,23 199,22 202,22 205,23 208,23 211,22 214,22 217,22 220,20 223,20 226,20 229,20 232,20 235,20 238,20 241,20 244,20 247,20 250,20 253,20 256,20 259,20 262,20 265,20 268,20 271,20 274,20 277,20 280,20 283,20 286,20 289,20 292,20 295,20 298,20 301,20 304,20 307,20 310,20 313,20 316,20" fill="none" stroke="#FFFF00" stroke-width="2" stroke-linejoin="round" />
<circle cx="32" cy="75" r="4" fill="#00FF00" stroke="#FFFFFF" stroke-width="1">
  <title>WCP UP (63¢)</title>
</circle>
<circle cx="47" cy="73" r="4" fill="#00FF00" stroke="#FFFFFF" stroke-width="1">
  <title>Nitro UP (64¢)</title>
</circle>
<circle cx="83" cy="79" r="4" fill="#00FF00" stroke="#FFFFFF" stroke-width="1">
  <title>VolSnap UP (60¢)</title>
</circle>
</svg>