<svg width="340" height="190" xmlns="http://www.w3.org/2000/svg">
<rect width="100%" height="100%" fill="#121212" />
<line x1="20" y1="139" x2="320" y2="139" stroke="#232323" stroke-width="1" />
<line x1="20" y1="109" x2="320" y2="109" stroke="#232323" stroke-width="1" />
<line x1="20" y1="94" x2="320" y2="94" stroke="#3C3C3C" stroke-width="1" />
<line x1="20" y1="79" x2="320" y2="79" stroke="#232323" stroke-width="1" />
<line x1="20" y1="49" x2="320" y2="49" stroke="#232323" stroke-width="1" />
<line x1="169" y1="20" x2="169" y2="170" stroke="#232323" stroke-width="1" />
<polyline points="20,87 21,87 25,92 28,95 31,101 34,97 37,97 40,101 43,96 46,101 49,105 52,107 55,103 58,101 61,99 64,98 67,97 70,101 73,105 76,94 79,85 82,83 85,81 88,81 91,77 94,81 97,95 100,88 103,93 106,95 109,99 112,104 115,97 118,104 121,113 124,113 127,119 130,132 133,131 136,125 139,122 142,119 145,112 148,115 151,114 154,112 157,108 160,106 163,117 166,125 169,129 172,139 175,128 178,136 181,133 184,120 187,135 190,142 193,148 196,154 199,152 202,157 205,160 208,159 211,161 214,163 217,164 220,163 223,161 226,157 229,149 232,145 235,158 238,160 241,151 244,142 247,139 250,130 253,109 256,85 259,76 262,61 265,65 268,69 271,66 274,49 277,28 280,22 283,22 286,20 289,20 292,20 295,20 298,20 301,20 304,20 307,20 310,20 313,20 316,20" fill="none" stroke="#FFFF00" stroke-width="2" stroke-linejoin="round" />
<circle cx="50" cy="81" r="4" fill="#FF0000" stroke="#FFFFFF" stroke-width="1">
  <title>MM2 DOWN (59¢)</title>
</circle>
<circle cx="122" cy="76" r="4" fill="#FF0000" stroke="#FFFFFF" stroke-width="1">
  <title>VolSnap DOWN (62¢)</title>
</circle>
</svg>