<svg width="340" height="190" xmlns="http://www.w3.org/2000/svg">
<rect width="100%" height="100%" fill="#121212" />
<line x1="20" y1="139" x2="320" y2="139" stroke="#232323" stroke-width="1" />
<line x1="20" y1="109" x2="320" y2="109" stroke="#232323" stroke-width="1" />
<line x1="20" y1="94" x2="320" y2="94" stroke="#3C3C3C" stroke-width="1" />
<line x1="20" y1="79" x2="320" y2="79" stroke="#232323" stroke-width="1" />
<line x1="20" y1="49" x2="320" y2="49" stroke="#232323" stroke-width="1" />
<line x1="169" y1="20" x2="169" y2="170" stroke="#232323" stroke-width="1" />
<polyline points="20,98 21,98 24,98 27,98 30,101 33,104 36,102 39,93 42,92 45,87 48,82 51,81 54,90 57,89 60,88 63,86 66,84 69,88 72,84 75,79 78,82 81,81 84,80 87,84 90,81 93,80 96,66 99,68 102,68 105,66 108,69 111,66 114,59 117,47 120,42 123,48 126,43 129,41 132,42 135,40 138,40 141,34 144,37 147,35 150,35 153,33 156,34 159,32 162,39 165,33 168,31 171,29 174,28 177,28 180,28 183,26 186,25 189,24 192,23 195,23 198,22 201,22 204,22 207,23 210,34 213,28 216,28 219,29 222,28 225,26 228,26 231,25 234,33 237,28 240,34 243,35 246,27 249,28 252,27 255,26 258,25 261,24 264,23 267,23 270,23 273,22 276,22 279,22 282,22 285,22 288,21 291,20 294,20 297,20 300,20 303,20 306,20 309,20 312,20 315,20 318,20" fill="none" stroke="#FFFF00" stroke-width="2" stroke-linejoin="round" />
<circle cx="124" cy="49" r="4" fill="#00FF00" stroke="#FFFFFF" stroke-width="1">
  <title>Nitro UP (80¢)</title>
</circle>
</svg>