<svg width="340" height="190" xmlns="http://www.w3.org/2000/svg">
<rect width="100%" height="100%" fill="#121212" />
<line x1="20" y1="139" x2="320" y2="139" stroke="#232323" stroke-width="1" />
<line x1="20" y1="109" x2="320" y2="109" stroke="#232323" stroke-width="1" />
<line x1="20" y1="94" x2="320" y2="94" stroke="#3C3C3C" stroke-width="1" />
<line x1="20" y1="79" x2="320" y2="79" stroke="#232323" stroke-width="1" />
<line x1="20" y1="49" x2="320" y2="49" stroke="#232323" stroke-width="1" />
<line x1="169" y1="20" x2="169" y2="170" stroke="#232323" stroke-width="1" />
<polyline points="20,90 22,87 25,90 28,84 31,102 34,99 37,104 40,105 43,98 46,96 49,103 52,92 55,95 58,92 61,87 64,90 67,87 70,75 73,76 76,77 79,76 82,81 85,80 88,81 91,81 94,69 97,74 100,68 103,70 106,69 109,68 112,58 115,42 118,35 121,37 124,25 127,25 130,25 133,23 136,23 139,22 142,22 145,23 148,23 151,23 154,25 157,22 160,22 163,22 166,22 169,22 172,21 175,20 178,20 181,20 184,20 187,20 190,20 193,20 196,20 199,20 202,20 205,20 208,20 211,20 214,20 217,20 220,20 223,20 226,20 229,20 232,20 235,20 238,20 241,20 244,20 247,20 250,20 253,20 256,20 259,20 262,20 265,20 268,20 271,20 274,20 277,20 280,20 283,20 286,20 289,20 292,20 295,20 298,20 301,20 304,20 307,20 310,20 313,20 316,20" fill="none" stroke="#FFFF00" stroke-width="2" stroke-linejoin="round" />
<circle cx="86" cy="81" r="4" fill="#00FF00" stroke="#FFFFFF" stroke-width="1">
  <title>VolSnap UP (59¢)</title>
</circle>
</svg>