<svg width="340" height="190" xmlns="http://www.w3.org/2000/svg">
<rect width="100%" height="100%" fill="#121212" />
<line x1="20" y1="139" x2="320" y2="139" stroke="#232323" stroke-width="1" />
<line x1="20" y1="109" x2="320" y2="109" stroke="#232323" stroke-width="1" />
<line x1="20" y1="94" x2="320" y2="94" stroke="#3C3C3C" stroke-width="1" />
<line x1="20" y1="79" x2="320" y2="79" stroke="#232323" stroke-width="1" />
<line x1="20" y1="49" x2="320" y2="49" stroke="#232323" stroke-width="1" />
<line x1="169" y1="20" x2="169" y2="170" stroke="#232323" stroke-width="1" />
<polyline points="20,101 22,94 25,101 28,101 31,110 34,104 37,98 40,98 43,106 46,109 49,112 52,111 55,110 58,100 61,101 64,98 67,95 70,101 73,109 76,107 79,114 82,119 85,116 88,125 91,126 94,116 97,111 100,108 103,112 106,121 109,128 112,131 115,128 118,130 121,128 124,125 127,128 130,120 133,118 136,113 139,110 142,96 145,90 148,97 151,103 154,104 157,119 160,121 163,110 166,116 169,122 172,115 175,124 178,132 181,136 184,136 187,135 190,133 193,136 196,131 199,113 202,123 205,126 208,127 211,129 214,125 217,118 220,107 223,116 226,116 229,134 232,137 235,148 238,154 241,157 244,160 247,160 250,163 253,165 256,160 259,159 262,165 265,166 268,166 271,164 274,162 277,163 280,165 283,165 286,165 289,155 292,162 295,166 298,167 301,167 304,167 307,167 310,167 313,167 316,167" fill="none" stroke="#FFFF00" stroke-width="2" stroke-linejoin="round" />
<circle cx="32" cy="81" r="4" fill="#FF0000" stroke="#FFFFFF" stroke-width="1">
  <title>MM2 DOWN (59¢)</title>
</circle>
<circle cx="83" cy="70" r="4" fill="#FF0000" stroke="#FFFFFF" stroke-width="1">
  <title>VolSnap DOWN (66¢)</title>
</circle>
</svg>