<svg width="340" height="190" xmlns="http://www.w3.org/2000/svg">
<rect width="100%" height="100%" fill="#121212" />
<line x1="20" y1="139" x2="320" y2="139" stroke="#232323" stroke-width="1" />
<line x1="20" y1="109" x2="320" y2="109" stroke="#232323" stroke-width="1" />
<line x1="20" y1="94" x2="320" y2="94" stroke="#3C3C3C" stroke-width="1" />
<line x1="20" y1="79" x2="320" y2="79" stroke="#232323" stroke-width="1" />
<line x1="20" y1="49" x2="320" y2="49" stroke="#232323" stroke-width="1" />
<line x1="169" y1="20" x2="169" y2="170" stroke="#232323" stroke-width="1" />
<polyline points="20,93 20,93 23,101 26,87 29,84 32,83 35,89 38,88 41,90 44,95 47,112 50,119 53,116 56,117 59,117 62,110 65,113 68,110 71,111 74,110 77,110 80,113 83,108 86,108 89,115 92,116 95,114 98,115 101,126 104,132 107,133 110,145 113,147 116,150 119,151 122,153 125,154 128,157 131,155 134,157 137,159 140,159 143,160 146,161 149,162 152,163 155,163 158,163 161,165 164,165 167,163 170,163 173,162 176,165 179,165 182,165 185,165 188,165 191,164 194,164 197,165 200,165 203,165 206,163 209,166 212,166 215,166 218,166 221,165 224,166 227,166 230,167 233,166 236,166 239,166 242,166 245,166 248,166 251,167 254,168 257,168 260,167 263,168 266,168 269,166 272,166 275,166 278,166 281,166 284,168 287,168 290,168 293,168 296,168 299,168 302,168 305,168 308,168 311,168 314,168 317,168" fill="none" stroke="#FFFF00" stroke-width="2" stroke-linejoin="round" />
</svg>