<svg width="340" height="190" xmlns="http://www.w3.org/2000/svg">
<rect width="100%" height="100%" fill="#121212" />
<line x1="20" y1="139" x2="320" y2="139" stroke="#232323" stroke-width="1" />
<line x1="20" y1="109" x2="320" y2="109" stroke="#232323" stroke-width="1" />
<line x1="20" y1="94" x2="320" y2="94" stroke="#3C3C3C" stroke-width="1" />
<line x1="20" y1="79" x2="320" y2="79" stroke="#232323" stroke-width="1" />
<line x1="20" y1="49" x2="320" y2="49" stroke="#232323" stroke-width="1" />
<line x1="169" y1="20" x2="169" y2="170" stroke="#232323" stroke-width="1" />
<polyline points="20,90 22,84 25,83 28,78 31,78 34,79 37,78 40,79 43,77 46,78 49,78 53,66 56,55 59,55 62,52 65,51 68,49 71,49 74,52 77,55 80,55 83,59 86,49 89,46 92,46 95,41 98,38 101,38 104,37 107,37 110,39 113,37 116,37 119,36 122,36 125,37 128,36 131,36 134,34 137,34 140,34 143,37 146,38 149,36 152,32 155,34 158,34 161,31 164,34 167,32 170,33 173,34 176,34 179,31 182,26 185,26 188,28 191,26 194,26 197,25 200,25 203,23 206,23 209,23 212,23 215,22 218,22 221,22 224,22 227,22 230,22 233,22 236,23 239,37 242,35 245,37 248,46 251,44 254,66 257,61 260,59 263,58 266,61 269,57 272,50 275,45 278,42 281,37 284,33 287,37 290,36 293,25 296,22 299,20 302,20 305,20 308,20 311,20 314,20 317,20" fill="none" stroke="#FFFF00" stroke-width="2" stroke-linejoin="round" />
<circle cx="57" cy="58" r="4" fill="#00FF00" stroke="#FFFFFF" stroke-width="1">
  <title>Nitro UP (74¢)</title>
</circle>
<circle cx="81" cy="57" r="4" fill="#00FF00" stroke="#FFFFFF" stroke-width="1">
  <title>VolSnap UP (75¢)</title>
</circle>
</svg>