<svg width="340" height="190" xmlns="http://www.w3.org/2000/svg">
<rect width="100%" height="100%" fill="#121212" />
<line x1="20" y1="139" x2="320" y2="139" stroke="#232323" stroke-width="1" />
<line x1="20" y1="109" x2="320" y2="109" stroke="#232323" stroke-width="1" />
<line x1="20" y1="94" x2="320" y2="94" stroke="#3C3C3C" stroke-width="1" />
<line x1="20" y1="79" x2="320" y2="79" stroke="#232323" stroke-width="1" />
<line x1="20" y1="49" x2="320" y2="49" stroke="#232323" stroke-width="1" />
<line x1="169" y1="20" x2="169" y2="170" stroke="#232323" stroke-width="1" />
<polyline points="20,90 20,90 23,86 26,87 29,92 32,91 35,92 38,93 41,93 44,93 47,93 50,93 53,90 56,93 59,93 62,87 65,90 68,93 71,93 74,92 77,95 80,95 83,92 86,93 89,93 92,93 95,88 98,90 101,86 104,74 107,83 110,81 113,86 116,90 119,87 122,87 125,72 128,60 131,56 134,58 137,75 140,61 143,47 146,58 149,72 152,74 155,79 158,88 161,90 164,87 167,89 170,90 173,87 176,65 179,82 182,86 185,91 188,89 191,90 194,92 197,95 200,94 203,92 206,94 209,100 212,101 215,100 218,101 221,101 224,99 227,101 230,104 233,99 236,101 239,101 242,95 245,70 248,73 251,76 254,84 257,60 260,88 263,106 266,107 269,103 272,95 275,96 278,103 281,102 284,104 287,105 290,107 293,110 296,112 299,117 302,121 305,127 308,140 311,149 314,154 317,164" fill="none" stroke="#FFFF00" stroke-width="2" stroke-linejoin="round" />
<circle cx="126" cy="79" r="4" fill="#00FF00" stroke="#FFFFFF" stroke-width="1">
  <title>Nitro UP (60¢)</title>
</circle>
<circle cx="267" cy="81" r="4" fill="#FF0000" stroke="#FFFFFF" stroke-width="1">
  <title>VolSnap DOWN (59¢)</title>
</circle>
</svg>