<svg width="340" height="190" xmlns="http://www.w3.org/2000/svg">
<rect width="100%" height="100%" fill="#121212" />
<line x1="20" y1="139" x2="320" y2="139" stroke="#232323" stroke-width="1" />
<line x1="20" y1="109" x2="320" y2="109" stroke="#232323" stroke-width="1" />
<line x1="20" y1="94" x2="320" y2="94" stroke="#3C3C3C" stroke-width="1" />
<line x1="20" y1="79" x2="320" y2="79" stroke="#232323" stroke-width="1" />
<line x1="20" y1="49" x2="320" y2="49" stroke="#232323" stroke-width="1" />
<line x1="169" y1="20" x2="169" y2="170" stroke="#232323" stroke-width="1" />
<polyline points="20,78 21,78 24,78 27,73 30,70 33,75 36,75 39,73 42,74 45,69 48,65 51,60 54,55 57,55 60,55 63,62 66,66 69,60 72,52 75,57 78,57 81,55 84,59 87,54 90,50 93,46 96,42 99,39 102,42 105,35 108,31 111,31 114,29 117,31 120,29 123,27 126,28 129,29 132,31 135,28 138,26 141,25 144,24 147,23 150,23 153,25 156,25 159,25 162,24 165,25 168,25 171,28 174,29 177,28 180,25 183,23 186,23 189,24 192,26 195,26 198,24 201,24 204,23 207,23 210,22 213,22 216,22 219,22 222,20 225,20 228,20 231,20 234,20 237,20 240,20 243,20 246,20 249,20 252,20 255,20 258,20 261,20 264,20 267,20 270,20 273,20 276,20 279,20 282,20 285,20 288,20 291,20 294,20 297,20 300,20 303,20 306,20 309,20 312,20 315,20 318,20" fill="none" stroke="#FFFF00" stroke-width="2" stroke-linejoin="round" />
<circle cx="82" cy="57" r="4" fill="#00FF00" stroke="#FFFFFF" stroke-width="1">
  <title>VolSnap UP (75¢)</title>
</circle>
</svg>