<svg width="340" height="190" xmlns="http://www.w3.org/2000/svg">
<rect width="100%" height="100%" fill="#121212" />
<line x1="20" y1="139" x2="320" y2="139" stroke="#232323" stroke-width="1" />
<line x1="20" y1="109" x2="320" y2="109" stroke="#232323" stroke-width="1" />
<line x1="20" y1="94" x2="320" y2="94" stroke="#3C3C3C" stroke-width="1" />
<line x1="20" y1="79" x2="320" y2="79" stroke="#232323" stroke-width="1" />
<line x1="20" y1="49" x2="320" y2="49" stroke="#232323" stroke-width="1" />
<line x1="169" y1="20" x2="169" y2="170" stroke="#232323" stroke-width="1" />
<polyline points="20,97 21,97 26,103 30,115 35,125 40,120 47,103 59,112 65,104 73,80 78,82 82,81 89,66 95,73 101,87 108,93 113,88 118,87 126,95 131,104 136,113 146,122 150,126 155,140 161,125 172,104 177,103 182,102 187,112 193,106 199,141 212,142 222,141 232,135 238,138 243,144 249,156 254,158 260,165 266,166 271,167 277,167 288,167 295,167 305,167 316,167" fill="none" stroke="#FFFF00" stroke-width="2" stroke-linejoin="round" />
<circle cx="144" cy="78" r="4" fill="#FF0000" stroke="#FFFFFF" stroke-width="1">
  <title>VolSnap DOWN (61¢)</title>
</circle>
<circle cx="264" cy="24" r="4" fill="#FF0000" stroke="#FFFFFF" stroke-width="1">
  <title>Moshe DOWN (97¢)</title>
</circle>
</svg>