<svg width="340" height="190" xmlns="http://www.w3.org/2000/svg" style="overflow:visible">
<style>.trade-dot:hover .dot-tip { opacity: 1 !important; } .trade-dot { cursor: crosshair; }</style>
<rect width="340" height="190" fill="#121212" />
<line x1="20" y1="139" x2="320" y2="139" stroke="#232323" stroke-width="1" />
<line x1="20" y1="109" x2="320" y2="109" stroke="#232323" stroke-width="1" />
<line x1="20" y1="94" x2="320" y2="94" stroke="#3C3C3C" stroke-width="1" />
<line x1="20" y1="79" x2="320" y2="79" stroke="#232323" stroke-width="1" />
<line x1="20" y1="49" x2="320" y2="49" stroke="#232323" stroke-width="1" />
<line x1="169" y1="20" x2="169" y2="170" stroke="#232323" stroke-width="1" />
<polyline points="20,96 22,84 25,77 28,74 31,78 34,78 37,77 40,59 43,56 46,57 49,51 52,57 55,55 58,57 61,55 64,60 67,58 70,55 73,57 76,56 79,55 82,56 85,53 88,50 91,50 94,50 97,49 100,45 103,46 106,44 109,44 112,43 115,43 118,40 121,43 124,43 127,43 130,44 133,44 136,34 139,40 142,40 145,40 148,37 151,36 154,33 157,33 160,34 163,31 166,31 169,29 172,28 175,28 178,29 181,31 184,31 187,31 190,31 193,29 196,29 199,28 202,29 205,29 208,37 211,37 214,34 217,35 220,33 223,29 226,31 229,31 232,31 235,28 238,28 241,32 244,32 247,34 250,29 253,27 256,26 259,25 262,23 265,23 268,23 271,23 274,23 277,24 280,24 283,23 286,23 289,23 292,22 295,20 298,20 301,20 304,20 307,20 310,20 313,20 316,20" fill="none" stroke="#FFFF00" stroke-width="2" stroke-linejoin="round" />
<line x1="20" y1="20" x2="20" y2="170" stroke="#FF00FF" stroke-width="1" stroke-dasharray="3,3" opacity="0.8">
  <title>Next window tilt: ▼DOWN 52¢</title>
</line>
<rect x="21" y="20" width="58" height="11" rx="2" fill="#000000" fill-opacity="0.8" stroke="#FF00FF" stroke-width="1"/>
<text x="23" y="29" font-size="8" fill="#FF00FF" font-family="monospace" font-weight="bold">▼DOWN 52¢</text>
</svg>