<svg width="340" height="190" xmlns="http://www.w3.org/2000/svg" style="overflow:visible">
<style>.trade-dot:hover .dot-tip { opacity: 1 !important; } .trade-dot { cursor: crosshair; }</style>
<rect width="340" height="190" fill="#121212" />
<line x1="20" y1="139" x2="320" y2="139" stroke="#232323" stroke-width="1" />
<line x1="20" y1="109" x2="320" y2="109" stroke="#232323" stroke-width="1" />
<line x1="20" y1="94" x2="320" y2="94" stroke="#3C3C3C" stroke-width="1" />
<line x1="20" y1="79" x2="320" y2="79" stroke="#232323" stroke-width="1" />
<line x1="20" y1="49" x2="320" y2="49" stroke="#232323" stroke-width="1" />
<line x1="169" y1="20" x2="169" y2="170" stroke="#232323" stroke-width="1" />
<polyline points="20,101 20,101 23,93 26,84 29,87 32,87 35,88 38,91 41,93 44,92 47,93 50,105 53,93 56,92 59,92 62,84 65,84 68,80 71,80 74,83 77,84 80,84 83,81 86,72 89,74 92,78 95,80 98,93 101,94 104,93 107,92 110,91 113,96 116,95 119,78 122,98 125,107 128,98 131,102 134,102 137,117 140,122 143,107 146,99 149,95 152,92 155,95 158,97 161,103 164,100 167,93 170,87 173,72 176,65 179,50 182,46 185,45 188,45 191,50 194,57 197,57 200,57 203,55 206,53 209,52 212,71 215,58 218,65 221,54 224,50 227,48 230,47 233,53 236,58 239,55 242,63 245,66 248,75 251,75 254,86 257,72 260,70 263,72 266,65 269,59 272,57 275,57 278,42 281,37 284,35 287,37 290,36 293,34 296,32 299,30 302,25 305,26 308,20 311,22 314,20 317,20" fill="none" stroke="#FFFF00" stroke-width="2" stroke-linejoin="round" />
</svg>