<svg width="340" height="190" xmlns="http://www.w3.org/2000/svg" style="overflow:visible">
<style>.trade-dot:hover .dot-tip { opacity: 1 !important; } .trade-dot { cursor: crosshair; }</style>
<rect width="340" height="190" fill="#121212" />
<line x1="20" y1="139" x2="320" y2="139" stroke="#232323" stroke-width="1" />
<line x1="20" y1="109" x2="320" y2="109" stroke="#232323" stroke-width="1" />
<line x1="20" y1="94" x2="320" y2="94" stroke="#3C3C3C" stroke-width="1" />
<line x1="20" y1="79" x2="320" y2="79" stroke="#232323" stroke-width="1" />
<line x1="20" y1="49" x2="320" y2="49" stroke="#232323" stroke-width="1" />
<line x1="169" y1="20" x2="169" y2="170" stroke="#232323" stroke-width="1" />
<polyline points="20,87 88,87 91,93 94,95 97,91 100,90 103,81 106,90 109,88 112,84 115,82 118,83 121,81 124,89 127,95 130,88 133,87 136,86 139,93 142,90 145,78 148,77 151,72 158,69 161,78 164,86 167,93 170,93 173,89 176,84 179,74 182,73 185,83 188,83 191,78 194,75 197,81 200,92 203,87 206,103 209,108 212,107 215,113 218,95 221,97 224,84 227,80 230,90 233,69 236,81 239,74 242,70 245,75 248,88 251,81 254,78 257,87 260,91 263,90 266,90 269,87 272,82 275,85 278,90 281,107 284,104 287,110 290,122 293,118 296,122 299,119 302,135 305,151 308,155 311,158 314,166 317,168" fill="none" stroke="#FFFF00" stroke-width="2" stroke-linejoin="round" />
</svg>