<svg width="340" height="190" xmlns="http://www.w3.org/2000/svg" style="overflow:visible">
<style>.trade-dot:hover .dot-tip { opacity: 1 !important; } .trade-dot { cursor: crosshair; }</style>
<rect width="340" height="190" fill="#121212" />
<line x1="20" y1="139" x2="320" y2="139" stroke="#232323" stroke-width="1" />
<line x1="20" y1="109" x2="320" y2="109" stroke="#232323" stroke-width="1" />
<line x1="20" y1="94" x2="320" y2="94" stroke="#3C3C3C" stroke-width="1" />
<line x1="20" y1="79" x2="320" y2="79" stroke="#232323" stroke-width="1" />
<line x1="20" y1="49" x2="320" y2="49" stroke="#232323" stroke-width="1" />
<line x1="169" y1="20" x2="169" y2="170" stroke="#232323" stroke-width="1" />
<polyline points="20,100 20,100 24,135 27,135 30,131 33,128 36,119 39,113 42,119 45,113 48,105 51,102 54,95 57,90 60,87 63,90 66,92 69,94 72,95 75,93 78,104 81,98 84,102 87,113 90,108 93,108 96,105 99,104 102,105 105,105 108,98 111,93 114,93 117,93 120,99 123,106 126,94 129,98 132,93 135,95 138,86 142,87 145,102 148,98 151,90 154,100 157,98 160,93 163,102 166,100 169,99 172,107 175,105 178,104 181,107 184,104 187,105 190,122 193,131 196,132 199,128 202,127 205,129 208,125 211,129 214,128 217,126 220,126 223,128 226,126 229,127 232,129 235,116 238,102 241,110 244,110 247,105 250,102 253,103 256,105 259,108 262,117 265,123 268,119 271,115 274,110 277,101 280,98 283,104 286,101 289,101 292,104 295,109 298,111 301,97 304,103 307,126 310,138 313,148 316,161" fill="none" stroke="#FFFF00" stroke-width="2" stroke-linejoin="round" />
<line x1="20" y1="20" x2="20" y2="170" stroke="#00FFFF" stroke-width="1" stroke-dasharray="3,3" opacity="0.8">
  <title>Next window tilt: ▲UP 52¢</title>
</line>
<rect x="21" y="20" width="46" height="11" rx="2" fill="#000000" fill-opacity="0.8" stroke="#00FFFF" stroke-width="1"/>
<text x="23" y="29" font-size="8" fill="#00FFFF" font-family="monospace" font-weight="bold">▲UP 52¢</text>
<g class="trade-dot">
  <circle cx="140" cy="95" r="5" fill="#00FF00" stroke="#FFFFFF" stroke-width="1">
    <title>Manual: UP @ 49¢</title>
  </circle>
  <g class="dot-tip" id="tip_0" opacity="0" style="pointer-events:none">
    <rect x="144" y="67" width="104" height="14" rx="3" fill="#000000" fill-opacity="0.85" stroke="#00FF00" stroke-width="1"/>
    <text x="148" y="77" font-size="9" fill="#00FF00" font-family="monospace">Manual: UP @ 49¢</text>
  </g>
</g>
</svg>