<svg width="340" height="190" xmlns="http://www.w3.org/2000/svg" style="overflow:visible">
<style>.trade-dot:hover .dot-tip { opacity: 1 !important; } .trade-dot { cursor: crosshair; }</style>
<rect width="340" height="190" fill="#121212" />
<line x1="20" y1="139" x2="320" y2="139" stroke="#232323" stroke-width="1" />
<line x1="20" y1="109" x2="320" y2="109" stroke="#232323" stroke-width="1" />
<line x1="20" y1="94" x2="320" y2="94" stroke="#3C3C3C" stroke-width="1" />
<line x1="20" y1="79" x2="320" y2="79" stroke="#232323" stroke-width="1" />
<line x1="20" y1="49" x2="320" y2="49" stroke="#232323" stroke-width="1" />
<line x1="169" y1="20" x2="169" y2="170" stroke="#232323" stroke-width="1" />
<polyline points="20,98 20,98 23,98 26,98 29,98 32,98 35,100 38,101 41,100 44,101 47,100 50,98 53,98 56,95 59,95 62,95 65,102 68,104 71,103 74,103 77,98 80,92 83,92 86,92 89,93 92,95 95,95 98,95 101,95 104,96 107,95 110,96 113,95 116,95 119,96 122,96 125,82 128,61 131,60 134,61 137,63 140,74 143,83 146,96 149,95 152,94 155,95 158,89 161,91 164,89 167,90 170,89 173,90 176,92 179,95 182,95 185,95 188,100 191,100 194,131 197,131 200,143 203,139 206,146 209,148 212,145 215,142 218,139 221,138 224,139 227,138 230,133 233,132 236,132 239,123 242,121 245,114 248,98 251,93 254,95 257,95 260,93 263,64 266,66 269,69 272,65 275,66 278,80 281,72 284,95 287,90 290,95 293,103 296,139 299,153 302,157 305,163 308,144 311,163 314,165 317,168" fill="none" stroke="#FFFF00" stroke-width="2" stroke-linejoin="round" />
<line x1="20" y1="20" x2="20" y2="170" stroke="#FF00FF" stroke-width="1" stroke-dasharray="3,3" opacity="0.8">
  <title>Next window tilt: ▼DOWN 52¢</title>
</line>
<rect x="21" y="20" width="58" height="11" rx="2" fill="#000000" fill-opacity="0.8" stroke="#FF00FF" stroke-width="1"/>
<text x="23" y="29" font-size="8" fill="#FF00FF" font-family="monospace" font-weight="bold">▼DOWN 52¢</text>
<g class="trade-dot">
  <circle cx="267" cy="66" r="5" fill="#00FF00" stroke="#FFFFFF" stroke-width="1">
    <title>GrindSnap: UP @ 69¢</title>
  </circle>
  <g class="dot-tip" id="tip_0" opacity="0" style="pointer-events:none">
    <rect x="238" y="38" width="122" height="14" rx="3" fill="#000000" fill-opacity="0.85" stroke="#00FF00" stroke-width="1"/>
    <text x="242" y="48" font-size="9" fill="#00FF00" font-family="monospace">GrindSnap: UP @ 69¢</text>
  </g>
</g>
</svg>