<svg width="340" height="190" xmlns="http://www.w3.org/2000/svg">
<rect width="100%" height="100%" fill="#121212" />
<line x1="20" y1="139" x2="320" y2="139" stroke="#232323" stroke-width="1" />
<line x1="20" y1="109" x2="320" y2="109" stroke="#232323" stroke-width="1" />
<line x1="20" y1="94" x2="320" y2="94" stroke="#3C3C3C" stroke-width="1" />
<line x1="20" y1="79" x2="320" y2="79" stroke="#232323" stroke-width="1" />
<line x1="20" y1="49" x2="320" y2="49" stroke="#232323" stroke-width="1" />
<line x1="169" y1="20" x2="169" y2="170" stroke="#232323" stroke-width="1" />
<polyline points="20,125 108,125 120,136 125,133 129,142 134,147 140,146 145,145 152,131 160,126 165,120 169,125 174,142 178,125 184,126 191,128 196,126 200,128 206,138 211,131 215,128 221,130 226,132 230,132 235,135 242,140 248,143 254,141 259,136 264,136 270,130 275,139 279,138 285,156 290,165 295,167 300,167 306,167 311,167 316,167" fill="none" stroke="#FFFF00" stroke-width="2" stroke-linejoin="round" />
</svg>