<svg width="340" height="190" xmlns="http://www.w3.org/2000/svg" style="overflow:visible">
<style>.trade-dot:hover .dot-tip { opacity: 1 !important; } .trade-dot { cursor: crosshair; }</style>
<rect width="340" height="190" fill="#121212" />
<line x1="20" y1="139" x2="320" y2="139" stroke="#232323" stroke-width="1" />
<line x1="20" y1="109" x2="320" y2="109" stroke="#232323" stroke-width="1" />
<line x1="20" y1="94" x2="320" y2="94" stroke="#3C3C3C" stroke-width="1" />
<line x1="20" y1="79" x2="320" y2="79" stroke="#232323" stroke-width="1" />
<line x1="20" y1="49" x2="320" y2="49" stroke="#232323" stroke-width="1" />
<line x1="169" y1="20" x2="169" y2="170" stroke="#232323" stroke-width="1" />
<polyline points="20,95 22,95 36,80 47,81 55,75 62,85 70,87 78,91 85,101 92,99 100,94 109,93 116,112 128,92 155,129 168,112 180,128 191,133 210,157 231,160 239,162 248,163 261,165 269,167 290,168 312,168" fill="none" stroke="#FFFF00" stroke-width="2" stroke-linejoin="round" />
<g class="trade-dot">
  <circle cx="115" cy="93" r="5" fill="#00FF00" stroke="#FFFFFF" stroke-width="1">
    <title>VolSnap: UP @ 51¢</title>
  </circle>
  <g class="dot-tip" id="tip_0" opacity="0" style="pointer-events:none">
    <rect x="119" y="65" width="110" height="14" rx="3" fill="#000000" fill-opacity="0.85" stroke="#00FF00" stroke-width="1"/>
    <text x="123" y="75" font-size="9" fill="#00FF00" font-family="monospace">VolSnap: UP @ 51¢</text>
  </g>
</g>
<g class="trade-dot">
  <circle cx="167" cy="60" r="5" fill="#FF0000" stroke="#FFFFFF" stroke-width="1">
    <title>HDO: DOWN @ 73¢</title>
  </circle>
  <g class="dot-tip" id="tip_1" opacity="0" style="pointer-events:none">
    <rect x="171" y="32" width="98" height="14" rx="3" fill="#000000" fill-opacity="0.85" stroke="#FF0000" stroke-width="1"/>
    <text x="175" y="42" font-size="9" fill="#FF0000" font-family="monospace">HDO: DOWN @ 73¢</text>
  </g>
</g>
</svg>