<svg width="340" height="190" xmlns="http://www.w3.org/2000/svg" style="overflow:visible">
<style>.trade-dot:hover .dot-tip { opacity: 1 !important; } .trade-dot { cursor: crosshair; }</style>
<rect width="340" height="190" fill="#121212" />
<line x1="20" y1="139" x2="320" y2="139" stroke="#232323" stroke-width="1" />
<line x1="20" y1="109" x2="320" y2="109" stroke="#232323" stroke-width="1" />
<line x1="20" y1="94" x2="320" y2="94" stroke="#3C3C3C" stroke-width="1" />
<line x1="20" y1="79" x2="320" y2="79" stroke="#232323" stroke-width="1" />
<line x1="20" y1="49" x2="320" y2="49" stroke="#232323" stroke-width="1" />
<line x1="169" y1="20" x2="169" y2="170" stroke="#232323" stroke-width="1" />
<polyline points="20,101 80,101 93,131 105,128 112,136 119,135 125,137 132,136 137,137 145,138 152,138 159,145 166,144 174,145 181,143 188,146 195,139 207,143 215,146 221,144 226,140 233,144 241,144 250,134 257,125 263,105 270,84 276,69 284,61 291,107 302,129 311,123 318,126" fill="none" stroke="#FFFF00" stroke-width="2" stroke-linejoin="round" />
</svg>