<svg width="340" height="190" xmlns="http://www.w3.org/2000/svg" style="overflow:visible">
<style>.trade-dot:hover .dot-tip { opacity: 1 !important; } .trade-dot { cursor: crosshair; }</style>
<rect width="340" height="190" fill="#121212" />
<line x1="20" y1="139" x2="320" y2="139" stroke="#232323" stroke-width="1" />
<line x1="20" y1="109" x2="320" y2="109" stroke="#232323" stroke-width="1" />
<line x1="20" y1="94" x2="320" y2="94" stroke="#3C3C3C" stroke-width="1" />
<line x1="20" y1="79" x2="320" y2="79" stroke="#232323" stroke-width="1" />
<line x1="20" y1="49" x2="320" y2="49" stroke="#232323" stroke-width="1" />
<line x1="169" y1="20" x2="169" y2="170" stroke="#232323" stroke-width="1" />
<polyline points="20,92 20,92 28,96 33,88 37,86 42,93 47,92 52,90 56,90 60,95 64,96 70,97 76,95 83,97 90,95 98,95 102,95 106,86 112,80 116,76 122,67 125,60 129,49 133,45 137,45 142,43 145,50 151,46 156,40 159,40 167,41 171,31 175,29 179,28 185,30 188,32 192,31 198,36 204,40 208,41 213,52 219,38 225,43 234,39 239,39 243,40 248,38 256,31 260,27 264,27 268,28 275,23 283,23 287,23 292,22 298,22 306,21 315,20" fill="none" stroke="#FFFF00" stroke-width="2" stroke-linejoin="round" />
<g class="trade-dot">
  <circle cx="114" cy="81" r="5" fill="#00FF00" stroke="#FFFFFF" stroke-width="1">
    <title>Briefing: UP @ 59¢</title>
  </circle>
  <g class="dot-tip" id="tip_0" opacity="0" style="pointer-events:none">
    <rect x="118" y="53" width="116" height="14" rx="3" fill="#000000" fill-opacity="0.85" stroke="#00FF00" stroke-width="1"/>
    <text x="122" y="63" font-size="9" fill="#00FF00" font-family="monospace">Briefing: UP @ 59¢</text>
  </g>
</g>
</svg>