<svg width="340" height="190" xmlns="http://www.w3.org/2000/svg">
<rect width="100%" height="100%" fill="#121212" />
<line x1="20" y1="139" x2="320" y2="139" stroke="#232323" stroke-width="1" />
<line x1="20" y1="109" x2="320" y2="109" stroke="#232323" stroke-width="1" />
<line x1="20" y1="94" x2="320" y2="94" stroke="#3C3C3C" stroke-width="1" />
<line x1="20" y1="79" x2="320" y2="79" stroke="#232323" stroke-width="1" />
<line x1="20" y1="49" x2="320" y2="49" stroke="#232323" stroke-width="1" />
<line x1="169" y1="20" x2="169" y2="170" stroke="#232323" stroke-width="1" />
<polyline points="20,93 22,95 25,101 28,106 31,108 34,105 37,104 40,104 43,101 46,101 49,101 52,105 55,101 58,101 61,95 64,98 67,95 70,90 73,89 76,92 79,86 82,92 85,92 88,94 91,102 94,103 97,110 100,110 103,109 106,125 109,116 112,119 115,122 118,120 121,123 124,121 127,120 130,131 133,133 136,141 139,138 142,122 145,122 148,127 151,132 154,133 157,129 160,128 163,122 166,116 169,119 172,117 175,115 178,103 181,114 184,110 187,118 190,119 193,116 196,117 199,118 202,120 205,117 208,112 211,93 214,93 217,81 220,72 223,66 226,78 229,74 232,63 235,57 238,50 241,46 244,47 247,62 250,78 253,81 256,83 259,86 262,83 265,72 268,75 271,89 274,90 277,96 280,127 283,131 286,127 289,131 292,144 295,154 298,157 301,160 304,156 307,152 310,158 313,122 316,164" fill="none" stroke="#FFFF00" stroke-width="2" stroke-linejoin="round" />
<circle cx="222" cy="75" r="4" fill="#00FF00" stroke="#FFFFFF" stroke-width="1">
  <title>MM2 UP (63¢)</title>
</circle>
</svg>