<svg width="340" height="190" xmlns="http://www.w3.org/2000/svg">
<rect width="100%" height="100%" fill="#121212" />
<line x1="20" y1="139" x2="320" y2="139" stroke="#232323" stroke-width="1" />
<line x1="20" y1="109" x2="320" y2="109" stroke="#232323" stroke-width="1" />
<line x1="20" y1="94" x2="320" y2="94" stroke="#3C3C3C" stroke-width="1" />
<line x1="20" y1="79" x2="320" y2="79" stroke="#232323" stroke-width="1" />
<line x1="20" y1="49" x2="320" y2="49" stroke="#232323" stroke-width="1" />
<line x1="169" y1="20" x2="169" y2="170" stroke="#232323" stroke-width="1" />
<polyline points="20,95 22,94 25,96 28,102 31,105 34,102 37,104 40,99 43,99 46,99 49,98 52,99 55,95 58,108 61,105 64,103 67,104 70,104 73,101 76,104 79,96 82,84 85,79 88,69 91,69 94,68 97,71 100,69 103,76 106,84 109,83 112,80 115,76 118,83 121,76 124,68 127,68 130,77 133,77 136,77 139,77 142,76 145,86 148,86 151,87 154,78 157,73 160,74 163,75 166,72 169,77 172,74 175,68 178,66 181,75 184,80 187,79 190,74 193,64 196,62 199,66 202,60 205,53 208,30 211,28 214,29 217,31 220,33 223,49 226,47 229,44 232,53 235,56 238,56 241,53 244,44 247,52 250,47 253,42 256,40 259,39 262,37 265,36 268,35 271,37 274,35 277,35 280,34 283,34 286,33 289,34 292,31 295,29 298,29 301,27 304,22 307,22 310,20 313,20 316,20" fill="none" stroke="#FFFF00" stroke-width="2" stroke-linejoin="round" />
<circle cx="90" cy="70" r="4" fill="#00FF00" stroke="#FFFFFF" stroke-width="1">
  <title>VPOC UP (66¢)</title>
</circle>
<circle cx="90" cy="70" r="4" fill="#00FF00" stroke="#FFFFFF" stroke-width="1">
  <title>MM2 UP (66¢)</title>
</circle>
<circle cx="90" cy="70" r="4" fill="#00FF00" stroke="#FFFFFF" stroke-width="1">
  <title>VolSnap UP (66¢)</title>
</circle>
</svg>