<svg width="340" height="190" xmlns="http://www.w3.org/2000/svg">
<rect width="100%" height="100%" fill="#121212" />
<line x1="20" y1="139" x2="320" y2="139" stroke="#232323" stroke-width="1" />
<line x1="20" y1="109" x2="320" y2="109" stroke="#232323" stroke-width="1" />
<line x1="20" y1="94" x2="320" y2="94" stroke="#3C3C3C" stroke-width="1" />
<line x1="20" y1="79" x2="320" y2="79" stroke="#232323" stroke-width="1" />
<line x1="20" y1="49" x2="320" y2="49" stroke="#232323" stroke-width="1" />
<line x1="169" y1="20" x2="169" y2="170" stroke="#232323" stroke-width="1" />
<polyline points="20,81 21,81 24,85 27,89 30,90 33,91 36,95 39,93 42,90 45,90 48,95 51,94 54,94 57,94 60,94 63,94 66,94 69,94 72,94 75,94 78,94 81,94 84,94 87,94 90,94 93,94 96,94 99,94 102,94 105,94 108,94 111,94 114,94 117,94 120,94 123,94 126,94 129,94 132,94 135,94 138,94 141,94 144,94 147,94 150,94 153,94 156,94 159,98 162,105 165,107 168,115 171,126 174,127 177,125 180,132 183,139 186,141 189,148 192,145 195,148 198,148 201,138 204,133 207,140 210,139 213,139 216,138 219,129 222,131 225,131 228,122 231,120 234,125 237,123 240,123 243,125 246,113 249,98 252,109 255,101 258,112 261,70 264,44 267,30 270,37 273,43 276,32 279,46 282,52 285,74 288,67 291,78 294,87 297,82 300,84 303,91 306,119 309,135 312,127 315,110 318,162" fill="none" stroke="#FFFF00" stroke-width="2" stroke-linejoin="round" />
<circle cx="170" cy="79" r="4" fill="#FF0000" stroke="#FFFFFF" stroke-width="1">
  <title>VolSnap DOWN (60¢)</title>
</circle>
<circle cx="284" cy="49" r="4" fill="#00FF00" stroke="#FFFFFF" stroke-width="1">
  <title>MM2 UP (80¢)</title>
</circle>
</svg>