<svg width="340" height="190" xmlns="http://www.w3.org/2000/svg">
<rect width="100%" height="100%" fill="#121212" />
<line x1="20" y1="139" x2="320" y2="139" stroke="#232323" stroke-width="1" />
<line x1="20" y1="109" x2="320" y2="109" stroke="#232323" stroke-width="1" />
<line x1="20" y1="94" x2="320" y2="94" stroke="#3C3C3C" stroke-width="1" />
<line x1="20" y1="79" x2="320" y2="79" stroke="#232323" stroke-width="1" />
<line x1="20" y1="49" x2="320" y2="49" stroke="#232323" stroke-width="1" />
<line x1="169" y1="20" x2="169" y2="170" stroke="#232323" stroke-width="1" />
<polyline points="20,93 22,108 25,104 28,104 31,95 34,104 37,104 40,95 43,102 46,96 49,84 52,85 55,80 58,78 61,70 64,68 67,74 70,74 73,74 76,74 79,80 82,78 85,81 88,70 91,65 94,65 97,63 100,71 103,64 106,69 109,58 112,56 115,53 118,51 121,56 124,57 127,53 130,47 133,46 136,43 139,41 142,40 145,33 148,43 151,35 154,34 157,33 160,28 163,28 166,27 169,28 172,26 175,26 178,25 181,26 184,25 187,25 190,24 193,23 196,24 199,23 202,23 205,22 208,26 211,25 214,25 217,23 220,26 223,25 226,26 229,25 232,27 235,26 238,27 241,28 244,28 247,27 250,31 253,28 256,28 259,28 262,26 265,26 268,28 271,28 274,26 277,25 280,25 283,25 286,27 289,27 292,27 295,24 298,26 301,24 304,22 307,21 310,20 313,20 316,20" fill="none" stroke="#FFFF00" stroke-width="2" stroke-linejoin="round" />
<circle cx="56" cy="81" r="4" fill="#00FF00" stroke="#FFFFFF" stroke-width="1">
  <title>MM2 UP (59¢)</title>
</circle>
</svg>