<svg width="340" height="190" xmlns="http://www.w3.org/2000/svg">
<rect width="100%" height="100%" fill="#121212" />
<line x1="20" y1="139" x2="320" y2="139" stroke="#232323" stroke-width="1" />
<line x1="20" y1="109" x2="320" y2="109" stroke="#232323" stroke-width="1" />
<line x1="20" y1="94" x2="320" y2="94" stroke="#3C3C3C" stroke-width="1" />
<line x1="20" y1="79" x2="320" y2="79" stroke="#232323" stroke-width="1" />
<line x1="20" y1="49" x2="320" y2="49" stroke="#232323" stroke-width="1" />
<line x1="169" y1="20" x2="169" y2="170" stroke="#232323" stroke-width="1" />
<polyline points="20,95 22,91 25,98 28,92 31,93 34,90 37,87 40,87 43,86 46,86 49,81 52,62 55,53 58,53 61,55 64,55 67,56 70,55 73,56 76,56 79,59 82,56 85,71 88,76 91,81 94,82 97,84 100,84 103,83 106,83 109,95 112,104 115,101 118,102 121,122 124,112 127,113 130,114 133,120 136,116 139,114 142,113 145,119 148,117 151,120 154,117 157,118 160,115 163,113 166,114 169,116 172,128 175,139 178,148 181,148 184,150 187,153 190,153 193,154 196,153 199,159 202,160 205,160 208,157 211,159 214,160 217,163 220,165 223,164 226,163 229,163 232,163 235,163 238,163 241,154 244,154 247,155 250,157 253,159 256,163 259,159 262,161 265,160 268,157 271,158 274,160 277,160 280,157 283,157 286,156 289,158 292,158 295,153 298,159 301,160 304,162 307,163 310,166 314,167 317,167" fill="none" stroke="#FFFF00" stroke-width="2" stroke-linejoin="round" />
</svg>