<svg width="340" height="190" xmlns="http://www.w3.org/2000/svg">
<rect width="100%" height="100%" fill="#121212" />
<line x1="20" y1="139" x2="320" y2="139" stroke="#232323" stroke-width="1" />
<line x1="20" y1="109" x2="320" y2="109" stroke="#232323" stroke-width="1" />
<line x1="20" y1="94" x2="320" y2="94" stroke="#3C3C3C" stroke-width="1" />
<line x1="20" y1="79" x2="320" y2="79" stroke="#232323" stroke-width="1" />
<line x1="20" y1="49" x2="320" y2="49" stroke="#232323" stroke-width="1" />
<line x1="169" y1="20" x2="169" y2="170" stroke="#232323" stroke-width="1" />
<polyline points="20,101 21,101 24,96 27,96 30,93 33,89 36,87 39,81 42,81 45,87 48,90 51,86 54,84 57,80 60,73 63,72 66,75 69,75 72,72 75,69 78,71 81,71 84,71 87,84 90,85 93,86 96,86 99,92 102,87 105,81 108,78 111,77 114,77 117,89 120,88 123,83 126,81 129,86 132,87 135,85 138,84 141,96 144,95 147,95 150,92 153,98 156,98 159,99 162,101 165,94 168,87 171,110 174,111 177,113 180,111 183,114 186,117 189,113 192,113 195,122 198,131 201,133 204,133 207,136 210,133 213,126 216,125 219,121 222,123 225,130 228,130 231,128 234,129 237,119 240,119 243,125 246,110 249,112 252,108 255,114 258,115 261,117 264,132 267,136 270,142 273,144 276,144 279,151 282,153 285,151 288,153 291,153 294,153 297,153 300,153 303,153 306,153 309,153 312,153 315,153 318,153" fill="none" stroke="#FFFF00" stroke-width="2" stroke-linejoin="round" />
<circle cx="43" cy="81" r="4" fill="#00FF00" stroke="#FFFFFF" stroke-width="1">
  <title>MM2 UP (59¢)</title>
</circle>
<circle cx="176" cy="78" r="4" fill="#FF0000" stroke="#FFFFFF" stroke-width="1">
  <title>VPOC DOWN (61¢)</title>
</circle>
</svg>