<svg width="340" height="190" xmlns="http://www.w3.org/2000/svg">
<rect width="100%" height="100%" fill="#121212" />
<line x1="20" y1="139" x2="320" y2="139" stroke="#232323" stroke-width="1" />
<line x1="20" y1="109" x2="320" y2="109" stroke="#232323" stroke-width="1" />
<line x1="20" y1="94" x2="320" y2="94" stroke="#3C3C3C" stroke-width="1" />
<line x1="20" y1="79" x2="320" y2="79" stroke="#232323" stroke-width="1" />
<line x1="20" y1="49" x2="320" y2="49" stroke="#232323" stroke-width="1" />
<line x1="169" y1="20" x2="169" y2="170" stroke="#232323" stroke-width="1" />
<polyline points="20,95 21,95 24,101 27,95 30,107 33,102 36,102 39,101 42,97 45,98 48,97 51,97 54,97 57,96 60,99 63,99 66,99 69,98 72,96 75,94 78,93 81,90 84,83 87,90 90,94 93,94 96,92 99,90 102,88 105,87 108,81 111,79 114,75 117,75 120,71 123,72 126,71 129,69 132,69 135,77 138,75 141,62 144,66 147,64 150,58 153,62 156,58 159,57 162,57 165,63 168,60 171,60 174,58 177,61 180,59 183,55 186,59 189,56 192,58 195,58 198,57 201,57 204,59 207,59 210,59 213,59 216,57 219,57 222,56 225,62 228,61 231,78 234,77 237,76 240,77 243,77 246,77 249,77 252,77 255,63 258,63 261,67 264,49 267,60 270,58 273,47 276,40 279,37 282,36 285,38 288,49 291,54 294,55 297,69 300,69 303,84 306,91 309,112 312,146 315,142 318,137" fill="none" stroke="#FFFF00" stroke-width="2" stroke-linejoin="round" />
<circle cx="109" cy="81" r="4" fill="#00FF00" stroke="#FFFFFF" stroke-width="1">
  <title>VPOC UP (59¢)</title>
</circle>
<circle cx="109" cy="81" r="4" fill="#00FF00" stroke="#FFFFFF" stroke-width="1">
  <title>MM2 UP (59¢)</title>
</circle>
<circle cx="109" cy="81" r="4" fill="#00FF00" stroke="#FFFFFF" stroke-width="1">
  <title>Nitro UP (59¢)</title>
</circle>
</svg>