<svg width="340" height="190" xmlns="http://www.w3.org/2000/svg">
<rect width="100%" height="100%" fill="#121212" />
<line x1="20" y1="139" x2="320" y2="139" stroke="#232323" stroke-width="1" />
<line x1="20" y1="109" x2="320" y2="109" stroke="#232323" stroke-width="1" />
<line x1="20" y1="94" x2="320" y2="94" stroke="#3C3C3C" stroke-width="1" />
<line x1="20" y1="79" x2="320" y2="79" stroke="#232323" stroke-width="1" />
<line x1="20" y1="49" x2="320" y2="49" stroke="#232323" stroke-width="1" />
<line x1="169" y1="20" x2="169" y2="170" stroke="#232323" stroke-width="1" />
<polyline points="20,95 20,95 23,90 26,89 29,93 32,106 35,119 38,118 41,116 44,116 47,119 50,119 53,104 56,104 59,95 62,95 65,95 68,89 71,90 74,90 77,90 80,90 83,90 86,90 89,90 92,81 95,78 98,75 101,70 104,71 107,71 110,84 113,84 116,81 119,81 122,83 125,78 128,76 131,69 134,69 137,69 140,63 143,55 146,66 149,79 152,84 155,95 158,89 161,98 164,93 167,99 170,101 173,99 176,92 179,89 182,84 185,83 188,78 191,77 194,72 197,59 200,56 203,55 206,55 209,40 212,40 215,38 218,40 221,39 224,39 227,40 230,44 233,32 236,34 239,37 242,38 245,37 248,32 251,31 254,31 257,30 260,28 263,31 266,37 269,40 272,46 275,55 278,62 281,71 284,85 287,95 290,112 293,107 296,130 299,138 302,151 305,164 308,160 311,161 314,164 317,167" fill="none" stroke="#FFFF00" stroke-width="2" stroke-linejoin="round" />
</svg>