<svg width="340" height="190" xmlns="http://www.w3.org/2000/svg">
<rect width="100%" height="100%" fill="#121212" />
<line x1="20" y1="139" x2="320" y2="139" stroke="#232323" stroke-width="1" />
<line x1="20" y1="109" x2="320" y2="109" stroke="#232323" stroke-width="1" />
<line x1="20" y1="94" x2="320" y2="94" stroke="#3C3C3C" stroke-width="1" />
<line x1="20" y1="79" x2="320" y2="79" stroke="#232323" stroke-width="1" />
<line x1="20" y1="49" x2="320" y2="49" stroke="#232323" stroke-width="1" />
<line x1="169" y1="20" x2="169" y2="170" stroke="#232323" stroke-width="1" />
<polyline points="20,101 20,101 23,101 26,101 29,98 32,101 35,101 38,103 41,111 44,113 47,113 50,116 53,122 56,122 59,128 62,130 65,126 68,130 71,125 74,126 77,130 80,133 83,134 86,135 89,133 92,130 95,133 98,136 101,144 104,147 107,150 110,151 113,150 116,145 119,144 122,148 125,153 128,148 131,149 134,148 137,152 140,155 143,157 146,157 149,159 152,159 155,159 158,160 161,159 164,160 167,160 170,160 173,163 176,164 179,165 182,165 185,165 188,163 191,164 194,165 197,165 200,165 203,166 206,166 209,166 212,166 215,166 218,166 221,166 224,166 227,166 230,166 233,166 236,166 239,167 242,167 245,167 248,167 251,167 254,167 257,167 260,167 263,167 266,167 269,167 272,167 275,167 278,167 281,167 284,167 287,167 290,167 293,167 296,167 299,167 302,167 305,167 308,167 311,167 314,167 317,167" fill="none" stroke="#FFFF00" stroke-width="2" stroke-linejoin="round" />
<circle cx="82" cy="55" r="4" fill="#FF0000" stroke="#FFFFFF" stroke-width="1">
  <title>Nitro DOWN (76¢)</title>
</circle>
<circle cx="82" cy="55" r="4" fill="#FF0000" stroke="#FFFFFF" stroke-width="1">
  <title>VolSnap DOWN (76¢)</title>
</circle>
</svg>