<svg width="340" height="190" xmlns="http://www.w3.org/2000/svg">
<rect width="100%" height="100%" fill="#121212" />
<line x1="20" y1="139" x2="320" y2="139" stroke="#232323" stroke-width="1" />
<line x1="20" y1="109" x2="320" y2="109" stroke="#232323" stroke-width="1" />
<line x1="20" y1="94" x2="320" y2="94" stroke="#3C3C3C" stroke-width="1" />
<line x1="20" y1="79" x2="320" y2="79" stroke="#232323" stroke-width="1" />
<line x1="20" y1="49" x2="320" y2="49" stroke="#232323" stroke-width="1" />
<line x1="169" y1="20" x2="169" y2="170" stroke="#232323" stroke-width="1" />
<polyline points="20,86 20,86 23,88 26,92 29,95 32,91 35,98 38,99 41,107 44,110 47,105 50,104 53,95 56,93 59,83 62,74 65,72 68,70 71,60 74,59 77,54 80,57 83,61 86,70 89,65 92,66 95,60 98,59 101,61 104,66 107,72 110,64 113,63 116,72 119,84 122,86 125,93 128,100 131,90 134,89 137,98 140,100 143,96 146,90 149,92 152,94 155,95 158,102 161,104 164,111 167,109 170,107 173,108 176,112 179,113 182,108 185,96 188,83 191,84 194,70 197,57 200,55 203,55 206,57 209,58 212,58 215,63 218,63 221,63 224,62 227,62 230,60 233,59 236,54 239,36 242,34 245,37 248,34 251,46 254,54 257,57 260,59 263,52 266,47 269,44 272,46 275,50 278,58 281,69 284,66 287,71 290,68 293,65 296,64 299,84 302,82 305,63 308,43 311,30 314,24 317,20" fill="none" stroke="#FFFF00" stroke-width="2" stroke-linejoin="round" />
</svg>