<svg width="340" height="190" xmlns="http://www.w3.org/2000/svg">
<rect width="100%" height="100%" fill="#121212" />
<line x1="20" y1="139" x2="320" y2="139" stroke="#232323" stroke-width="1" />
<line x1="20" y1="109" x2="320" y2="109" stroke="#232323" stroke-width="1" />
<line x1="20" y1="94" x2="320" y2="94" stroke="#3C3C3C" stroke-width="1" />
<line x1="20" y1="79" x2="320" y2="79" stroke="#232323" stroke-width="1" />
<line x1="20" y1="49" x2="320" y2="49" stroke="#232323" stroke-width="1" />
<line x1="169" y1="20" x2="169" y2="170" stroke="#232323" stroke-width="1" />
<polyline points="20,93 21,93 24,94 27,96 30,95 33,96 36,104 39,108 42,110 45,111 48,106 51,101 54,102 57,100 60,101 63,101 66,105 69,107 72,111 75,107 78,112 81,115 84,120 87,122 90,119 93,119 96,119 99,117 102,116 105,116 108,116 111,114 114,108 117,110 120,111 123,120 126,124 129,119 132,121 135,118 138,119 141,119 144,114 147,101 150,93 153,89 156,96 159,102 162,101 165,95 168,98 171,95 174,93 177,95 180,98 183,107 186,97 189,95 192,95 195,93 198,91 201,89 204,90 207,96 210,98 213,100 216,97 219,99 222,105 225,101 228,96 231,90 234,92 237,101 240,104 243,110 246,108 249,106 252,109 255,114 258,110 261,104 264,102 267,102 270,107 273,128 276,129 279,128 282,132 285,134 288,136 291,144 294,145 297,145 300,140 303,143 306,157 309,149 312,120 315,87 318,56" fill="none" stroke="#FFFF00" stroke-width="2" stroke-linejoin="round" />
<circle cx="83" cy="73" r="4" fill="#FF0000" stroke="#FFFFFF" stroke-width="1">
  <title>Nitro DOWN (64¢)</title>
</circle>
<circle cx="83" cy="73" r="4" fill="#FF0000" stroke="#FFFFFF" stroke-width="1">
  <title>VolSnap DOWN (64¢)</title>
</circle>
<circle cx="319" cy="58" r="4" fill="#00FF00" stroke="#FFFFFF" stroke-width="1">
  <title>VPOC UP (74¢)</title>
</circle>
<circle cx="319" cy="58" r="4" fill="#00FF00" stroke="#FFFFFF" stroke-width="1">
  <title>MM2 UP (74¢)</title>
</circle>
</svg>