<svg width="340" height="190" xmlns="http://www.w3.org/2000/svg">
<rect width="100%" height="100%" fill="#121212" />
<line x1="20" y1="139" x2="320" y2="139" stroke="#232323" stroke-width="1" />
<line x1="20" y1="109" x2="320" y2="109" stroke="#232323" stroke-width="1" />
<line x1="20" y1="94" x2="320" y2="94" stroke="#3C3C3C" stroke-width="1" />
<line x1="20" y1="79" x2="320" y2="79" stroke="#232323" stroke-width="1" />
<line x1="20" y1="49" x2="320" y2="49" stroke="#232323" stroke-width="1" />
<line x1="169" y1="20" x2="169" y2="170" stroke="#232323" stroke-width="1" />
<polyline points="20,98 20,98 23,93 26,102 29,98 32,90 35,93 38,78 41,63 44,61 47,63 50,65 53,66 56,66 59,62 62,72 65,63 68,67 71,66 74,62 77,60 80,72 83,77 86,72 89,70 92,59 95,56 98,60 101,72 104,74 107,77 110,78 113,78 116,72 119,73 122,66 125,68 128,69 131,69 134,68 137,71 140,62 143,58 146,57 149,43 152,42 155,43 158,46 161,47 164,51 167,50 170,53 173,52 176,62 179,65 182,48 185,45 188,43 191,43 194,41 197,43 200,45 203,61 206,65 209,76 212,78 215,72 218,60 221,59 224,59 227,62 230,60 233,65 236,68 239,69 242,66 245,60 248,62 251,75 254,87 257,87 260,78 263,84 266,91 269,93 272,92 275,89 278,90 281,85 284,80 287,71 290,71 293,72 296,66 299,64 302,30 305,31 308,28 311,26 314,22 317,20" fill="none" stroke="#FFFF00" stroke-width="2" stroke-linejoin="round" />
<circle cx="40" cy="79" r="4" fill="#00FF00" stroke="#FFFFFF" stroke-width="1">
  <title>MM2 UP (60¢)</title>
</circle>
<circle cx="81" cy="72" r="4" fill="#00FF00" stroke="#FFFFFF" stroke-width="1">
  <title>VolSnap UP (65¢)</title>
</circle>
</svg>