<svg width="340" height="190" xmlns="http://www.w3.org/2000/svg">
<rect width="100%" height="100%" fill="#121212" />
<line x1="20" y1="139" x2="320" y2="139" stroke="#232323" stroke-width="1" />
<line x1="20" y1="109" x2="320" y2="109" stroke="#232323" stroke-width="1" />
<line x1="20" y1="94" x2="320" y2="94" stroke="#3C3C3C" stroke-width="1" />
<line x1="20" y1="79" x2="320" y2="79" stroke="#232323" stroke-width="1" />
<line x1="20" y1="49" x2="320" y2="49" stroke="#232323" stroke-width="1" />
<line x1="169" y1="20" x2="169" y2="170" stroke="#232323" stroke-width="1" />
<polyline points="20,113 21,113 24,113 27,113 30,110 33,112 36,113 39,113 42,111 45,113 48,108 51,110 54,105 57,107 60,110 63,110 66,110 69,109 72,110 75,113 78,114 81,114 84,113 87,113 90,121 93,125 96,126 99,131 102,135 105,132 108,129 111,128 114,129 117,131 120,130 123,133 126,133 129,140 132,135 135,138 138,139 141,152 144,150 147,153 150,153 153,153 156,156 159,156 162,157 165,159 168,156 171,156 174,154 177,147 180,147 183,150 186,151 189,151 192,153 195,159 198,159 201,160 204,160 207,160 210,162 213,162 216,162 219,159 222,159 225,157 228,154 231,157 234,150 237,147 240,144 243,141 246,137 249,148 252,151 255,157 258,159 261,159 264,153 267,158 270,160 273,160 276,160 279,161 282,160 285,163 288,165 291,166 294,166 297,166 300,167 303,167 306,167 309,167 312,167 315,167 318,167" fill="none" stroke="#FFFF00" stroke-width="2" stroke-linejoin="round" />
</svg>