<svg width="340" height="190" xmlns="http://www.w3.org/2000/svg">
<rect width="100%" height="100%" fill="#121212" />
<line x1="20" y1="139" x2="320" y2="139" stroke="#232323" stroke-width="1" />
<line x1="20" y1="109" x2="320" y2="109" stroke="#232323" stroke-width="1" />
<line x1="20" y1="94" x2="320" y2="94" stroke="#3C3C3C" stroke-width="1" />
<line x1="20" y1="79" x2="320" y2="79" stroke="#232323" stroke-width="1" />
<line x1="20" y1="49" x2="320" y2="49" stroke="#232323" stroke-width="1" />
<line x1="169" y1="20" x2="169" y2="170" stroke="#232323" stroke-width="1" />
<polyline points="20,110 20,110 23,110 26,110 29,116 32,114 35,105 38,109 41,104 44,107 47,108 50,111 53,110 56,114 59,118 62,129 65,126 68,127 71,126 74,133 77,136 80,134 83,133 86,133 89,135 92,140 95,142 98,148 101,151 104,151 107,144 110,151 113,142 116,149 119,148 122,149 125,150 128,150 131,152 134,154 137,155 140,154 143,157 146,159 149,159 152,159 155,160 158,160 161,161 164,162 167,160 170,163 173,164 176,163 179,163 182,163 185,165 188,166 191,166 194,167 197,167 200,167 203,167 206,167 209,167 212,167 215,167 218,167 221,167 224,167 227,167 230,167 233,167 236,167 239,167 242,167 245,167 248,167 251,167 254,167 257,167 260,167 263,167 266,167 269,167 272,167 275,167 278,167 281,167 284,167 287,167 290,168 293,167 296,168 299,168 302,167 305,168 308,168 311,168 314,168 317,168" fill="none" stroke="#FFFF00" stroke-width="2" stroke-linejoin="round" />
</svg>