<svg width="340" height="190" xmlns="http://www.w3.org/2000/svg">
<rect width="100%" height="100%" fill="#121212" />
<line x1="20" y1="139" x2="320" y2="139" stroke="#232323" stroke-width="1" />
<line x1="20" y1="109" x2="320" y2="109" stroke="#232323" stroke-width="1" />
<line x1="20" y1="94" x2="320" y2="94" stroke="#3C3C3C" stroke-width="1" />
<line x1="20" y1="79" x2="320" y2="79" stroke="#232323" stroke-width="1" />
<line x1="20" y1="49" x2="320" y2="49" stroke="#232323" stroke-width="1" />
<line x1="169" y1="20" x2="169" y2="170" stroke="#232323" stroke-width="1" />
<polyline points="20,95 20,95 23,95 26,95 29,96 32,95 35,95 38,95 41,95 44,96 47,99 50,98 53,102 56,101 59,102 62,103 65,105 68,111 71,120 74,122 77,122 80,125 83,123 86,123 89,123 92,114 95,113 98,118 101,116 104,116 107,111 110,110 113,104 116,96 119,101 122,104 125,99 128,103 131,104 134,109 137,116 140,113 143,112 146,110 149,111 152,112 155,110 158,108 161,108 164,116 167,114 170,114 173,110 176,112 179,111 182,111 185,113 188,113 191,112 194,112 197,114 200,93 203,84 206,72 209,63 212,60 215,61 218,63 221,72 224,72 227,75 230,69 233,69 236,63 239,60 242,56 245,61 248,53 251,57 254,55 257,52 260,52 263,50 266,49 269,44 272,40 275,50 278,46 281,46 284,44 287,42 290,40 293,38 296,37 299,31 302,24 305,23 308,22 311,22 314,20 317,20" fill="none" stroke="#FFFF00" stroke-width="2" stroke-linejoin="round" />
<circle cx="207" cy="76" r="4" fill="#00FF00" stroke="#FFFFFF" stroke-width="1">
  <title>MM2 UP (62¢)</title>
</circle>
</svg>