<svg width="340" height="190" xmlns="http://www.w3.org/2000/svg">
<rect width="100%" height="100%" fill="#121212" />
<line x1="20" y1="139" x2="320" y2="139" stroke="#232323" stroke-width="1" />
<line x1="20" y1="109" x2="320" y2="109" stroke="#232323" stroke-width="1" />
<line x1="20" y1="94" x2="320" y2="94" stroke="#3C3C3C" stroke-width="1" />
<line x1="20" y1="79" x2="320" y2="79" stroke="#232323" stroke-width="1" />
<line x1="20" y1="49" x2="320" y2="49" stroke="#232323" stroke-width="1" />
<line x1="169" y1="20" x2="169" y2="170" stroke="#232323" stroke-width="1" />
<polyline points="20,87 20,87 23,87 26,86 29,91 32,88 35,86 38,82 41,81 44,81 47,81 50,76 53,75 56,69 59,71 62,71 65,71 68,72 71,72 74,71 77,72 80,70 83,81 86,80 89,80 92,82 95,84 98,86 101,84 104,87 107,84 110,84 113,84 116,86 119,83 122,80 125,80 128,80 131,75 134,70 137,71 140,75 143,78 146,75 149,78 152,79 155,77 158,82 161,81 164,84 167,84 170,84 173,81 176,81 179,81 182,74 185,68 188,72 191,66 194,57 197,59 200,59 203,52 206,53 209,52 212,50 215,39 218,37 221,39 224,41 227,34 230,33 233,34 236,35 239,34 242,34 245,34 248,32 251,31 254,33 257,32 260,31 263,28 266,23 269,22 272,20 275,20 278,20 281,20 284,20 287,20 290,20 293,20 296,20 299,20 302,20 305,20 308,20 311,20 314,20 317,20" fill="none" stroke="#FFFF00" stroke-width="2" stroke-linejoin="round" />
</svg>