<svg width="340" height="190" xmlns="http://www.w3.org/2000/svg">
<rect width="100%" height="100%" fill="#121212" />
<line x1="20" y1="139" x2="320" y2="139" stroke="#232323" stroke-width="1" />
<line x1="20" y1="109" x2="320" y2="109" stroke="#232323" stroke-width="1" />
<line x1="20" y1="94" x2="320" y2="94" stroke="#3C3C3C" stroke-width="1" />
<line x1="20" y1="79" x2="320" y2="79" stroke="#232323" stroke-width="1" />
<line x1="20" y1="49" x2="320" y2="49" stroke="#232323" stroke-width="1" />
<line x1="169" y1="20" x2="169" y2="170" stroke="#232323" stroke-width="1" />
<polyline points="20,86 20,86 23,87 26,87 29,87 32,87 35,87 38,89 41,87 44,87 47,90 50,93 53,102 56,103 59,114 62,114 65,111 68,116 71,120 74,119 77,125 80,123 83,117 86,110 89,108 92,110 95,107 98,107 101,105 104,101 107,107 110,107 113,115 116,111 119,122 122,122 125,123 128,121 131,95 134,92 137,83 140,76 143,60 146,61 149,69 152,68 155,66 158,68 161,69 164,71 167,69 170,69 173,69 176,69 179,68 182,64 185,66 188,66 191,59 194,62 197,62 200,65 203,64 206,72 209,75 212,49 215,46 218,39 221,36 224,34 227,34 230,35 233,39 236,46 239,49 242,60 245,60 248,69 251,57 254,43 257,40 260,32 263,31 266,31 269,30 272,31 275,31 278,31 281,31 284,29 287,26 290,24 293,23 296,22 299,22 302,22 305,20 308,20 311,20 314,20 317,20" fill="none" stroke="#FFFF00" stroke-width="2" stroke-linejoin="round" />
<circle cx="60" cy="81" r="4" fill="#FF0000" stroke="#FFFFFF" stroke-width="1">
  <title>Nitro DOWN (59¢)</title>
</circle>
<circle cx="82" cy="66" r="4" fill="#FF0000" stroke="#FFFFFF" stroke-width="1">
  <title>VolSnap DOWN (69¢)</title>
</circle>
<circle cx="142" cy="81" r="4" fill="#00FF00" stroke="#FFFFFF" stroke-width="1">
  <title>MM2 UP (59¢)</title>
</circle>
<circle cx="142" cy="81" r="4" fill="#00FF00" stroke="#FFFFFF" stroke-width="1">
  <title>VPOC UP (59¢)</title>
</circle>
</svg>