<svg width="340" height="190" xmlns="http://www.w3.org/2000/svg">
<rect width="100%" height="100%" fill="#121212" />
<line x1="20" y1="139" x2="320" y2="139" stroke="#232323" stroke-width="1" />
<line x1="20" y1="109" x2="320" y2="109" stroke="#232323" stroke-width="1" />
<line x1="20" y1="94" x2="320" y2="94" stroke="#3C3C3C" stroke-width="1" />
<line x1="20" y1="79" x2="320" y2="79" stroke="#232323" stroke-width="1" />
<line x1="20" y1="49" x2="320" y2="49" stroke="#232323" stroke-width="1" />
<line x1="169" y1="20" x2="169" y2="170" stroke="#232323" stroke-width="1" />
<polyline points="20,99 20,99 23,96 26,98 29,103 32,114 35,104 38,104 41,112 44,111 47,116 50,113 53,113 56,105 59,103 62,99 65,98 68,96 71,99 74,101 77,99 80,111 83,114 86,122 89,119 92,119 95,120 98,119 101,113 104,113 107,113 110,113 113,115 116,124 119,126 122,130 125,129 128,133 131,133 134,135 137,138 140,134 143,133 146,139 149,141 152,143 155,146 158,147 161,158 164,157 167,156 170,163 173,162 176,156 179,157 182,156 185,152 188,151 191,148 194,146 197,146 200,151 203,142 206,145 209,145 212,144 215,142 218,139 221,132 224,127 227,122 230,122 233,122 236,122 239,116 242,110 245,120 248,119 251,116 254,123 257,118 260,120 263,121 266,145 269,135 272,130 275,129 278,128 281,128 284,135 287,147 290,146 293,152 296,146 299,146 302,140 305,133 308,111 311,76 314,142 317,77" fill="none" stroke="#FFFF00" stroke-width="2" stroke-linejoin="round" />
<circle cx="124" cy="58" r="4" fill="#FF0000" stroke="#FFFFFF" stroke-width="1">
  <title>Nitro DOWN (74¢)</title>
</circle>
</svg>