<svg width="340" height="190" xmlns="http://www.w3.org/2000/svg">
<rect width="100%" height="100%" fill="#121212" />
<line x1="20" y1="139" x2="320" y2="139" stroke="#232323" stroke-width="1" />
<line x1="20" y1="109" x2="320" y2="109" stroke="#232323" stroke-width="1" />
<line x1="20" y1="94" x2="320" y2="94" stroke="#3C3C3C" stroke-width="1" />
<line x1="20" y1="79" x2="320" y2="79" stroke="#232323" stroke-width="1" />
<line x1="20" y1="49" x2="320" y2="49" stroke="#232323" stroke-width="1" />
<line x1="169" y1="20" x2="169" y2="170" stroke="#232323" stroke-width="1" />
<polyline points="20,96 22,93 25,104 28,107 31,102 34,116 37,120 40,120 43,110 46,112 49,99 52,104 55,107 58,104 61,104 64,104 67,115 70,119 73,111 76,111 79,101 82,90 85,83 88,87 91,80 94,80 97,80 100,87 103,86 106,84 109,84 112,84 115,86 118,87 121,87 124,87 127,86 130,96 133,105 136,98 139,101 142,98 145,99 148,105 151,105 154,104 157,104 160,105 163,116 166,120 169,126 172,109 175,105 178,105 181,105 184,107 187,111 190,110 193,81 196,78 199,77 202,72 205,66 208,69 211,46 214,46 217,50 220,38 223,28 226,28 229,32 232,32 235,34 238,34 241,34 244,37 247,43 250,50 253,49 256,58 259,66 262,70 265,72 268,74 271,76 274,65 277,66 280,59 283,56 286,43 289,35 292,34 295,33 298,28 301,23 304,22 307,20 310,20 313,20 316,20" fill="none" stroke="#FFFF00" stroke-width="2" stroke-linejoin="round" />
<circle cx="36" cy="76" r="4" fill="#FF0000" stroke="#FFFFFF" stroke-width="1">
  <title>VPOC DOWN (62¢)</title>
</circle>
<circle cx="92" cy="81" r="4" fill="#00FF00" stroke="#FFFFFF" stroke-width="1">
  <title>MM2 UP (59¢)</title>
</circle>
<circle cx="164" cy="73" r="4" fill="#FF0000" stroke="#FFFFFF" stroke-width="1">
  <title>VolSnap DOWN (64¢)</title>
</circle>
</svg>