<svg width="340" height="190" xmlns="http://www.w3.org/2000/svg">
<rect width="100%" height="100%" fill="#121212" />
<line x1="20" y1="139" x2="320" y2="139" stroke="#232323" stroke-width="1" />
<line x1="20" y1="109" x2="320" y2="109" stroke="#232323" stroke-width="1" />
<line x1="20" y1="94" x2="320" y2="94" stroke="#3C3C3C" stroke-width="1" />
<line x1="20" y1="79" x2="320" y2="79" stroke="#232323" stroke-width="1" />
<line x1="20" y1="49" x2="320" y2="49" stroke="#232323" stroke-width="1" />
<line x1="169" y1="20" x2="169" y2="170" stroke="#232323" stroke-width="1" />
<polyline points="20,90 20,90 23,91 26,95 29,95 32,95 35,95 38,95 41,96 44,95 47,95 50,95 53,95 56,93 59,92 62,92 65,81 68,80 71,75 74,71 77,71 80,70 83,66 86,68 89,67 92,69 95,60 98,65 101,66 104,61 107,60 110,60 113,63 116,63 119,60 122,59 125,59 128,71 131,72 134,69 137,71 140,90 143,96 146,99 149,101 152,96 155,86 158,84 161,81 164,81 167,78 170,84 173,81 176,84 179,87 182,80 185,80 188,77 191,78 194,78 197,81 200,78 203,69 206,63 209,57 212,53 215,53 218,55 221,53 224,53 227,53 230,53 233,53 236,53 239,53 242,53 245,52 248,52 251,52 254,52 257,52 260,52 263,51 266,52 269,55 272,47 275,59 278,59 281,55 284,51 287,51 290,52 293,49 296,46 299,46 302,45 305,49 308,45 311,46 314,40 317,26" fill="none" stroke="#FFFF00" stroke-width="2" stroke-linejoin="round" />
<circle cx="70" cy="81" r="4" fill="#00FF00" stroke="#FFFFFF" stroke-width="1">
  <title>MM2 UP (59¢)</title>
</circle>
<circle cx="82" cy="70" r="4" fill="#00FF00" stroke="#FFFFFF" stroke-width="1">
  <title>VolSnap UP (66¢)</title>
</circle>
<circle cx="84" cy="67" r="4" fill="#00FF00" stroke="#FFFFFF" stroke-width="1">
  <title>Nitro UP (68¢)</title>
</circle>
</svg>