<svg width="340" height="190" xmlns="http://www.w3.org/2000/svg">
<rect width="100%" height="100%" fill="#121212" />
<line x1="20" y1="139" x2="320" y2="139" stroke="#232323" stroke-width="1" />
<line x1="20" y1="109" x2="320" y2="109" stroke="#232323" stroke-width="1" />
<line x1="20" y1="94" x2="320" y2="94" stroke="#3C3C3C" stroke-width="1" />
<line x1="20" y1="79" x2="320" y2="79" stroke="#232323" stroke-width="1" />
<line x1="20" y1="49" x2="320" y2="49" stroke="#232323" stroke-width="1" />
<line x1="169" y1="20" x2="169" y2="170" stroke="#232323" stroke-width="1" />
<polyline points="20,95 22,101 25,107 28,98 31,98 34,96 37,96 40,96 43,95 46,93 49,95 52,94 55,78 58,72 61,84 64,83 67,84 70,89 73,89 76,92 79,95 82,113 85,116 88,128 91,127 94,131 97,131 100,138 103,139 106,139 109,139 112,139 115,139 118,139 121,139 124,136 127,136 130,136 133,138 136,138 139,142 142,142 145,144 148,144 151,141 154,142 157,131 160,133 163,134 166,141 169,145 172,133 175,133 178,131 181,131 184,130 187,131 190,132 193,131 196,145 199,147 202,150 205,150 208,151 211,151 214,153 217,153 220,153 223,148 226,147 229,146 232,149 235,145 238,145 241,142 244,136 247,141 250,147 253,154 256,151 259,151 262,151 265,148 268,149 271,150 274,151 277,153 280,155 283,156 286,155 289,153 292,158 295,158 298,164 301,166 304,166 307,167 310,167 313,167 316,167" fill="none" stroke="#FFFF00" stroke-width="2" stroke-linejoin="round" />
</svg>