<svg width="340" height="190" xmlns="http://www.w3.org/2000/svg">
<rect width="100%" height="100%" fill="#121212" />
<line x1="20" y1="139" x2="320" y2="139" stroke="#232323" stroke-width="1" />
<line x1="20" y1="109" x2="320" y2="109" stroke="#232323" stroke-width="1" />
<line x1="20" y1="94" x2="320" y2="94" stroke="#3C3C3C" stroke-width="1" />
<line x1="20" y1="79" x2="320" y2="79" stroke="#232323" stroke-width="1" />
<line x1="20" y1="49" x2="320" y2="49" stroke="#232323" stroke-width="1" />
<line x1="169" y1="20" x2="169" y2="170" stroke="#232323" stroke-width="1" />
<polyline points="20,86 22,95 25,105 28,98 31,102 34,103 37,102 40,99 43,97 46,98 49,99 52,104 55,101 58,103 61,107 64,116 67,112 70,111 73,111 76,110 79,108 82,107 85,96 88,92 91,94 94,91 97,89 100,93 103,93 106,84 109,81 112,77 115,77 118,75 121,75 124,77 127,72 130,69 133,74 136,77 139,75 142,75 145,71 148,65 151,63 154,72 157,72 160,70 163,72 166,68 169,66 172,66 175,57 178,57 181,59 184,57 187,54 190,55 193,56 196,52 199,49 202,48 205,50 208,48 211,49 214,62 217,67 220,72 223,70 226,76 229,76 232,70 235,70 238,74 241,71 244,69 247,72 250,74 253,75 256,74 259,66 262,58 265,57 268,66 271,53 274,46 277,37 280,34 283,32 286,29 289,31 292,30 295,29 298,32 301,25 304,25 307,25 310,25 313,26 316,28" fill="none" stroke="#FFFF00" stroke-width="2" stroke-linejoin="round" />
<circle cx="114" cy="78" r="4" fill="#00FF00" stroke="#FFFFFF" stroke-width="1">
  <title>MM2 UP (61¢)</title>
</circle>
<circle cx="114" cy="78" r="4" fill="#00FF00" stroke="#FFFFFF" stroke-width="1">
  <title>VPOC UP (61¢)</title>
</circle>
</svg>