<svg width="340" height="190" xmlns="http://www.w3.org/2000/svg">
<rect width="100%" height="100%" fill="#121212" />
<line x1="20" y1="139" x2="320" y2="139" stroke="#232323" stroke-width="1" />
<line x1="20" y1="109" x2="320" y2="109" stroke="#232323" stroke-width="1" />
<line x1="20" y1="94" x2="320" y2="94" stroke="#3C3C3C" stroke-width="1" />
<line x1="20" y1="79" x2="320" y2="79" stroke="#232323" stroke-width="1" />
<line x1="20" y1="49" x2="320" y2="49" stroke="#232323" stroke-width="1" />
<line x1="169" y1="20" x2="169" y2="170" stroke="#232323" stroke-width="1" />
<polyline points="20,92 20,92 23,93 26,100 29,98 32,99 35,98 38,96 41,99 44,102 47,98 50,98 53,96 56,99 59,99 62,99 65,108 68,101 71,98 74,89 77,86 80,87 83,87 86,87 89,87 92,86 95,86 98,84 101,82 104,89 107,86 110,86 113,86 116,74 119,59 122,56 125,56 128,57 131,49 134,47 137,53 140,53 143,60 146,60 149,60 152,69 155,66 158,66 161,53 164,56 167,52 170,46 173,49 176,55 179,55 182,52 185,49 188,50 191,50 194,44 197,40 200,38 203,38 206,39 209,37 212,37 215,37 218,35 221,34 224,32 227,31 230,35 233,29 236,32 239,35 242,35 245,36 248,34 251,42 254,38 257,41 260,32 263,29 266,29 269,29 272,28 275,28 278,26 281,20 284,20 287,20 290,20 293,20 296,20 299,20 302,20 305,20 308,20 311,20 314,20 317,20" fill="none" stroke="#FFFF00" stroke-width="2" stroke-linejoin="round" />
<circle cx="117" cy="75" r="4" fill="#00FF00" stroke="#FFFFFF" stroke-width="1">
  <title>MM2 UP (63¢)</title>
</circle>
<circle cx="117" cy="75" r="4" fill="#00FF00" stroke="#FFFFFF" stroke-width="1">
  <title>VolSnap UP (63¢)</title>
</circle>
<circle cx="124" cy="57" r="4" fill="#00FF00" stroke="#FFFFFF" stroke-width="1">
  <title>Nitro UP (75¢)</title>
</circle>
</svg>