<svg width="340" height="190" xmlns="http://www.w3.org/2000/svg">
<rect width="100%" height="100%" fill="#121212" />
<line x1="20" y1="139" x2="320" y2="139" stroke="#232323" stroke-width="1" />
<line x1="20" y1="109" x2="320" y2="109" stroke="#232323" stroke-width="1" />
<line x1="20" y1="94" x2="320" y2="94" stroke="#3C3C3C" stroke-width="1" />
<line x1="20" y1="79" x2="320" y2="79" stroke="#232323" stroke-width="1" />
<line x1="20" y1="49" x2="320" y2="49" stroke="#232323" stroke-width="1" />
<line x1="169" y1="20" x2="169" y2="170" stroke="#232323" stroke-width="1" />
<polyline points="20,99 22,99 25,98 28,90 31,75 34,75 37,81 40,92 43,78 46,80 49,94 52,89 55,90 58,87 61,90 64,92 67,106 70,116 73,116 76,119 79,119 82,118 85,126 88,131 91,128 94,126 97,125 100,125 103,116 106,113 109,113 112,114 115,129 118,125 121,123 124,129 127,133 130,132 133,123 136,126 139,131 142,133 145,126 148,123 151,125 154,133 157,138 160,138 163,148 166,147 169,146 172,149 175,153 178,153 181,154 184,154 187,155 190,157 193,157 196,159 199,159 202,160 205,159 208,158 211,160 214,162 217,161 220,160 223,160 226,162 229,161 232,161 235,160 238,160 241,159 244,162 247,163 250,163 253,163 256,163 259,163 262,165 265,165 268,165 271,165 274,166 277,165 280,166 283,167 286,167 289,167 292,167 295,167 298,167 301,167 304,167 307,167 310,167 313,167 316,167" fill="none" stroke="#FFFF00" stroke-width="2" stroke-linejoin="round" />
</svg>