<svg width="340" height="190" xmlns="http://www.w3.org/2000/svg">
<rect width="100%" height="100%" fill="#121212" />
<line x1="20" y1="139" x2="320" y2="139" stroke="#232323" stroke-width="1" />
<line x1="20" y1="109" x2="320" y2="109" stroke="#232323" stroke-width="1" />
<line x1="20" y1="94" x2="320" y2="94" stroke="#3C3C3C" stroke-width="1" />
<line x1="20" y1="79" x2="320" y2="79" stroke="#232323" stroke-width="1" />
<line x1="20" y1="49" x2="320" y2="49" stroke="#232323" stroke-width="1" />
<line x1="169" y1="20" x2="169" y2="170" stroke="#232323" stroke-width="1" />
<polyline points="20,72 21,72 25,73 28,86 31,90 34,90 37,78 40,78 43,77 46,77 49,78 52,78 55,78 58,79 61,78 64,78 67,84 70,81 73,81 76,82 79,81 82,84 85,86 88,88 91,89 94,89 97,89 100,90 103,93 106,107 109,105 112,109 115,113 118,110 121,99 124,91 127,88 130,79 133,74 136,64 139,72 142,60 145,68 148,78 151,69 154,55 157,48 160,49 163,41 166,37 169,43 172,37 175,37 178,43 181,41 184,40 187,38 190,37 193,37 196,39 199,41 202,41 205,41 208,37 211,34 214,37 217,39 220,48 223,46 226,34 229,32 232,31 235,31 238,30 241,29 244,32 247,31 250,28 253,28 256,28 259,26 262,26 265,22 268,23 271,22 274,21 277,20 280,20 283,20 286,20 289,20 292,20 295,20 298,20 301,21 304,31 307,66 310,71 313,86 316,107" fill="none" stroke="#FFFF00" stroke-width="2" stroke-linejoin="round" />
<circle cx="39" cy="79" r="4" fill="#00FF00" stroke="#FFFFFF" stroke-width="1">
  <title>MM2 UP (60¢)</title>
</circle>
<circle cx="39" cy="79" r="4" fill="#00FF00" stroke="#FFFFFF" stroke-width="1">
  <title>VPOC UP (60¢)</title>
</circle>
<circle cx="114" cy="81" r="4" fill="#FF0000" stroke="#FFFFFF" stroke-width="1">
  <title>WCP DOWN (59¢)</title>
</circle>
<circle cx="309" cy="75" r="4" fill="#00FF00" stroke="#FFFFFF" stroke-width="1">
  <title>MM2 UP (63¢)</title>
</circle>
<circle cx="309" cy="75" r="4" fill="#00FF00" stroke="#FFFFFF" stroke-width="1">
  <title>VPOC UP (63¢)</title>
</circle>
</svg>