<svg width="340" height="190" xmlns="http://www.w3.org/2000/svg">
<rect width="100%" height="100%" fill="#121212" />
<line x1="20" y1="139" x2="320" y2="139" stroke="#232323" stroke-width="1" />
<line x1="20" y1="109" x2="320" y2="109" stroke="#232323" stroke-width="1" />
<line x1="20" y1="94" x2="320" y2="94" stroke="#3C3C3C" stroke-width="1" />
<line x1="20" y1="79" x2="320" y2="79" stroke="#232323" stroke-width="1" />
<line x1="20" y1="49" x2="320" y2="49" stroke="#232323" stroke-width="1" />
<line x1="169" y1="20" x2="169" y2="170" stroke="#232323" stroke-width="1" />
<polyline points="20,95 20,95 23,94 26,94 29,98 32,98 35,98 38,97 41,96 44,96 47,84 50,87 53,87 56,86 59,84 62,84 65,83 68,80 71,80 74,82 77,84 80,84 83,89 86,93 89,95 92,94 95,93 98,93 101,93 104,93 107,93 110,95 113,96 116,93 119,101 122,103 125,107 128,103 131,97 134,92 137,92 140,78 143,80 146,88 149,93 152,99 155,107 158,111 161,111 164,111 167,114 170,117 173,128 176,127 179,128 182,129 185,128 188,108 191,105 194,102 197,105 200,107 203,113 206,112 209,116 212,128 215,128 218,138 221,141 224,137 227,142 230,137 233,139 236,147 239,136 242,139 245,139 248,141 251,145 254,146 257,151 260,155 263,155 266,151 269,148 272,153 275,152 278,151 281,149 284,147 287,139 290,129 293,125 296,125 299,135 302,134 305,145 308,151 311,156 314,157 317,167" fill="none" stroke="#FFFF00" stroke-width="2" stroke-linejoin="round" />
<circle cx="70" cy="81" r="4" fill="#00FF00" stroke="#FFFFFF" stroke-width="1">
  <title>MM2 UP (59¢)</title>
</circle>
<circle cx="159" cy="78" r="4" fill="#FF0000" stroke="#FFFFFF" stroke-width="1">
  <title>VPOC DOWN (61¢)</title>
</circle>
</svg>