<svg width="340" height="190" xmlns="http://www.w3.org/2000/svg">
<rect width="100%" height="100%" fill="#121212" />
<line x1="20" y1="139" x2="320" y2="139" stroke="#232323" stroke-width="1" />
<line x1="20" y1="109" x2="320" y2="109" stroke="#232323" stroke-width="1" />
<line x1="20" y1="94" x2="320" y2="94" stroke="#3C3C3C" stroke-width="1" />
<line x1="20" y1="79" x2="320" y2="79" stroke="#232323" stroke-width="1" />
<line x1="20" y1="49" x2="320" y2="49" stroke="#232323" stroke-width="1" />
<line x1="169" y1="20" x2="169" y2="170" stroke="#232323" stroke-width="1" />
<polyline points="20,113 21,113 24,108 27,113 30,113 33,116 36,114 39,116 42,119 45,122 48,132 51,129 54,133 57,136 60,136 63,138 66,136 69,135 72,136 75,136 78,135 81,131 84,129 87,122 90,131 93,137 96,136 99,135 102,136 105,136 108,129 111,131 114,129 117,122 120,121 123,116 126,119 129,121 132,125 135,125 138,133 141,132 145,133 148,132 151,131 154,131 157,129 160,124 163,122 166,117 169,116 172,118 175,113 178,110 181,104 184,114 187,126 190,125 193,125 196,125 199,107 202,102 205,86 208,69 211,69 214,69 217,72 220,71 223,69 226,43 229,31 232,29 235,37 238,48 241,48 244,31 247,35 250,38 253,38 256,46 259,40 262,35 265,34 268,33 271,32 274,32 277,35 280,35 283,35 286,36 289,49 292,55 295,54 298,77 301,90 304,138 307,165 310,166 313,157 316,167" fill="none" stroke="#FFFF00" stroke-width="2" stroke-linejoin="round" />
</svg>