<svg width="340" height="190" xmlns="http://www.w3.org/2000/svg">
<rect width="100%" height="100%" fill="#121212" />
<line x1="20" y1="139" x2="320" y2="139" stroke="#232323" stroke-width="1" />
<line x1="20" y1="109" x2="320" y2="109" stroke="#232323" stroke-width="1" />
<line x1="20" y1="94" x2="320" y2="94" stroke="#3C3C3C" stroke-width="1" />
<line x1="20" y1="79" x2="320" y2="79" stroke="#232323" stroke-width="1" />
<line x1="20" y1="49" x2="320" y2="49" stroke="#232323" stroke-width="1" />
<line x1="169" y1="20" x2="169" y2="170" stroke="#232323" stroke-width="1" />
<polyline points="20,105 20,105 23,94 26,90 29,87 32,86 35,87 38,87 41,87 44,89 47,87 50,87 53,87 56,87 59,88 62,87 65,89 68,107 71,111 74,110 77,110 80,119 83,123 86,122 89,118 92,128 95,133 98,136 101,136 104,140 107,139 110,139 113,136 116,136 119,137 122,139 125,140 128,147 131,138 134,139 137,132 140,133 143,133 146,133 149,133 152,138 155,144 158,142 161,145 164,146 167,148 170,148 173,150 176,152 179,150 182,139 185,141 188,142 191,142 194,147 197,150 200,156 203,156 206,156 209,156 212,157 215,157 218,154 221,153 224,157 227,150 230,157 233,157 236,159 239,159 242,160 245,160 248,162 251,162 254,162 257,160 260,163 263,163 266,163 269,164 272,165 275,166 278,166 281,167 284,167 287,167 290,167 293,167 296,167 299,167 302,167 305,167 308,167 311,167 314,168 317,168" fill="none" stroke="#FFFF00" stroke-width="2" stroke-linejoin="round" />
</svg>