<svg width="340" height="190" xmlns="http://www.w3.org/2000/svg">
<rect width="100%" height="100%" fill="#121212" />
<line x1="20" y1="139" x2="320" y2="139" stroke="#232323" stroke-width="1" />
<line x1="20" y1="109" x2="320" y2="109" stroke="#232323" stroke-width="1" />
<line x1="20" y1="94" x2="320" y2="94" stroke="#3C3C3C" stroke-width="1" />
<line x1="20" y1="79" x2="320" y2="79" stroke="#232323" stroke-width="1" />
<line x1="20" y1="49" x2="320" y2="49" stroke="#232323" stroke-width="1" />
<line x1="169" y1="20" x2="169" y2="170" stroke="#232323" stroke-width="1" />
<polyline points="20,96 20,96 23,95 26,102 29,100 32,102 35,101 38,101 41,101 44,95 47,81 50,72 53,66 56,57 59,57 62,73 65,63 68,59 71,63 74,47 77,51 80,45 83,55 86,48 89,46 92,47 95,38 98,41 101,52 104,47 107,45 110,34 113,41 116,39 119,38 122,36 125,34 128,31 131,33 134,35 137,32 140,31 143,30 146,30 149,31 152,32 155,34 158,34 161,34 164,34 167,34 170,32 173,31 176,29 179,29 182,28 185,27 188,25 191,25 194,25 197,28 200,25 203,25 206,25 209,28 212,28 215,24 218,23 221,28 224,27 227,25 230,25 233,25 236,23 239,25 242,26 245,25 248,26 251,23 254,22 257,25 260,22 263,22 266,22 269,24 272,22 275,20 278,20 281,20 284,20 287,20 290,20 293,20 296,20 299,20 302,20 306,20 309,20 312,20 315,20 318,20" fill="none" stroke="#FFFF00" stroke-width="2" stroke-linejoin="round" />
<circle cx="52" cy="78" r="4" fill="#00FF00" stroke="#FFFFFF" stroke-width="1">
  <title>VPOC UP (61¢)</title>
</circle>
<circle cx="52" cy="78" r="4" fill="#00FF00" stroke="#FFFFFF" stroke-width="1">
  <title>MM2 UP (61¢)</title>
</circle>
<circle cx="52" cy="78" r="4" fill="#00FF00" stroke="#FFFFFF" stroke-width="1">
  <title>Nitro UP (61¢)</title>
</circle>
<circle cx="85" cy="54" r="4" fill="#00FF00" stroke="#FFFFFF" stroke-width="1">
  <title>VolSnap UP (77¢)</title>
</circle>
</svg>