<svg width="340" height="190" xmlns="http://www.w3.org/2000/svg">
<rect width="100%" height="100%" fill="#121212" />
<line x1="20" y1="139" x2="320" y2="139" stroke="#232323" stroke-width="1" />
<line x1="20" y1="109" x2="320" y2="109" stroke="#232323" stroke-width="1" />
<line x1="20" y1="94" x2="320" y2="94" stroke="#3C3C3C" stroke-width="1" />
<line x1="20" y1="79" x2="320" y2="79" stroke="#232323" stroke-width="1" />
<line x1="20" y1="49" x2="320" y2="49" stroke="#232323" stroke-width="1" />
<line x1="169" y1="20" x2="169" y2="170" stroke="#232323" stroke-width="1" />
<polyline points="20,93 21,93 24,92 27,98 30,95 33,108 36,104 39,101 42,98 45,101 48,96 51,103 54,104 57,108 60,106 63,95 66,90 69,87 72,87 75,93 78,99 81,106 84,106 87,100 90,92 93,106 96,109 99,108 102,108 105,117 108,122 111,118 114,113 117,102 120,107 124,107 127,108 130,110 133,110 136,110 139,107 142,96 145,107 148,108 151,101 154,96 157,99 160,100 163,96 166,95 169,95 172,90 175,96 178,100 181,99 184,99 187,93 190,87 193,87 196,86 199,84 202,75 205,72 208,70 211,83 214,75 217,75 220,72 223,71 226,72 229,74 232,73 235,74 238,81 241,92 244,92 247,87 250,91 253,92 256,90 259,84 262,83 265,73 268,69 271,75 274,81 277,72 280,72 283,69 286,64 289,48 292,40 295,40 298,39 301,34 304,37 307,55 310,53 313,66 316,81" fill="none" stroke="#FFFF00" stroke-width="2" stroke-linejoin="round" />
<circle cx="34" cy="81" r="4" fill="#FF0000" stroke="#FFFFFF" stroke-width="1">
  <title>Nitro DOWN (59¢)</title>
</circle>
<circle cx="98" cy="79" r="4" fill="#FF0000" stroke="#FFFFFF" stroke-width="1">
  <title>VolSnap DOWN (60¢)</title>
</circle>
<circle cx="203" cy="76" r="4" fill="#00FF00" stroke="#FFFFFF" stroke-width="1">
  <title>MM2 UP (62¢)</title>
</circle>
</svg>