<svg width="340" height="190" xmlns="http://www.w3.org/2000/svg">
<rect width="100%" height="100%" fill="#121212" />
<line x1="20" y1="139" x2="320" y2="139" stroke="#232323" stroke-width="1" />
<line x1="20" y1="109" x2="320" y2="109" stroke="#232323" stroke-width="1" />
<line x1="20" y1="94" x2="320" y2="94" stroke="#3C3C3C" stroke-width="1" />
<line x1="20" y1="79" x2="320" y2="79" stroke="#232323" stroke-width="1" />
<line x1="20" y1="49" x2="320" y2="49" stroke="#232323" stroke-width="1" />
<line x1="169" y1="20" x2="169" y2="170" stroke="#232323" stroke-width="1" />
<polyline points="20,87 20,87 23,89 26,86 29,87 32,86 35,85 38,78 41,86 44,84 47,84 50,84 53,90 56,92 59,92 62,93 65,91 68,80 71,76 74,78 77,77 80,78 83,77 86,75 89,78 92,75 95,75 98,78 101,82 104,84 107,83 110,83 113,77 116,78 119,81 122,81 125,80 128,80 131,93 134,90 137,89 140,88 143,90 146,95 149,109 152,111 155,109 158,95 161,93 164,93 167,94 170,94 173,94 176,92 179,92 182,91 185,93 188,91 191,94 194,89 197,94 200,109 203,110 206,113 209,119 212,122 215,126 218,125 221,129 224,127 227,110 230,128 233,121 236,130 239,133 243,131 246,137 249,127 252,127 255,133 258,136 261,144 264,143 267,145 270,148 273,143 276,146 279,148 282,148 285,151 288,157 291,151 294,141 297,142 300,155 303,157 306,156 309,156 312,158 315,162 318,163" fill="none" stroke="#FFFF00" stroke-width="2" stroke-linejoin="round" />
<circle cx="40" cy="81" r="4" fill="#00FF00" stroke="#FFFFFF" stroke-width="1">
  <title>MM2 UP (59¢)</title>
</circle>
<circle cx="150" cy="76" r="4" fill="#FF0000" stroke="#FFFFFF" stroke-width="1">
  <title>VPOC DOWN (62¢)</title>
</circle>
<circle cx="150" cy="76" r="4" fill="#FF0000" stroke="#FFFFFF" stroke-width="1">
  <title>VolSnap DOWN (62¢)</title>
</circle>
</svg>