<svg width="340" height="190" xmlns="http://www.w3.org/2000/svg">
<rect width="100%" height="100%" fill="#121212" />
<line x1="20" y1="139" x2="320" y2="139" stroke="#232323" stroke-width="1" />
<line x1="20" y1="109" x2="320" y2="109" stroke="#232323" stroke-width="1" />
<line x1="20" y1="94" x2="320" y2="94" stroke="#3C3C3C" stroke-width="1" />
<line x1="20" y1="79" x2="320" y2="79" stroke="#232323" stroke-width="1" />
<line x1="20" y1="49" x2="320" y2="49" stroke="#232323" stroke-width="1" />
<line x1="169" y1="20" x2="169" y2="170" stroke="#232323" stroke-width="1" />
<polyline points="20,101 22,95 25,87 28,90 31,95 34,95 37,98 40,102 43,102 46,102 49,105 52,108 55,101 58,101 61,101 64,93 67,95 70,102 73,105 76,107 79,116 82,108 85,109 88,111 91,107 94,107 97,109 100,109 103,104 106,101 109,105 112,98 115,96 118,94 121,93 124,93 127,94 130,93 133,95 136,95 139,91 142,86 145,84 148,84 151,86 154,86 157,86 160,84 163,88 166,89 169,88 172,87 175,89 178,89 181,87 184,87 187,112 190,110 193,107 196,111 199,113 202,111 205,116 208,114 211,116 214,119 217,122 220,125 223,135 226,131 229,128 232,131 235,129 238,126 241,126 244,129 247,131 250,131 253,131 256,133 259,133 262,134 265,135 268,133 271,130 274,128 277,136 280,136 283,142 286,143 289,145 292,159 295,162 298,163 301,165 304,162 307,107 310,64 313,60 316,25" fill="none" stroke="#FFFF00" stroke-width="2" stroke-linejoin="round" />
<circle cx="312" cy="66" r="4" fill="#00FF00" stroke="#FFFFFF" stroke-width="1">
  <title>MM2 UP (69¢)</title>
</circle>
<circle cx="312" cy="66" r="4" fill="#00FF00" stroke="#FFFFFF" stroke-width="1">
  <title>VolSnap UP (69¢)</title>
</circle>
</svg>