<svg width="340" height="190" xmlns="http://www.w3.org/2000/svg">
<rect width="100%" height="100%" fill="#121212" />
<line x1="20" y1="139" x2="320" y2="139" stroke="#232323" stroke-width="1" />
<line x1="20" y1="109" x2="320" y2="109" stroke="#232323" stroke-width="1" />
<line x1="20" y1="94" x2="320" y2="94" stroke="#3C3C3C" stroke-width="1" />
<line x1="20" y1="79" x2="320" y2="79" stroke="#232323" stroke-width="1" />
<line x1="20" y1="49" x2="320" y2="49" stroke="#232323" stroke-width="1" />
<line x1="169" y1="20" x2="169" y2="170" stroke="#232323" stroke-width="1" />
<polyline points="20,83 22,84 25,86 28,90 31,93 34,93 37,96 40,98 43,104 46,113 49,113 52,106 55,117 58,119 61,120 64,125 67,122 70,113 73,113 76,109 79,118 82,120 85,119 88,121 91,125 94,131 97,132 100,131 103,131 106,131 109,131 112,135 115,136 118,138 121,133 124,130 127,119 130,119 133,123 136,125 139,128 142,122 145,120 148,108 151,107 154,105 157,115 160,125 163,131 166,130 169,134 172,134 175,132 178,131 181,127 184,123 187,120 190,127 193,131 196,133 199,139 202,145 205,148 208,150 211,150 214,151 217,151 220,153 223,151 226,152 229,153 232,154 235,156 238,159 241,157 244,160 247,154 250,160 253,162 256,163 259,165 262,166 265,164 268,166 271,165 274,165 277,164 280,162 283,163 286,155 289,160 292,159 295,160 298,161 301,163 304,164 307,166 310,167 313,167 316,167" fill="none" stroke="#FFFF00" stroke-width="2" stroke-linejoin="round" />
<circle cx="57" cy="64" r="4" fill="#FF0000" stroke="#FFFFFF" stroke-width="1">
  <title>Nitro DOWN (70¢)</title>
</circle>
<circle cx="84" cy="69" r="4" fill="#FF0000" stroke="#FFFFFF" stroke-width="1">
  <title>VolSnap DOWN (67¢)</title>
</circle>
</svg>