<svg width="340" height="190" xmlns="http://www.w3.org/2000/svg">
<rect width="100%" height="100%" fill="#121212" />
<line x1="20" y1="139" x2="320" y2="139" stroke="#232323" stroke-width="1" />
<line x1="20" y1="109" x2="320" y2="109" stroke="#232323" stroke-width="1" />
<line x1="20" y1="94" x2="320" y2="94" stroke="#3C3C3C" stroke-width="1" />
<line x1="20" y1="79" x2="320" y2="79" stroke="#232323" stroke-width="1" />
<line x1="20" y1="49" x2="320" y2="49" stroke="#232323" stroke-width="1" />
<line x1="169" y1="20" x2="169" y2="170" stroke="#232323" stroke-width="1" />
<polyline points="20,87 20,87 23,90 26,90 29,85 32,83 35,81 38,78 41,76 44,81 47,69 50,54 53,65 56,71 59,72 62,62 65,62 68,56 71,52 74,57 77,55 80,63 83,55 86,56 89,48 92,48 95,44 98,53 101,56 104,59 107,55 110,49 113,52 116,62 119,66 122,59 125,55 128,49 131,40 134,41 137,46 140,45 143,49 146,44 149,49 152,51 155,49 158,42 161,38 164,36 167,34 170,34 173,38 176,38 179,37 182,33 185,29 188,29 191,33 194,36 197,37 200,41 203,40 206,41 209,45 212,47 215,47 218,41 221,38 224,40 227,45 230,49 233,52 236,49 239,46 242,43 245,40 248,39 251,34 254,28 257,31 260,29 263,28 266,26 269,30 272,24 275,22 278,22 281,22 284,20 287,22 290,20 293,20 296,20 299,20 302,20 305,20 308,22 311,20 314,20 317,20" fill="none" stroke="#FFFF00" stroke-width="2" stroke-linejoin="round" />
<circle cx="52" cy="55" r="4" fill="#00FF00" stroke="#FFFFFF" stroke-width="1">
  <title>MM2 UP (76¢)</title>
</circle>
<circle cx="52" cy="55" r="4" fill="#00FF00" stroke="#FFFFFF" stroke-width="1">
  <title>Nitro UP (76¢)</title>
</circle>
<circle cx="81" cy="63" r="4" fill="#00FF00" stroke="#FFFFFF" stroke-width="1">
  <title>VolSnap UP (71¢)</title>
</circle>
</svg>