<svg width="340" height="190" xmlns="http://www.w3.org/2000/svg">
<rect width="100%" height="100%" fill="#121212" />
<line x1="20" y1="139" x2="320" y2="139" stroke="#232323" stroke-width="1" />
<line x1="20" y1="109" x2="320" y2="109" stroke="#232323" stroke-width="1" />
<line x1="20" y1="94" x2="320" y2="94" stroke="#3C3C3C" stroke-width="1" />
<line x1="20" y1="79" x2="320" y2="79" stroke="#232323" stroke-width="1" />
<line x1="20" y1="49" x2="320" y2="49" stroke="#232323" stroke-width="1" />
<line x1="169" y1="20" x2="169" y2="170" stroke="#232323" stroke-width="1" />
<polyline points="20,90 20,90 23,90 26,93 29,90 32,92 35,93 38,101 41,101 44,101 47,101 50,103 53,113 56,101 59,101 62,102 65,100 68,111 71,104 74,101 77,98 80,96 83,101 86,103 89,102 92,99 95,97 98,104 101,107 104,107 107,113 110,113 113,111 116,108 119,107 122,102 125,113 128,112 131,116 134,120 137,122 140,123 143,125 146,118 149,118 152,120 155,120 158,123 161,124 164,124 167,125 170,120 173,128 176,136 179,138 182,138 185,139 188,139 191,140 194,140 197,142 200,141 203,141 206,132 209,132 212,133 215,133 218,134 221,133 224,134 227,135 230,136 233,136 236,138 239,138 242,136 245,122 248,119 251,116 254,116 257,116 260,118 263,104 266,101 269,95 272,90 275,83 278,81 281,78 284,78 287,80 290,80 293,78 296,93 299,91 302,126 305,146 308,151 311,142 314,123 317,90" fill="none" stroke="#FFFF00" stroke-width="2" stroke-linejoin="round" />
<circle cx="283" cy="79" r="4" fill="#00FF00" stroke="#FFFFFF" stroke-width="1">
  <title>MM2 UP (60¢)</title>
</circle>
<circle cx="283" cy="79" r="4" fill="#00FF00" stroke="#FFFFFF" stroke-width="1">
  <title>Briefing UP (60¢)</title>
</circle>
<circle cx="283" cy="79" r="4" fill="#00FF00" stroke="#FFFFFF" stroke-width="1">
  <title>VPOC UP (60¢)</title>
</circle>
</svg>