<svg width="340" height="190" xmlns="http://www.w3.org/2000/svg">
<rect width="100%" height="100%" fill="#121212" />
<line x1="20" y1="139" x2="320" y2="139" stroke="#232323" stroke-width="1" />
<line x1="20" y1="109" x2="320" y2="109" stroke="#232323" stroke-width="1" />
<line x1="20" y1="94" x2="320" y2="94" stroke="#3C3C3C" stroke-width="1" />
<line x1="20" y1="79" x2="320" y2="79" stroke="#232323" stroke-width="1" />
<line x1="20" y1="49" x2="320" y2="49" stroke="#232323" stroke-width="1" />
<line x1="169" y1="20" x2="169" y2="170" stroke="#232323" stroke-width="1" />
<polyline points="20,98 22,110 25,125 28,122 31,122 34,123 37,124 40,122 43,122 46,122 49,122 52,119 55,115 58,105 61,117 64,116 67,117 70,116 73,117 76,123 79,119 82,107 85,104 88,104 91,102 94,111 97,113 100,110 103,106 106,105 109,104 112,105 115,107 118,108 121,107 124,110 127,113 130,91 133,84 136,87 139,100 142,101 145,93 148,93 151,93 154,89 157,89 160,90 163,92 166,92 169,92 172,84 175,86 178,76 181,78 184,80 187,80 190,86 193,93 196,94 199,129 202,134 205,152 208,158 211,158 214,157 217,159 220,161 223,162 226,163 229,164 232,165 235,165 238,164 241,163 244,165 247,165 250,165 253,163 256,165 259,166 262,167 265,167 268,167 271,167 274,167 277,167 280,167 283,167 286,167 289,167 292,167 295,167 298,167 301,167 304,167 307,167 310,167 313,167 316,167" fill="none" stroke="#FFFF00" stroke-width="2" stroke-linejoin="round" />
<circle cx="42" cy="67" r="4" fill="#FF0000" stroke="#FFFFFF" stroke-width="1">
  <title>Nitro DOWN (68¢)</title>
</circle>
<circle cx="96" cy="78" r="4" fill="#FF0000" stroke="#FFFFFF" stroke-width="1">
  <title>VolSnap DOWN (61¢)</title>
</circle>
<circle cx="180" cy="76" r="4" fill="#00FF00" stroke="#FFFFFF" stroke-width="1">
  <title>MM2 UP (62¢)</title>
</circle>
</svg>