<svg width="340" height="190" xmlns="http://www.w3.org/2000/svg">
<rect width="100%" height="100%" fill="#121212" />
<line x1="20" y1="139" x2="320" y2="139" stroke="#232323" stroke-width="1" />
<line x1="20" y1="109" x2="320" y2="109" stroke="#232323" stroke-width="1" />
<line x1="20" y1="94" x2="320" y2="94" stroke="#3C3C3C" stroke-width="1" />
<line x1="20" y1="79" x2="320" y2="79" stroke="#232323" stroke-width="1" />
<line x1="20" y1="49" x2="320" y2="49" stroke="#232323" stroke-width="1" />
<line x1="169" y1="20" x2="169" y2="170" stroke="#232323" stroke-width="1" />
<polyline points="20,114 21,114 24,98 27,93 30,81 33,83 36,81 39,81 42,78 45,102 48,98 51,93 54,83 57,83 60,87 63,75 66,72 69,73 72,78 75,75 78,75 81,70 84,80 87,77 90,78 93,78 96,83 99,75 102,72 105,72 108,93 111,89 114,81 117,74 120,70 123,69 126,69 129,71 132,71 135,71 138,78 141,85 144,80 147,80 150,84 153,86 156,79 159,74 162,74 165,72 168,65 171,63 174,61 177,60 180,57 183,57 186,63 189,56 192,57 195,56 198,55 201,53 204,54 207,53 210,52 213,50 216,49 219,47 222,44 225,41 228,49 231,47 234,40 237,40 240,38 243,36 246,34 249,34 252,32 255,40 258,38 261,36 264,38 267,40 270,41 273,42 276,40 279,39 282,35 285,31 288,31 291,28 294,28 297,27 300,25 303,25 306,24 309,22 312,22 315,20 318,20" fill="none" stroke="#FFFF00" stroke-width="2" stroke-linejoin="round" />
<circle cx="44" cy="73" r="4" fill="#00FF00" stroke="#FFFFFF" stroke-width="1">
  <title>MM2 UP (64¢)</title>
</circle>
<circle cx="44" cy="73" r="4" fill="#00FF00" stroke="#FFFFFF" stroke-width="1">
  <title>VPOC UP (64¢)</title>
</circle>
<circle cx="65" cy="81" r="4" fill="#00FF00" stroke="#FFFFFF" stroke-width="1">
  <title>Nitro UP (59¢)</title>
</circle>
<circle cx="83" cy="72" r="4" fill="#00FF00" stroke="#FFFFFF" stroke-width="1">
  <title>VolSnap UP (65¢)</title>
</circle>
</svg>