<svg width="340" height="190" xmlns="http://www.w3.org/2000/svg">
<rect width="100%" height="100%" fill="#121212" />
<line x1="20" y1="139" x2="320" y2="139" stroke="#232323" stroke-width="1" />
<line x1="20" y1="109" x2="320" y2="109" stroke="#232323" stroke-width="1" />
<line x1="20" y1="94" x2="320" y2="94" stroke="#3C3C3C" stroke-width="1" />
<line x1="20" y1="79" x2="320" y2="79" stroke="#232323" stroke-width="1" />
<line x1="20" y1="49" x2="320" y2="49" stroke="#232323" stroke-width="1" />
<line x1="169" y1="20" x2="169" y2="170" stroke="#232323" stroke-width="1" />
<polyline points="20,101 20,101 23,101 26,101 29,96 32,91 35,88 38,90 41,92 44,87 47,83 50,83 53,83 56,89 59,88 62,83 65,83 68,72 71,71 74,68 77,75 80,72 83,75 86,84 89,89 92,86 95,86 98,88 101,89 104,87 107,87 110,90 113,90 116,108 119,111 122,115 125,105 128,106 131,122 134,122 137,122 140,114 143,114 146,104 149,96 152,89 155,72 158,68 161,66 164,56 167,59 170,48 173,49 176,50 179,58 182,66 185,69 188,71 191,75 194,75 197,75 200,77 203,78 206,67 209,74 212,72 215,72 218,72 221,71 224,71 227,73 230,79 233,79 236,65 239,62 242,67 245,66 248,65 251,76 254,77 257,77 260,77 263,76 266,77 269,77 272,95 275,98 278,111 281,113 284,114 287,122 290,129 293,147 296,150 299,129 302,122 305,138 308,128 311,131 314,124 317,126" fill="none" stroke="#FFFF00" stroke-width="2" stroke-linejoin="round" />
<circle cx="69" cy="73" r="4" fill="#00FF00" stroke="#FFFFFF" stroke-width="1">
  <title>MM2 UP (64¢)</title>
</circle>
<circle cx="73" cy="73" r="4" fill="#00FF00" stroke="#FFFFFF" stroke-width="1">
  <title>Nitro UP (64¢)</title>
</circle>
<circle cx="81" cy="73" r="4" fill="#00FF00" stroke="#FFFFFF" stroke-width="1">
  <title>VolSnap UP (64¢)</title>
</circle>
<circle cx="120" cy="75" r="4" fill="#FF0000" stroke="#FFFFFF" stroke-width="1">
  <title>VPOC DOWN (63¢)</title>
</circle>
</svg>