<svg width="340" height="190" xmlns="http://www.w3.org/2000/svg">
<rect width="100%" height="100%" fill="#121212" />
<line x1="20" y1="139" x2="320" y2="139" stroke="#232323" stroke-width="1" />
<line x1="20" y1="109" x2="320" y2="109" stroke="#232323" stroke-width="1" />
<line x1="20" y1="94" x2="320" y2="94" stroke="#3C3C3C" stroke-width="1" />
<line x1="20" y1="79" x2="320" y2="79" stroke="#232323" stroke-width="1" />
<line x1="20" y1="49" x2="320" y2="49" stroke="#232323" stroke-width="1" />
<line x1="169" y1="20" x2="169" y2="170" stroke="#232323" stroke-width="1" />
<polyline points="20,116 22,105 25,98 28,98 31,104 34,104 37,104 40,104 43,105 46,114 49,116 52,114 55,112 58,110 61,110 64,110 67,101 70,93 73,93 76,89 79,88 82,81 85,81 88,83 91,90 94,84 97,86 100,93 103,93 106,92 109,92 112,91 115,91 118,90 121,90 124,100 127,101 130,101 133,98 136,95 139,84 142,99 145,100 148,101 151,99 154,97 157,99 160,99 163,99 166,99 169,98 172,95 175,97 178,99 181,103 184,104 187,100 190,104 193,103 196,104 199,104 202,104 205,104 208,104 211,104 214,104 217,104 220,104 223,104 226,104 229,104 232,104 235,104 238,104 241,104 244,104 247,104 250,104 253,104 256,104 259,104 262,104 265,104 268,104 271,104 274,104 277,104 280,104 283,104 286,104 289,104 292,104 295,104 298,104 301,104 304,104 307,104 310,104 313,104 316,104" fill="none" stroke="#FFFF00" stroke-width="2" stroke-linejoin="round" />
</svg>