<svg width="340" height="190" xmlns="http://www.w3.org/2000/svg">
<rect width="100%" height="100%" fill="#121212" />
<line x1="20" y1="139" x2="320" y2="139" stroke="#232323" stroke-width="1" />
<line x1="20" y1="109" x2="320" y2="109" stroke="#232323" stroke-width="1" />
<line x1="20" y1="94" x2="320" y2="94" stroke="#3C3C3C" stroke-width="1" />
<line x1="20" y1="79" x2="320" y2="79" stroke="#232323" stroke-width="1" />
<line x1="20" y1="49" x2="320" y2="49" stroke="#232323" stroke-width="1" />
<line x1="169" y1="20" x2="169" y2="170" stroke="#232323" stroke-width="1" />
<polyline points="20,38 124,38 128,38 131,38 134,38 137,37 140,32 143,31 146,30 149,31 152,31 155,31 158,31 161,31 164,36 167,35 170,34 173,34 176,37 179,35 182,31 185,29 188,28 191,28 194,26 197,25 200,25 203,25 206,25 209,24 212,23 215,23 218,23 221,22 224,22 227,20 230,20 233,20 236,20 239,20 242,20 245,20 248,20 251,20 254,20 257,20 260,20 263,20 266,20 269,20 272,20 275,20 278,20 281,20 284,20 287,20 290,20 293,20 296,20 299,20 302,20 305,20 308,20 311,20 314,20 317,20" fill="none" stroke="#FFFF00" stroke-width="2" stroke-linejoin="round" />
</svg>