<svg width="340" height="190" xmlns="http://www.w3.org/2000/svg">
<rect width="100%" height="100%" fill="#121212" />
<line x1="20" y1="139" x2="320" y2="139" stroke="#232323" stroke-width="1" />
<line x1="20" y1="109" x2="320" y2="109" stroke="#232323" stroke-width="1" />
<line x1="20" y1="94" x2="320" y2="94" stroke="#3C3C3C" stroke-width="1" />
<line x1="20" y1="79" x2="320" y2="79" stroke="#232323" stroke-width="1" />
<line x1="20" y1="49" x2="320" y2="49" stroke="#232323" stroke-width="1" />
<line x1="169" y1="20" x2="169" y2="170" stroke="#232323" stroke-width="1" />
<polyline points="20,115 21,115 24,116 27,117 30,119 33,116 36,117 39,122 42,117 45,117 48,117 51,117 54,117 57,123 60,123 63,124 66,125 69,124 72,124 75,122 78,127 81,133 84,132 87,132 90,126 93,131 96,136 99,153 102,154 105,154 108,148 111,141 114,141 117,139 120,139 123,131 126,127 129,129 132,128 135,128 138,128 141,109 144,94 147,93 150,78 153,81 156,81 159,76 162,95 165,94 168,85 171,80 174,81 177,80 180,78 183,66 186,80 189,80 192,84 195,85 198,89 201,84 204,86 207,85 210,84 213,84 216,62 219,62 222,62 225,60 228,60 231,59 234,64 237,63 240,57 243,59 246,63 249,63 252,63 255,63 258,88 261,95 264,93 267,99 270,102 273,102 276,101 279,102 282,102 285,101 288,101 291,102 294,105 297,105 300,106 303,118 306,120 309,113 312,81 315,37 318,53" fill="none" stroke="#FFFF00" stroke-width="2" stroke-linejoin="round" />
<circle cx="119" cy="49" r="4" fill="#FF0000" stroke="#FFFFFF" stroke-width="1">
  <title>Nitro DOWN (80¢)</title>
</circle>
<circle cx="155" cy="81" r="4" fill="#00FF00" stroke="#FFFFFF" stroke-width="1">
  <title>VPOC UP (59¢)</title>
</circle>
<circle cx="155" cy="81" r="4" fill="#00FF00" stroke="#FFFFFF" stroke-width="1">
  <title>VolSnap UP (59¢)</title>
</circle>
<circle cx="155" cy="81" r="4" fill="#00FF00" stroke="#FFFFFF" stroke-width="1">
  <title>MM2 UP (59¢)</title>
</circle>
</svg>