<svg width="340" height="190" xmlns="http://www.w3.org/2000/svg">
<rect width="100%" height="100%" fill="#121212" />
<line x1="20" y1="139" x2="320" y2="139" stroke="#232323" stroke-width="1" />
<line x1="20" y1="109" x2="320" y2="109" stroke="#232323" stroke-width="1" />
<line x1="20" y1="94" x2="320" y2="94" stroke="#3C3C3C" stroke-width="1" />
<line x1="20" y1="79" x2="320" y2="79" stroke="#232323" stroke-width="1" />
<line x1="20" y1="49" x2="320" y2="49" stroke="#232323" stroke-width="1" />
<line x1="169" y1="20" x2="169" y2="170" stroke="#232323" stroke-width="1" />
<polyline points="20,88 22,86 25,78 28,78 31,80 34,78 37,74 40,70 43,69 46,70 49,68 52,66 55,69 58,68 61,69 64,72 67,73 70,72 73,73 76,72 79,72 82,68 85,68 88,65 91,66 94,68 97,71 100,66 103,70 106,72 109,75 112,72 115,71 118,70 121,73 124,75 127,78 130,78 133,77 136,77 139,76 142,73 145,64 148,59 151,55 154,55 157,53 160,61 163,62 166,62 169,62 172,62 175,62 178,63 181,63 184,68 187,68 190,78 193,98 196,100 199,101 202,92 205,93 208,96 211,96 214,95 217,93 220,96 223,95 226,98 229,128 232,132 235,141 238,140 241,145 244,145 247,148 250,147 253,147 256,145 259,147 262,148 265,144 268,147 271,147 274,148 277,150 280,151 283,160 286,160 289,160 292,161 295,156 298,148 301,145 304,137 307,135 310,142 313,104 316,73" fill="none" stroke="#FFFF00" stroke-width="2" stroke-linejoin="round" />
<circle cx="32" cy="81" r="4" fill="#00FF00" stroke="#FFFFFF" stroke-width="1">
  <title>MM2 UP (59¢)</title>
</circle>
<circle cx="84" cy="67" r="4" fill="#00FF00" stroke="#FFFFFF" stroke-width="1">
  <title>VolSnap UP (68¢)</title>
</circle>
<circle cx="230" cy="75" r="4" fill="#FF0000" stroke="#FFFFFF" stroke-width="1">
  <title>VPOC DOWN (63¢)</title>
</circle>
</svg>