<svg width="340" height="190" xmlns="http://www.w3.org/2000/svg">
<rect width="100%" height="100%" fill="#121212" />
<line x1="20" y1="139" x2="320" y2="139" stroke="#232323" stroke-width="1" />
<line x1="20" y1="109" x2="320" y2="109" stroke="#232323" stroke-width="1" />
<line x1="20" y1="94" x2="320" y2="94" stroke="#3C3C3C" stroke-width="1" />
<line x1="20" y1="79" x2="320" y2="79" stroke="#232323" stroke-width="1" />
<line x1="20" y1="49" x2="320" y2="49" stroke="#232323" stroke-width="1" />
<line x1="169" y1="20" x2="169" y2="170" stroke="#232323" stroke-width="1" />
<polyline points="20,104 23,104 26,106 29,104 32,102 35,102 38,97 41,95 44,93 47,84 50,75 53,83 56,79 59,77 62,80 65,80 68,81 71,81 74,79 77,81 80,83 83,90 86,90 89,87 92,87 95,84 98,81 101,81 104,84 107,84 110,84 113,90 116,93 119,92 122,90 125,88 128,84 131,74 134,76 137,78 140,75 143,75 146,75 149,81 152,90 155,90 158,95 161,101 164,104 167,104 170,104 173,104 176,105 179,111 182,122 185,119 188,116 191,115 194,113 197,110 200,109 203,113 206,107 209,101 212,101 215,102 218,98 221,94 224,92 227,90 230,89 233,85 236,84 239,83 242,82 245,80 248,76 251,75 254,75 257,90 260,81 263,72 266,66 269,63 272,63 275,57 278,78 281,97 284,91 287,90 290,80 293,74 296,68 299,63 302,52 305,40 308,29 311,24 314,23 317,20" fill="none" stroke="#FFFF00" stroke-width="2" stroke-linejoin="round" />
<circle cx="52" cy="76" r="4" fill="#00FF00" stroke="#FFFFFF" stroke-width="1">
  <title>MM2 UP (62¢)</title>
</circle>
<circle cx="133" cy="75" r="4" fill="#00FF00" stroke="#FFFFFF" stroke-width="1">
  <title>VolSnap UP (63¢)</title>
</circle>
<circle cx="180" cy="73" r="4" fill="#FF0000" stroke="#FFFFFF" stroke-width="1">
  <title>VPOC DOWN (64¢)</title>
</circle>
</svg>