<svg width="340" height="190" xmlns="http://www.w3.org/2000/svg">
<rect width="100%" height="100%" fill="#121212" />
<line x1="20" y1="139" x2="320" y2="139" stroke="#232323" stroke-width="1" />
<line x1="20" y1="109" x2="320" y2="109" stroke="#232323" stroke-width="1" />
<line x1="20" y1="94" x2="320" y2="94" stroke="#3C3C3C" stroke-width="1" />
<line x1="20" y1="79" x2="320" y2="79" stroke="#232323" stroke-width="1" />
<line x1="20" y1="49" x2="320" y2="49" stroke="#232323" stroke-width="1" />
<line x1="169" y1="20" x2="169" y2="170" stroke="#232323" stroke-width="1" />
<polyline points="20,83 21,83 24,83 27,83 30,83 33,83 36,83 39,83 42,83 45,83 48,83 51,83 54,83 57,83 60,83 63,83 66,83 69,83 72,83 75,83 78,83 81,78 84,79 87,70 90,71 93,60 96,57 99,57 102,59 105,49 108,56 111,62 114,58 117,78 120,83 123,81 126,76 129,75 132,75 135,77 138,77 141,77 144,82 147,84 150,92 153,92 156,69 159,72 162,72 165,72 168,72 171,79 174,80 177,78 180,76 183,66 186,60 189,59 192,56 195,49 198,48 201,52 204,46 207,43 210,32 213,28 216,26 219,25 222,25 225,24 228,27 231,32 234,36 237,37 240,37 243,39 246,50 249,46 252,52 255,47 258,37 261,34 264,30 267,31 270,22 273,20 276,20 279,20 282,20 285,20 288,20 291,20 294,20 297,20 300,20 303,20 306,20 309,20 312,20 315,20 318,20" fill="none" stroke="#FFFF00" stroke-width="2" stroke-linejoin="round" />
</svg>