<svg width="340" height="190" xmlns="http://www.w3.org/2000/svg" style="overflow:visible">
<style>.trade-dot:hover .dot-tip { opacity: 1 !important; } .trade-dot { cursor: crosshair; }</style>
<rect width="340" height="190" fill="#4c1d95" />
<line x1="20" y1="139" x2="320" y2="139" stroke="#232323" stroke-width="1" />
<line x1="20" y1="109" x2="320" y2="109" stroke="#232323" stroke-width="1" />
<line x1="20" y1="94" x2="320" y2="94" stroke="#3C3C3C" stroke-width="1" />
<line x1="20" y1="79" x2="320" y2="79" stroke="#232323" stroke-width="1" />
<line x1="20" y1="49" x2="320" y2="49" stroke="#232323" stroke-width="1" />
<line x1="169" y1="20" x2="169" y2="170" stroke="#232323" stroke-width="1" />
<polyline points="20,118 82,118 96,127 104,116 111,127 118,122 126,128 133,130 141,109 148,122 157,132 169,133 177,131 183,128 194,131 201,134 209,136 218,137 225,127 233,120 241,117 248,112 255,121 265,104 272,111 278,98 287,95 293,97 300,92 308,78 314,50" fill="none" stroke="#FFFF00" stroke-width="2" stroke-linejoin="round" />
</svg>