<svg width="340" height="190" xmlns="http://www.w3.org/2000/svg">
<rect width="100%" height="100%" fill="#121212" />
<line x1="20" y1="139" x2="320" y2="139" stroke="#232323" stroke-width="1" />
<line x1="20" y1="109" x2="320" y2="109" stroke="#232323" stroke-width="1" />
<line x1="20" y1="94" x2="320" y2="94" stroke="#3C3C3C" stroke-width="1" />
<line x1="20" y1="79" x2="320" y2="79" stroke="#232323" stroke-width="1" />
<line x1="20" y1="49" x2="320" y2="49" stroke="#232323" stroke-width="1" />
<line x1="169" y1="20" x2="169" y2="170" stroke="#232323" stroke-width="1" />
<polyline points="20,93 22,82 25,87 28,91 31,90 34,93 37,92 40,93 43,95 46,95 49,95 52,98 55,101 58,105 61,113 64,110 67,101 70,104 73,113 76,117 79,107 82,122 85,122 88,127 91,117 94,110 97,120 100,119 103,114 106,116 109,111 112,119 115,122 118,119 121,122 124,124 127,123 130,123 133,125 136,122 139,126 142,130 145,135 148,130 151,129 154,129 157,130 160,131 163,128 166,117 169,119 172,109 175,101 178,106 181,119 184,116 187,111 190,116 193,119 196,124 199,125 202,117 205,110 208,103 211,99 214,101 217,101 220,128 223,138 226,136 229,141 232,139 235,139 238,140 241,151 244,154 247,146 250,144 253,148 256,148 259,150 262,150 265,151 268,157 271,157 274,160 277,163 280,165 283,165 286,166 289,165 292,165 295,166 298,166 301,166 304,166 307,166 310,166 313,167 316,167" fill="none" stroke="#FFFF00" stroke-width="2" stroke-linejoin="round" />
<circle cx="78" cy="73" r="4" fill="#FF0000" stroke="#FFFFFF" stroke-width="1">
  <title>Nitro DOWN (64¢)</title>
</circle>
<circle cx="84" cy="67" r="4" fill="#FF0000" stroke="#FFFFFF" stroke-width="1">
  <title>VolSnap DOWN (68¢)</title>
</circle>
</svg>