<svg width="340" height="190" xmlns="http://www.w3.org/2000/svg">
<rect width="100%" height="100%" fill="#121212" />
<line x1="20" y1="139" x2="320" y2="139" stroke="#232323" stroke-width="1" />
<line x1="20" y1="109" x2="320" y2="109" stroke="#232323" stroke-width="1" />
<line x1="20" y1="94" x2="320" y2="94" stroke="#3C3C3C" stroke-width="1" />
<line x1="20" y1="79" x2="320" y2="79" stroke="#232323" stroke-width="1" />
<line x1="20" y1="49" x2="320" y2="49" stroke="#232323" stroke-width="1" />
<line x1="169" y1="20" x2="169" y2="170" stroke="#232323" stroke-width="1" />
<polyline points="20,83 24,83 34,89 42,82 54,72 63,78 71,74 78,69 84,78 93,86 99,92 104,78 108,69 117,84 122,87 127,90 132,82 137,83 141,76 146,75 151,77 155,67 160,66 166,62 172,50 179,56 186,50 190,55 196,55 200,40 205,34 210,34 217,35 221,42 227,46 232,43 236,39 246,32 252,30 259,34 264,38 268,31 273,25 280,33 285,35 289,31 294,22 308,20 313,20" fill="none" stroke="#FFFF00" stroke-width="2" stroke-linejoin="round" />
</svg>