<svg width="340" height="190" xmlns="http://www.w3.org/2000/svg">
<rect width="100%" height="100%" fill="#121212" />
<line x1="20" y1="139" x2="320" y2="139" stroke="#232323" stroke-width="1" />
<line x1="20" y1="109" x2="320" y2="109" stroke="#232323" stroke-width="1" />
<line x1="20" y1="94" x2="320" y2="94" stroke="#3C3C3C" stroke-width="1" />
<line x1="20" y1="79" x2="320" y2="79" stroke="#232323" stroke-width="1" />
<line x1="20" y1="49" x2="320" y2="49" stroke="#232323" stroke-width="1" />
<line x1="169" y1="20" x2="169" y2="170" stroke="#232323" stroke-width="1" />
<polyline points="20,94 20,94 25,99 29,93 38,95 43,95 51,95 59,96 67,96 75,92 81,93 86,80 91,74 95,63 103,55 112,62 120,72 126,69 132,67 138,71 144,69 149,58 153,59 162,57 168,48 173,35 178,27 187,25 194,25 199,26 203,25 208,23 215,22 220,22 225,22 229,22 235,20 239,20 245,20 254,20 259,20 263,20 268,20 274,20 279,20 295,20 299,20 306,20 317,20" fill="none" stroke="#FFFF00" stroke-width="2" stroke-linejoin="round" />
<circle cx="110" cy="52" r="4" fill="#00FF00" stroke="#FFFFFF" stroke-width="1">
  <title>Nitro UP (78¢)</title>
</circle>
</svg>