<svg width="340" height="190" xmlns="http://www.w3.org/2000/svg">
<rect width="100%" height="100%" fill="#121212" />
<line x1="20" y1="139" x2="320" y2="139" stroke="#232323" stroke-width="1" />
<line x1="20" y1="109" x2="320" y2="109" stroke="#232323" stroke-width="1" />
<line x1="20" y1="94" x2="320" y2="94" stroke="#3C3C3C" stroke-width="1" />
<line x1="20" y1="79" x2="320" y2="79" stroke="#232323" stroke-width="1" />
<line x1="20" y1="49" x2="320" y2="49" stroke="#232323" stroke-width="1" />
<line x1="169" y1="20" x2="169" y2="170" stroke="#232323" stroke-width="1" />
<polyline points="20,95 22,105 25,111 28,106 31,104 34,101 37,99 40,101 43,102 46,111 49,113 52,116 55,116 58,114 61,110 64,119 67,121 70,118 73,95 76,86 79,74 82,64 85,57 88,57 91,56 94,56 97,54 100,43 103,51 106,58 109,57 112,60 115,60 118,63 121,62 124,61 127,60 130,62 133,52 136,47 139,46 142,56 145,56 148,59 151,59 154,63 157,62 160,62 163,62 166,62 169,60 172,60 175,60 178,58 181,71 184,74 187,76 190,84 193,88 196,86 199,86 202,87 205,87 208,86 211,112 214,122 217,122 220,120 223,119 226,107 229,128 232,133 235,133 238,133 241,141 244,148 247,157 250,159 253,157 256,160 259,160 262,160 265,164 268,165 271,163 274,165 277,166 280,166 283,167 286,167 289,167 292,167 295,167 298,167 301,167 304,167 307,167 310,167 313,167 316,167" fill="none" stroke="#FFFF00" stroke-width="2" stroke-linejoin="round" />
<circle cx="65" cy="73" r="4" fill="#FF0000" stroke="#FFFFFF" stroke-width="1">
  <title>Nitro DOWN (64¢)</title>
</circle>
<circle cx="212" cy="73" r="4" fill="#FF0000" stroke="#FFFFFF" stroke-width="1">
  <title>VolSnap DOWN (64¢)</title>
</circle>
</svg>