<svg width="340" height="190" xmlns="http://www.w3.org/2000/svg">
<rect width="100%" height="100%" fill="#121212" />
<line x1="20" y1="139" x2="320" y2="139" stroke="#232323" stroke-width="1" />
<line x1="20" y1="109" x2="320" y2="109" stroke="#232323" stroke-width="1" />
<line x1="20" y1="94" x2="320" y2="94" stroke="#3C3C3C" stroke-width="1" />
<line x1="20" y1="79" x2="320" y2="79" stroke="#232323" stroke-width="1" />
<line x1="20" y1="49" x2="320" y2="49" stroke="#232323" stroke-width="1" />
<line x1="169" y1="20" x2="169" y2="170" stroke="#232323" stroke-width="1" />
<polyline points="20,96 20,96 23,101 26,104 29,110 32,111 35,119 38,122 41,122 44,123 47,120 50,124 53,129 56,134 59,136 62,136 65,142 68,142 71,144 74,144 77,139 80,147 83,144 86,141 89,140 92,136 95,142 98,139 101,139 104,137 107,129 110,139 113,142 116,134 119,132 122,133 125,131 128,132 131,135 134,142 137,140 140,139 143,142 146,151 149,145 152,147 155,147 158,153 161,154 164,145 167,144 170,144 173,129 176,110 179,103 182,104 185,120 188,124 191,119 194,110 197,135 200,132 203,133 206,126 209,132 212,104 215,101 218,102 221,105 224,116 227,119 230,116 233,97 236,78 239,106 242,128 245,110 248,120 251,128 254,125 257,131 260,137 263,139 266,126 269,125 272,113 275,113 278,120 281,142 284,143 287,143 290,146 293,147 296,159 299,163 302,165 305,166 308,167 311,167 314,167 317,167" fill="none" stroke="#FFFF00" stroke-width="2" stroke-linejoin="round" />
<circle cx="87" cy="49" r="4" fill="#FF0000" stroke="#FFFFFF" stroke-width="1">
  <title>VolSnap DOWN (80¢)</title>
</circle>
<circle cx="297" cy="30" r="4" fill="#FF0000" stroke="#FFFFFF" stroke-width="1">
  <title>Moshe DOWN (93¢)</title>
</circle>
</svg>