<svg width="340" height="190" xmlns="http://www.w3.org/2000/svg">
<rect width="100%" height="100%" fill="#121212" />
<line x1="20" y1="139" x2="320" y2="139" stroke="#232323" stroke-width="1" />
<line x1="20" y1="109" x2="320" y2="109" stroke="#232323" stroke-width="1" />
<line x1="20" y1="94" x2="320" y2="94" stroke="#3C3C3C" stroke-width="1" />
<line x1="20" y1="79" x2="320" y2="79" stroke="#232323" stroke-width="1" />
<line x1="20" y1="49" x2="320" y2="49" stroke="#232323" stroke-width="1" />
<line x1="169" y1="20" x2="169" y2="170" stroke="#232323" stroke-width="1" />
<polyline points="20,99 20,99 23,81 26,77 29,77 32,92 35,95 38,95 41,93 44,93 47,90 50,89 53,87 56,73 59,81 62,80 65,98 68,101 71,75 74,57 77,50 80,50 83,49 86,49 89,49 92,43 95,46 98,46 101,46 104,47 107,52 110,52 113,53 116,46 119,43 122,59 125,68 128,72 131,71 134,84 137,83 140,86 143,68 146,84 149,73 152,79 155,83 158,82 161,50 164,43 167,38 170,38 173,33 176,34 179,31 182,31 185,32 188,31 191,31 194,29 197,30 200,31 203,31 206,38 209,41 212,47 215,47 218,46 221,44 224,43 227,56 230,65 233,74 236,68 239,50 242,41 245,41 248,38 251,35 254,34 257,34 260,31 263,33 266,30 269,27 272,25 275,26 278,23 281,23 284,25 287,23 290,25 293,28 296,30 299,28 302,28 306,26 309,22 312,20 315,20 318,20" fill="none" stroke="#FFFF00" stroke-width="2" stroke-linejoin="round" />
<circle cx="81" cy="52" r="4" fill="#00FF00" stroke="#FFFFFF" stroke-width="1">
  <title>Nitro UP (78¢)</title>
</circle>
<circle cx="81" cy="52" r="4" fill="#00FF00" stroke="#FFFFFF" stroke-width="1">
  <title>VolSnap UP (78¢)</title>
</circle>
</svg>