<svg width="340" height="190" xmlns="http://www.w3.org/2000/svg">
<rect width="100%" height="100%" fill="#121212" />
<line x1="20" y1="139" x2="320" y2="139" stroke="#232323" stroke-width="1" />
<line x1="20" y1="109" x2="320" y2="109" stroke="#232323" stroke-width="1" />
<line x1="20" y1="94" x2="320" y2="94" stroke="#3C3C3C" stroke-width="1" />
<line x1="20" y1="79" x2="320" y2="79" stroke="#232323" stroke-width="1" />
<line x1="20" y1="49" x2="320" y2="49" stroke="#232323" stroke-width="1" />
<line x1="169" y1="20" x2="169" y2="170" stroke="#232323" stroke-width="1" />
<polyline points="20,98 22,99 25,101 28,100 31,104 34,104 37,103 40,101 43,102 46,102 49,104 52,99 55,101 58,104 61,104 64,94 67,101 70,107 73,102 76,104 79,107 82,122 85,119 88,107 91,107 94,105 97,105 100,105 103,104 106,110 109,110 112,119 115,119 118,117 121,122 124,127 127,123 130,124 133,122 136,122 139,122 142,113 145,119 148,119 151,120 154,120 157,119 160,110 163,114 166,113 169,117 172,116 175,114 178,114 181,113 184,113 187,109 190,107 193,107 196,96 199,104 202,120 205,108 208,106 211,107 214,99 217,110 220,104 223,104 226,98 229,101 232,89 235,57 238,61 241,55 244,56 247,57 250,59 253,56 256,55 259,43 262,40 265,40 268,33 271,30 274,34 277,36 280,39 283,52 286,54 289,57 292,70 295,81 298,86 301,110 304,133 307,136 310,143 313,144 316,162" fill="none" stroke="#FFFF00" stroke-width="2" stroke-linejoin="round" />
<circle cx="83" cy="67" r="4" fill="#FF0000" stroke="#FFFFFF" stroke-width="1">
  <title>VolSnap DOWN (68¢)</title>
</circle>
</svg>