<svg width="340" height="190" xmlns="http://www.w3.org/2000/svg">
<rect width="100%" height="100%" fill="#121212" />
<line x1="20" y1="139" x2="320" y2="139" stroke="#232323" stroke-width="1" />
<line x1="20" y1="109" x2="320" y2="109" stroke="#232323" stroke-width="1" />
<line x1="20" y1="94" x2="320" y2="94" stroke="#3C3C3C" stroke-width="1" />
<line x1="20" y1="79" x2="320" y2="79" stroke="#232323" stroke-width="1" />
<line x1="20" y1="49" x2="320" y2="49" stroke="#232323" stroke-width="1" />
<line x1="169" y1="20" x2="169" y2="170" stroke="#232323" stroke-width="1" />
<polyline points="20,95 22,95 25,101 28,98 31,95 34,95 37,93 40,92 43,93 46,102 49,105 52,114 55,117 58,119 61,121 64,128 67,122 70,122 73,116 76,113 79,112 82,110 85,113 88,113 91,111 94,81 97,77 100,77 103,75 106,58 109,83 112,84 115,95 118,96 121,93 124,95 127,93 130,90 133,89 136,84 139,71 142,49 145,60 148,60 151,69 154,62 157,48 160,52 163,47 166,51 169,52 172,55 175,55 178,47 181,37 184,34 187,34 190,34 193,34 196,34 199,30 202,25 205,25 208,23 211,23 214,21 217,20 220,20 223,20 226,20 229,20 232,20 235,21 238,22 241,22 244,20 247,20 250,20 253,20 256,20 259,20 262,20 265,20 268,20 271,20 274,20 277,20 280,20 283,20 286,20 289,20 292,20 295,20 298,20 301,20 304,20 307,20 310,20 313,20 316,20" fill="none" stroke="#FFFF00" stroke-width="2" stroke-linejoin="round" />
<circle cx="83" cy="79" r="4" fill="#FF0000" stroke="#FFFFFF" stroke-width="1">
  <title>VolSnap DOWN (60¢)</title>
</circle>
</svg>