<svg width="340" height="190" xmlns="http://www.w3.org/2000/svg">
<rect width="100%" height="100%" fill="#121212" />
<line x1="20" y1="139" x2="320" y2="139" stroke="#232323" stroke-width="1" />
<line x1="20" y1="109" x2="320" y2="109" stroke="#232323" stroke-width="1" />
<line x1="20" y1="94" x2="320" y2="94" stroke="#3C3C3C" stroke-width="1" />
<line x1="20" y1="79" x2="320" y2="79" stroke="#232323" stroke-width="1" />
<line x1="20" y1="49" x2="320" y2="49" stroke="#232323" stroke-width="1" />
<line x1="169" y1="20" x2="169" y2="170" stroke="#232323" stroke-width="1" />
<polyline points="20,100 20,100 23,99 26,104 29,113 32,113 35,117 38,123 41,122 44,132 47,132 50,132 53,139 56,138 59,138 62,140 65,142 68,144 71,145 74,144 77,141 80,131 83,127 86,125 89,116 92,116 95,122 98,119 101,120 104,119 107,111 110,108 113,107 116,116 119,123 122,114 125,114 128,114 131,112 134,113 137,112 140,100 143,93 146,87 149,87 152,91 155,87 158,87 161,86 164,92 167,100 170,101 173,115 176,111 179,113 182,113 185,110 188,110 191,107 194,111 197,119 200,98 203,95 206,101 209,97 212,96 215,96 218,96 221,99 224,117 227,120 230,150 233,157 236,156 239,156 242,163 245,163 248,163 251,165 254,165 257,165 260,165 263,165 267,165 270,165 273,166 276,166 279,166 282,166 285,166 288,167 291,167 294,167 297,167 300,167 303,167 306,167 309,167 312,167 315,167 318,167" fill="none" stroke="#FFFF00" stroke-width="2" stroke-linejoin="round" />
<circle cx="48" cy="58" r="4" fill="#FF0000" stroke="#FFFFFF" stroke-width="1">
  <title>Nitro DOWN (74¢)</title>
</circle>
<circle cx="81" cy="58" r="4" fill="#FF0000" stroke="#FFFFFF" stroke-width="1">
  <title>VolSnap DOWN (74¢)</title>
</circle>
</svg>