<svg width="340" height="190" xmlns="http://www.w3.org/2000/svg">
<rect width="100%" height="100%" fill="#121212" />
<line x1="20" y1="139" x2="320" y2="139" stroke="#232323" stroke-width="1" />
<line x1="20" y1="109" x2="320" y2="109" stroke="#232323" stroke-width="1" />
<line x1="20" y1="94" x2="320" y2="94" stroke="#3C3C3C" stroke-width="1" />
<line x1="20" y1="79" x2="320" y2="79" stroke="#232323" stroke-width="1" />
<line x1="20" y1="49" x2="320" y2="49" stroke="#232323" stroke-width="1" />
<line x1="169" y1="20" x2="169" y2="170" stroke="#232323" stroke-width="1" />
<polyline points="20,95 21,95 24,97 27,100 30,100 33,100 36,114 39,128 42,129 45,118 48,119 51,121 54,121 57,117 60,114 63,104 66,98 69,95 72,87 75,101 78,98 81,87 84,87 87,89 90,99 93,116 96,123 99,122 102,123 105,129 108,118 111,111 114,100 117,105 120,104 124,103 127,104 130,94 133,93 136,93 139,89 142,92 145,98 148,105 151,100 154,98 157,100 160,95 163,98 166,94 169,92 172,83 175,81 178,95 181,96 184,103 187,114 190,104 193,95 196,93 199,88 202,68 205,63 208,68 211,77 214,85 217,69 220,75 223,73 226,72 229,69 232,69 235,69 238,67 241,66 244,63 247,55 250,62 253,57 256,55 259,38 262,30 265,31 268,31 271,31 274,28 277,25 280,25 283,25 286,24 289,25 292,26 295,23 298,23 301,23 304,23 307,22 310,20 313,20 316,20" fill="none" stroke="#FFFF00" stroke-width="2" stroke-linejoin="round" />
<circle cx="37" cy="75" r="4" fill="#FF0000" stroke="#FFFFFF" stroke-width="1">
  <title>Nitro DOWN (63¢)</title>
</circle>
<circle cx="94" cy="72" r="4" fill="#FF0000" stroke="#FFFFFF" stroke-width="1">
  <title>VolSnap DOWN (65¢)</title>
</circle>
</svg>