<svg width="340" height="190" xmlns="http://www.w3.org/2000/svg">
<rect width="100%" height="100%" fill="#121212" />
<line x1="20" y1="139" x2="320" y2="139" stroke="#232323" stroke-width="1" />
<line x1="20" y1="109" x2="320" y2="109" stroke="#232323" stroke-width="1" />
<line x1="20" y1="94" x2="320" y2="94" stroke="#3C3C3C" stroke-width="1" />
<line x1="20" y1="79" x2="320" y2="79" stroke="#232323" stroke-width="1" />
<line x1="20" y1="49" x2="320" y2="49" stroke="#232323" stroke-width="1" />
<line x1="169" y1="20" x2="169" y2="170" stroke="#232323" stroke-width="1" />
<polyline points="20,86 23,93 26,115 29,123 32,134 35,128 38,134 41,130 44,128 47,131 50,134 53,133 56,135 59,134 62,130 65,133 68,134 71,133 74,128 77,128 80,129 83,129 86,122 89,125 92,122 95,132 98,125 101,133 104,136 107,142 110,146 113,147 116,145 119,145 122,145 125,151 128,154 131,154 134,153 137,151 140,151 143,148 146,153 149,149 152,145 155,147 158,132 161,136 164,130 167,132 170,133 173,134 176,132 179,135 182,142 185,144 188,142 191,144 194,142 197,140 200,132 203,132 206,128 209,129 212,129 215,128 218,129 221,117 224,128 227,120 230,126 233,127 236,131 239,110 242,127 245,132 248,133 251,136 254,141 257,142 260,152 263,149 266,150 269,154 272,157 275,163 278,165 281,165 284,166 287,167 290,167 293,167 296,167 299,167 302,167 305,167 308,167 311,167 314,167 317,167" fill="none" stroke="#FFFF00" stroke-width="2" stroke-linejoin="round" />
<circle cx="30" cy="66" r="4" fill="#FF0000" stroke="#FFFFFF" stroke-width="1">
  <title>Nitro DOWN (69¢)</title>
</circle>
<circle cx="82" cy="60" r="4" fill="#FF0000" stroke="#FFFFFF" stroke-width="1">
  <title>VolSnap DOWN (73¢)</title>
</circle>
</svg>