<svg width="340" height="190" xmlns="http://www.w3.org/2000/svg">
<rect width="100%" height="100%" fill="#121212" />
<line x1="20" y1="139" x2="320" y2="139" stroke="#232323" stroke-width="1" />
<line x1="20" y1="109" x2="320" y2="109" stroke="#232323" stroke-width="1" />
<line x1="20" y1="94" x2="320" y2="94" stroke="#3C3C3C" stroke-width="1" />
<line x1="20" y1="79" x2="320" y2="79" stroke="#232323" stroke-width="1" />
<line x1="20" y1="49" x2="320" y2="49" stroke="#232323" stroke-width="1" />
<line x1="169" y1="20" x2="169" y2="170" stroke="#232323" stroke-width="1" />
<polyline points="20,95 22,107 25,116 28,119 31,123 34,124 37,122 40,119 43,113 46,112 49,113 52,116 55,125 58,123 61,123 64,122 67,122 70,122 73,112 76,103 79,104 82,105 85,119 88,129 91,136 94,138 97,131 100,127 103,129 106,128 109,128 112,128 115,119 118,104 121,105 124,102 127,102 130,99 133,99 136,99 139,103 142,105 145,106 148,119 151,117 154,116 157,113 160,117 163,113 166,110 169,110 172,116 175,117 178,105 181,108 184,110 187,111 190,113 193,118 196,123 199,139 202,148 205,152 208,150 211,136 214,138 217,136 220,144 223,152 226,154 229,150 232,151 235,151 238,145 241,148 244,149 247,148 250,147 253,147 256,148 259,148 262,143 265,150 268,147 271,149 274,140 277,142 280,143 283,146 286,150 289,151 292,151 295,153 298,154 301,151 304,159 307,160 310,162 313,163 316,167" fill="none" stroke="#FFFF00" stroke-width="2" stroke-linejoin="round" />
<circle cx="59" cy="66" r="4" fill="#FF0000" stroke="#FFFFFF" stroke-width="1">
  <title>Nitro DOWN (69¢)</title>
</circle>
<circle cx="86" cy="69" r="4" fill="#FF0000" stroke="#FFFFFF" stroke-width="1">
  <title>VolSnap DOWN (67¢)</title>
</circle>
</svg>