<svg width="340" height="190" xmlns="http://www.w3.org/2000/svg">
<rect width="100%" height="100%" fill="#121212" />
<line x1="20" y1="139" x2="320" y2="139" stroke="#232323" stroke-width="1" />
<line x1="20" y1="109" x2="320" y2="109" stroke="#232323" stroke-width="1" />
<line x1="20" y1="94" x2="320" y2="94" stroke="#3C3C3C" stroke-width="1" />
<line x1="20" y1="79" x2="320" y2="79" stroke="#232323" stroke-width="1" />
<line x1="20" y1="49" x2="320" y2="49" stroke="#232323" stroke-width="1" />
<line x1="169" y1="20" x2="169" y2="170" stroke="#232323" stroke-width="1" />
<polyline points="20,96 21,96 24,89 27,95 30,95 33,81 36,74 39,77 42,75 45,74 48,72 51,72 54,72 57,78 60,72 63,72 66,76 69,74 72,75 75,81 78,98 81,103 84,119 87,106 90,110 93,111 96,113 99,111 102,106 105,111 108,113 111,101 114,100 117,98 120,118 123,122 126,119 129,119 132,122 135,124 138,126 141,131 144,122 147,120 150,117 153,122 156,121 159,128 162,130 165,131 168,133 171,128 174,131 177,132 180,133 183,131 186,113 189,123 192,133 195,135 198,139 201,146 204,146 207,151 210,151 213,150 216,150 219,154 222,154 225,156 228,153 231,157 234,159 237,159 240,161 243,163 246,162 249,159 252,160 255,160 258,160 261,161 264,162 267,162 270,160 273,161 276,162 279,154 282,154 285,154 288,159 291,158 294,157 297,151 300,139 303,132 306,137 309,149 312,153 315,167 318,167" fill="none" stroke="#FFFF00" stroke-width="2" stroke-linejoin="round" />
</svg>