<svg width="340" height="190" xmlns="http://www.w3.org/2000/svg">
<rect width="100%" height="100%" fill="#121212" />
<line x1="20" y1="139" x2="320" y2="139" stroke="#232323" stroke-width="1" />
<line x1="20" y1="109" x2="320" y2="109" stroke="#232323" stroke-width="1" />
<line x1="20" y1="94" x2="320" y2="94" stroke="#3C3C3C" stroke-width="1" />
<line x1="20" y1="79" x2="320" y2="79" stroke="#232323" stroke-width="1" />
<line x1="20" y1="49" x2="320" y2="49" stroke="#232323" stroke-width="1" />
<line x1="169" y1="20" x2="169" y2="170" stroke="#232323" stroke-width="1" />
<polyline points="20,98 20,98 23,94 26,98 29,96 32,88 35,87 38,87 41,82 44,75 47,77 50,78 53,78 56,88 59,96 62,89 65,98 68,104 71,105 74,110 77,121 80,120 83,125 86,133 89,123 92,122 95,118 98,131 101,133 104,138 107,137 110,136 113,144 116,145 119,148 122,146 125,142 128,139 131,135 134,137 137,144 140,141 143,136 146,141 149,146 152,151 155,143 158,145 161,147 164,141 167,142 170,149 173,154 176,154 179,156 182,157 185,160 188,162 191,163 194,162 197,163 200,163 203,163 206,163 209,163 212,163 215,165 218,165 221,165 224,165 227,165 230,165 233,165 236,165 239,165 242,165 245,166 248,166 251,166 254,166 257,166 260,167 263,167 266,167 269,167 272,167 275,167 278,167 281,167 284,166 287,167 290,167 293,167 296,167 299,167 302,167 305,167 308,167 311,167 314,167 317,167" fill="none" stroke="#FFFF00" stroke-width="2" stroke-linejoin="round" />
<circle cx="129" cy="49" r="4" fill="#FF0000" stroke="#FFFFFF" stroke-width="1">
  <title>Nitro DOWN (80¢)</title>
</circle>
<circle cx="237" cy="24" r="4" fill="#FF0000" stroke="#FFFFFF" stroke-width="1">
  <title>Moshe DOWN (97¢)</title>
</circle>
</svg>