<svg width="340" height="190" xmlns="http://www.w3.org/2000/svg">
<rect width="100%" height="100%" fill="#121212" />
<line x1="20" y1="139" x2="320" y2="139" stroke="#232323" stroke-width="1" />
<line x1="20" y1="109" x2="320" y2="109" stroke="#232323" stroke-width="1" />
<line x1="20" y1="94" x2="320" y2="94" stroke="#3C3C3C" stroke-width="1" />
<line x1="20" y1="79" x2="320" y2="79" stroke="#232323" stroke-width="1" />
<line x1="20" y1="49" x2="320" y2="49" stroke="#232323" stroke-width="1" />
<line x1="169" y1="20" x2="169" y2="170" stroke="#232323" stroke-width="1" />
<polyline points="20,100 20,100 23,96 26,88 29,84 32,81 35,89 38,92 41,93 44,93 47,90 50,78 53,78 56,81 59,83 62,93 65,95 68,87 71,89 74,86 77,85 80,92 83,91 86,96 89,106 92,106 95,107 98,111 101,112 104,118 107,133 110,133 113,122 116,123 119,127 122,129 125,134 128,134 131,136 134,143 137,137 140,135 143,133 146,131 149,128 152,125 155,113 158,114 161,103 164,98 167,91 170,99 173,103 176,104 179,105 182,104 185,93 188,108 191,110 194,119 197,112 200,120 203,119 206,101 209,98 212,90 215,93 218,93 221,92 224,56 227,49 230,40 233,31 236,34 239,39 242,36 245,40 248,43 251,36 254,38 257,31 260,31 263,37 266,36 269,43 272,43 275,50 278,53 281,51 284,52 287,54 290,55 293,53 296,55 299,55 302,49 305,61 308,61 311,91 314,72 317,74" fill="none" stroke="#FFFF00" stroke-width="2" stroke-linejoin="round" />
</svg>