<svg width="340" height="190" xmlns="http://www.w3.org/2000/svg">
<rect width="100%" height="100%" fill="#121212" />
<line x1="20" y1="139" x2="320" y2="139" stroke="#232323" stroke-width="1" />
<line x1="20" y1="109" x2="320" y2="109" stroke="#232323" stroke-width="1" />
<line x1="20" y1="94" x2="320" y2="94" stroke="#3C3C3C" stroke-width="1" />
<line x1="20" y1="79" x2="320" y2="79" stroke="#232323" stroke-width="1" />
<line x1="20" y1="49" x2="320" y2="49" stroke="#232323" stroke-width="1" />
<line x1="169" y1="20" x2="169" y2="170" stroke="#232323" stroke-width="1" />
<polyline points="20,77 20,77 27,84 31,84 35,99 44,94 54,87 57,85 60,90 63,91 66,89 69,89 73,77 77,70 80,66 83,61 86,61 89,62 92,64 95,57 98,60 101,60 104,59 107,59 110,62 113,59 116,52 119,49 122,48 125,49 128,46 131,47 134,47 137,50 140,52 143,49 146,40 149,38 152,40 155,39 158,38 161,38 164,34 167,27 170,26 173,25 176,23 179,23 182,22 185,22 188,22 191,22 194,20 197,22 200,20 203,22 206,20 209,20 212,20 215,20 218,20 221,20 224,20 227,20 230,20 233,20 236,20 239,20 242,20 245,20 248,20 251,20 254,20 257,20 260,20 263,20 266,20 269,20 272,20 275,20 278,20 281,20 284,20 287,20 290,20 293,20 296,20 299,20 302,20 305,20 308,20 311,20 314,20 317,20" fill="none" stroke="#FFFF00" stroke-width="2" stroke-linejoin="round" />
<circle cx="117" cy="57" r="4" fill="#00FF00" stroke="#FFFFFF" stroke-width="1">
  <title>Nitro UP (75¢)</title>
</circle>
</svg>