<svg width="340" height="190" xmlns="http://www.w3.org/2000/svg">
<rect width="100%" height="100%" fill="#121212" />
<line x1="20" y1="139" x2="320" y2="139" stroke="#232323" stroke-width="1" />
<line x1="20" y1="109" x2="320" y2="109" stroke="#232323" stroke-width="1" />
<line x1="20" y1="94" x2="320" y2="94" stroke="#3C3C3C" stroke-width="1" />
<line x1="20" y1="79" x2="320" y2="79" stroke="#232323" stroke-width="1" />
<line x1="20" y1="49" x2="320" y2="49" stroke="#232323" stroke-width="1" />
<line x1="169" y1="20" x2="169" y2="170" stroke="#232323" stroke-width="1" />
<polyline points="20,84 21,84 24,86 27,84 30,78 33,78 36,77 39,78 42,88 45,93 48,92 51,95 54,96 57,98 60,109 63,108 66,107 69,104 72,106 75,107 78,107 81,105 84,100 87,99 90,93 93,95 96,99 99,101 102,106 105,105 108,106 111,128 114,128 117,138 120,135 123,133 126,137 129,136 132,139 135,135 138,136 141,139 144,139 147,138 150,143 153,123 156,123 159,124 162,123 165,129 168,131 171,132 174,130 177,125 180,110 183,114 186,110 189,107 192,114 195,114 198,114 201,113 204,123 207,129 210,129 213,135 216,132 219,125 222,128 225,126 228,136 231,142 234,141 237,142 240,143 243,145 246,146 249,143 252,144 255,145 258,139 261,142 264,144 267,142 270,142 273,142 276,142 279,144 282,141 285,142 288,145 291,150 294,157 297,159 300,159 303,157 306,160 309,163 312,162 315,167 318,167" fill="none" stroke="#FFFF00" stroke-width="2" stroke-linejoin="round" />
<circle cx="112" cy="60" r="4" fill="#FF0000" stroke="#FFFFFF" stroke-width="1">
  <title>VolSnap DOWN (73¢)</title>
</circle>
<circle cx="118" cy="51" r="4" fill="#FF0000" stroke="#FFFFFF" stroke-width="1">
  <title>Nitro DOWN (79¢)</title>
</circle>
</svg>