<svg width="340" height="190" xmlns="http://www.w3.org/2000/svg">
<rect width="100%" height="100%" fill="#121212" />
<line x1="20" y1="139" x2="320" y2="139" stroke="#232323" stroke-width="1" />
<line x1="20" y1="109" x2="320" y2="109" stroke="#232323" stroke-width="1" />
<line x1="20" y1="94" x2="320" y2="94" stroke="#3C3C3C" stroke-width="1" />
<line x1="20" y1="79" x2="320" y2="79" stroke="#232323" stroke-width="1" />
<line x1="20" y1="49" x2="320" y2="49" stroke="#232323" stroke-width="1" />
<line x1="169" y1="20" x2="169" y2="170" stroke="#232323" stroke-width="1" />
<polyline points="20,93 22,93 25,107 28,115 31,111 34,113 37,116 40,116 43,114 46,114 49,111 52,115 55,110 58,129 61,130 64,130 67,138 70,139 73,139 76,142 79,145 82,136 85,133 88,133 91,127 94,128 97,128 100,128 103,122 106,117 109,122 112,121 115,122 118,122 121,117 124,119 127,119 130,113 133,116 136,116 139,114 142,113 145,111 148,122 151,128 154,135 157,136 160,137 163,136 166,133 169,131 172,131 175,131 178,121 181,125 184,125 187,117 190,122 193,129 196,128 199,131 202,139 205,136 208,133 211,148 214,147 217,150 220,151 223,150 226,153 229,153 232,154 235,156 238,156 241,157 244,155 247,159 250,159 253,160 256,162 259,163 262,163 265,163 268,163 271,163 274,165 277,165 280,165 283,166 286,166 289,166 292,166 295,167 298,167 301,167 304,167 307,167 310,167 313,167 316,167" fill="none" stroke="#FFFF00" stroke-width="2" stroke-linejoin="round" />
<circle cx="59" cy="61" r="4" fill="#FF0000" stroke="#FFFFFF" stroke-width="1">
  <title>Nitro DOWN (72¢)</title>
</circle>
<circle cx="83" cy="52" r="4" fill="#FF0000" stroke="#FFFFFF" stroke-width="1">
  <title>VolSnap DOWN (78¢)</title>
</circle>
</svg>