<svg width="340" height="190" xmlns="http://www.w3.org/2000/svg">
<rect width="100%" height="100%" fill="#121212" />
<line x1="20" y1="139" x2="320" y2="139" stroke="#232323" stroke-width="1" />
<line x1="20" y1="109" x2="320" y2="109" stroke="#232323" stroke-width="1" />
<line x1="20" y1="94" x2="320" y2="94" stroke="#3C3C3C" stroke-width="1" />
<line x1="20" y1="79" x2="320" y2="79" stroke="#232323" stroke-width="1" />
<line x1="20" y1="49" x2="320" y2="49" stroke="#232323" stroke-width="1" />
<line x1="169" y1="20" x2="169" y2="170" stroke="#232323" stroke-width="1" />
<polyline points="20,87 20,87 23,90 26,100 29,101 32,98 35,99 38,106 41,102 44,104 47,101 50,107 53,112 56,111 59,111 62,110 65,119 68,123 71,117 74,116 77,116 80,108 83,107 86,106 89,98 92,102 95,99 98,101 101,113 104,125 107,128 110,120 113,122 116,113 119,110 122,101 125,103 128,125 131,125 134,131 137,129 140,119 143,116 146,117 149,108 152,104 155,101 158,101 161,104 164,111 167,111 170,121 173,128 176,129 179,130 182,127 185,130 188,131 191,125 194,128 197,125 200,120 203,128 206,133 209,127 212,132 215,134 218,133 221,135 224,133 227,127 230,128 233,122 236,115 239,128 242,133 245,138 248,142 251,142 254,143 257,136 260,139 263,146 266,139 269,139 272,139 275,133 278,132 281,135 284,147 287,156 290,159 293,163 296,165 299,167 302,167 305,167 308,167 311,167 314,167 317,167" fill="none" stroke="#FFFF00" stroke-width="2" stroke-linejoin="round" />
<circle cx="81" cy="79" r="4" fill="#FF0000" stroke="#FFFFFF" stroke-width="1">
  <title>VolSnap DOWN (60¢)</title>
</circle>
<circle cx="111" cy="69" r="4" fill="#FF0000" stroke="#FFFFFF" stroke-width="1">
  <title>Nitro DOWN (67¢)</title>
</circle>
</svg>