<svg width="340" height="190" xmlns="http://www.w3.org/2000/svg">
<rect width="100%" height="100%" fill="#121212" />
<line x1="20" y1="139" x2="320" y2="139" stroke="#232323" stroke-width="1" />
<line x1="20" y1="109" x2="320" y2="109" stroke="#232323" stroke-width="1" />
<line x1="20" y1="94" x2="320" y2="94" stroke="#3C3C3C" stroke-width="1" />
<line x1="20" y1="79" x2="320" y2="79" stroke="#232323" stroke-width="1" />
<line x1="20" y1="49" x2="320" y2="49" stroke="#232323" stroke-width="1" />
<line x1="169" y1="20" x2="169" y2="170" stroke="#232323" stroke-width="1" />
<polyline points="20,84 21,84 24,87 27,94 30,98 33,98 36,99 39,98 42,98 45,98 48,99 51,104 54,114 57,118 60,122 63,119 66,117 69,111 72,110 75,128 78,136 81,132 84,131 87,123 90,122 93,125 96,125 99,122 102,119 105,110 108,110 111,106 114,109 117,111 120,110 123,110 126,110 129,110 132,107 135,107 138,118 141,128 144,121 147,112 150,111 153,107 156,97 159,99 162,101 165,117 168,116 171,110 174,110 177,122 180,125 183,134 186,135 189,139 192,133 195,135 198,138 201,138 204,138 207,138 210,138 213,138 216,138 219,142 222,148 225,151 228,151 231,153 234,154 237,154 240,154 243,155 246,157 249,161 252,166 255,167 258,167 261,167 264,167 267,167 270,167 273,167 276,167 279,167 282,167 285,167 288,167 291,167 294,167 297,167 300,167 303,167 306,167 309,167 312,167 315,167 318,168" fill="none" stroke="#FFFF00" stroke-width="2" stroke-linejoin="round" />
<circle cx="58" cy="70" r="4" fill="#FF0000" stroke="#FFFFFF" stroke-width="1">
  <title>Nitro DOWN (66¢)</title>
</circle>
<circle cx="82" cy="55" r="4" fill="#FF0000" stroke="#FFFFFF" stroke-width="1">
  <title>VolSnap DOWN (76¢)</title>
</circle>
</svg>