<svg width="340" height="190" xmlns="http://www.w3.org/2000/svg">
<rect width="100%" height="100%" fill="#121212" />
<line x1="20" y1="139" x2="320" y2="139" stroke="#232323" stroke-width="1" />
<line x1="20" y1="109" x2="320" y2="109" stroke="#232323" stroke-width="1" />
<line x1="20" y1="94" x2="320" y2="94" stroke="#3C3C3C" stroke-width="1" />
<line x1="20" y1="79" x2="320" y2="79" stroke="#232323" stroke-width="1" />
<line x1="20" y1="49" x2="320" y2="49" stroke="#232323" stroke-width="1" />
<line x1="169" y1="20" x2="169" y2="170" stroke="#232323" stroke-width="1" />
<polyline points="20,86 21,86 24,89 27,88 30,90 33,90 36,92 39,89 42,87 45,86 48,83 51,70 54,69 57,65 60,56 63,50 66,52 69,53 72,49 75,57 78,53 81,57 84,57 87,56 90,49 93,49 96,47 99,47 102,49 105,52 108,48 111,50 114,58 117,63 120,63 123,65 126,49 129,49 132,47 135,47 138,50 141,53 144,51 147,50 150,37 153,36 156,37 159,35 162,36 165,35 168,38 171,37 174,37 177,37 180,40 183,40 186,40 189,41 192,40 195,40 198,37 201,37 204,36 207,36 210,35 213,35 216,34 219,33 222,33 225,33 228,33 231,31 234,30 237,29 240,32 243,31 246,30 249,31 252,30 255,29 258,28 261,27 264,25 267,26 270,30 273,39 276,37 279,37 282,35 285,43 288,50 291,49 294,55 297,87 300,92 303,119 306,128 309,125 312,128 315,139 318,163" fill="none" stroke="#FFFF00" stroke-width="2" stroke-linejoin="round" />
<circle cx="70" cy="54" r="4" fill="#00FF00" stroke="#FFFFFF" stroke-width="1">
  <title>Nitro UP (77¢)</title>
</circle>
<circle cx="82" cy="58" r="4" fill="#00FF00" stroke="#FFFFFF" stroke-width="1">
  <title>VolSnap UP (74¢)</title>
</circle>
</svg>