<svg width="340" height="190" xmlns="http://www.w3.org/2000/svg">
<rect width="100%" height="100%" fill="#121212" />
<line x1="20" y1="139" x2="320" y2="139" stroke="#232323" stroke-width="1" />
<line x1="20" y1="109" x2="320" y2="109" stroke="#232323" stroke-width="1" />
<line x1="20" y1="94" x2="320" y2="94" stroke="#3C3C3C" stroke-width="1" />
<line x1="20" y1="79" x2="320" y2="79" stroke="#232323" stroke-width="1" />
<line x1="20" y1="49" x2="320" y2="49" stroke="#232323" stroke-width="1" />
<line x1="169" y1="20" x2="169" y2="170" stroke="#232323" stroke-width="1" />
<polyline points="20,90 20,90 23,93 26,104 29,93 32,104 35,95 38,94 41,108 44,104 47,98 50,90 53,90 56,90 59,90 62,92 65,92 68,104 71,110 74,116 77,122 80,125 83,111 86,121 89,114 92,122 95,119 98,116 101,119 104,129 107,132 110,123 113,113 116,109 119,105 122,98 125,83 128,84 131,84 134,84 137,84 140,84 143,85 146,87 149,70 152,70 155,66 158,52 161,46 164,55 167,62 170,53 173,61 176,60 179,51 182,57 185,57 188,72 191,84 194,68 197,64 200,42 203,42 206,42 209,52 212,50 215,44 218,49 221,49 224,56 227,53 230,53 233,53 236,47 239,44 242,43 245,41 248,40 251,47 254,48 257,41 260,37 263,31 266,27 269,23 272,23 275,23 278,22 281,22 284,22 287,21 290,22 293,21 296,21 299,22 302,21 305,20 308,20 311,20 314,20 317,20" fill="none" stroke="#FFFF00" stroke-width="2" stroke-linejoin="round" />
<circle cx="81" cy="63" r="4" fill="#FF0000" stroke="#FFFFFF" stroke-width="1">
  <title>Nitro DOWN (71¢)</title>
</circle>
<circle cx="81" cy="63" r="4" fill="#FF0000" stroke="#FFFFFF" stroke-width="1">
  <title>VolSnap DOWN (71¢)</title>
</circle>
</svg>