<svg width="340" height="190" xmlns="http://www.w3.org/2000/svg">
<rect width="100%" height="100%" fill="#121212" />
<line x1="20" y1="139" x2="320" y2="139" stroke="#232323" stroke-width="1" />
<line x1="20" y1="109" x2="320" y2="109" stroke="#232323" stroke-width="1" />
<line x1="20" y1="94" x2="320" y2="94" stroke="#3C3C3C" stroke-width="1" />
<line x1="20" y1="79" x2="320" y2="79" stroke="#232323" stroke-width="1" />
<line x1="20" y1="49" x2="320" y2="49" stroke="#232323" stroke-width="1" />
<line x1="169" y1="20" x2="169" y2="170" stroke="#232323" stroke-width="1" />
<polyline points="20,92 20,92 23,100 26,106 29,104 32,107 35,104 38,103 41,102 44,99 47,110 50,113 53,113 56,113 59,120 62,120 65,122 68,113 71,112 74,119 77,119 80,122 83,126 86,125 89,123 92,128 95,131 98,141 101,136 104,131 107,126 110,121 113,133 116,143 119,143 122,152 125,154 128,147 131,148 134,149 137,142 140,148 143,149 146,154 149,154 152,153 155,164 158,165 161,166 164,166 167,166 170,166 173,167 176,167 179,167 182,167 185,167 188,167 191,167 194,167 197,167 200,167 203,167 206,167 209,167 212,167 215,167 218,167 221,167 224,167 227,167 230,167 233,167 236,167 239,167 242,167 245,167 248,167 251,167 254,167 257,167 260,167 263,167 266,167 269,167 272,167 275,167 278,167 281,167 284,167 287,167 290,167 293,167 296,167 299,167 302,167 305,167 308,167 311,167 314,167 317,167" fill="none" stroke="#FFFF00" stroke-width="2" stroke-linejoin="round" />
<circle cx="81" cy="67" r="4" fill="#FF0000" stroke="#FFFFFF" stroke-width="1">
  <title>VolSnap DOWN (68¢)</title>
</circle>
<circle cx="102" cy="52" r="4" fill="#FF0000" stroke="#FFFFFF" stroke-width="1">
  <title>Nitro DOWN (78¢)</title>
</circle>
</svg>