<svg width="340" height="190" xmlns="http://www.w3.org/2000/svg">
<rect width="100%" height="100%" fill="#121212" />
<line x1="20" y1="139" x2="320" y2="139" stroke="#232323" stroke-width="1" />
<line x1="20" y1="109" x2="320" y2="109" stroke="#232323" stroke-width="1" />
<line x1="20" y1="94" x2="320" y2="94" stroke="#3C3C3C" stroke-width="1" />
<line x1="20" y1="79" x2="320" y2="79" stroke="#232323" stroke-width="1" />
<line x1="20" y1="49" x2="320" y2="49" stroke="#232323" stroke-width="1" />
<line x1="169" y1="20" x2="169" y2="170" stroke="#232323" stroke-width="1" />
<polyline points="20,93 22,93 25,96 28,87 31,90 34,93 37,77 40,78 43,84 46,89 49,78 52,78 55,78 58,81 61,81 64,87 67,90 70,95 73,96 76,96 79,107 82,111 85,113 88,99 91,99 94,108 97,105 100,109 103,110 106,108 109,107 112,108 115,105 118,101 121,101 124,101 127,101 130,102 133,104 136,113 139,118 142,95 145,106 148,110 151,113 154,116 157,113 160,113 163,116 166,133 169,111 172,118 175,125 178,113 181,122 184,127 187,128 190,112 193,121 196,126 199,136 202,142 205,148 208,150 211,155 214,157 217,150 220,153 223,154 226,142 229,144 232,138 235,134 238,131 241,136 244,139 247,144 250,143 253,148 256,152 259,154 262,154 265,154 268,156 271,160 274,165 277,165 280,166 283,163 286,164 289,157 292,159 295,156 298,155 301,157 304,160 307,158 310,160 313,164 316,167" fill="none" stroke="#FFFF00" stroke-width="2" stroke-linejoin="round" />
<circle cx="50" cy="79" r="4" fill="#00FF00" stroke="#FFFFFF" stroke-width="1">
  <title>Nitro UP (60¢)</title>
</circle>
</svg>