<svg width="340" height="190" xmlns="http://www.w3.org/2000/svg">
<rect width="100%" height="100%" fill="#121212" />
<line x1="20" y1="139" x2="320" y2="139" stroke="#232323" stroke-width="1" />
<line x1="20" y1="109" x2="320" y2="109" stroke="#232323" stroke-width="1" />
<line x1="20" y1="94" x2="320" y2="94" stroke="#3C3C3C" stroke-width="1" />
<line x1="20" y1="79" x2="320" y2="79" stroke="#232323" stroke-width="1" />
<line x1="20" y1="49" x2="320" y2="49" stroke="#232323" stroke-width="1" />
<line x1="169" y1="20" x2="169" y2="170" stroke="#232323" stroke-width="1" />
<polyline points="20,93 21,93 24,101 27,84 30,83 33,81 36,75 39,80 42,82 45,82 48,84 51,84 54,81 57,81 60,81 63,81 66,71 69,70 72,73 75,72 78,66 81,89 84,92 87,93 90,90 93,87 96,87 99,87 102,96 105,101 108,94 111,77 114,66 117,65 120,57 123,58 126,58 129,59 132,60 135,54 138,59 141,60 144,49 147,52 150,54 153,55 156,43 159,41 162,37 165,37 168,35 171,40 174,41 177,40 180,40 183,40 186,42 189,43 192,43 195,49 198,44 201,40 204,44 207,46 210,41 213,40 216,40 219,36 222,34 225,40 228,35 231,32 234,31 237,32 240,32 243,31 246,28 249,28 252,25 255,27 258,26 261,26 264,31 267,31 270,27 273,30 276,25 279,24 282,23 285,20 288,20 291,20 294,20 297,20 300,20 303,20 306,20 309,20 312,20 315,20 318,20" fill="none" stroke="#FFFF00" stroke-width="2" stroke-linejoin="round" />
<circle cx="37" cy="76" r="4" fill="#00FF00" stroke="#FFFFFF" stroke-width="1">
  <title>WCP UP (62¢)</title>
</circle>
<circle cx="112" cy="78" r="4" fill="#00FF00" stroke="#FFFFFF" stroke-width="1">
  <title>VolSnap UP (61¢)</title>
</circle>
<circle cx="127" cy="58" r="4" fill="#00FF00" stroke="#FFFFFF" stroke-width="1">
  <title>Nitro UP (74¢)</title>
</circle>
</svg>