<svg width="340" height="190" xmlns="http://www.w3.org/2000/svg">
<rect width="100%" height="100%" fill="#121212" />
<line x1="20" y1="139" x2="320" y2="139" stroke="#232323" stroke-width="1" />
<line x1="20" y1="109" x2="320" y2="109" stroke="#232323" stroke-width="1" />
<line x1="20" y1="94" x2="320" y2="94" stroke="#3C3C3C" stroke-width="1" />
<line x1="20" y1="79" x2="320" y2="79" stroke="#232323" stroke-width="1" />
<line x1="20" y1="49" x2="320" y2="49" stroke="#232323" stroke-width="1" />
<line x1="169" y1="20" x2="169" y2="170" stroke="#232323" stroke-width="1" />
<polyline points="20,90 20,90 23,92 26,93 29,103 32,107 35,116 38,124 41,131 44,138 47,136 50,135 53,131 56,122 59,126 62,127 65,123 68,120 71,123 74,124 77,123 80,125 83,125 86,126 89,125 92,129 95,133 98,127 101,132 104,138 107,134 110,135 113,136 116,145 119,137 122,131 125,133 128,135 131,147 134,148 137,147 140,138 143,141 146,135 149,133 152,135 155,138 158,136 161,141 164,146 167,144 170,148 173,148 176,151 179,151 182,153 185,157 188,157 191,159 194,158 197,157 200,159 203,159 206,157 209,157 212,155 215,154 218,155 221,154 224,139 227,148 230,145 233,151 236,150 239,145 242,150 245,154 248,154 251,155 254,158 257,162 260,165 263,165 266,165 269,166 272,166 275,165 278,165 281,165 284,163 287,163 290,162 293,165 296,165 299,166 302,166 305,166 308,167 311,167 314,167 317,167" fill="none" stroke="#FFFF00" stroke-width="2" stroke-linejoin="round" />
<circle cx="36" cy="73" r="4" fill="#FF0000" stroke="#FFFFFF" stroke-width="1">
  <title>Nitro DOWN (64¢)</title>
</circle>
<circle cx="81" cy="64" r="4" fill="#FF0000" stroke="#FFFFFF" stroke-width="1">
  <title>VolSnap DOWN (70¢)</title>
</circle>
</svg>