<svg width="340" height="190" xmlns="http://www.w3.org/2000/svg">
<rect width="100%" height="100%" fill="#121212" />
<line x1="20" y1="139" x2="320" y2="139" stroke="#232323" stroke-width="1" />
<line x1="20" y1="109" x2="320" y2="109" stroke="#232323" stroke-width="1" />
<line x1="20" y1="94" x2="320" y2="94" stroke="#3C3C3C" stroke-width="1" />
<line x1="20" y1="79" x2="320" y2="79" stroke="#232323" stroke-width="1" />
<line x1="20" y1="49" x2="320" y2="49" stroke="#232323" stroke-width="1" />
<line x1="169" y1="20" x2="169" y2="170" stroke="#232323" stroke-width="1" />
<polyline points="20,89 21,89 24,93 27,93 30,93 33,105 36,98 39,104 42,98 45,94 48,87 51,97 54,96 57,96 60,110 63,125 66,127 69,126 72,126 75,126 78,126 81,127 84,120 87,122 90,112 93,114 96,113 99,112 102,113 105,107 108,103 111,110 114,110 117,110 120,110 123,110 126,111 129,111 132,99 135,93 138,91 141,102 144,106 147,105 150,93 153,96 156,98 159,97 162,96 165,95 168,95 171,101 174,85 177,81 180,104 183,107 186,102 189,104 192,101 195,103 198,105 201,108 204,104 207,87 210,84 213,84 216,80 219,90 222,80 225,76 228,75 231,76 234,109 237,110 240,108 243,125 246,122 249,111 252,113 255,113 258,99 261,74 264,63 267,53 270,46 273,46 276,45 279,56 282,60 285,84 288,102 291,107 294,107 297,103 300,114 303,110 306,139 309,105 312,60 315,31 318,20" fill="none" stroke="#FFFF00" stroke-width="2" stroke-linejoin="round" />
<circle cx="82" cy="63" r="4" fill="#FF0000" stroke="#FFFFFF" stroke-width="1">
  <title>VolSnap DOWN (71¢)</title>
</circle>
<circle cx="217" cy="81" r="4" fill="#00FF00" stroke="#FFFFFF" stroke-width="1">
  <title>WCP UP (59¢)</title>
</circle>
</svg>