<svg width="340" height="190" xmlns="http://www.w3.org/2000/svg">
<rect width="100%" height="100%" fill="#121212" />
<line x1="20" y1="139" x2="320" y2="139" stroke="#232323" stroke-width="1" />
<line x1="20" y1="109" x2="320" y2="109" stroke="#232323" stroke-width="1" />
<line x1="20" y1="94" x2="320" y2="94" stroke="#3C3C3C" stroke-width="1" />
<line x1="20" y1="79" x2="320" y2="79" stroke="#232323" stroke-width="1" />
<line x1="20" y1="49" x2="320" y2="49" stroke="#232323" stroke-width="1" />
<line x1="169" y1="20" x2="169" y2="170" stroke="#232323" stroke-width="1" />
<polyline points="20,93 20,93 23,90 26,92 29,87 32,87 35,78 38,77 41,83 44,80 47,80 50,81 53,85 56,85 59,84 62,86 65,86 68,87 71,104 74,110 77,113 80,121 83,119 86,119 89,124 92,131 95,127 98,129 101,129 104,131 107,132 110,133 113,132 116,132 119,132 122,131 125,131 128,142 131,147 134,150 137,151 140,150 143,148 146,141 149,136 152,136 155,136 158,133 161,132 164,131 167,131 170,131 173,130 176,126 179,128 182,125 185,123 188,127 191,110 194,106 197,107 200,113 203,104 206,100 209,98 212,88 215,89 218,84 221,71 224,64 227,67 230,66 233,66 236,69 239,69 242,74 245,91 248,89 251,93 254,93 257,95 260,98 263,96 266,93 269,98 272,102 275,104 278,89 281,55 284,56 287,54 290,49 293,52 296,55 299,69 302,68 305,90 308,90 311,90 314,88 317,70" fill="none" stroke="#FFFF00" stroke-width="2" stroke-linejoin="round" />
<circle cx="78" cy="78" r="4" fill="#FF0000" stroke="#FFFFFF" stroke-width="1">
  <title>Nitro DOWN (61¢)</title>
</circle>
<circle cx="81" cy="69" r="4" fill="#FF0000" stroke="#FFFFFF" stroke-width="1">
  <title>VolSnap DOWN (67¢)</title>
</circle>
</svg>