<svg width="340" height="190" xmlns="http://www.w3.org/2000/svg">
<rect width="100%" height="100%" fill="#121212" />
<line x1="20" y1="139" x2="320" y2="139" stroke="#232323" stroke-width="1" />
<line x1="20" y1="109" x2="320" y2="109" stroke="#232323" stroke-width="1" />
<line x1="20" y1="94" x2="320" y2="94" stroke="#3C3C3C" stroke-width="1" />
<line x1="20" y1="79" x2="320" y2="79" stroke="#232323" stroke-width="1" />
<line x1="20" y1="49" x2="320" y2="49" stroke="#232323" stroke-width="1" />
<line x1="169" y1="20" x2="169" y2="170" stroke="#232323" stroke-width="1" />
<polyline points="20,81 21,81 24,75 27,80 30,84 33,87 36,89 39,99 42,96 45,104 48,104 51,99 54,98 57,93 60,90 63,89 66,76 69,69 72,65 75,67 78,69 81,66 84,61 87,62 90,52 93,60 96,68 99,62 102,62 105,59 108,59 111,62 114,62 117,70 120,60 123,60 126,81 129,98 132,93 135,93 138,96 141,90 144,99 147,111 150,108 153,108 156,107 159,114 162,116 165,137 168,138 171,141 174,147 177,142 180,144 183,142 186,138 189,139 192,129 195,122 198,118 201,98 204,91 207,90 210,90 213,90 216,72 219,69 222,69 225,64 228,43 231,41 234,31 237,29 240,29 243,28 246,28 249,34 252,31 255,31 258,30 261,26 264,25 267,25 270,25 273,27 276,26 279,25 282,25 285,23 288,23 291,22 294,23 297,22 300,22 303,20 306,20 309,20 312,20 315,20 318,20" fill="none" stroke="#FFFF00" stroke-width="2" stroke-linejoin="round" />
<circle cx="148" cy="78" r="4" fill="#FF0000" stroke="#FFFFFF" stroke-width="1">
  <title>Nitro DOWN (61¢)</title>
</circle>
<circle cx="148" cy="78" r="4" fill="#FF0000" stroke="#FFFFFF" stroke-width="1">
  <title>VolSnap DOWN (61¢)</title>
</circle>
</svg>