<svg width="340" height="190" xmlns="http://www.w3.org/2000/svg">
<rect width="100%" height="100%" fill="#121212" />
<line x1="20" y1="139" x2="320" y2="139" stroke="#232323" stroke-width="1" />
<line x1="20" y1="109" x2="320" y2="109" stroke="#232323" stroke-width="1" />
<line x1="20" y1="94" x2="320" y2="94" stroke="#3C3C3C" stroke-width="1" />
<line x1="20" y1="79" x2="320" y2="79" stroke="#232323" stroke-width="1" />
<line x1="20" y1="49" x2="320" y2="49" stroke="#232323" stroke-width="1" />
<line x1="169" y1="20" x2="169" y2="170" stroke="#232323" stroke-width="1" />
<polyline points="20,92 22,87 25,80 28,79 31,78 34,83 37,93 40,100 43,108 46,101 49,106 52,112 55,110 58,108 61,102 64,110 67,110 70,105 73,104 76,83 79,86 82,86 85,89 88,90 91,105 94,104 97,98 100,93 103,98 106,98 109,98 112,98 115,98 118,98 121,107 124,104 127,101 130,95 133,98 136,93 139,92 142,84 145,76 148,71 151,80 154,78 157,78 160,83 163,87 166,93 169,100 172,109 175,110 178,104 181,110 184,110 187,110 190,118 193,119 196,120 199,122 202,124 205,114 208,108 211,94 214,95 217,90 220,90 223,86 226,86 229,78 232,75 235,74 238,71 241,66 244,95 247,100 250,99 253,116 256,107 259,104 262,112 265,112 268,112 271,105 274,93 277,76 280,69 283,90 286,101 289,90 292,96 295,98 298,98 301,100 304,102 307,121 310,122 313,62 316,52" fill="none" stroke="#FFFF00" stroke-width="2" stroke-linejoin="round" />
</svg>