<svg width="340" height="190" xmlns="http://www.w3.org/2000/svg">
<rect width="100%" height="100%" fill="#121212" />
<line x1="20" y1="139" x2="320" y2="139" stroke="#232323" stroke-width="1" />
<line x1="20" y1="109" x2="320" y2="109" stroke="#232323" stroke-width="1" />
<line x1="20" y1="94" x2="320" y2="94" stroke="#3C3C3C" stroke-width="1" />
<line x1="20" y1="79" x2="320" y2="79" stroke="#232323" stroke-width="1" />
<line x1="20" y1="49" x2="320" y2="49" stroke="#232323" stroke-width="1" />
<line x1="169" y1="20" x2="169" y2="170" stroke="#232323" stroke-width="1" />
<polyline points="20,94 22,82 25,85 28,84 31,78 34,80 37,81 40,69 43,69 46,74 49,73 52,75 55,72 58,73 61,72 64,69 67,60 70,57 73,52 76,52 79,49 82,47 85,52 88,54 91,43 94,43 97,48 100,43 103,43 106,44 109,38 112,40 115,40 118,38 121,38 124,40 127,40 130,38 133,38 136,40 139,37 142,40 145,40 148,40 151,39 154,41 157,41 160,41 163,42 166,40 169,40 172,40 175,40 178,40 181,40 184,40 187,46 190,49 193,53 196,53 199,58 202,62 205,74 208,93 211,110 214,119 217,115 220,113 223,109 226,116 229,122 232,126 235,113 238,122 241,125 244,120 247,125 250,135 253,133 256,134 259,142 262,151 265,159 268,160 271,161 274,163 277,161 280,160 283,157 286,152 289,151 292,147 295,145 298,145 301,145 304,156 307,166 310,167 313,167 316,167" fill="none" stroke="#FFFF00" stroke-width="2" stroke-linejoin="round" />
<circle cx="86" cy="52" r="4" fill="#00FF00" stroke="#FFFFFF" stroke-width="1">
  <title>VolSnap UP (78¢)</title>
</circle>
<circle cx="86" cy="52" r="4" fill="#00FF00" stroke="#FFFFFF" stroke-width="1">
  <title>Nitro UP (78¢)</title>
</circle>
</svg>