<svg width="340" height="190" xmlns="http://www.w3.org/2000/svg">
<rect width="100%" height="100%" fill="#121212" />
<line x1="20" y1="139" x2="320" y2="139" stroke="#232323" stroke-width="1" />
<line x1="20" y1="109" x2="320" y2="109" stroke="#232323" stroke-width="1" />
<line x1="20" y1="94" x2="320" y2="94" stroke="#3C3C3C" stroke-width="1" />
<line x1="20" y1="79" x2="320" y2="79" stroke="#232323" stroke-width="1" />
<line x1="20" y1="49" x2="320" y2="49" stroke="#232323" stroke-width="1" />
<line x1="169" y1="20" x2="169" y2="170" stroke="#232323" stroke-width="1" />
<polyline points="20,77 21,77 24,80 27,81 30,75 33,73 36,72 39,74 42,87 45,84 48,72 51,75 54,59 57,53 60,46 63,49 66,49 69,48 72,55 75,55 78,60 81,52 84,59 87,57 90,57 93,59 96,50 99,50 102,50 105,54 108,54 111,53 114,49 117,57 120,60 123,61 126,62 129,58 132,54 135,55 138,49 141,45 144,47 147,50 150,50 153,50 156,47 159,46 162,47 165,57 168,60 171,62 174,62 177,60 180,61 183,62 186,75 189,74 192,75 195,73 198,72 201,77 204,68 207,49 210,49 213,43 216,54 219,49 222,55 225,73 228,72 231,71 234,69 237,50 240,40 243,39 246,40 249,38 252,31 255,29 258,29 261,26 264,25 267,23 270,23 273,22 276,21 279,20 282,20 285,20 288,20 291,20 294,20 297,20 300,20 303,20 306,20 309,20 312,20 315,20 318,20" fill="none" stroke="#FFFF00" stroke-width="2" stroke-linejoin="round" />
<circle cx="64" cy="49" r="4" fill="#00FF00" stroke="#FFFFFF" stroke-width="1">
  <title>Nitro UP (80¢)</title>
</circle>
<circle cx="82" cy="52" r="4" fill="#00FF00" stroke="#FFFFFF" stroke-width="1">
  <title>VolSnap UP (78¢)</title>
</circle>
</svg>