<svg width="340" height="190" xmlns="http://www.w3.org/2000/svg">
<rect width="100%" height="100%" fill="#121212" />
<line x1="20" y1="139" x2="320" y2="139" stroke="#232323" stroke-width="1" />
<line x1="20" y1="109" x2="320" y2="109" stroke="#232323" stroke-width="1" />
<line x1="20" y1="94" x2="320" y2="94" stroke="#3C3C3C" stroke-width="1" />
<line x1="20" y1="79" x2="320" y2="79" stroke="#232323" stroke-width="1" />
<line x1="20" y1="49" x2="320" y2="49" stroke="#232323" stroke-width="1" />
<line x1="169" y1="20" x2="169" y2="170" stroke="#232323" stroke-width="1" />
<polyline points="20,104 21,104 24,104 27,107 30,114 33,113 36,106 39,104 42,105 45,105 48,102 51,102 54,105 57,107 60,107 63,109 66,110 69,109 72,108 75,107 78,108 81,119 84,116 87,102 90,113 93,116 96,101 99,104 102,108 105,108 108,106 111,107 114,111 117,115 120,121 123,126 126,135 129,142 132,145 135,145 138,147 141,145 144,142 147,137 150,138 153,138 156,144 159,143 162,144 165,151 168,151 171,152 174,152 177,153 180,153 183,154 186,156 189,144 192,139 195,145 198,145 201,143 204,142 207,134 210,136 213,139 216,132 219,133 222,131 225,113 228,110 231,104 234,98 237,95 240,100 243,122 246,108 249,101 252,92 255,98 258,95 261,95 264,110 267,119 270,125 273,113 276,119 279,126 282,127 285,125 288,135 291,145 294,148 297,158 300,159 303,162 306,163 309,166 312,167 315,167 318,167" fill="none" stroke="#FFFF00" stroke-width="2" stroke-linejoin="round" />
<circle cx="82" cy="72" r="4" fill="#FF0000" stroke="#FFFFFF" stroke-width="1">
  <title>VolSnap DOWN (65¢)</title>
</circle>
<circle cx="145" cy="51" r="4" fill="#FF0000" stroke="#FFFFFF" stroke-width="1">
  <title>Nitro DOWN (79¢)</title>
</circle>
</svg>