<svg width="340" height="190" xmlns="http://www.w3.org/2000/svg">
<rect width="100%" height="100%" fill="#121212" />
<line x1="20" y1="139" x2="320" y2="139" stroke="#232323" stroke-width="1" />
<line x1="20" y1="109" x2="320" y2="109" stroke="#232323" stroke-width="1" />
<line x1="20" y1="94" x2="320" y2="94" stroke="#3C3C3C" stroke-width="1" />
<line x1="20" y1="79" x2="320" y2="79" stroke="#232323" stroke-width="1" />
<line x1="20" y1="49" x2="320" y2="49" stroke="#232323" stroke-width="1" />
<line x1="169" y1="20" x2="169" y2="170" stroke="#232323" stroke-width="1" />
<polyline points="20,93 29,93 41,93 57,93 72,93 80,92 90,71 98,71 107,79 117,102 127,109 133,116 144,129 151,142 154,145 157,146 160,151 163,146 166,142 169,148 172,148 175,144 178,136 181,138 184,138 187,133 190,116 193,114 196,116 199,115 202,113 205,113 208,111 211,98 214,83 217,82 220,81 223,78 226,78 229,58 232,45 235,45 238,47 241,46 244,32 249,27 252,28 255,28 258,27 261,29 264,28 267,41 270,33 273,31 276,33 279,32 282,34 285,36 288,34 291,31 294,23 299,20 307,20 313,20 316,20" fill="none" stroke="#FFFF00" stroke-width="2" stroke-linejoin="round" />
<circle cx="297" cy="24" r="4" fill="#00FF00" stroke="#FFFFFF" stroke-width="1">
  <title>Moshe UP (97¢)</title>
</circle>
</svg>