<svg width="340" height="190" xmlns="http://www.w3.org/2000/svg">
<rect width="100%" height="100%" fill="#121212" />
<line x1="20" y1="139" x2="320" y2="139" stroke="#232323" stroke-width="1" />
<line x1="20" y1="109" x2="320" y2="109" stroke="#232323" stroke-width="1" />
<line x1="20" y1="94" x2="320" y2="94" stroke="#3C3C3C" stroke-width="1" />
<line x1="20" y1="79" x2="320" y2="79" stroke="#232323" stroke-width="1" />
<line x1="20" y1="49" x2="320" y2="49" stroke="#232323" stroke-width="1" />
<line x1="169" y1="20" x2="169" y2="170" stroke="#232323" stroke-width="1" />
<polyline points="20,87 20,87 23,85 26,84 29,87 32,90 35,89 38,82 41,82 44,87 47,90 50,82 53,76 56,72 59,78 62,83 65,81 68,84 71,77 74,83 77,77 80,82 83,94 86,95 89,84 92,85 95,90 98,90 101,93 104,86 107,95 110,91 113,88 116,80 119,81 122,81 125,67 128,60 131,69 134,69 137,69 140,66 143,63 146,57 149,55 152,57 155,60 158,62 161,67 164,66 167,66 170,65 173,65 176,63 179,60 182,55 185,53 188,59 191,60 194,60 197,65 200,57 203,61 206,66 209,62 212,62 215,56 218,56 221,55 224,63 227,61 230,59 233,62 236,63 239,60 242,60 245,60 248,62 251,62 254,72 257,70 260,68 263,56 266,58 269,54 272,55 275,53 278,48 281,43 284,37 287,31 290,30 293,27 296,25 299,25 302,23 305,23 308,22 311,21 314,20 317,20" fill="none" stroke="#FFFF00" stroke-width="2" stroke-linejoin="round" />
</svg>