<svg width="340" height="190" xmlns="http://www.w3.org/2000/svg">
<rect width="100%" height="100%" fill="#121212" />
<line x1="20" y1="139" x2="320" y2="139" stroke="#232323" stroke-width="1" />
<line x1="20" y1="109" x2="320" y2="109" stroke="#232323" stroke-width="1" />
<line x1="20" y1="94" x2="320" y2="94" stroke="#3C3C3C" stroke-width="1" />
<line x1="20" y1="79" x2="320" y2="79" stroke="#232323" stroke-width="1" />
<line x1="20" y1="49" x2="320" y2="49" stroke="#232323" stroke-width="1" />
<line x1="169" y1="20" x2="169" y2="170" stroke="#232323" stroke-width="1" />
<polyline points="20,86 20,86 23,92 26,87 29,81 32,74 35,58 38,52 41,49 44,47 47,49 50,49 53,46 56,47 59,47 62,49 65,49 68,56 71,56 74,54 77,52 80,49 83,55 86,57 89,55 92,56 95,60 98,49 101,46 104,55 107,57 110,55 113,64 116,63 119,63 122,69 125,67 128,57 131,56 134,56 137,57 140,56 143,56 146,57 149,60 152,60 155,60 158,59 161,59 164,58 167,57 170,57 173,52 176,52 179,52 182,55 185,51 188,44 191,52 194,49 197,49 200,55 203,49 206,50 209,52 212,53 215,55 218,55 221,55 224,52 227,41 230,49 233,52 236,53 239,53 242,52 245,52 248,50 251,52 254,51 257,46 260,48 263,50 266,43 269,44 272,44 275,36 278,35 281,32 284,31 287,30 290,23 293,22 296,20 299,20 302,20 305,20 308,20 311,20 314,20 317,20" fill="none" stroke="#FFFF00" stroke-width="2" stroke-linejoin="round" />
<circle cx="48" cy="49" r="4" fill="#00FF00" stroke="#FFFFFF" stroke-width="1">
  <title>Nitro UP (80¢)</title>
</circle>
<circle cx="81" cy="51" r="4" fill="#00FF00" stroke="#FFFFFF" stroke-width="1">
  <title>VolSnap UP (79¢)</title>
</circle>
</svg>