<svg width="340" height="190" xmlns="http://www.w3.org/2000/svg">
<rect width="100%" height="100%" fill="#121212" />
<line x1="20" y1="139" x2="320" y2="139" stroke="#232323" stroke-width="1" />
<line x1="20" y1="109" x2="320" y2="109" stroke="#232323" stroke-width="1" />
<line x1="20" y1="94" x2="320" y2="94" stroke="#3C3C3C" stroke-width="1" />
<line x1="20" y1="79" x2="320" y2="79" stroke="#232323" stroke-width="1" />
<line x1="20" y1="49" x2="320" y2="49" stroke="#232323" stroke-width="1" />
<line x1="169" y1="20" x2="169" y2="170" stroke="#232323" stroke-width="1" />
<polyline points="20,92 20,92 23,87 26,88 29,87 32,87 35,86 38,86 41,75 44,78 47,78 50,73 53,73 56,73 59,69 62,68 65,67 68,60 71,61 74,58 77,60 80,57 83,59 86,62 89,60 92,60 95,57 98,57 101,48 104,44 107,46 110,46 113,56 116,58 119,50 122,49 125,46 128,46 131,51 134,52 137,52 140,59 143,62 146,62 149,60 152,56 155,56 158,56 161,43 164,41 167,40 170,40 173,43 176,44 179,46 182,55 185,57 188,58 191,58 194,57 197,58 200,52 203,48 206,47 209,63 212,57 215,52 218,43 221,41 224,40 227,40 230,36 233,34 236,34 239,38 242,57 245,66 248,66 251,64 254,60 257,60 260,52 263,54 266,55 269,53 272,57 275,63 278,63 281,66 284,68 287,70 290,75 293,89 296,91 299,95 302,101 305,94 308,113 311,128 314,143 317,146" fill="none" stroke="#FFFF00" stroke-width="2" stroke-linejoin="round" />
<circle cx="244" cy="55" r="4" fill="#00FF00" stroke="#FFFFFF" stroke-width="1">
  <title>Nitro UP (76¢)</title>
</circle>
<circle cx="244" cy="55" r="4" fill="#00FF00" stroke="#FFFFFF" stroke-width="1">
  <title>VolSnap UP (76¢)</title>
</circle>
</svg>