<svg width="340" height="190" xmlns="http://www.w3.org/2000/svg">
<rect width="100%" height="100%" fill="#121212" />
<line x1="20" y1="139" x2="320" y2="139" stroke="#232323" stroke-width="1" />
<line x1="20" y1="109" x2="320" y2="109" stroke="#232323" stroke-width="1" />
<line x1="20" y1="94" x2="320" y2="94" stroke="#3C3C3C" stroke-width="1" />
<line x1="20" y1="79" x2="320" y2="79" stroke="#232323" stroke-width="1" />
<line x1="20" y1="49" x2="320" y2="49" stroke="#232323" stroke-width="1" />
<line x1="169" y1="20" x2="169" y2="170" stroke="#232323" stroke-width="1" />
<polyline points="20,82 21,82 25,82 28,81 31,93 34,114 37,113 40,101 43,100 46,96 49,96 52,84 55,84 58,84 61,90 64,93 67,92 70,79 73,68 76,66 79,66 82,72 85,69 88,71 91,71 94,90 97,90 100,81 103,81 106,81 109,86 112,81 115,81 118,84 121,84 124,112 127,113 130,121 133,119 136,119 139,123 142,135 145,139 148,140 151,139 154,136 157,142 160,157 163,154 166,157 169,159 172,157 175,159 178,157 181,157 184,158 187,160 190,160 193,160 196,159 199,159 202,159 205,157 208,154 211,153 214,156 217,153 220,149 223,153 226,157 229,160 232,159 235,158 238,154 241,159 244,156 247,156 250,157 253,159 256,161 259,161 262,158 265,159 268,161 271,163 274,162 277,161 280,163 283,164 286,163 289,163 292,164 295,162 298,164 301,163 304,163 307,165 310,167 313,167 316,167" fill="none" stroke="#FFFF00" stroke-width="2" stroke-linejoin="round" />
</svg>