<svg width="340" height="190" xmlns="http://www.w3.org/2000/svg">
<rect width="100%" height="100%" fill="#121212" />
<line x1="20" y1="139" x2="320" y2="139" stroke="#232323" stroke-width="1" />
<line x1="20" y1="109" x2="320" y2="109" stroke="#232323" stroke-width="1" />
<line x1="20" y1="94" x2="320" y2="94" stroke="#3C3C3C" stroke-width="1" />
<line x1="20" y1="79" x2="320" y2="79" stroke="#232323" stroke-width="1" />
<line x1="20" y1="49" x2="320" y2="49" stroke="#232323" stroke-width="1" />
<line x1="169" y1="20" x2="169" y2="170" stroke="#232323" stroke-width="1" />
<polyline points="20,89 22,82 25,87 28,104 31,117 34,114 37,108 40,108 43,107 46,107 49,107 52,108 55,102 58,100 61,98 64,98 67,97 70,95 73,101 76,107 79,113 82,115 85,98 88,89 91,93 94,87 97,90 100,97 103,95 106,96 109,95 112,96 115,93 118,93 121,110 124,105 127,96 130,97 133,99 136,99 139,110 142,102 145,98 148,101 151,101 154,101 157,102 160,122 163,131 166,119 169,136 172,129 175,131 178,133 181,133 184,138 187,149 190,146 193,142 196,136 199,131 202,122 205,104 208,90 211,100 214,88 217,108 220,127 223,126 226,121 229,111 232,101 235,101 238,101 241,128 244,111 247,102 250,101 253,78 256,87 259,86 262,75 265,101 268,101 271,101 274,102 277,103 280,104 283,111 286,113 289,116 292,122 295,60 298,28 301,25 304,28 307,23 310,56 313,62 316,25" fill="none" stroke="#FFFF00" stroke-width="2" stroke-linejoin="round" />
<circle cx="83" cy="73" r="4" fill="#FF0000" stroke="#FFFFFF" stroke-width="1">
  <title>VolSnap DOWN (64¢)</title>
</circle>
</svg>