<svg width="340" height="190" xmlns="http://www.w3.org/2000/svg">
<rect width="100%" height="100%" fill="#121212" />
<line x1="20" y1="139" x2="320" y2="139" stroke="#232323" stroke-width="1" />
<line x1="20" y1="109" x2="320" y2="109" stroke="#232323" stroke-width="1" />
<line x1="20" y1="94" x2="320" y2="94" stroke="#3C3C3C" stroke-width="1" />
<line x1="20" y1="79" x2="320" y2="79" stroke="#232323" stroke-width="1" />
<line x1="20" y1="49" x2="320" y2="49" stroke="#232323" stroke-width="1" />
<line x1="169" y1="20" x2="169" y2="170" stroke="#232323" stroke-width="1" />
<polyline points="20,95 21,95 24,92 27,89 30,87 33,81 36,81 39,82 42,88 45,87 48,87 51,87 54,87 57,87 60,87 63,90 66,93 69,89 72,92 75,87 78,86 81,93 84,105 87,93 90,96 93,102 96,104 99,104 102,107 105,102 108,102 111,102 114,107 117,107 120,111 123,114 126,116 129,116 132,116 135,111 138,111 141,113 144,100 147,101 150,98 153,100 156,95 159,96 162,93 165,95 168,95 171,95 174,93 177,95 180,106 183,95 186,93 189,93 192,93 195,93 198,90 201,75 204,75 207,73 210,71 213,71 216,73 219,75 222,74 225,74 228,75 231,74 234,75 237,60 240,71 243,66 246,98 249,101 252,101 255,104 258,110 261,113 264,114 267,119 270,129 273,131 276,128 279,140 282,144 285,148 288,150 291,154 294,163 297,161 300,160 303,160 306,165 309,167 312,167 315,160 318,167" fill="none" stroke="#FFFF00" stroke-width="2" stroke-linejoin="round" />
<circle cx="133" cy="73" r="4" fill="#FF0000" stroke="#FFFFFF" stroke-width="1">
  <title>Nitro DOWN (64¢)</title>
</circle>
</svg>