<svg width="340" height="190" xmlns="http://www.w3.org/2000/svg">
<rect width="100%" height="100%" fill="#121212" />
<line x1="20" y1="139" x2="320" y2="139" stroke="#232323" stroke-width="1" />
<line x1="20" y1="109" x2="320" y2="109" stroke="#232323" stroke-width="1" />
<line x1="20" y1="94" x2="320" y2="94" stroke="#3C3C3C" stroke-width="1" />
<line x1="20" y1="79" x2="320" y2="79" stroke="#232323" stroke-width="1" />
<line x1="20" y1="49" x2="320" y2="49" stroke="#232323" stroke-width="1" />
<line x1="169" y1="20" x2="169" y2="170" stroke="#232323" stroke-width="1" />
<polyline points="20,92 20,92 23,92 26,92 29,95 32,95 35,95 38,95 41,92 44,92 47,103 50,101 53,104 56,104 59,110 62,118 65,113 68,112 71,111 74,107 77,107 80,97 83,93 86,88 89,89 92,89 95,88 98,93 101,84 104,83 107,81 110,77 113,81 116,80 119,80 122,84 125,92 128,90 131,84 134,84 137,84 140,91 143,104 146,107 149,107 152,112 155,120 158,117 161,117 164,130 167,142 170,140 173,137 176,132 179,130 182,130 185,131 188,131 191,131 194,113 197,117 200,131 203,140 206,137 209,136 212,140 215,145 218,145 221,145 224,146 227,142 230,147 233,146 236,145 239,145 242,145 245,136 248,145 251,133 254,136 257,139 260,144 263,139 266,136 269,139 272,140 275,136 278,136 281,125 284,129 287,127 290,123 293,119 296,116 299,125 302,122 305,98 308,104 311,118 314,136 317,167" fill="none" stroke="#FFFF00" stroke-width="2" stroke-linejoin="round" />
<circle cx="111" cy="81" r="4" fill="#00FF00" stroke="#FFFFFF" stroke-width="1">
  <title>WCP UP (59¢)</title>
</circle>
<circle cx="154" cy="79" r="4" fill="#FF0000" stroke="#FFFFFF" stroke-width="1">
  <title>VolSnap DOWN (60¢)</title>
</circle>
</svg>