<svg width="340" height="190" xmlns="http://www.w3.org/2000/svg">
<rect width="100%" height="100%" fill="#121212" />
<line x1="20" y1="139" x2="320" y2="139" stroke="#232323" stroke-width="1" />
<line x1="20" y1="109" x2="320" y2="109" stroke="#232323" stroke-width="1" />
<line x1="20" y1="94" x2="320" y2="94" stroke="#3C3C3C" stroke-width="1" />
<line x1="20" y1="79" x2="320" y2="79" stroke="#232323" stroke-width="1" />
<line x1="20" y1="49" x2="320" y2="49" stroke="#232323" stroke-width="1" />
<line x1="169" y1="20" x2="169" y2="170" stroke="#232323" stroke-width="1" />
<polyline points="20,96 22,102 25,103 28,114 31,114 34,123 37,125 40,123 43,109 46,108 49,92 52,99 55,105 58,111 61,113 64,113 67,102 70,90 73,78 76,81 79,87 82,86 85,69 88,63 91,65 94,69 97,76 100,90 103,85 106,92 109,91 112,87 115,81 118,78 121,94 124,94 127,96 130,104 133,104 136,108 139,112 142,118 145,122 148,128 151,143 154,141 157,139 160,132 163,126 166,125 169,112 172,104 175,101 178,105 181,99 184,104 187,116 190,107 193,107 196,107 199,132 202,138 205,140 208,141 211,143 214,144 217,142 220,139 223,140 226,141 229,141 232,135 235,136 238,138 241,141 244,151 247,151 250,157 253,160 256,160 259,164 262,166 265,166 268,167 271,167 274,167 277,167 280,167 283,167 286,167 289,167 292,167 295,167 298,167 301,167 304,167 307,167 310,167 313,167 316,167" fill="none" stroke="#FFFF00" stroke-width="2" stroke-linejoin="round" />
<circle cx="137" cy="81" r="4" fill="#FF0000" stroke="#FFFFFF" stroke-width="1">
  <title>VolSnap DOWN (59¢)</title>
</circle>
</svg>