<svg width="340" height="190" xmlns="http://www.w3.org/2000/svg">
<rect width="100%" height="100%" fill="#121212" />
<line x1="20" y1="139" x2="320" y2="139" stroke="#232323" stroke-width="1" />
<line x1="20" y1="109" x2="320" y2="109" stroke="#232323" stroke-width="1" />
<line x1="20" y1="94" x2="320" y2="94" stroke="#3C3C3C" stroke-width="1" />
<line x1="20" y1="79" x2="320" y2="79" stroke="#232323" stroke-width="1" />
<line x1="20" y1="49" x2="320" y2="49" stroke="#232323" stroke-width="1" />
<line x1="169" y1="20" x2="169" y2="170" stroke="#232323" stroke-width="1" />
<polyline points="20,89 22,89 25,93 28,93 31,95 34,97 37,99 40,94 43,93 46,90 49,90 52,98 55,94 58,89 61,84 64,84 67,80 70,80 73,86 76,87 79,86 82,87 85,89 88,92 91,92 94,93 97,91 100,84 103,70 106,70 109,65 112,58 115,58 118,60 121,63 124,60 127,60 130,64 133,67 136,72 139,74 142,72 145,67 148,66 151,65 154,63 157,68 160,72 163,71 166,66 169,62 172,49 175,51 178,49 181,46 184,46 187,44 190,43 193,36 196,46 199,42 202,47 205,37 208,37 211,37 214,41 217,41 220,41 223,41 226,35 229,34 232,39 235,38 238,38 241,32 244,31 247,30 250,29 253,31 256,28 259,28 262,28 265,31 268,32 271,30 274,29 277,31 280,34 283,43 286,40 289,36 292,39 295,46 298,54 301,53 304,62 307,64 310,71 313,57 316,86" fill="none" stroke="#FFFF00" stroke-width="2" stroke-linejoin="round" />
<circle cx="128" cy="61" r="4" fill="#00FF00" stroke="#FFFFFF" stroke-width="1">
  <title>Nitro UP (72¢)</title>
</circle>
</svg>