<svg width="340" height="190" xmlns="http://www.w3.org/2000/svg">
<rect width="100%" height="100%" fill="#121212" />
<line x1="20" y1="139" x2="320" y2="139" stroke="#232323" stroke-width="1" />
<line x1="20" y1="109" x2="320" y2="109" stroke="#232323" stroke-width="1" />
<line x1="20" y1="94" x2="320" y2="94" stroke="#3C3C3C" stroke-width="1" />
<line x1="20" y1="79" x2="320" y2="79" stroke="#232323" stroke-width="1" />
<line x1="20" y1="49" x2="320" y2="49" stroke="#232323" stroke-width="1" />
<line x1="169" y1="20" x2="169" y2="170" stroke="#232323" stroke-width="1" />
<polyline points="20,74 20,74 23,72 26,77 29,80 32,87 35,89 38,85 41,86 44,82 47,85 50,84 53,76 56,75 59,78 62,77 65,81 68,87 71,89 74,88 77,87 80,87 83,87 86,94 89,95 92,95 95,101 98,105 101,105 104,105 107,104 110,101 113,98 116,96 119,99 122,99 125,103 128,110 131,105 134,102 137,102 140,104 143,116 146,119 149,123 152,122 155,100 158,87 161,96 164,96 167,96 170,90 173,92 176,92 179,95 182,95 185,95 188,92 191,89 194,89 197,92 200,97 203,82 206,57 209,61 212,60 215,62 218,68 221,64 224,55 227,74 230,65 233,77 236,94 239,102 242,113 245,87 248,78 251,78 254,78 257,78 260,77 263,75 266,77 269,64 272,53 275,51 278,48 281,58 284,46 287,49 290,54 293,43 296,71 299,92 302,93 305,98 308,97 311,97 314,84 317,160" fill="none" stroke="#FFFF00" stroke-width="2" stroke-linejoin="round" />
<circle cx="208" cy="54" r="4" fill="#00FF00" stroke="#FFFFFF" stroke-width="1">
  <title>VolSnap UP (77¢)</title>
</circle>
</svg>