<svg width="340" height="190" xmlns="http://www.w3.org/2000/svg">
<rect width="100%" height="100%" fill="#121212" />
<line x1="20" y1="139" x2="320" y2="139" stroke="#232323" stroke-width="1" />
<line x1="20" y1="109" x2="320" y2="109" stroke="#232323" stroke-width="1" />
<line x1="20" y1="94" x2="320" y2="94" stroke="#3C3C3C" stroke-width="1" />
<line x1="20" y1="79" x2="320" y2="79" stroke="#232323" stroke-width="1" />
<line x1="20" y1="49" x2="320" y2="49" stroke="#232323" stroke-width="1" />
<line x1="169" y1="20" x2="169" y2="170" stroke="#232323" stroke-width="1" />
<polyline points="20,93 21,93 24,94 27,102 30,101 33,98 36,97 39,98 42,97 45,108 48,99 51,94 54,84 57,81 60,81 63,84 66,84 69,84 72,84 75,84 78,77 81,78 84,81 87,84 90,90 93,101 96,95 99,99 102,96 105,105 108,116 111,118 114,121 117,127 120,130 123,131 126,134 129,136 132,136 135,133 138,136 141,132 144,132 147,136 150,138 153,139 156,136 159,134 162,122 165,125 168,127 171,129 174,138 177,141 180,139 183,120 186,119 189,122 192,121 195,121 198,122 201,118 204,119 207,110 210,109 213,108 216,105 219,103 222,104 225,95 228,93 231,95 234,96 237,97 240,96 243,102 246,104 249,105 252,105 255,107 258,107 261,107 264,104 267,88 270,81 273,80 276,81 279,85 282,90 285,92 288,104 291,96 294,95 297,98 300,101 303,110 306,125 309,121 312,135 315,145 318,167" fill="none" stroke="#FFFF00" stroke-width="2" stroke-linejoin="round" />
<circle cx="79" cy="78" r="4" fill="#00FF00" stroke="#FFFFFF" stroke-width="1">
  <title>WCP UP (61¢)</title>
</circle>
<circle cx="109" cy="73" r="4" fill="#FF0000" stroke="#FFFFFF" stroke-width="1">
  <title>VolSnap DOWN (64¢)</title>
</circle>
<circle cx="133" cy="54" r="4" fill="#FF0000" stroke="#FFFFFF" stroke-width="1">
  <title>Nitro DOWN (77¢)</title>
</circle>
</svg>