<svg width="340" height="190" xmlns="http://www.w3.org/2000/svg">
<rect width="100%" height="100%" fill="#121212" />
<line x1="20" y1="139" x2="320" y2="139" stroke="#232323" stroke-width="1" />
<line x1="20" y1="109" x2="320" y2="109" stroke="#232323" stroke-width="1" />
<line x1="20" y1="94" x2="320" y2="94" stroke="#3C3C3C" stroke-width="1" />
<line x1="20" y1="79" x2="320" y2="79" stroke="#232323" stroke-width="1" />
<line x1="20" y1="49" x2="320" y2="49" stroke="#232323" stroke-width="1" />
<line x1="169" y1="20" x2="169" y2="170" stroke="#232323" stroke-width="1" />
<polyline points="20,92 22,74 25,69 28,81 31,82 34,70 37,72 40,74 43,87 46,92 49,95 52,95 55,93 59,88 66,91 69,89 72,91 75,90 78,93 81,77 84,86 87,90 90,90 93,103 96,108 99,104 102,105 105,105 108,105 111,105 114,107 117,107 120,105 123,92 126,96 129,95 132,95 135,92 138,102 141,97 144,90 147,82 150,78 153,76 156,77 159,64 162,61 165,63 168,75 171,90 174,84 177,80 180,81 183,81 186,81 189,75 192,62 195,67 198,73 201,87 204,86 207,77 210,77 213,79 216,83 219,83 222,83 225,75 228,62 231,75 234,78 237,81 240,83 243,78 246,84 249,83 252,83 255,84 258,83 261,72 264,69 267,69 270,53 276,58 282,61 285,57 290,55 295,49 300,44 308,37 315,132" fill="none" stroke="#FFFF00" stroke-width="2" stroke-linejoin="round" />
<circle cx="82" cy="78" r="4" fill="#00FF00" stroke="#FFFFFF" stroke-width="1">
  <title>VolSnap UP (61¢)</title>
</circle>
</svg>