<svg width="340" height="190" xmlns="http://www.w3.org/2000/svg">
<rect width="100%" height="100%" fill="#121212" />
<line x1="20" y1="139" x2="320" y2="139" stroke="#232323" stroke-width="1" />
<line x1="20" y1="109" x2="320" y2="109" stroke="#232323" stroke-width="1" />
<line x1="20" y1="94" x2="320" y2="94" stroke="#3C3C3C" stroke-width="1" />
<line x1="20" y1="79" x2="320" y2="79" stroke="#232323" stroke-width="1" />
<line x1="20" y1="49" x2="320" y2="49" stroke="#232323" stroke-width="1" />
<line x1="169" y1="20" x2="169" y2="170" stroke="#232323" stroke-width="1" />
<polyline points="20,93 21,93 24,110 27,101 30,89 33,87 36,86 39,82 42,87 45,86 48,85 51,87 54,89 57,72 60,68 63,70 66,75 69,77 72,66 75,65 78,69 81,75 84,75 87,85 90,92 93,88 96,105 99,108 102,102 105,100 108,104 111,97 114,95 117,90 120,90 123,90 126,72 129,69 132,71 135,71 138,70 141,62 144,70 147,61 150,71 153,73 156,73 159,65 162,72 165,74 168,74 171,77 174,62 177,66 180,66 183,57 186,58 189,57 192,44 195,50 198,50 201,53 204,56 207,55 210,54 213,55 216,60 219,59 222,57 225,53 228,53 231,59 234,59 237,56 240,57 243,65 246,53 249,51 252,51 255,49 258,65 261,67 264,78 267,80 270,81 273,74 276,75 279,62 282,54 285,62 288,72 291,54 294,41 297,34 300,33 303,30 306,26 309,40 312,61 315,43 318,20" fill="none" stroke="#FFFF00" stroke-width="2" stroke-linejoin="round" />
<circle cx="100" cy="79" r="4" fill="#FF0000" stroke="#FFFFFF" stroke-width="1">
  <title>VolSnap DOWN (60¢)</title>
</circle>
</svg>